<svg width="279" height="18" viewBox="0 0 279 18" fill="none" xmlns="http://www.w3.org/2000/svg">
<path opacity="0.6" d="M8.96034 6V0.376H10.9043C11.411 0.376 11.827 0.530667 12.1523 0.84C12.4777 1.14933 12.6403 1.56 12.6403 2.072C12.6403 2.58933 12.4777 3.00533 12.1523 3.32C11.827 3.63467 11.411 3.792 10.9043 3.792H9.51234V6H8.96034ZM9.51234 3.296H10.8323C11.211 3.296 11.5123 3.18667 11.7363 2.968C11.9603 2.74933 12.0723 2.45067 12.0723 2.072C12.0723 1.69867 11.9603 1.40533 11.7363 1.192C11.5177 0.978666 11.219 0.872 10.8403 0.872H9.51234V3.296ZM13.169 3.992C13.169 3.352 13.3583 2.84 13.737 2.456C14.121 2.072 14.5956 1.88 15.161 1.88C15.6943 1.88 16.1076 2.05867 16.401 2.416C16.6943 2.768 16.841 3.208 16.841 3.736C16.841 3.8 16.8356 3.89067 16.825 4.008H13.737C13.7476 4.504 13.9023 4.89333 14.201 5.176C14.4996 5.45867 14.865 5.6 15.297 5.6C15.761 5.6 16.169 5.44 16.521 5.12L16.769 5.536C16.5823 5.70667 16.353 5.84267 16.081 5.944C15.8143 6.04533 15.5476 6.096 15.281 6.096C14.6783 6.096 14.1743 5.89867 13.769 5.504C13.369 5.10933 13.169 4.60533 13.169 3.992ZM13.761 3.576H16.289C16.273 3.176 16.1583 2.86933 15.945 2.656C15.7316 2.43733 15.465 2.328 15.145 2.328C14.7983 2.328 14.497 2.43733 14.241 2.656C13.985 2.87467 13.825 3.18133 13.761 3.576ZM17.8628 6V1.976H18.4068V3.68H19.0468L20.2548 1.976H20.8948L19.4948 3.888V3.904L21.0548 6H20.3908L19.0548 4.16H18.4068V6H17.8628ZM21.3358 6.032V5.544C21.6664 5.49067 21.9091 5.27467 22.0638 4.896C22.2184 4.512 22.2958 3.944 22.2958 3.192V1.976H24.7598V6H24.2158V2.448H22.8238V3.192C22.8238 4.14133 22.7038 4.84267 22.4638 5.296C22.2291 5.744 21.8531 5.98933 21.3358 6.032ZM25.714 4.92C25.714 3.98667 26.53 3.52 28.162 3.52H28.402V3.408C28.402 2.71467 28.0713 2.368 27.41 2.368C26.9993 2.368 26.618 2.496 26.266 2.752L26.018 2.336C26.178 2.19733 26.3886 2.088 26.65 2.008C26.9113 1.92267 27.1753 1.88 27.442 1.88C27.9273 1.88 28.298 2.01333 28.554 2.28C28.8153 2.54133 28.946 2.92267 28.946 3.424V6H28.426V5.528L28.45 5.192H28.434C28.322 5.448 28.1433 5.664 27.898 5.84C27.658 6.01067 27.3833 6.096 27.074 6.096C26.706 6.096 26.386 5.992 26.114 5.784C25.8473 5.576 25.714 5.288 25.714 4.92ZM26.266 4.872C26.266 5.07467 26.346 5.25333 26.506 5.408C26.666 5.56267 26.8873 5.64 27.17 5.64C27.538 5.64 27.834 5.48533 28.058 5.176C28.2873 4.86667 28.402 4.52 28.402 4.136V3.952H28.17C27.9993 3.952 27.85 3.95467 27.722 3.96C27.5993 3.96533 27.4366 3.98667 27.234 4.024C27.0366 4.056 26.874 4.10133 26.746 4.16C26.618 4.21867 26.506 4.30933 26.41 4.432C26.314 4.55467 26.266 4.70133 26.266 4.872ZM30.0468 6L30.3748 1.976H30.9508L32.1588 4.456L32.4068 5.024H32.4228C32.5081 4.816 32.5908 4.62667 32.6708 4.456L33.8868 1.976H34.4548L34.7908 6H34.2548L34.0548 3.4V2.704H34.0388C33.9801 2.87467 33.8948 3.06933 33.7828 3.288L32.6628 5.536H32.1668L31.0548 3.304L30.7908 2.704H30.7748C30.7854 3.024 30.7854 3.256 30.7748 3.4L30.5748 6H30.0468ZM35.5812 4.92C35.5812 3.98667 36.3972 3.52 38.0292 3.52H38.2692V3.408C38.2692 2.71467 37.9385 2.368 37.2772 2.368C36.8665 2.368 36.4852 2.496 36.1332 2.752L35.8852 2.336C36.0452 2.19733 36.2558 2.088 36.5172 2.008C36.7785 1.92267 37.0425 1.88 37.3092 1.88C37.7945 1.88 38.1652 2.01333 38.4212 2.28C38.6825 2.54133 38.8132 2.92267 38.8132 3.424V6H38.2932V5.528L38.3172 5.192H38.3012C38.1892 5.448 38.0105 5.664 37.7652 5.84C37.5252 6.01067 37.2505 6.096 36.9412 6.096C36.5732 6.096 36.2532 5.992 35.9812 5.784C35.7145 5.576 35.5812 5.288 35.5812 4.92ZM36.1332 4.872C36.1332 5.07467 36.2132 5.25333 36.3732 5.408C36.5332 5.56267 36.7545 5.64 37.0372 5.64C37.4052 5.64 37.7012 5.48533 37.9252 5.176C38.1545 4.86667 38.2692 4.52 38.2692 4.136V3.952H38.0372C37.8665 3.952 37.7172 3.95467 37.5892 3.96C37.4665 3.96533 37.3038 3.98667 37.1012 4.024C36.9038 4.056 36.7412 4.10133 36.6132 4.16C36.4852 4.21867 36.3732 4.30933 36.2772 4.432C36.1812 4.55467 36.1332 4.70133 36.1332 4.872ZM40.01 6V5.336H40.666V6H40.01ZM44.0697 6V0.376H46.0137C46.5204 0.376 46.9364 0.530667 47.2617 0.84C47.5871 1.14933 47.7497 1.56 47.7497 2.072C47.7497 2.58933 47.5871 3.00533 47.2617 3.32C46.9364 3.63467 46.5204 3.792 46.0137 3.792H44.6217V6H44.0697ZM44.6217 3.296H45.9417C46.3204 3.296 46.6217 3.18667 46.8457 2.968C47.0697 2.74933 47.1817 2.45067 47.1817 2.072C47.1817 1.69867 47.0697 1.40533 46.8457 1.192C46.6271 0.978666 46.3284 0.872 45.9497 0.872H44.6217V3.296ZM48.2783 3.992C48.2783 3.352 48.4677 2.84 48.8463 2.456C49.2303 2.072 49.705 1.88 50.2703 1.88C50.8037 1.88 51.217 2.05867 51.5103 2.416C51.8037 2.768 51.9503 3.208 51.9503 3.736C51.9503 3.8 51.945 3.89067 51.9343 4.008H48.8463C48.857 4.504 49.0117 4.89333 49.3103 5.176C49.609 5.45867 49.9743 5.6 50.4063 5.6C50.8703 5.6 51.2783 5.44 51.6303 5.12L51.8783 5.536C51.6917 5.70667 51.4623 5.84267 51.1903 5.944C50.9237 6.04533 50.657 6.096 50.3903 6.096C49.7877 6.096 49.2837 5.89867 48.8783 5.504C48.4783 5.10933 48.2783 4.60533 48.2783 3.992ZM48.8703 3.576H51.3983C51.3823 3.176 51.2677 2.86933 51.0543 2.656C50.841 2.43733 50.5743 2.328 50.2543 2.328C49.9077 2.328 49.6063 2.43733 49.3503 2.656C49.0943 2.87467 48.9343 3.18133 48.8703 3.576ZM52.9722 6V1.976H53.5162V3.68H54.1562L55.3642 1.976H56.0042L54.6042 3.888V3.904L56.1642 6H55.5002L54.1642 4.16H53.5162V6H52.9722ZM56.4452 6.032V5.544C56.7758 5.49067 57.0185 5.27467 57.1732 4.896C57.3278 4.512 57.4052 3.944 57.4052 3.192V1.976H59.8692V6H59.3252V2.448H57.9332V3.192C57.9332 4.14133 57.8132 4.84267 57.5732 5.296C57.3385 5.744 56.9625 5.98933 56.4452 6.032ZM60.8233 4.92C60.8233 3.98667 61.6393 3.52 63.2713 3.52H63.5113V3.408C63.5113 2.71467 63.1807 2.368 62.5193 2.368C62.1087 2.368 61.7273 2.496 61.3753 2.752L61.1273 2.336C61.2873 2.19733 61.498 2.088 61.7593 2.008C62.0207 1.92267 62.2847 1.88 62.5513 1.88C63.0367 1.88 63.4073 2.01333 63.6633 2.28C63.9247 2.54133 64.0553 2.92267 64.0553 3.424V6H63.5353V5.528L63.5593 5.192H63.5433C63.4313 5.448 63.2527 5.664 63.0073 5.84C62.7673 6.01067 62.4927 6.096 62.1833 6.096C61.8153 6.096 61.4953 5.992 61.2233 5.784C60.9567 5.576 60.8233 5.288 60.8233 4.92ZM61.3753 4.872C61.3753 5.07467 61.4553 5.25333 61.6153 5.408C61.7753 5.56267 61.9967 5.64 62.2793 5.64C62.6473 5.64 62.9433 5.48533 63.1673 5.176C63.3967 4.86667 63.5113 4.52 63.5113 4.136V3.952H63.2793C63.1087 3.952 62.9593 3.95467 62.8313 3.96C62.7087 3.96533 62.546 3.98667 62.3433 4.024C62.146 4.056 61.9833 4.10133 61.8553 4.16C61.7273 4.21867 61.6153 4.30933 61.5193 4.432C61.4233 4.55467 61.3753 4.70133 61.3753 4.872ZM65.1562 6L65.4842 1.976H66.0602L67.2682 4.456L67.5162 5.024H67.5322C67.6175 4.816 67.7002 4.62667 67.7802 4.456L68.9962 1.976H69.5642L69.9002 6H69.3642L69.1642 3.4V2.704H69.1482C69.0895 2.87467 69.0042 3.06933 68.8922 3.288L67.7722 5.536H67.2762L66.1642 3.304L65.9002 2.704H65.8842C65.8948 3.024 65.8948 3.256 65.8842 3.4L65.6842 6H65.1562ZM70.7705 3.968C70.7705 3.376 70.9759 2.88 71.3865 2.48C71.7972 2.08 72.2985 1.88 72.8905 1.88C73.4825 1.88 73.9839 2.08 74.3945 2.48C74.8105 2.88 75.0185 3.376 75.0185 3.968C75.0185 4.57067 74.8105 5.07733 74.3945 5.488C73.9839 5.89333 73.4825 6.096 72.8905 6.096C72.2985 6.096 71.7972 5.89333 71.3865 5.488C70.9759 5.07733 70.7705 4.57067 70.7705 3.968ZM71.3305 3.968C71.3305 4.43733 71.4799 4.82667 71.7785 5.136C72.0825 5.44533 72.4532 5.6 72.8905 5.6C73.3279 5.6 73.6985 5.44533 74.0025 5.136C74.3065 4.82667 74.4585 4.43733 74.4585 3.968C74.4585 3.51467 74.3065 3.136 74.0025 2.832C73.6985 2.52267 73.3279 2.368 72.8905 2.368C72.4532 2.368 72.0825 2.52267 71.7785 2.832C71.4799 3.136 71.3305 3.51467 71.3305 3.968ZM76.4453 5.536H78.5093V2.44H77.1013V2.68C77.1013 3.92267 76.8827 4.87467 76.4453 5.536ZM75.3653 5.536H75.8613C76.3307 4.92267 76.5653 3.95467 76.5653 2.632V1.976H79.0533V5.536H79.6213V6.96H79.1013V6H75.8853V6.96H75.3653V5.536ZM80.1515 4.92C80.1515 3.98667 80.9675 3.52 82.5995 3.52H82.8395V3.408C82.8395 2.71467 82.5088 2.368 81.8475 2.368C81.4368 2.368 81.0555 2.496 80.7035 2.752L80.4555 2.336C80.6155 2.19733 80.8261 2.088 81.0875 2.008C81.3488 1.92267 81.6128 1.88 81.8795 1.88C82.3648 1.88 82.7355 2.01333 82.9915 2.28C83.2528 2.54133 83.3835 2.92267 83.3835 3.424V6H82.8635V5.528L82.8875 5.192H82.8715C82.7595 5.448 82.5808 5.664 82.3355 5.84C82.0955 6.01067 81.8208 6.096 81.5115 6.096C81.1435 6.096 80.8235 5.992 80.5515 5.784C80.2848 5.576 80.1515 5.288 80.1515 4.92ZM80.7035 4.872C80.7035 5.07467 80.7835 5.25333 80.9435 5.408C81.1035 5.56267 81.3248 5.64 81.6075 5.64C81.9755 5.64 82.2715 5.48533 82.4955 5.176C82.7248 4.86667 82.8395 4.52 82.8395 4.136V3.952H82.6075C82.4368 3.952 82.2875 3.95467 82.1595 3.96C82.0368 3.96533 81.8741 3.98667 81.6715 4.024C81.4741 4.056 81.3115 4.10133 81.1835 4.16C81.0555 4.21867 80.9435 4.30933 80.8475 4.432C80.7515 4.55467 80.7035 4.70133 80.7035 4.872ZM85.566 6V2.456H84.102V1.976H87.582V2.456H86.11V6H85.566ZM87.9737 3.992C87.9737 3.352 88.163 2.84 88.5417 2.456C88.9257 2.072 89.4003 1.88 89.9657 1.88C90.499 1.88 90.9123 2.05867 91.2057 2.416C91.499 2.768 91.6457 3.208 91.6457 3.736C91.6457 3.8 91.6403 3.89067 91.6297 4.008H88.5417C88.5523 4.504 88.707 4.89333 89.0057 5.176C89.3043 5.45867 89.6697 5.6 90.1017 5.6C90.5657 5.6 90.9737 5.44 91.3257 5.12L91.5737 5.536C91.387 5.70667 91.1577 5.84267 90.8857 5.944C90.619 6.04533 90.3523 6.096 90.0857 6.096C89.483 6.096 88.979 5.89867 88.5737 5.504C88.1737 5.10933 87.9737 4.60533 87.9737 3.992ZM88.5657 3.576H91.0937C91.0777 3.176 90.963 2.86933 90.7497 2.656C90.5363 2.43733 90.2697 2.328 89.9497 2.328C89.603 2.328 89.3017 2.43733 89.0457 2.656C88.7897 2.87467 88.6297 3.18133 88.5657 3.576ZM92.1795 6.032V5.544C92.5102 5.49067 92.7529 5.27467 92.9075 4.896C93.0622 4.512 93.1395 3.944 93.1395 3.192V1.976H95.6035V6H95.0595V2.448H93.6675V3.192C93.6675 4.14133 93.5475 4.84267 93.3075 5.296C93.0729 5.744 92.6969 5.98933 92.1795 6.032ZM96.9097 6V1.976H97.4537V3.512H98.3257C98.7311 3.512 99.0671 3.61067 99.3337 3.808C99.6004 4.00533 99.7337 4.32533 99.7337 4.768C99.7337 5.14667 99.6137 5.448 99.3737 5.672C99.1337 5.89067 98.7791 6 98.3097 6H96.9097ZM97.4537 5.568H98.2617C98.8697 5.568 99.1737 5.29867 99.1737 4.76C99.1737 4.504 99.0991 4.304 98.9497 4.16C98.8004 4.016 98.5737 3.944 98.2697 3.944H97.4537V5.568ZM100.596 6V5.336H101.252V6H100.596ZM104.28 3.144C104.28 2.344 104.557 1.66667 105.112 1.112C105.666 0.557333 106.344 0.28 107.144 0.28C107.944 0.28 108.621 0.557333 109.176 1.112C109.73 1.66133 110.008 2.33867 110.008 3.144C110.008 3.97067 109.73 4.66933 109.176 5.24C108.621 5.81067 107.944 6.096 107.144 6.096C106.344 6.096 105.666 5.81067 105.112 5.24C104.557 4.66933 104.28 3.97067 104.28 3.144ZM104.856 3.144C104.856 3.82667 105.077 4.40267 105.52 4.872C105.968 5.34133 106.509 5.576 107.144 5.576C107.784 5.576 108.325 5.34133 108.768 4.872C109.21 4.40267 109.432 3.82667 109.432 3.144C109.432 2.48267 109.21 1.928 108.768 1.48C108.325 1.02667 107.784 0.8 107.144 0.8C106.509 0.8 105.968 1.02667 105.52 1.48C105.077 1.928 104.856 2.48267 104.856 3.144ZM110.881 3.144C110.881 2.344 111.159 1.66667 111.713 1.112C112.268 0.557333 112.945 0.28 113.745 0.28C114.545 0.28 115.223 0.557333 115.777 1.112C116.332 1.66133 116.609 2.33867 116.609 3.144C116.609 3.97067 116.332 4.66933 115.777 5.24C115.223 5.81067 114.545 6.096 113.745 6.096C112.945 6.096 112.268 5.81067 111.713 5.24C111.159 4.66933 110.881 3.97067 110.881 3.144ZM111.457 3.144C111.457 3.82667 111.679 4.40267 112.121 4.872C112.569 5.34133 113.111 5.576 113.745 5.576C114.385 5.576 114.927 5.34133 115.369 4.872C115.812 4.40267 116.033 3.82667 116.033 3.144C116.033 2.48267 115.812 1.928 115.369 1.48C114.927 1.02667 114.385 0.8 113.745 0.8C113.111 0.8 112.569 1.02667 112.121 1.48C111.679 1.928 111.457 2.48267 111.457 3.144ZM117.483 3.144C117.483 2.344 117.76 1.66667 118.315 1.112C118.869 0.557333 119.547 0.28 120.347 0.28C121.147 0.28 121.824 0.557333 122.379 1.112C122.933 1.66133 123.211 2.33867 123.211 3.144C123.211 3.97067 122.933 4.66933 122.379 5.24C121.824 5.81067 121.147 6.096 120.347 6.096C119.547 6.096 118.869 5.81067 118.315 5.24C117.76 4.66933 117.483 3.97067 117.483 3.144ZM118.059 3.144C118.059 3.82667 118.28 4.40267 118.723 4.872C119.171 5.34133 119.712 5.576 120.347 5.576C120.987 5.576 121.528 5.34133 121.971 4.872C122.413 4.40267 122.635 3.82667 122.635 3.144C122.635 2.48267 122.413 1.928 121.971 1.48C121.528 1.02667 120.987 0.8 120.347 0.8C119.712 0.8 119.171 1.02667 118.723 1.48C118.28 1.928 118.059 2.48267 118.059 3.144ZM127.492 3.744L128.804 2.096H129.396L128.084 3.744L129.396 5.384H128.804L127.492 3.744ZM127.364 5.384L126.052 3.744L127.364 2.096H127.956L126.644 3.744L127.956 5.384H127.364ZM130.455 6L130.903 0.376H131.471L132.951 3.68L133.223 4.368H133.239C133.335 4.10133 133.426 3.872 133.511 3.68L134.991 0.376H135.559L136.007 6H135.455L135.143 2.064L135.127 1.28H135.111C134.999 1.61067 134.901 1.872 134.815 2.064L133.487 4.952H132.975L131.655 2.064L131.351 1.264H131.335C131.341 1.59467 131.335 1.86133 131.319 2.064L131.007 6H130.455ZM136.894 4.92C136.894 3.98667 137.71 3.52 139.342 3.52H139.582V3.408C139.582 2.71467 139.251 2.368 138.59 2.368C138.179 2.368 137.798 2.496 137.446 2.752L137.198 2.336C137.358 2.19733 137.568 2.088 137.83 2.008C138.091 1.92267 138.355 1.88 138.622 1.88C139.107 1.88 139.478 2.01333 139.734 2.28C139.995 2.54133 140.126 2.92267 140.126 3.424V6H139.606V5.528L139.63 5.192H139.614C139.502 5.448 139.323 5.664 139.078 5.84C138.838 6.01067 138.563 6.096 138.254 6.096C137.886 6.096 137.566 5.992 137.294 5.784C137.027 5.576 136.894 5.288 136.894 4.92ZM137.446 4.872C137.446 5.07467 137.526 5.25333 137.686 5.408C137.846 5.56267 138.067 5.64 138.35 5.64C138.718 5.64 139.014 5.48533 139.238 5.176C139.467 4.86667 139.582 4.52 139.582 4.136V3.952H139.35C139.179 3.952 139.03 3.95467 138.902 3.96C138.779 3.96533 138.616 3.98667 138.414 4.024C138.216 4.056 138.054 4.10133 137.926 4.16C137.798 4.21867 137.686 4.30933 137.59 4.432C137.494 4.55467 137.446 4.70133 137.446 4.872ZM143.834 1.192C143.626 1.36267 143.378 1.448 143.09 1.448C142.802 1.448 142.554 1.36267 142.346 1.192C142.138 1.02133 142.034 0.792 142.034 0.504V0.368H142.506V0.488C142.506 0.658667 142.562 0.794667 142.674 0.896C142.792 0.992 142.93 1.04 143.09 1.04C143.25 1.04 143.389 0.992 143.506 0.896C143.624 0.794667 143.682 0.656 143.682 0.48V0.368H144.146V0.504C144.146 0.792 144.042 1.02133 143.834 1.192ZM141.378 6V1.976H141.906V4.616C141.906 4.984 141.898 5.184 141.882 5.216H141.898C141.92 5.17867 142.058 4.97867 142.314 4.616L144.29 1.976H144.81V6H144.274V3.352C144.274 3.28267 144.274 3.20267 144.274 3.112C144.28 3.02133 144.285 2.944 144.29 2.88C144.296 2.81067 144.298 2.77333 144.298 2.768H144.282C144.282 2.77867 144.258 2.816 144.21 2.88C144.168 2.944 144.109 3.024 144.034 3.12C143.965 3.216 143.912 3.29333 143.874 3.352L141.898 6H141.378ZM146.049 3.976V3.48H148.321V3.976H146.049ZM149.262 3.016C149.262 2.30133 149.505 1.73333 149.99 1.312C150.475 0.885333 151.115 0.672 151.91 0.672V-4.76837e-07H152.47V0.672C153.259 0.672 153.897 0.885333 154.382 1.312C154.873 1.73333 155.118 2.30133 155.118 3.016C155.118 3.736 154.875 4.30933 154.39 4.736C153.905 5.15733 153.265 5.368 152.47 5.368V6.096H151.91V5.368C151.115 5.368 150.475 5.15733 149.99 4.736C149.505 4.30933 149.262 3.736 149.262 3.016ZM152.47 4.896C153.11 4.896 153.617 4.73067 153.99 4.4C154.363 4.06933 154.55 3.608 154.55 3.016C154.55 2.42933 154.363 1.97333 153.99 1.648C153.617 1.31733 153.11 1.152 152.47 1.152V4.896ZM149.838 3.016C149.838 3.608 150.025 4.06933 150.398 4.4C150.771 4.73067 151.275 4.896 151.91 4.896V1.152C151.275 1.152 150.771 1.31733 150.398 1.648C150.025 1.97333 149.838 2.42933 149.838 3.016ZM155.833 7.008C155.982 7.13067 156.142 7.192 156.313 7.192C156.633 7.192 156.889 6.97333 157.081 6.536L157.321 5.96L155.649 1.976H156.249L157.425 4.912L157.577 5.336H157.593C157.63 5.18667 157.675 5.04533 157.729 4.912L158.889 1.976H159.473L157.489 6.84C157.382 7.10133 157.227 7.30667 157.025 7.456C156.827 7.60533 156.598 7.68 156.337 7.68C156.214 7.68 156.091 7.65867 155.969 7.616C155.851 7.57867 155.766 7.54133 155.713 7.504L155.625 7.44L155.833 7.008ZM160.563 5.536H162.627V2.44H161.219V2.68C161.219 3.92267 161 4.87467 160.563 5.536ZM159.483 5.536H159.979C160.448 4.92267 160.683 3.95467 160.683 2.632V1.976H163.171V5.536H163.739V6.96H163.219V6H160.003V6.96H159.483V5.536ZM164.302 3.992C164.302 3.37867 164.504 2.87467 164.91 2.48C165.315 2.08 165.816 1.88 166.414 1.88C166.691 1.88 166.963 1.93067 167.23 2.032C167.496 2.128 167.715 2.26933 167.886 2.456L167.606 2.864C167.462 2.71467 167.283 2.59467 167.07 2.504C166.862 2.41333 166.648 2.368 166.43 2.368C165.982 2.368 165.608 2.52 165.31 2.824C165.011 3.128 164.862 3.51733 164.862 3.992C164.862 4.46133 165.011 4.848 165.31 5.152C165.614 5.45067 165.992 5.6 166.446 5.6C166.68 5.6 166.915 5.552 167.15 5.456C167.384 5.35467 167.579 5.21867 167.734 5.048L167.982 5.456C167.806 5.65333 167.576 5.81067 167.294 5.928C167.016 6.04 166.723 6.096 166.414 6.096C165.811 6.096 165.307 5.90133 164.902 5.512C164.502 5.11733 164.302 4.61067 164.302 3.992ZM170.158 5.384L171.47 3.744L170.158 2.096H170.75L172.062 3.744L170.75 5.384H170.158ZM168.726 5.384L170.038 3.744L168.726 2.096H169.318L170.63 3.744L169.318 5.384H168.726ZM175.281 6V0.376H175.833V4.424L175.785 5.184H175.801C175.998 4.85333 176.161 4.59467 176.289 4.408L179.137 0.376H179.673V6H179.121V1.952L179.169 1.192H179.153C178.966 1.512 178.809 1.76533 178.681 1.952L175.817 6H175.281ZM181.288 6V0.376H181.84V2.936H185.096V0.376H185.656V6H185.096V3.432H181.84V6H181.288ZM187.265 6V0.376H187.817V2.936H191.073V0.376H191.633V6H191.073V3.432H187.817V6H187.265ZM195.258 6L197.53 1.392L197.834 0.872V0.856C197.743 0.866666 197.604 0.872 197.418 0.872H194.786V0.376H198.442V0.76L195.834 6H195.258ZM199.476 6L201.748 1.392L202.052 0.872V0.856C201.962 0.866666 201.823 0.872 201.636 0.872H199.004V0.376H202.66V0.76L200.052 6H199.476ZM203.367 6C203.346 5.82933 203.335 5.70933 203.335 5.64C203.335 5.37333 203.388 5.12533 203.495 4.896C203.602 4.66133 203.738 4.46133 203.903 4.296C204.074 4.12533 204.263 3.96533 204.471 3.816C204.679 3.66133 204.884 3.51467 205.087 3.376C205.295 3.23733 205.482 3.09867 205.647 2.96C205.818 2.816 205.956 2.65333 206.063 2.472C206.17 2.28533 206.223 2.09067 206.223 1.888C206.223 1.57333 206.114 1.31467 205.895 1.112C205.682 0.909333 205.402 0.808 205.055 0.808C204.799 0.808 204.559 0.88 204.335 1.024C204.116 1.16267 203.935 1.34667 203.791 1.576L203.383 1.296C203.548 0.997333 203.78 0.754666 204.079 0.568C204.383 0.376 204.719 0.28 205.087 0.28C205.604 0.28 206.018 0.429333 206.327 0.728C206.642 1.02667 206.799 1.40267 206.799 1.856C206.799 2.112 206.746 2.352 206.639 2.576C206.538 2.79467 206.402 2.98667 206.231 3.152C206.066 3.312 205.882 3.46667 205.679 3.616C205.476 3.76 205.274 3.90133 205.071 4.04C204.868 4.17333 204.682 4.312 204.511 4.456C204.346 4.59467 204.21 4.75467 204.103 4.936C203.996 5.112 203.943 5.30133 203.943 5.504H206.887V6H203.367ZM207.883 6C207.861 5.82933 207.851 5.70933 207.851 5.64C207.851 5.37333 207.904 5.12533 208.011 4.896C208.117 4.66133 208.253 4.46133 208.419 4.296C208.589 4.12533 208.779 3.96533 208.987 3.816C209.195 3.66133 209.4 3.51467 209.603 3.376C209.811 3.23733 209.997 3.09867 210.163 2.96C210.333 2.816 210.472 2.65333 210.579 2.472C210.685 2.28533 210.739 2.09067 210.739 1.888C210.739 1.57333 210.629 1.31467 210.411 1.112C210.197 0.909333 209.917 0.808 209.571 0.808C209.315 0.808 209.075 0.88 208.851 1.024C208.632 1.16267 208.451 1.34667 208.307 1.576L207.899 1.296C208.064 0.997333 208.296 0.754666 208.595 0.568C208.899 0.376 209.235 0.28 209.603 0.28C210.12 0.28 210.533 0.429333 210.843 0.728C211.157 1.02667 211.315 1.40267 211.315 1.856C211.315 2.112 211.261 2.352 211.155 2.576C211.053 2.79467 210.917 2.98667 210.747 3.152C210.581 3.312 210.397 3.46667 210.195 3.616C209.992 3.76 209.789 3.90133 209.587 4.04C209.384 4.17333 209.197 4.312 209.027 4.456C208.861 4.59467 208.725 4.75467 208.619 4.936C208.512 5.112 208.459 5.30133 208.459 5.504H211.403V6H207.883ZM212.374 4.416C212.374 4.20267 212.412 4.00267 212.486 3.816C212.561 3.624 212.657 3.46133 212.774 3.328C212.892 3.19467 212.993 3.09333 213.078 3.024C213.164 2.95467 213.246 2.89333 213.326 2.84C212.873 2.54133 212.646 2.168 212.646 1.72C212.646 1.32 212.796 0.981333 213.094 0.704C213.393 0.421333 213.812 0.28 214.35 0.28C214.868 0.28 215.284 0.416 215.598 0.688C215.913 0.954666 216.07 1.304 216.07 1.736C216.07 1.96533 216.017 2.2 215.91 2.44C215.804 2.67467 215.702 2.85067 215.606 2.968C215.516 3.08533 215.428 3.18667 215.342 3.272C215.876 3.58133 216.142 3.98133 216.142 4.472C216.142 4.92 215.966 5.304 215.614 5.624C215.262 5.93867 214.817 6.096 214.278 6.096C213.756 6.096 213.308 5.94133 212.934 5.632C212.561 5.31733 212.374 4.912 212.374 4.416ZM214.886 3.048C215.302 2.632 215.51 2.208 215.51 1.776C215.51 1.472 215.401 1.232 215.182 1.056C214.969 0.88 214.689 0.792 214.342 0.792C213.996 0.792 213.718 0.88 213.51 1.056C213.308 1.232 213.206 1.45067 213.206 1.712C213.206 1.82933 213.23 1.94133 213.278 2.048C213.332 2.14933 213.393 2.23467 213.462 2.304C213.532 2.37333 213.63 2.448 213.758 2.528C213.892 2.60267 214.004 2.66133 214.094 2.704C214.19 2.74667 214.324 2.80533 214.494 2.88C214.67 2.94933 214.801 3.00533 214.886 3.048ZM212.95 4.376C212.95 4.728 213.084 5.01867 213.35 5.248C213.617 5.472 213.924 5.584 214.27 5.584C214.612 5.584 214.913 5.48 215.174 5.272C215.441 5.05867 215.574 4.79467 215.574 4.48C215.574 4.336 215.54 4.20533 215.47 4.088C215.406 3.97067 215.302 3.864 215.158 3.768C215.02 3.672 214.889 3.59467 214.766 3.536C214.649 3.47733 214.481 3.40267 214.262 3.312C214.044 3.22133 213.881 3.14933 213.774 3.096C213.225 3.43733 212.95 3.864 212.95 4.376ZM217.156 3.464C217.156 3.096 217.204 2.73067 217.3 2.368C217.396 2.00533 217.54 1.66667 217.732 1.352C217.924 1.032 218.183 0.773333 218.508 0.576C218.833 0.378666 219.204 0.28 219.62 0.28C220.004 0.28 220.351 0.357333 220.66 0.512L220.452 1C220.228 0.872 219.951 0.808 219.62 0.808C219.081 0.808 218.649 1.032 218.324 1.48C218.004 1.92267 217.817 2.448 217.764 3.056H217.78C217.913 2.85867 218.111 2.70133 218.372 2.584C218.633 2.46133 218.911 2.4 219.204 2.4C219.716 2.4 220.135 2.57067 220.46 2.912C220.785 3.25333 220.948 3.696 220.948 4.24C220.948 4.79467 220.78 5.24267 220.444 5.584C220.108 5.92533 219.689 6.096 219.188 6.096C218.585 6.096 218.095 5.848 217.716 5.352C217.343 4.856 217.156 4.22667 217.156 3.464ZM219.22 5.576C219.567 5.576 219.847 5.45067 220.06 5.2C220.279 4.944 220.388 4.61867 220.388 4.224C220.388 3.81867 220.271 3.496 220.036 3.256C219.807 3.016 219.5 2.896 219.116 2.896C218.759 2.896 218.441 2.99467 218.164 3.192C217.892 3.384 217.756 3.62667 217.756 3.92C217.756 4.13333 217.807 4.36267 217.908 4.608C218.015 4.85333 218.185 5.07733 218.42 5.28C218.655 5.47733 218.921 5.576 219.22 5.576ZM223.835 6.096C223.152 6.096 222.659 5.832 222.355 5.304C222.051 4.776 221.899 4.06933 221.899 3.184C221.899 2.76267 221.931 2.384 221.995 2.048C222.064 1.70667 222.171 1.4 222.315 1.128C222.464 0.856 222.667 0.648 222.923 0.504C223.179 0.354666 223.483 0.28 223.835 0.28C224.304 0.28 224.688 0.413333 224.987 0.68C225.286 0.946667 225.491 1.288 225.603 1.704C225.72 2.12 225.779 2.61333 225.779 3.184C225.779 3.61067 225.744 3.99467 225.675 4.336C225.611 4.672 225.504 4.976 225.355 5.248C225.211 5.51467 225.011 5.72267 224.755 5.872C224.499 6.02133 224.192 6.096 223.835 6.096ZM223.835 5.576C224.176 5.576 224.451 5.46667 224.659 5.248C224.872 5.02933 225.016 4.752 225.091 4.416C225.166 4.08 225.203 3.66933 225.203 3.184C225.203 2.832 225.182 2.52 225.139 2.248C225.096 1.97067 225.024 1.72267 224.923 1.504C224.822 1.28 224.68 1.10933 224.499 0.992C224.318 0.869333 224.096 0.808 223.835 0.808C222.928 0.808 222.475 1.6 222.475 3.184C222.475 3.93067 222.576 4.51733 222.779 4.944C222.987 5.36533 223.339 5.576 223.835 5.576ZM226.741 5.304L227.101 4.912C227.399 5.344 227.821 5.56 228.365 5.56C228.759 5.56 229.09 5.43733 229.357 5.192C229.629 4.94133 229.765 4.62667 229.765 4.248C229.765 3.864 229.629 3.54667 229.357 3.296C229.085 3.04533 228.746 2.92 228.341 2.92C227.962 2.92 227.621 3.024 227.317 3.232L226.965 3.104L227.269 0.376H229.989V0.872H227.757L227.589 2.312L227.541 2.632H227.557C227.786 2.488 228.069 2.416 228.405 2.416C228.959 2.416 229.421 2.59467 229.789 2.952C230.157 3.304 230.341 3.736 230.341 4.248C230.341 4.76533 230.151 5.20267 229.773 5.56C229.399 5.91733 228.938 6.096 228.389 6.096C228.063 6.096 227.754 6.02667 227.461 5.888C227.167 5.74933 226.927 5.55467 226.741 5.304ZM231.242 6C231.221 5.82933 231.21 5.70933 231.21 5.64C231.21 5.37333 231.263 5.12533 231.37 4.896C231.477 4.66133 231.613 4.46133 231.778 4.296C231.949 4.12533 232.138 3.96533 232.346 3.816C232.554 3.66133 232.759 3.51467 232.962 3.376C233.17 3.23733 233.357 3.09867 233.522 2.96C233.693 2.816 233.831 2.65333 233.938 2.472C234.045 2.28533 234.098 2.09067 234.098 1.888C234.098 1.57333 233.989 1.31467 233.77 1.112C233.557 0.909333 233.277 0.808 232.93 0.808C232.674 0.808 232.434 0.88 232.21 1.024C231.991 1.16267 231.81 1.34667 231.666 1.576L231.258 1.296C231.423 0.997333 231.655 0.754666 231.954 0.568C232.258 0.376 232.594 0.28 232.962 0.28C233.479 0.28 233.893 0.429333 234.202 0.728C234.517 1.02667 234.674 1.40267 234.674 1.856C234.674 2.112 234.621 2.352 234.514 2.576C234.413 2.79467 234.277 2.98667 234.106 3.152C233.941 3.312 233.757 3.46667 233.554 3.616C233.351 3.76 233.149 3.90133 232.946 4.04C232.743 4.17333 232.557 4.312 232.386 4.456C232.221 4.59467 232.085 4.75467 231.978 4.936C231.871 5.112 231.818 5.30133 231.818 5.504H234.762V6H231.242ZM237.726 6.096C237.043 6.096 236.55 5.832 236.246 5.304C235.942 4.776 235.79 4.06933 235.79 3.184C235.79 2.76267 235.822 2.384 235.886 2.048C235.955 1.70667 236.062 1.4 236.206 1.128C236.355 0.856 236.558 0.648 236.814 0.504C237.07 0.354666 237.374 0.28 237.726 0.28C238.195 0.28 238.579 0.413333 238.878 0.68C239.176 0.946667 239.382 1.288 239.494 1.704C239.611 2.12 239.67 2.61333 239.67 3.184C239.67 3.61067 239.635 3.99467 239.566 4.336C239.502 4.672 239.395 4.976 239.246 5.248C239.102 5.51467 238.902 5.72267 238.646 5.872C238.39 6.02133 238.083 6.096 237.726 6.096ZM237.726 5.576C238.067 5.576 238.342 5.46667 238.55 5.248C238.763 5.02933 238.907 4.752 238.982 4.416C239.056 4.08 239.094 3.66933 239.094 3.184C239.094 2.832 239.072 2.52 239.03 2.248C238.987 1.97067 238.915 1.72267 238.814 1.504C238.712 1.28 238.571 1.10933 238.39 0.992C238.208 0.869333 237.987 0.808 237.726 0.808C236.819 0.808 236.366 1.6 236.366 3.184C236.366 3.93067 236.467 4.51733 236.67 4.944C236.878 5.36533 237.23 5.576 237.726 5.576ZM242.655 6V5.504H243.919V1.376L243.927 1.064H243.911C243.874 1.13867 243.781 1.25067 243.631 1.4L243.031 1.992L242.679 1.64L243.951 0.376H244.463V5.504H245.703V6H242.655ZM246.144 4.44V4.08L248.904 0.376H249.504V3.96H250.304V4.44H249.504V6H248.952V4.44H246.144ZM246.808 3.96H248.952V1.6L248.984 1.064H248.968C248.877 1.21867 248.784 1.36267 248.688 1.496L246.808 3.944V3.96ZM251.101 6V5.504H252.365V1.376L252.373 1.064H252.357C252.319 1.13867 252.226 1.25067 252.077 1.4L251.477 1.992L251.125 1.64L252.397 0.376H252.909V5.504H254.149V6H251.101ZM254.874 6V5.504H256.138V1.376L256.146 1.064H256.13C256.093 1.13867 255.999 1.25067 255.85 1.4L255.25 1.992L254.898 1.64L256.17 0.376H256.682V5.504H257.922V6H254.874ZM258.903 5.864L259.119 5.376C259.365 5.50933 259.637 5.576 259.935 5.576C260.309 5.576 260.634 5.46133 260.911 5.232C261.194 5.00267 261.405 4.72533 261.543 4.4C261.682 4.06933 261.77 3.70933 261.807 3.32H261.791C261.653 3.51733 261.453 3.67733 261.191 3.8C260.93 3.91733 260.655 3.976 260.367 3.976C259.85 3.976 259.429 3.808 259.103 3.472C258.778 3.13067 258.615 2.69067 258.615 2.152C258.615 1.58667 258.783 1.13333 259.119 0.792C259.455 0.450666 259.877 0.28 260.383 0.28C260.986 0.28 261.474 0.528 261.847 1.024C262.221 1.52 262.407 2.152 262.407 2.92C262.407 3.288 262.357 3.65333 262.255 4.016C262.159 4.37333 262.015 4.712 261.823 5.032C261.637 5.34667 261.378 5.60267 261.047 5.8C260.722 5.99733 260.351 6.096 259.935 6.096C259.562 6.096 259.218 6.01867 258.903 5.864ZM260.447 3.48C260.815 3.48 261.135 3.37867 261.407 3.176C261.679 2.97333 261.815 2.75467 261.815 2.52C261.815 2.11467 261.677 1.728 261.399 1.36C261.122 0.992 260.786 0.808 260.391 0.808C260.013 0.808 259.714 0.933333 259.495 1.184C259.282 1.43467 259.175 1.75733 259.175 2.152C259.175 2.552 259.29 2.87467 259.519 3.12C259.754 3.36 260.063 3.48 260.447 3.48ZM263.358 6V5.504H264.622V1.376L264.63 1.064H264.614C264.577 1.13867 264.484 1.25067 264.334 1.4L263.734 1.992L263.382 1.64L264.654 0.376H265.166V5.504H266.406V6H263.358ZM267.028 6.776L267.484 5.344H268.108L267.5 6.776H267.028ZM0.177938 16L0.625938 10.376H1.19394L2.67394 13.68L2.94594 14.368H2.96194C3.05794 14.1013 3.1486 13.872 3.23394 13.68L4.71394 10.376H5.28194L5.72994 16H5.17794L4.86594 12.064L4.84994 11.28H4.83394C4.72194 11.6107 4.62327 11.872 4.53794 12.064L3.20994 14.952H2.69794L1.37794 12.064L1.07394 11.264H1.05794C1.06327 11.5947 1.05794 11.8613 1.04194 12.064L0.729938 16H0.177938ZM6.64163 13.968C6.64163 13.376 6.84696 12.88 7.25763 12.48C7.66829 12.08 8.16963 11.88 8.76163 11.88C9.35363 11.88 9.85496 12.08 10.2656 12.48C10.6816 12.88 10.8896 13.376 10.8896 13.968C10.8896 14.5707 10.6816 15.0773 10.2656 15.488C9.85496 15.8933 9.35363 16.096 8.76163 16.096C8.16963 16.096 7.66829 15.8933 7.25763 15.488C6.84696 15.0773 6.64163 14.5707 6.64163 13.968ZM7.20163 13.968C7.20163 14.4373 7.35096 14.8267 7.64963 15.136C7.95363 15.4453 8.32429 15.6 8.76163 15.6C9.19896 15.6 9.56963 15.4453 9.87363 15.136C10.1776 14.8267 10.3296 14.4373 10.3296 13.968C10.3296 13.5147 10.1776 13.136 9.87363 12.832C9.56963 12.5227 9.19896 12.368 8.76163 12.368C8.32429 12.368 7.95363 12.5227 7.64963 12.832C7.35096 13.136 7.20163 13.5147 7.20163 13.968ZM11.6338 13.992C11.6338 13.3787 11.8365 12.8747 12.2418 12.48C12.6471 12.08 13.1485 11.88 13.7458 11.88C14.0231 11.88 14.2951 11.9307 14.5618 12.032C14.8285 12.128 15.0471 12.2693 15.2178 12.456L14.9378 12.864C14.7938 12.7147 14.6151 12.5947 14.4018 12.504C14.1938 12.4133 13.9805 12.368 13.7618 12.368C13.3138 12.368 12.9405 12.52 12.6418 12.824C12.3431 13.128 12.1938 13.5173 12.1938 13.992C12.1938 14.4613 12.3431 14.848 12.6418 15.152C12.9458 15.4507 13.3245 15.6 13.7778 15.6C14.0125 15.6 14.2471 15.552 14.4818 15.456C14.7165 15.3547 14.9111 15.2187 15.0658 15.048L15.3138 15.456C15.1378 15.6533 14.9085 15.8107 14.6258 15.928C14.3485 16.04 14.0551 16.096 13.7458 16.096C13.1431 16.096 12.6391 15.9013 12.2338 15.512C11.8338 15.1173 11.6338 14.6107 11.6338 13.992ZM16.2418 16V11.976H16.7858V13.68H17.4258L18.6338 11.976H19.2738L17.8738 13.888V13.904L19.4338 16H18.7698L17.4338 14.16H16.7858V16H16.2418ZM19.7588 13.968C19.7588 13.376 19.9641 12.88 20.3748 12.48C20.7855 12.08 21.2868 11.88 21.8788 11.88C22.4708 11.88 22.9721 12.08 23.3828 12.48C23.7988 12.88 24.0068 13.376 24.0068 13.968C24.0068 14.5707 23.7988 15.0773 23.3828 15.488C22.9721 15.8933 22.4708 16.096 21.8788 16.096C21.2868 16.096 20.7855 15.8933 20.3748 15.488C19.9641 15.0773 19.7588 14.5707 19.7588 13.968ZM20.3188 13.968C20.3188 14.4373 20.4681 14.8267 20.7668 15.136C21.0708 15.4453 21.4415 15.6 21.8788 15.6C22.3161 15.6 22.6868 15.4453 22.9908 15.136C23.2948 14.8267 23.4468 14.4373 23.4468 13.968C23.4468 13.5147 23.2948 13.136 22.9908 12.832C22.6868 12.5227 22.3161 12.368 21.8788 12.368C21.4415 12.368 21.0708 12.5227 20.7668 12.832C20.4681 13.136 20.3188 13.5147 20.3188 13.968ZM25.023 16V11.976H26.479C26.895 11.976 27.2203 12.0667 27.455 12.248C27.6897 12.424 27.807 12.6747 27.807 13C27.807 13.4427 27.6043 13.7387 27.199 13.888V13.904C27.455 13.9573 27.655 14.072 27.799 14.248C27.943 14.424 28.015 14.632 28.015 14.872C28.015 15.2187 27.8843 15.4933 27.623 15.696C27.367 15.8987 27.0123 16 26.559 16H25.023ZM25.567 13.72H26.423C26.6897 13.72 26.8923 13.6613 27.031 13.544C27.175 13.4213 27.247 13.2507 27.247 13.032C27.247 12.6053 26.9617 12.392 26.391 12.392H25.567V13.72ZM25.567 15.576H26.487C26.8123 15.576 27.055 15.5147 27.215 15.392C27.375 15.264 27.455 15.088 27.455 14.864C27.455 14.6293 27.3697 14.4507 27.199 14.328C27.0337 14.2 26.7937 14.136 26.479 14.136H25.567V15.576ZM28.7744 13.992C28.7744 13.3787 28.9771 12.8747 29.3824 12.48C29.7878 12.08 30.2891 11.88 30.8864 11.88C31.1638 11.88 31.4358 11.9307 31.7024 12.032C31.9691 12.128 32.1878 12.2693 32.3584 12.456L32.0784 12.864C31.9344 12.7147 31.7558 12.5947 31.5424 12.504C31.3344 12.4133 31.1211 12.368 30.9024 12.368C30.4544 12.368 30.0811 12.52 29.7824 12.824C29.4838 13.128 29.3344 13.5173 29.3344 13.992C29.3344 14.4613 29.4838 14.848 29.7824 15.152C30.0864 15.4507 30.4651 15.6 30.9184 15.6C31.1531 15.6 31.3878 15.552 31.6224 15.456C31.8571 15.3547 32.0518 15.2187 32.2064 15.048L32.4544 15.456C32.2784 15.6533 32.0491 15.8107 31.7664 15.928C31.4891 16.04 31.1958 16.096 30.8864 16.096C30.2838 16.096 29.7798 15.9013 29.3744 15.512C28.9744 15.1173 28.7744 14.6107 28.7744 13.992ZM33.3824 16V11.976H33.9264V13.68H34.5664L35.7744 11.976H36.4144L35.0144 13.888V13.904L36.5744 16H35.9104L34.5744 14.16H33.9264V16H33.3824ZM36.9444 14.92C36.9444 13.9867 37.7604 13.52 39.3924 13.52H39.6324V13.408C39.6324 12.7147 39.3018 12.368 38.6404 12.368C38.2298 12.368 37.8484 12.496 37.4964 12.752L37.2484 12.336C37.4084 12.1973 37.6191 12.088 37.8804 12.008C38.1418 11.9227 38.4058 11.88 38.6724 11.88C39.1578 11.88 39.5284 12.0133 39.7844 12.28C40.0458 12.5413 40.1764 12.9227 40.1764 13.424V16H39.6564V15.528L39.6804 15.192H39.6644C39.5524 15.448 39.3738 15.664 39.1284 15.84C38.8884 16.0107 38.6138 16.096 38.3044 16.096C37.9364 16.096 37.6164 15.992 37.3444 15.784C37.0778 15.576 36.9444 15.288 36.9444 14.92ZM37.4964 14.872C37.4964 15.0747 37.5764 15.2533 37.7364 15.408C37.8964 15.5627 38.1178 15.64 38.4004 15.64C38.7684 15.64 39.0644 15.4853 39.2884 15.176C39.5178 14.8667 39.6324 14.52 39.6324 14.136V13.952H39.4004C39.2298 13.952 39.0804 13.9547 38.9524 13.96C38.8298 13.9653 38.6671 13.9867 38.4644 14.024C38.2671 14.056 38.1044 14.1013 37.9764 14.16C37.8484 14.2187 37.7364 14.3093 37.6404 14.432C37.5444 14.5547 37.4964 14.7013 37.4964 14.872ZM41.0213 16L41.9893 14.616L42.1733 14.376V14.36C41.9173 14.3067 41.6986 14.1787 41.5173 13.976C41.3359 13.768 41.2453 13.5093 41.2453 13.2C41.2453 12.8053 41.3733 12.504 41.6293 12.296C41.8906 12.0827 42.2373 11.976 42.6693 11.976H44.0853V16H43.5413V14.456H42.7093L41.6533 16H41.0213ZM42.7333 14.032H43.5413V12.392H42.7733C42.1279 12.392 41.8053 12.6613 41.8053 13.2C41.8053 13.4613 41.8906 13.6667 42.0613 13.816C42.2373 13.96 42.4613 14.032 42.7333 14.032ZM47.1182 13.968C47.1182 13.376 47.3235 12.88 47.7342 12.48C48.1449 12.08 48.6462 11.88 49.2382 11.88C49.8302 11.88 50.3315 12.08 50.7422 12.48C51.1582 12.88 51.3662 13.376 51.3662 13.968C51.3662 14.5707 51.1582 15.0773 50.7422 15.488C50.3315 15.8933 49.8302 16.096 49.2382 16.096C48.6462 16.096 48.1449 15.8933 47.7342 15.488C47.3235 15.0773 47.1182 14.5707 47.1182 13.968ZM47.6782 13.968C47.6782 14.4373 47.8275 14.8267 48.1262 15.136C48.4302 15.4453 48.8009 15.6 49.2382 15.6C49.6755 15.6 50.0462 15.4453 50.3502 15.136C50.6542 14.8267 50.8062 14.4373 50.8062 13.968C50.8062 13.5147 50.6542 13.136 50.3502 12.832C50.0462 12.5227 49.6755 12.368 49.2382 12.368C48.8009 12.368 48.4302 12.5227 48.1262 12.832C47.8275 13.136 47.6782 13.5147 47.6782 13.968ZM52.2064 13.72C52.2064 12.9947 52.3237 12.4107 52.5584 11.968C52.793 11.5253 53.2277 11.16 53.8624 10.872L55.3504 10.176L55.5504 10.632L53.9984 11.344C53.5557 11.552 53.2357 11.8027 53.0384 12.096C52.8464 12.3893 52.737 12.7573 52.7104 13.2H52.7264C53.041 12.6347 53.5424 12.352 54.2304 12.352C54.7317 12.352 55.1397 12.52 55.4544 12.856C55.7744 13.1867 55.9344 13.6373 55.9344 14.208C55.9344 14.7627 55.7637 15.216 55.4224 15.568C55.081 15.92 54.641 16.096 54.1024 16.096C53.4677 16.096 52.993 15.88 52.6784 15.448C52.3637 15.016 52.2064 14.44 52.2064 13.72ZM52.7984 14.2C52.7984 14.632 52.921 14.976 53.1664 15.232C53.4117 15.488 53.7184 15.616 54.0864 15.616C54.4544 15.616 54.761 15.4907 55.0064 15.24C55.2517 14.984 55.3744 14.6427 55.3744 14.216C55.3744 13.784 55.2517 13.4427 55.0064 13.192C54.7664 12.936 54.4704 12.808 54.1184 12.808C53.729 12.808 53.4117 12.9413 53.1664 13.208C52.921 13.4747 52.7984 13.8053 52.7984 14.2ZM56.4256 16.032V15.544C56.7563 15.4907 56.999 15.2747 57.1536 14.896C57.3083 14.512 57.3856 13.944 57.3856 13.192V11.976H59.8496V16H59.3056V12.448H57.9136V13.192C57.9136 14.1413 57.7936 14.8427 57.5536 15.296C57.319 15.744 56.943 15.9893 56.4256 16.032ZM60.8038 14.92C60.8038 13.9867 61.6198 13.52 63.2518 13.52H63.4918V13.408C63.4918 12.7147 63.1611 12.368 62.4998 12.368C62.0891 12.368 61.7078 12.496 61.3558 12.752L61.1078 12.336C61.2678 12.1973 61.4785 12.088 61.7398 12.008C62.0011 11.9227 62.2651 11.88 62.5318 11.88C63.0171 11.88 63.3878 12.0133 63.6438 12.28C63.9051 12.5413 64.0358 12.9227 64.0358 13.424V16H63.5158V15.528L63.5398 15.192H63.5238C63.4118 15.448 63.2331 15.664 62.9878 15.84C62.7478 16.0107 62.4731 16.096 62.1638 16.096C61.7958 16.096 61.4758 15.992 61.2038 15.784C60.9371 15.576 60.8038 15.288 60.8038 14.92ZM61.3558 14.872C61.3558 15.0747 61.4358 15.2533 61.5958 15.408C61.7558 15.5627 61.9771 15.64 62.2598 15.64C62.6278 15.64 62.9238 15.4853 63.1478 15.176C63.3771 14.8667 63.4918 14.52 63.4918 14.136V13.952H63.2598C63.0891 13.952 62.9398 13.9547 62.8118 13.96C62.6891 13.9653 62.5265 13.9867 62.3238 14.024C62.1265 14.056 61.9638 14.1013 61.8358 14.16C61.7078 14.2187 61.5958 14.3093 61.4998 14.432C61.4038 14.5547 61.3558 14.7013 61.3558 14.872ZM65.0166 13.992C65.0166 13.3787 65.2193 12.8747 65.6246 12.48C66.03 12.08 66.5313 11.88 67.1286 11.88C67.406 11.88 67.678 11.9307 67.9446 12.032C68.2113 12.128 68.43 12.2693 68.6006 12.456L68.3206 12.864C68.1766 12.7147 67.998 12.5947 67.7846 12.504C67.5766 12.4133 67.3633 12.368 67.1446 12.368C66.6966 12.368 66.3233 12.52 66.0246 12.824C65.726 13.128 65.5766 13.5173 65.5766 13.992C65.5766 14.4613 65.726 14.848 66.0246 15.152C66.3286 15.4507 66.7073 15.6 67.1606 15.6C67.3953 15.6 67.63 15.552 67.8646 15.456C68.0993 15.3547 68.294 15.2187 68.4486 15.048L68.6966 15.456C68.5206 15.6533 68.2913 15.8107 68.0086 15.928C67.7313 16.04 67.438 16.096 67.1286 16.096C66.526 16.096 66.022 15.9013 65.6166 15.512C65.2166 15.1173 65.0166 14.6107 65.0166 13.992ZM70.6246 16V12.456H69.1606V11.976H72.6406V12.456H71.1686V16H70.6246ZM73.4761 16V11.976H74.0201V13.512H74.8921C75.2975 13.512 75.6335 13.6107 75.9001 13.808C76.1668 14.0053 76.3001 14.3253 76.3001 14.768C76.3001 15.1467 76.1801 15.448 75.9401 15.672C75.7001 15.8907 75.3455 16 74.8761 16H73.4761ZM74.0201 15.568H74.8281C75.4361 15.568 75.7401 15.2987 75.7401 14.76C75.7401 14.504 75.6655 14.304 75.5161 14.16C75.3668 14.016 75.1401 13.944 74.8361 13.944H74.0201V15.568ZM76.9223 16.776L77.3783 15.344H78.0023L77.3943 16.776H76.9223ZM81.3121 16V11.976H83.7121V12.448H81.8561V16H81.3121ZM84.0217 16V15.336H84.6777V16H84.0217ZM87.6254 13.016C87.6254 12.3013 87.8681 11.7333 88.3534 11.312C88.8388 10.8853 89.4788 10.672 90.2734 10.672V10H90.8334V10.672C91.6228 10.672 92.2601 10.8853 92.7454 11.312C93.2361 11.7333 93.4814 12.3013 93.4814 13.016C93.4814 13.736 93.2388 14.3093 92.7534 14.736C92.2681 15.1573 91.6281 15.368 90.8334 15.368V16.096H90.2734V15.368C89.4788 15.368 88.8388 15.1573 88.3534 14.736C87.8681 14.3093 87.6254 13.736 87.6254 13.016ZM90.8334 14.896C91.4734 14.896 91.9801 14.7307 92.3534 14.4C92.7268 14.0693 92.9134 13.608 92.9134 13.016C92.9134 12.4293 92.7268 11.9733 92.3534 11.648C91.9801 11.3173 91.4734 11.152 90.8334 11.152V14.896ZM88.2014 13.016C88.2014 13.608 88.3881 14.0693 88.7614 14.4C89.1348 14.7307 89.6388 14.896 90.2734 14.896V11.152C89.6388 11.152 89.1348 11.3173 88.7614 11.648C88.3881 11.9733 88.2014 12.4293 88.2014 13.016ZM94.4839 17.6V11.976H95.0039V12.4L94.9799 12.712H94.9959C95.1186 12.4507 95.3026 12.248 95.5479 12.104C95.7986 11.9547 96.0813 11.88 96.3959 11.88C96.9346 11.88 97.3613 12.0747 97.6759 12.464C97.9906 12.848 98.1479 13.3547 98.1479 13.984C98.1479 14.6187 97.9799 15.1307 97.6439 15.52C97.3079 15.904 96.8759 16.096 96.3479 16.096C96.0653 16.096 95.8066 16.0267 95.5719 15.888C95.3373 15.744 95.1533 15.5467 95.0199 15.296H95.0039C95.0199 15.392 95.0279 15.5093 95.0279 15.648V17.6H94.4839ZM95.0119 14C95.0119 14.432 95.1266 14.808 95.3559 15.128C95.5906 15.448 95.9026 15.608 96.2919 15.608C96.6599 15.608 96.9693 15.464 97.2199 15.176C97.4706 14.8827 97.5959 14.488 97.5959 13.992C97.5959 13.5067 97.4759 13.1173 97.2359 12.824C97.0013 12.5253 96.6946 12.376 96.3159 12.376C95.9479 12.376 95.6386 12.512 95.3879 12.784C95.1373 13.056 95.0119 13.4613 95.0119 14ZM98.7869 16L99.7549 14.616L99.9389 14.376V14.36C99.6829 14.3067 99.4642 14.1787 99.2829 13.976C99.1015 13.768 99.0109 13.5093 99.0109 13.2C99.0109 12.8053 99.1389 12.504 99.3949 12.296C99.6562 12.0827 100.003 11.976 100.435 11.976H101.851V16H101.307V14.456H100.475L99.4189 16H98.7869ZM100.499 14.032H101.307V12.392H100.539C99.8935 12.392 99.5709 12.6613 99.5709 13.2C99.5709 13.4613 99.6562 13.6667 99.8269 13.816C100.003 13.96 100.227 14.032 100.499 14.032ZM102.748 15.512L103.036 15.136C103.35 15.4667 103.71 15.632 104.116 15.632C104.382 15.632 104.609 15.5653 104.796 15.432C104.988 15.2933 105.084 15.0987 105.084 14.848C105.084 14.3733 104.758 14.136 104.108 14.136H103.62V13.704H104.044C104.326 13.704 104.545 13.648 104.7 13.536C104.86 13.4187 104.94 13.248 104.94 13.024C104.94 12.8 104.865 12.632 104.716 12.52C104.566 12.4027 104.364 12.344 104.108 12.344C103.756 12.344 103.428 12.464 103.124 12.704L102.884 12.32C103.236 12.0267 103.67 11.88 104.188 11.88C104.577 11.88 104.892 11.9733 105.132 12.16C105.377 12.3467 105.5 12.6133 105.5 12.96C105.5 13.4133 105.294 13.72 104.884 13.88V13.896C105.113 13.9547 105.297 14.0667 105.436 14.232C105.574 14.3973 105.644 14.608 105.644 14.864C105.644 15.2533 105.497 15.5573 105.204 15.776C104.916 15.9893 104.564 16.096 104.148 16.096C103.614 16.096 103.148 15.9013 102.748 15.512ZM106.671 16V11.976H107.199V14.616C107.199 14.984 107.191 15.184 107.175 15.216H107.191C107.213 15.1787 107.351 14.9787 107.607 14.616L109.583 11.976H110.103V16H109.567V13.352C109.567 13.2827 109.567 13.2027 109.567 13.112C109.573 13.0213 109.578 12.944 109.583 12.88C109.589 12.8107 109.591 12.7733 109.591 12.768H109.575C109.575 12.7787 109.551 12.816 109.503 12.88C109.461 12.944 109.402 13.024 109.327 13.12C109.258 13.216 109.205 13.2933 109.167 13.352L107.191 16H106.671ZM111.398 16V11.976H111.942V13.696H114.294V11.976H114.838V16H114.294V14.176H111.942V16H111.398ZM115.86 13.968C115.86 13.376 116.066 12.88 116.476 12.48C116.887 12.08 117.388 11.88 117.98 11.88C118.572 11.88 119.074 12.08 119.484 12.48C119.9 12.88 120.108 13.376 120.108 13.968C120.108 14.5707 119.9 15.0773 119.484 15.488C119.074 15.8933 118.572 16.096 117.98 16.096C117.388 16.096 116.887 15.8933 116.476 15.488C116.066 15.0773 115.86 14.5707 115.86 13.968ZM116.42 13.968C116.42 14.4373 116.57 14.8267 116.868 15.136C117.172 15.4453 117.543 15.6 117.98 15.6C118.418 15.6 118.788 15.4453 119.092 15.136C119.396 14.8267 119.548 14.4373 119.548 13.968C119.548 13.5147 119.396 13.136 119.092 12.832C118.788 12.5227 118.418 12.368 117.98 12.368C117.543 12.368 117.172 12.5227 116.868 12.832C116.57 13.136 116.42 13.5147 116.42 13.968ZM120.829 16.776L121.285 15.344H121.909L121.301 16.776H120.829ZM124.93 17.008C125.08 17.1307 125.24 17.192 125.41 17.192C125.73 17.192 125.986 16.9733 126.178 16.536L126.418 15.96L124.746 11.976H125.346L126.522 14.912L126.674 15.336H126.69C126.728 15.1867 126.773 15.0453 126.826 14.912L127.986 11.976H128.57L126.586 16.84C126.48 17.1013 126.325 17.3067 126.122 17.456C125.925 17.6053 125.696 17.68 125.434 17.68C125.312 17.68 125.189 17.6587 125.066 17.616C124.949 17.5787 124.864 17.5413 124.81 17.504L124.722 17.44L124.93 17.008ZM128.683 16.032V15.544C129.014 15.4907 129.257 15.2747 129.411 14.896C129.566 14.512 129.643 13.944 129.643 13.192V11.976H132.107V16H131.563V12.448H130.171V13.192C130.171 14.1413 130.051 14.8427 129.811 15.296C129.577 15.744 129.201 15.9893 128.683 16.032ZM133.358 16V15.336H134.014V16H133.358ZM137.041 13.144C137.041 12.344 137.319 11.6667 137.873 11.112C138.428 10.5573 139.105 10.28 139.905 10.28C140.705 10.28 141.383 10.5573 141.937 11.112C142.492 11.6613 142.769 12.3387 142.769 13.144C142.769 13.9707 142.492 14.6693 141.937 15.24C141.383 15.8107 140.705 16.096 139.905 16.096C139.105 16.096 138.428 15.8107 137.873 15.24C137.319 14.6693 137.041 13.9707 137.041 13.144ZM137.617 13.144C137.617 13.8267 137.839 14.4027 138.281 14.872C138.729 15.3413 139.271 15.576 139.905 15.576C140.545 15.576 141.087 15.3413 141.529 14.872C141.972 14.4027 142.193 13.8267 142.193 13.144C142.193 12.4827 141.972 11.928 141.529 11.48C141.087 11.0267 140.545 10.8 139.905 10.8C139.271 10.8 138.729 11.0267 138.281 11.48C137.839 11.928 137.617 12.4827 137.617 13.144ZM143.373 15.512L143.661 15.136C143.975 15.4667 144.335 15.632 144.741 15.632C145.007 15.632 145.234 15.5653 145.421 15.432C145.613 15.2933 145.709 15.0987 145.709 14.848C145.709 14.3733 145.383 14.136 144.733 14.136H144.245V13.704H144.669C144.951 13.704 145.17 13.648 145.325 13.536C145.485 13.4187 145.565 13.248 145.565 13.024C145.565 12.8 145.49 12.632 145.341 12.52C145.191 12.4027 144.989 12.344 144.733 12.344C144.381 12.344 144.053 12.464 143.749 12.704L143.509 12.32C143.861 12.0267 144.295 11.88 144.813 11.88C145.202 11.88 145.517 11.9733 145.757 12.16C146.002 12.3467 146.125 12.6133 146.125 12.96C146.125 13.4133 145.919 13.72 145.509 13.88V13.896C145.738 13.9547 145.922 14.0667 146.061 14.232C146.199 14.3973 146.269 14.608 146.269 14.864C146.269 15.2533 146.122 15.5573 145.829 15.776C145.541 15.9893 145.189 16.096 144.773 16.096C144.239 16.096 143.773 15.9013 143.373 15.512ZM147.024 13.992C147.024 13.352 147.214 12.84 147.592 12.456C147.976 12.072 148.451 11.88 149.016 11.88C149.55 11.88 149.963 12.0587 150.256 12.416C150.55 12.768 150.696 13.208 150.696 13.736C150.696 13.8 150.691 13.8907 150.68 14.008H147.592C147.603 14.504 147.758 14.8933 148.056 15.176C148.355 15.4587 148.72 15.6 149.152 15.6C149.616 15.6 150.024 15.44 150.376 15.12L150.624 15.536C150.438 15.7067 150.208 15.8427 149.936 15.944C149.67 16.0453 149.403 16.096 149.136 16.096C148.534 16.096 148.03 15.8987 147.624 15.504C147.224 15.1093 147.024 14.6053 147.024 13.992ZM147.616 13.576H150.144C150.128 13.176 150.014 12.8693 149.8 12.656C149.587 12.4373 149.32 12.328 149 12.328C148.654 12.328 148.352 12.4373 148.096 12.656C147.84 12.8747 147.68 13.1813 147.616 13.576ZM151.718 17.6V11.976H152.238V12.4L152.214 12.712H152.23C152.353 12.4507 152.537 12.248 152.782 12.104C153.033 11.9547 153.316 11.88 153.63 11.88C154.169 11.88 154.596 12.0747 154.91 12.464C155.225 12.848 155.382 13.3547 155.382 13.984C155.382 14.6187 155.214 15.1307 154.878 15.52C154.542 15.904 154.11 16.096 153.582 16.096C153.3 16.096 153.041 16.0267 152.806 15.888C152.572 15.744 152.388 15.5467 152.254 15.296H152.238C152.254 15.392 152.262 15.5093 152.262 15.648V17.6H151.718ZM152.246 14C152.246 14.432 152.361 14.808 152.59 15.128C152.825 15.448 153.137 15.608 153.526 15.608C153.894 15.608 154.204 15.464 154.454 15.176C154.705 14.8827 154.83 14.488 154.83 13.992C154.83 13.5067 154.71 13.1173 154.47 12.824C154.236 12.5253 153.929 12.376 153.55 12.376C153.182 12.376 152.873 12.512 152.622 12.784C152.372 13.056 152.246 13.4613 152.246 14ZM156.429 16V11.976H156.973V13.696H159.325V11.976H159.869V16H159.325V14.176H156.973V16H156.429ZM160.812 14.92C160.812 13.9867 161.628 13.52 163.26 13.52H163.5V13.408C163.5 12.7147 163.169 12.368 162.508 12.368C162.097 12.368 161.716 12.496 161.364 12.752L161.116 12.336C161.276 12.1973 161.486 12.088 161.748 12.008C162.009 11.9227 162.273 11.88 162.54 11.88C163.025 11.88 163.396 12.0133 163.652 12.28C163.913 12.5413 164.044 12.9227 164.044 13.424V16H163.524V15.528L163.548 15.192H163.532C163.42 15.448 163.241 15.664 162.996 15.84C162.756 16.0107 162.481 16.096 162.172 16.096C161.804 16.096 161.484 15.992 161.212 15.784C160.945 15.576 160.812 15.288 160.812 14.92ZM161.364 14.872C161.364 15.0747 161.444 15.2533 161.604 15.408C161.764 15.5627 161.985 15.64 162.268 15.64C162.636 15.64 162.932 15.4853 163.156 15.176C163.385 14.8667 163.5 14.52 163.5 14.136V13.952H163.268C163.097 13.952 162.948 13.9547 162.82 13.96C162.697 13.9653 162.534 13.9867 162.332 14.024C162.134 14.056 161.972 14.1013 161.844 14.16C161.716 14.2187 161.604 14.3093 161.508 14.432C161.412 14.5547 161.364 14.7013 161.364 14.872ZM164.888 16L165.856 14.616L166.04 14.376V14.36C165.784 14.3067 165.566 14.1787 165.384 13.976C165.203 13.768 165.112 13.5093 165.112 13.2C165.112 12.8053 165.24 12.504 165.496 12.296C165.758 12.0827 166.104 11.976 166.536 11.976H167.952V16H167.408V14.456H166.576L165.52 16H164.888ZM166.6 14.032H167.408V12.392H166.64C165.995 12.392 165.672 12.6613 165.672 13.2C165.672 13.4613 165.758 13.6667 165.928 13.816C166.104 13.96 166.328 14.032 166.6 14.032ZM168.961 16.776L169.417 15.344H170.041L169.433 16.776H168.961ZM173.871 15.536H175.935V12.44H174.527V12.68C174.527 13.9227 174.308 14.8747 173.871 15.536ZM172.791 15.536H173.287C173.756 14.9227 173.991 13.9547 173.991 12.632V11.976H176.479V15.536H177.047V16.96H176.527V16H173.311V16.96H172.791V15.536ZM177.873 16V15.336H178.529V16H177.873ZM181.581 16V15.504H182.845V11.376L182.853 11.064H182.837C182.8 11.1387 182.706 11.2507 182.557 11.4L181.957 11.992L181.605 11.64L182.877 10.376H183.389V15.504H184.629V16H181.581ZM185.066 16L187.13 10.376H187.722L189.786 16H189.202L188.554 14.208H186.29L185.65 16H185.066ZM186.458 13.728H188.386L187.65 11.688L187.434 10.952H187.418C187.338 11.2667 187.266 11.512 187.202 11.688L186.458 13.728ZM190.305 16.776L190.761 15.344H191.385L190.777 16.776H190.305ZM194.423 13.992C194.423 13.3787 194.626 12.8747 195.031 12.48C195.436 12.08 195.938 11.88 196.535 11.88C196.812 11.88 197.084 11.9307 197.351 12.032C197.618 12.128 197.836 12.2693 198.007 12.456L197.727 12.864C197.583 12.7147 197.404 12.5947 197.191 12.504C196.983 12.4133 196.77 12.368 196.551 12.368C196.103 12.368 195.73 12.52 195.431 12.824C195.132 13.128 194.983 13.5173 194.983 13.992C194.983 14.4613 195.132 14.848 195.431 15.152C195.735 15.4507 196.114 15.6 196.567 15.6C196.802 15.6 197.036 15.552 197.271 15.456C197.506 15.3547 197.7 15.2187 197.855 15.048L198.103 15.456C197.927 15.6533 197.698 15.8107 197.415 15.928C197.138 16.04 196.844 16.096 196.535 16.096C195.932 16.096 195.428 15.9013 195.023 15.512C194.623 15.1173 194.423 14.6107 194.423 13.992ZM200.031 16V12.456H198.567V11.976H202.047V12.456H200.575V16H200.031ZM202.882 17.6V11.976H203.402V12.4L203.378 12.712H203.394C203.517 12.4507 203.701 12.248 203.946 12.104C204.197 11.9547 204.48 11.88 204.794 11.88C205.333 11.88 205.76 12.0747 206.074 12.464C206.389 12.848 206.546 13.3547 206.546 13.984C206.546 14.6187 206.378 15.1307 206.042 15.52C205.706 15.904 205.274 16.096 204.746 16.096C204.464 16.096 204.205 16.0267 203.97 15.888C203.736 15.744 203.552 15.5467 203.418 15.296H203.402C203.418 15.392 203.426 15.5093 203.426 15.648V17.6H202.882ZM203.41 14C203.41 14.432 203.525 14.808 203.754 15.128C203.989 15.448 204.301 15.608 204.69 15.608C205.058 15.608 205.368 15.464 205.618 15.176C205.869 14.8827 205.994 14.488 205.994 13.992C205.994 13.5067 205.874 13.1173 205.634 12.824C205.4 12.5253 205.093 12.376 204.714 12.376C204.346 12.376 204.037 12.512 203.786 12.784C203.536 13.056 203.41 13.4613 203.41 14ZM207.537 16V15.336H208.193V16H207.537ZM211.245 16V15.504H212.509V11.376L212.517 11.064H212.501C212.464 11.1387 212.37 11.2507 212.221 11.4L211.621 11.992L211.269 11.64L212.541 10.376H213.053V15.504H214.293V16H211.245ZM214.915 16.776L215.371 15.344H215.995L215.387 16.776H214.915ZM218.936 15.48L219.176 15.072C219.512 15.44 219.95 15.624 220.488 15.624C220.899 15.624 221.251 15.4933 221.544 15.232C221.843 14.9707 222.014 14.6293 222.056 14.208H219.984V13.776H222.056C222.014 13.3493 221.846 13.0053 221.552 12.744C221.259 12.4827 220.91 12.352 220.504 12.352C220.04 12.352 219.638 12.5173 219.296 12.848L219.016 12.448C219.182 12.2667 219.4 12.128 219.672 12.032C219.944 11.9307 220.224 11.88 220.512 11.88C221.104 11.88 221.6 12.08 222 12.48C222.406 12.8747 222.608 13.3787 222.608 13.992C222.608 14.6107 222.408 15.1173 222.008 15.512C221.608 15.9013 221.104 16.096 220.496 16.096C219.862 16.096 219.342 15.8907 218.936 15.48ZM224.461 16V12.456H222.997V11.976H226.477V12.456H225.005V16H224.461ZM226.921 14.92C226.921 13.9867 227.737 13.52 229.369 13.52H229.609V13.408C229.609 12.7147 229.278 12.368 228.617 12.368C228.206 12.368 227.825 12.496 227.473 12.752L227.225 12.336C227.385 12.1973 227.596 12.088 227.857 12.008C228.118 11.9227 228.382 11.88 228.649 11.88C229.134 11.88 229.505 12.0133 229.761 12.28C230.022 12.5413 230.153 12.9227 230.153 13.424V16H229.633V15.528L229.657 15.192H229.641C229.529 15.448 229.35 15.664 229.105 15.84C228.865 16.0107 228.59 16.096 228.281 16.096C227.913 16.096 227.593 15.992 227.321 15.784C227.054 15.576 226.921 15.288 226.921 14.92ZM227.473 14.872C227.473 15.0747 227.553 15.2533 227.713 15.408C227.873 15.5627 228.094 15.64 228.377 15.64C228.745 15.64 229.041 15.4853 229.265 15.176C229.494 14.8667 229.609 14.52 229.609 14.136V13.952H229.377C229.206 13.952 229.057 13.9547 228.929 13.96C228.806 13.9653 228.644 13.9867 228.441 14.024C228.244 14.056 228.081 14.1013 227.953 14.16C227.825 14.2187 227.713 14.3093 227.617 14.432C227.521 14.5547 227.473 14.7013 227.473 14.872ZM230.918 16L232.278 13.944V13.928L231.046 11.976H231.638L232.726 13.704H233.374V11.976H233.902V13.704H234.55L235.638 11.976H236.238L235.006 13.928V13.944L236.366 16H235.726L234.55 14.184H233.902V16H233.374V14.184H232.734L231.55 16H230.918ZM239.019 16C238.998 15.8293 238.987 15.7093 238.987 15.64C238.987 15.3733 239.041 15.1253 239.147 14.896C239.254 14.6613 239.39 14.4613 239.555 14.296C239.726 14.1253 239.915 13.9653 240.123 13.816C240.331 13.6613 240.537 13.5147 240.739 13.376C240.947 13.2373 241.134 13.0987 241.299 12.96C241.47 12.816 241.609 12.6533 241.715 12.472C241.822 12.2853 241.875 12.0907 241.875 11.888C241.875 11.5733 241.766 11.3147 241.547 11.112C241.334 10.9093 241.054 10.808 240.707 10.808C240.451 10.808 240.211 10.88 239.987 11.024C239.769 11.1627 239.587 11.3467 239.443 11.576L239.035 11.296C239.201 10.9973 239.433 10.7547 239.731 10.568C240.035 10.376 240.371 10.28 240.739 10.28C241.257 10.28 241.67 10.4293 241.979 10.728C242.294 11.0267 242.451 11.4027 242.451 11.856C242.451 12.112 242.398 12.352 242.291 12.576C242.19 12.7947 242.054 12.9867 241.883 13.152C241.718 13.312 241.534 13.4667 241.331 13.616C241.129 13.76 240.926 13.9013 240.723 14.04C240.521 14.1733 240.334 14.312 240.163 14.456C239.998 14.5947 239.862 14.7547 239.755 14.936C239.649 15.112 239.595 15.3013 239.595 15.504H242.539V16H239.019ZM243.391 16.776L243.847 15.344H244.471L243.863 16.776H243.391ZM247.781 16V11.976H248.325V13.68H248.965L250.173 11.976H250.813L249.413 13.888V13.904L250.973 16H250.309L248.973 14.16H248.325V16H247.781ZM251.298 13.968C251.298 13.376 251.503 12.88 251.914 12.48C252.325 12.08 252.826 11.88 253.418 11.88C254.01 11.88 254.511 12.08 254.922 12.48C255.338 12.88 255.546 13.376 255.546 13.968C255.546 14.5707 255.338 15.0773 254.922 15.488C254.511 15.8933 254.01 16.096 253.418 16.096C252.826 16.096 252.325 15.8933 251.914 15.488C251.503 15.0773 251.298 14.5707 251.298 13.968ZM251.858 13.968C251.858 14.4373 252.007 14.8267 252.306 15.136C252.61 15.4453 252.981 15.6 253.418 15.6C253.855 15.6 254.226 15.4453 254.53 15.136C254.834 14.8267 254.986 14.4373 254.986 13.968C254.986 13.5147 254.834 13.136 254.53 12.832C254.226 12.5227 253.855 12.368 253.418 12.368C252.981 12.368 252.61 12.5227 252.306 12.832C252.007 13.136 251.858 13.5147 251.858 13.968ZM256.41 16L256.738 11.976H257.314L258.522 14.456L258.77 15.024H258.786C258.871 14.816 258.954 14.6267 259.034 14.456L260.25 11.976H260.818L261.154 16H260.618L260.418 13.4V12.704H260.402C260.343 12.8747 260.258 13.0693 260.146 13.288L259.026 15.536H258.53L257.418 13.304L257.154 12.704H257.138C257.149 13.024 257.149 13.256 257.138 13.4L256.938 16H256.41ZM262.24 16V15.336H262.896V16H262.24ZM265.884 15.328L266.228 14.904C266.399 15.0907 266.612 15.248 266.868 15.376C267.124 15.4987 267.391 15.56 267.668 15.56C268.015 15.56 268.314 15.448 268.564 15.224C268.82 14.9947 268.948 14.704 268.948 14.352C268.948 13.9733 268.81 13.68 268.532 13.472C268.26 13.2587 267.93 13.152 267.54 13.152H267.148L267.012 12.824L268.42 11.176L268.716 10.864V10.848C268.61 10.864 268.458 10.872 268.26 10.872H266.148V10.376H269.436V10.744L267.764 12.68C267.956 12.6907 268.148 12.728 268.34 12.792C268.532 12.8507 268.719 12.9413 268.9 13.064C269.082 13.1813 269.228 13.352 269.34 13.576C269.458 13.7947 269.516 14.048 269.516 14.336C269.516 14.8213 269.34 15.2373 268.988 15.584C268.636 15.9253 268.196 16.096 267.668 16.096C267.343 16.096 267.023 16.0293 266.708 15.896C266.394 15.7573 266.119 15.568 265.884 15.328ZM270.376 15.328L270.72 14.904C270.891 15.0907 271.104 15.248 271.36 15.376C271.616 15.4987 271.883 15.56 272.16 15.56C272.507 15.56 272.806 15.448 273.056 15.224C273.312 14.9947 273.44 14.704 273.44 14.352C273.44 13.9733 273.302 13.68 273.024 13.472C272.752 13.2587 272.422 13.152 272.032 13.152H271.64L271.504 12.824L272.912 11.176L273.208 10.864V10.848C273.102 10.864 272.95 10.872 272.752 10.872H270.64V10.376H273.928V10.744L272.256 12.68C272.448 12.6907 272.64 12.728 272.832 12.792C273.024 12.8507 273.211 12.9413 273.392 13.064C273.574 13.1813 273.72 13.352 273.832 13.576C273.95 13.7947 274.008 14.048 274.008 14.336C274.008 14.8213 273.832 15.2373 273.48 15.584C273.128 15.9253 272.688 16.096 272.16 16.096C271.835 16.096 271.515 16.0293 271.2 15.896C270.886 15.7573 270.611 15.568 270.376 15.328ZM276.941 16.096C276.258 16.096 275.765 15.832 275.461 15.304C275.157 14.776 275.005 14.0693 275.005 13.184C275.005 12.7627 275.037 12.384 275.101 12.048C275.17 11.7067 275.277 11.4 275.421 11.128C275.57 10.856 275.773 10.648 276.029 10.504C276.285 10.3547 276.589 10.28 276.941 10.28C277.41 10.28 277.794 10.4133 278.093 10.68C278.391 10.9467 278.597 11.288 278.709 11.704C278.826 12.12 278.885 12.6133 278.885 13.184C278.885 13.6107 278.85 13.9947 278.781 14.336C278.717 14.672 278.61 14.976 278.461 15.248C278.317 15.5147 278.117 15.7227 277.861 15.872C277.605 16.0213 277.298 16.096 276.941 16.096ZM276.941 15.576C277.282 15.576 277.557 15.4667 277.765 15.248C277.978 15.0293 278.122 14.752 278.197 14.416C278.271 14.08 278.309 13.6693 278.309 13.184C278.309 12.832 278.287 12.52 278.245 12.248C278.202 11.9707 278.13 11.7227 278.029 11.504C277.927 11.28 277.786 11.1093 277.605 10.992C277.423 10.8693 277.202 10.808 276.941 10.808C276.034 10.808 275.581 11.6 275.581 13.184C275.581 13.9307 275.682 14.5173 275.885 14.944C276.093 15.3653 276.445 15.576 276.941 15.576Z" fill="white"/>
</svg>
