<svg width="29" height="36" viewBox="0 0 29 36" fill="none" xmlns="http://www.w3.org/2000/svg">
<path d="M12.1401 4.22984C11.6325 2.93506 10.6549 1.87955 9.40283 1.27429C8.15071 0.66903 6.7163 0.558606 5.38629 0.965091C4.05629 1.37158 2.92868 2.26502 2.22886 3.46685C1.52904 4.66868 1.30856 6.09034 1.61149 7.44768" stroke="black" stroke-linecap="round" stroke-linejoin="round"/>
<path d="M18.8876 34.7994H18.7831C16.7168 34.7994 14.699 33.9754 12.2044 32.0127L12.2044 32.0127C10.0698 30.3336 5.66119 27.2975 5.17808 26.9648L5.16012 26.9524L5.14382 26.9412L5.12668 26.9313C4.80655 26.7463 4.55943 26.4493 4.43293 26.094L4.4329 26.0939C4.13662 25.2622 4.56231 24.3489 5.35943 24.0524L5.35946 24.0525L5.36071 24.052C5.36116 24.0518 5.36166 24.0517 5.36221 24.0515L5.36567 24.0504L5.36569 24.0504L5.36574 24.0504L5.36597 24.0503L5.36685 24.05L5.37018 24.049L5.38208 24.0451L5.41848 24.0334C5.43381 24.0284 5.45489 24.0217 5.46884 24.0171C5.52308 24.0014 5.59478 23.9902 5.69593 23.9902C5.98051 23.9902 6.4753 24.0786 7.34651 24.3125C8.20312 24.5425 9.37601 24.8992 10.9921 25.4056L11.9496 25.7056L11.6125 24.7605L5.31602 7.10326C5.316 7.1032 5.31598 7.10315 5.31596 7.10309C4.99732 6.20826 5.45481 5.22549 6.31286 4.9068C6.31289 4.90679 6.31292 4.90678 6.31295 4.90677L6.70753 4.76033L6.7076 4.7603C6.89106 4.69219 7.08128 4.65796 7.27392 4.65796C7.9641 4.65796 8.59633 5.10438 8.83716 5.78046L8.83719 5.78055L12.2136 15.2534L12.7075 16.6392L13.1603 15.2394C13.3172 14.7542 13.6791 14.3513 14.1738 14.1673L14.5681 14.021L14.5682 14.0209C14.7516 13.9528 14.9419 13.9186 15.1345 13.9186C15.6602 13.9186 16.1528 14.1776 16.465 14.6022L17.0949 15.459L17.3529 14.4273C17.3792 14.3222 17.4154 14.2181 17.4608 14.118C17.6507 13.7021 17.9846 13.3915 18.4018 13.2363L18.7961 13.09L18.7962 13.0899C18.9797 13.0218 19.1699 12.9876 19.3625 12.9876C19.8333 12.9876 20.2773 13.1952 20.59 13.5438L21.2377 14.266L21.4501 13.3194C21.5497 12.8756 21.9019 12.4594 22.5933 12.2025C22.7922 12.1286 22.9922 12.0923 23.1889 12.0923C23.9048 12.0923 24.5851 12.5783 24.8823 13.4121L27.6842 21.273L27.6844 21.2735C27.6952 21.3037 27.7053 21.3364 27.7158 21.3754L27.7231 21.4022L27.7332 21.4281C27.7791 21.5449 27.8176 21.646 27.8508 21.739C28.7402 24.2332 28.6642 26.8587 27.6534 29.137C26.636 31.4291 24.7485 33.188 22.3296 34.0869C21.0659 34.5563 19.9407 34.7851 18.8876 34.7994ZM5.36786 24.0492C5.36706 24.0495 5.36629 24.0498 5.36556 24.0501L5.36786 24.0492Z" fill="white" stroke="black"/>
</svg>
