<svg width="214" height="23" viewBox="0 0 214 23" fill="none" xmlns="http://www.w3.org/2000/svg">
<path d="M1.10719 3.752L0.371191 2.441C0.739191 2.10367 1.22986 1.81233 1.84319 1.567C2.77852 1.18367 3.85186 0.991999 5.06319 0.991999C6.67319 0.991999 7.99953 1.30633 9.04219 1.935C10.1922 2.64033 10.7672 3.614 10.7672 4.856C10.7672 5.776 10.4452 6.57333 9.80119 7.248C9.17253 7.90733 8.27553 8.375 7.11019 8.651C8.41353 8.651 9.49453 9.019 10.3532 9.755C11.2119 10.491 11.6412 11.4417 11.6412 12.607C11.6412 14.1557 10.9972 15.344 9.70919 16.172C8.49786 16.954 6.84186 17.345 4.74119 17.345C4.00519 17.345 3.22319 17.23 2.39519 17C1.56719 16.77 0.846525 16.471 0.233191 16.103C0.340525 15.8883 0.417191 15.6353 0.463191 15.344C0.509191 15.0373 0.547525 14.7997 0.578192 14.631L0.762191 14.539C1.14552 15.0757 1.72819 15.528 2.51019 15.896C3.29219 16.264 4.05119 16.448 4.78719 16.448C6.25919 16.448 7.37086 16.126 8.12219 15.482C8.88886 14.8227 9.27219 13.8797 9.27219 12.653C9.27219 11.595 8.91953 10.7517 8.21419 10.123C7.50886 9.49433 6.53519 9.18 5.29319 9.18L3.22319 9.249C3.28452 9.14167 3.31519 8.973 3.31519 8.743C3.31519 8.63567 3.28452 8.47467 3.22319 8.26L5.01719 8.306C6.16719 8.306 7.04886 7.984 7.66219 7.34C8.21419 6.75733 8.49019 5.983 8.49019 5.017C8.49019 4.11233 8.18353 3.361 7.57019 2.763C6.95686 2.165 6.08286 1.866 4.94819 1.866C4.02819 1.866 3.24619 2.03467 2.60219 2.372C1.95819 2.694 1.50586 3.131 1.24519 3.683L1.10719 3.752ZM22.7807 9.801V15.137C22.7807 15.367 22.7807 15.5893 22.7807 15.804C22.8267 16.126 23.0337 16.287 23.4017 16.287C23.6011 16.287 23.8234 16.2563 24.0687 16.195V16.701C23.9921 16.7317 23.8771 16.7777 23.7237 16.839C23.5857 16.885 23.4247 16.9233 23.2407 16.954C23.0721 16.9847 22.8651 17 22.6197 17C22.1751 17 21.8071 16.8927 21.5157 16.678C21.2397 16.4633 21.0711 16.103 21.0097 15.597L20.8027 15.804C19.8367 16.77 18.7021 17.253 17.3987 17.253C16.5401 17.253 15.8117 17 15.2137 16.494C14.6157 15.9727 14.3167 15.2903 14.3167 14.447C14.3167 13.5423 14.5851 12.837 15.1217 12.331C15.6584 11.8097 16.8161 11.411 18.5947 11.135C19.5914 10.9663 20.2201 10.813 20.4807 10.675C20.8487 10.4757 21.0327 10.1153 21.0327 9.594C21.0327 8.73533 20.7951 8.076 20.3197 7.616C19.8597 7.14067 19.2004 6.903 18.3417 6.903C17.6057 6.903 16.9617 7.10233 16.4097 7.501C15.9804 7.80767 15.7121 8.13733 15.6047 8.49H15.3517V7.202C15.9497 6.788 16.5477 6.47367 17.1457 6.259C17.7591 6.04433 18.3954 5.937 19.0547 5.937C21.5387 5.937 22.7807 7.225 22.7807 9.801ZM20.9407 14.7V11.342L20.1357 11.526C18.8017 11.7867 17.9584 11.9937 17.6057 12.147C16.6857 12.561 16.2257 13.2203 16.2257 14.125C16.2257 14.8303 16.4174 15.367 16.8007 15.735C17.1994 16.0877 17.7591 16.264 18.4797 16.264C18.7711 16.264 19.0931 16.1797 19.4457 16.011C19.7984 15.827 20.0897 15.62 20.3197 15.39C20.4884 15.2367 20.6111 15.1217 20.6877 15.045C20.8564 14.8763 20.9407 14.7613 20.9407 14.7ZM28.4387 6.075V10.1C28.4234 10.3147 28.4157 10.468 28.4157 10.56C28.4157 10.7133 28.4617 10.813 28.5537 10.859C28.7224 10.951 28.9754 10.8743 29.3127 10.629C29.5581 10.4603 29.9721 10.0847 30.5547 9.502L31.9807 8.053L33.7747 6.075L34.6947 6.144L35.5917 6.075V6.236C34.5337 7.12533 33.6137 7.915 32.8317 8.605C31.8964 9.41767 31.1297 10.1077 30.5317 10.675L35.9367 16.954V17.069L34.8097 17L33.6597 17.069C33.2611 16.5477 32.7704 15.942 32.1877 15.252C31.7431 14.7307 30.7694 13.6113 29.2667 11.894C29.0521 11.6487 28.8757 11.526 28.7377 11.526C28.5384 11.526 28.4387 11.8097 28.4387 12.377V17.069L27.5187 17L26.5987 17.069V6.075L27.5187 6.144L28.4387 6.075ZM39.6397 22.957L38.7197 22.888L37.7997 22.957V6.075L38.7197 6.144L39.6397 6.075V8.26C40.0231 7.58533 40.3911 7.09467 40.7437 6.788C41.4491 6.19 42.3921 5.891 43.5727 5.891C44.9987 5.891 46.1411 6.42767 46.9997 7.501C47.7971 8.49767 48.1957 9.732 48.1957 11.204C48.1957 13.0593 47.7357 14.5313 46.8157 15.62C45.9111 16.7087 44.7151 17.253 43.2277 17.253C42.4151 17.253 41.7174 17.069 41.1347 16.701C40.5674 16.333 40.0844 15.781 39.6857 15.045L39.6397 22.957ZM39.6397 11.871C39.6397 13.1743 39.9081 14.217 40.4447 14.999C41.0427 15.8577 41.9014 16.287 43.0207 16.287C44.0941 16.287 44.9067 15.7887 45.4587 14.792C45.9341 13.918 46.1717 12.7527 46.1717 11.296C46.1717 10.008 45.9494 8.98833 45.5047 8.237C44.9681 7.317 44.1324 6.857 42.9977 6.857C41.8171 6.857 40.9277 7.42433 40.3297 8.559C39.8697 9.44833 39.6397 10.5523 39.6397 11.871ZM49.867 11.48C49.867 9.85467 50.419 8.52833 51.523 7.501C52.6423 6.45833 54.0377 5.937 55.709 5.937C57.2883 5.937 58.5687 6.45067 59.55 7.478C60.5467 8.49 61.045 9.847 61.045 11.549C61.045 13.113 60.562 14.4317 59.596 15.505C58.538 16.6703 57.1043 17.253 55.295 17.253C53.7157 17.253 52.4123 16.7317 51.385 15.689C50.373 14.631 49.867 13.228 49.867 11.48ZM55.686 6.65C54.3367 6.65 53.34 7.202 52.696 8.306C52.1593 9.21067 51.891 10.3837 51.891 11.825C51.891 13.1283 52.1593 14.2017 52.696 15.045C53.3247 16.0417 54.2523 16.54 55.479 16.54C56.6903 16.54 57.618 15.919 58.262 14.677C58.768 13.711 59.021 12.63 59.021 11.434C59.021 10.1767 58.791 9.12633 58.331 8.283C57.733 7.19433 56.8513 6.65 55.686 6.65ZM65.4533 14.079C66.45 13.0057 67.5386 11.7407 68.7193 10.284C69.9 8.82733 70.9733 7.42433 71.9393 6.075H72.8593V17.069L71.9393 17L71.0193 17.069V9.065C69.992 10.215 69.2406 11.0737 68.7653 11.641C68.06 12.469 67.3163 13.3813 66.5343 14.378C65.7523 15.3593 65.0853 16.2563 64.5333 17.069H63.6133V6.075L64.5333 6.144L65.4533 6.075V14.079ZM71.6403 3.2L72.1003 3.959C71.533 4.29633 70.912 4.56467 70.2373 4.764C69.578 4.948 68.9033 5.04 68.2133 5.04C67.5233 5.04 66.8563 4.95567 66.2123 4.787C65.5683 4.603 64.9473 4.33467 64.3493 3.982L64.8093 3.2C65.7906 3.81333 66.9253 4.12 68.2133 4.12C69.5166 4.12 70.659 3.81333 71.6403 3.2ZM86.2679 16.977L81.6219 6.075L82.7259 6.144L83.8069 6.075C84.2209 7.34767 84.7116 8.70467 85.2789 10.146C85.8616 11.572 86.5133 13.0593 87.2339 14.608C87.7246 13.6113 88.3149 12.2467 89.0049 10.514C89.5723 9.10333 90.1319 7.62367 90.6839 6.075L91.4429 6.144L92.1789 6.075C91.4583 7.685 90.5843 9.617 89.5569 11.871C88.6063 13.9717 87.7783 15.827 87.0729 17.437C86.1376 19.5683 85.3633 21.4083 84.7499 22.957L83.9679 22.888L83.1859 22.957L86.2679 16.977ZM96.1349 11.664V16.103H98.5269C99.2783 16.103 99.8916 15.919 100.367 15.551C100.858 15.1677 101.103 14.6463 101.103 13.987C101.103 13.159 100.888 12.5687 100.459 12.216C100.03 11.848 99.3856 11.664 98.5269 11.664H96.1349ZM96.1349 7.041V10.813H98.2969C99.0023 10.813 99.5466 10.652 99.9299 10.33C100.313 10.008 100.505 9.51733 100.505 8.858C100.505 8.22933 100.313 7.76933 99.9299 7.478C99.5466 7.18667 99.0329 7.041 98.3889 7.041H96.1349ZM94.2949 17V6.144H98.7109C99.8916 6.144 100.796 6.33567 101.425 6.719C102.161 7.16367 102.529 7.86133 102.529 8.812C102.529 9.44067 102.307 9.962 101.862 10.376C101.417 10.79 100.827 11.043 100.091 11.135C101.088 11.3037 101.808 11.549 102.253 11.871C102.882 12.331 103.196 13.0363 103.196 13.987C103.196 14.953 102.79 15.712 101.977 16.264C101.241 16.77 100.321 17.023 99.2169 17.023L94.2949 17ZM114.236 14.7L114.213 15.896C113.615 16.3253 112.986 16.6627 112.327 16.908C111.668 17.138 110.978 17.253 110.257 17.253C108.632 17.253 107.321 16.747 106.324 15.735C105.327 14.723 104.829 13.343 104.829 11.595C104.829 9.92367 105.274 8.582 106.163 7.57C107.114 6.48133 108.425 5.937 110.096 5.937C111.461 5.937 112.557 6.38933 113.385 7.294C114.305 8.29067 114.765 9.71667 114.765 11.572L110.096 11.503H106.853C106.853 12.883 107.167 14.0023 107.796 14.861C108.501 15.8117 109.513 16.287 110.832 16.287C111.537 16.287 112.22 16.103 112.879 15.735C113.324 15.4897 113.776 15.1447 114.236 14.7ZM106.853 10.652H112.971C112.971 9.47133 112.779 8.55133 112.396 7.892C111.921 7.064 111.154 6.65 110.096 6.65C109.069 6.65 108.256 7.07167 107.658 7.915C107.121 8.66633 106.853 9.57867 106.853 10.652ZM115.593 15.965H116.536C117.287 14.355 118.016 12.7297 118.721 11.089C119.595 9.04967 120.254 7.386 120.699 6.098L121.389 6.167L122.102 6.098C122.485 7.12533 123.068 8.62033 123.85 10.583C124.647 12.5303 125.399 14.3243 126.104 15.965H126.955L126.909 16.816C126.909 16.954 126.909 17.0997 126.909 17.253C126.909 17.4063 126.924 17.5443 126.955 17.667H126.794C126.411 17.3757 125.943 17.1917 125.391 17.115C124.854 17.0383 124.057 17 122.999 17H119.549C118.43 17 117.617 17.0307 117.111 17.092C116.62 17.1533 116.176 17.345 115.777 17.667H115.593C115.624 17.5903 115.639 17.4523 115.639 17.253C115.639 17.069 115.647 16.9233 115.662 16.816L115.593 15.965ZM117.893 15.965H124.218C123.911 15.0143 123.467 13.8337 122.884 12.423C122.317 10.997 121.734 9.60167 121.136 8.237H120.975C120.96 8.237 120.783 8.651 120.446 9.479C119.833 10.9663 119.426 11.9553 119.227 12.446C118.752 13.6267 118.307 14.7997 117.893 15.965ZM127.829 11.48C127.829 9.85467 128.381 8.52833 129.485 7.501C130.604 6.45833 132 5.937 133.671 5.937C135.25 5.937 136.531 6.45067 137.512 7.478C138.509 8.49 139.007 9.847 139.007 11.549C139.007 13.113 138.524 14.4317 137.558 15.505C136.5 16.6703 135.066 17.253 133.257 17.253C131.678 17.253 130.374 16.7317 129.347 15.689C128.335 14.631 127.829 13.228 127.829 11.48ZM133.648 6.65C132.299 6.65 131.302 7.202 130.658 8.306C130.121 9.21067 129.853 10.3837 129.853 11.825C129.853 13.1283 130.121 14.2017 130.658 15.045C131.287 16.0417 132.214 16.54 133.441 16.54C134.652 16.54 135.58 15.919 136.224 14.677C136.73 13.711 136.983 12.63 136.983 11.434C136.983 10.1767 136.753 9.12633 136.293 8.283C135.695 7.19433 134.813 6.65 133.648 6.65ZM140.586 17.069C140.816 16.0877 141.085 14.4623 141.391 12.193C141.483 11.457 141.736 9.42533 142.15 6.098H142.771C143.569 7.67733 144.404 9.249 145.278 10.813C146.152 12.377 146.919 13.6573 147.578 14.654C148.928 12.3233 150.453 9.47133 152.155 6.098H152.776C152.96 7.708 153.121 9.088 153.259 10.238C153.397 11.3727 153.543 12.607 153.696 13.941C153.865 15.2597 153.995 16.3023 154.087 17.069L153.075 17L152.063 17.069C152.063 15.597 151.971 14.0253 151.787 12.354C151.741 11.9093 151.626 10.9817 151.442 9.571C150.032 11.8557 148.652 14.355 147.302 17.069H146.773C146.053 15.6737 145.378 14.401 144.749 13.251C144.013 11.9477 143.293 10.721 142.587 9.571C142.403 10.8897 142.227 12.2313 142.058 13.596C141.89 14.9453 141.805 16.103 141.805 17.069C141.606 17.0383 141.414 17.0153 141.23 17L140.586 17.069ZM158.71 12.124L156.87 17.092L156.134 17.023L155.398 17.092C155.659 16.5553 156.157 15.4667 156.893 13.826C157.568 12.3233 158.143 11.0047 158.618 9.87C159.293 8.26 159.783 7.00267 160.09 6.098L160.78 6.167L161.493 6.098C161.984 7.41667 162.651 9.11867 163.494 11.204C164.429 13.5193 165.265 15.482 166.001 17.092L164.966 17.023L163.954 17.092C163.249 14.7613 162.106 11.8097 160.527 8.237C160.328 8.43633 160.006 9.065 159.561 10.123L158.71 12.124ZM176.43 14.7L176.407 15.896C175.809 16.3253 175.181 16.6627 174.521 16.908C173.862 17.138 173.172 17.253 172.451 17.253C170.826 17.253 169.515 16.747 168.518 15.735C167.522 14.723 167.023 13.343 167.023 11.595C167.023 9.92367 167.468 8.582 168.357 7.57C169.308 6.48133 170.619 5.937 172.29 5.937C173.655 5.937 174.751 6.38933 175.579 7.294C176.499 8.29067 176.959 9.71667 176.959 11.572L172.29 11.503H169.047C169.047 12.883 169.362 14.0023 169.99 14.861C170.696 15.8117 171.708 16.287 173.026 16.287C173.732 16.287 174.414 16.103 175.073 15.735C175.518 15.4897 175.97 15.1447 176.43 14.7ZM169.047 10.652H175.165C175.165 9.47133 174.974 8.55133 174.59 7.892C174.115 7.064 173.348 6.65 172.29 6.65C171.263 6.65 170.45 7.07167 169.852 7.915C169.316 8.66633 169.047 9.57867 169.047 10.652ZM184.112 10.813C184.726 10.813 185.278 10.8053 185.768 10.79C186.259 10.7593 186.635 10.7287 186.895 10.698V6.075L187.815 6.144L188.735 6.075V17.069L187.815 17L186.895 17.069V11.733L184.112 11.664L181.329 11.733V17.069L180.409 17L179.489 17.069V6.075L180.409 6.144L181.329 6.075V10.698C181.743 10.7287 182.249 10.7593 182.847 10.79C183.461 10.8053 183.882 10.813 184.112 10.813ZM194.11 14.079C195.106 13.0057 196.195 11.7407 197.376 10.284C198.556 8.82733 199.63 7.42433 200.596 6.075H201.516V17.069L200.596 17L199.676 17.069V9.065C198.648 10.215 197.897 11.0737 197.422 11.641C196.716 12.469 195.973 13.3813 195.191 14.378C194.409 15.3593 193.742 16.2563 193.19 17.069H192.27V6.075C192.346 6.09033 192.515 6.10567 192.776 6.121C193.036 6.13633 193.174 6.144 193.19 6.144C193.328 6.144 193.473 6.144 193.627 6.144C193.841 6.11333 194.002 6.09033 194.11 6.075V14.079ZM213.008 6.144V17.069L212.111 17L211.168 17.069V12.492H209.489L206.246 17.069L205.188 17L204.13 17.069L207.58 12.4C206.767 12.262 206.108 12.009 205.602 11.641C204.758 11.0277 204.337 10.146 204.337 8.996C204.337 8.168 204.636 7.48567 205.234 6.949C205.832 6.41233 206.552 6.144 207.396 6.144H213.008ZM211.168 11.572V7.064L208.477 7.041C207.848 7.041 207.311 7.248 206.867 7.662C206.437 8.06067 206.223 8.61267 206.223 9.318C206.223 10.238 206.675 10.8743 207.58 11.227C208.178 11.457 209.029 11.572 210.133 11.572H211.168Z" fill="white"/>
</svg>
