<svg width="134" height="17" viewBox="0 0 134 17" fill="none" xmlns="http://www.w3.org/2000/svg">
<path d="M11.9567 6.938V0.336999L12.9687 0.405999L13.9807 0.336999V16.069L12.9687 16L11.9567 16.069V8.157C11.2054 8.157 10.5997 8.14933 10.1397 8.134C8.29969 8.07267 7.29535 8.042 7.12669 8.042C6.39069 8.042 5.44769 8.065 4.29769 8.111C3.14769 8.14167 2.47302 8.157 2.27369 8.157V16.069L1.26169 16L0.249688 16.069V0.336999L1.26169 0.405999L2.27369 0.336999V6.938C3.04035 6.938 3.99869 6.961 5.14869 7.007C6.31402 7.03767 6.97335 7.053 7.12669 7.053C7.86269 7.053 8.46069 7.04533 8.92069 7.03C10.7607 6.96867 11.7727 6.938 11.9567 6.938ZM26.2931 13.7L26.2701 14.896C25.6721 15.3253 25.0434 15.6627 24.3841 15.908C23.7247 16.138 23.0347 16.253 22.3141 16.253C20.6887 16.253 19.3777 15.747 18.3811 14.735C17.3844 13.723 16.8861 12.343 16.8861 10.595C16.8861 8.92367 17.3307 7.582 18.2201 6.57C19.1707 5.48133 20.4817 4.937 22.1531 4.937C23.5177 4.937 24.6141 5.38933 25.4421 6.294C26.3621 7.29067 26.8221 8.71667 26.8221 10.572L22.1531 10.503H18.9101C18.9101 11.883 19.2244 13.0023 19.8531 13.861C20.5584 14.8117 21.5704 15.287 22.8891 15.287C23.5944 15.287 24.2767 15.103 24.9361 14.735C25.3807 14.4897 25.8331 14.1447 26.2931 13.7ZM18.9101 9.652H25.0281C25.0281 8.47133 24.8364 7.55133 24.4531 6.892C23.9777 6.064 23.2111 5.65 22.1531 5.65C21.1257 5.65 20.3131 6.07167 19.7151 6.915C19.1784 7.66633 18.9101 8.57867 18.9101 9.652ZM42.4924 7.743C42.4924 8.387 42.2778 8.92367 41.8484 9.353C41.4191 9.78233 40.8594 10.0507 40.1694 10.158C41.0281 10.2653 41.7181 10.526 42.2394 10.94C42.8681 11.446 43.1824 12.1437 43.1824 13.033C43.1824 14.0603 42.6918 14.873 41.7104 15.471C40.8518 15.9923 39.8014 16.253 38.5594 16.253C36.9648 16.253 35.7611 16.0077 34.9484 15.517C35.0404 15.241 35.1324 14.965 35.2244 14.689C35.3164 14.3977 35.3854 14.114 35.4314 13.838H35.6154C35.8914 14.344 36.2671 14.758 36.7424 15.08C37.2331 15.3867 37.8388 15.54 38.5594 15.54C39.3108 15.54 39.9241 15.3177 40.3994 14.873C40.8748 14.4283 41.1124 13.8457 41.1124 13.125C41.1124 12.3737 40.8748 11.7833 40.3994 11.354C39.9394 10.9093 39.3108 10.687 38.5134 10.687L36.9264 10.733V9.744L38.5134 9.79C39.1114 9.79 39.5868 9.59833 39.9394 9.215C40.2921 8.83167 40.4684 8.341 40.4684 7.743C40.4684 7.145 40.2768 6.64667 39.8934 6.248C39.5101 5.84933 39.0118 5.65 38.3984 5.65C37.7544 5.65 37.2254 5.80333 36.8114 6.11C36.4588 6.37067 36.1981 6.72333 36.0294 7.168H35.8224C35.6844 6.60067 35.5004 6.05633 35.2704 5.535C35.5311 5.36633 35.8838 5.236 36.3284 5.144C36.9418 5.006 37.7008 4.937 38.6054 4.937C39.6941 4.937 40.5911 5.15933 41.2964 5.604C42.0938 6.11 42.4924 6.823 42.4924 7.743ZM53.7011 8.801V14.137C53.7011 14.367 53.7011 14.5893 53.7011 14.804C53.7471 15.126 53.9541 15.287 54.3221 15.287C54.5215 15.287 54.7438 15.2563 54.9891 15.195V15.701C54.9125 15.7317 54.7975 15.7777 54.6441 15.839C54.5061 15.885 54.3451 15.9233 54.1611 15.954C53.9925 15.9847 53.7855 16 53.5401 16C53.0955 16 52.7275 15.8927 52.4361 15.678C52.1601 15.4633 51.9915 15.103 51.9301 14.597L51.7231 14.804C50.7571 15.77 49.6225 16.253 48.3191 16.253C47.4605 16.253 46.7321 16 46.1341 15.494C45.5361 14.9727 45.2371 14.2903 45.2371 13.447C45.2371 12.5423 45.5055 11.837 46.0421 11.331C46.5788 10.8097 47.7365 10.411 49.5151 10.135C50.5118 9.96633 51.1405 9.813 51.4011 9.675C51.7691 9.47567 51.9531 9.11533 51.9531 8.594C51.9531 7.73533 51.7155 7.076 51.2401 6.616C50.7801 6.14067 50.1208 5.903 49.2621 5.903C48.5261 5.903 47.8821 6.10233 47.3301 6.501C46.9008 6.80767 46.6325 7.13733 46.5251 7.49H46.2721V6.202C46.8701 5.788 47.4681 5.47367 48.0661 5.259C48.6795 5.04433 49.3158 4.937 49.9751 4.937C52.4591 4.937 53.7011 6.225 53.7011 8.801ZM51.8611 13.7V10.342L51.0561 10.526C49.7221 10.7867 48.8788 10.9937 48.5261 11.147C47.6061 11.561 47.1461 12.2203 47.1461 13.125C47.1461 13.8303 47.3378 14.367 47.7211 14.735C48.1198 15.0877 48.6795 15.264 49.4001 15.264C49.6915 15.264 50.0135 15.1797 50.3661 15.011C50.7188 14.827 51.0101 14.62 51.2401 14.39C51.4088 14.2367 51.5315 14.1217 51.6081 14.045C51.7768 13.8763 51.8611 13.7613 51.8611 13.7ZM59.2671 11.124L57.4271 16.092L56.6911 16.023L55.9551 16.092C56.2158 15.5553 56.7141 14.4667 57.4501 12.826C58.1248 11.3233 58.6998 10.0047 59.1751 8.87C59.8498 7.26 60.3405 6.00267 60.6471 5.098L61.3371 5.167L62.0501 5.098C62.5408 6.41667 63.2078 8.11867 64.0511 10.204C64.9865 12.5193 65.8221 14.482 66.5581 16.092L65.5231 16.023L64.5111 16.092C63.8058 13.7613 62.6635 10.8097 61.0841 7.237C60.8848 7.43633 60.5628 8.065 60.1181 9.123L59.2671 11.124ZM70.3864 13.079C71.3831 12.0057 72.4717 10.7407 73.6524 9.284C74.8331 7.82733 75.9064 6.42433 76.8724 5.075H77.7924V16.069L76.8724 16L75.9524 16.069V8.065C74.9251 9.215 74.1737 10.0737 73.6984 10.641C72.9931 11.469 72.2494 12.3813 71.4674 13.378C70.6854 14.3593 70.0184 15.2563 69.4664 16.069H68.5464V5.075C68.6231 5.09033 68.7917 5.10567 69.0524 5.121C69.3131 5.13633 69.4511 5.144 69.4664 5.144C69.6044 5.144 69.7501 5.144 69.9034 5.144C70.1181 5.11333 70.2791 5.09033 70.3864 5.075V13.079ZM85.9727 5.144L90.5727 5.098V16.069L89.6527 16L88.7327 16.069V6.156H83.1667V16.069L82.2467 16L81.3267 16.069V5.098L85.9727 5.144ZM101.835 8.801V14.137C101.835 14.367 101.835 14.5893 101.835 14.804C101.881 15.126 102.088 15.287 102.456 15.287C102.655 15.287 102.878 15.2563 103.123 15.195V15.701C103.046 15.7317 102.931 15.7777 102.778 15.839C102.64 15.885 102.479 15.9233 102.295 15.954C102.126 15.9847 101.919 16 101.674 16C101.229 16 100.861 15.8927 100.57 15.678C100.294 15.4633 100.125 15.103 100.064 14.597L99.8569 14.804C98.8909 15.77 97.7563 16.253 96.4529 16.253C95.5943 16.253 94.8659 16 94.2679 15.494C93.6699 14.9727 93.3709 14.2903 93.3709 13.447C93.3709 12.5423 93.6393 11.837 94.1759 11.331C94.7126 10.8097 95.8703 10.411 97.6489 10.135C98.6456 9.96633 99.2743 9.813 99.5349 9.675C99.9029 9.47567 100.087 9.11533 100.087 8.594C100.087 7.73533 99.8493 7.076 99.3739 6.616C98.9139 6.14067 98.2546 5.903 97.3959 5.903C96.6599 5.903 96.0159 6.10233 95.4639 6.501C95.0346 6.80767 94.7663 7.13733 94.6589 7.49H94.4059V6.202C95.0039 5.788 95.6019 5.47367 96.1999 5.259C96.8133 5.04433 97.4496 4.937 98.1089 4.937C100.593 4.937 101.835 6.225 101.835 8.801ZM99.9949 13.7V10.342L99.1899 10.526C97.8559 10.7867 97.0126 10.9937 96.6599 11.147C95.7399 11.561 95.2799 12.2203 95.2799 13.125C95.2799 13.8303 95.4716 14.367 95.8549 14.735C96.2536 15.0877 96.8133 15.264 97.5339 15.264C97.8253 15.264 98.1473 15.1797 98.4999 15.011C98.8526 14.827 99.1439 14.62 99.3739 14.39C99.5426 14.2367 99.6653 14.1217 99.7419 14.045C99.9106 13.8763 99.9949 13.7613 99.9949 13.7ZM107.447 13.079C108.444 12.0057 109.532 10.7407 110.713 9.284C111.894 7.82733 112.967 6.42433 113.933 5.075H114.853V16.069L113.933 16L113.013 16.069V8.065C111.986 9.215 111.234 10.0737 110.759 10.641C110.054 11.469 109.31 12.3813 108.528 13.378C107.746 14.3593 107.079 15.2563 106.527 16.069H105.607V5.075L106.527 5.144L107.447 5.075V13.079ZM113.634 2.2L114.094 2.959C113.527 3.29633 112.906 3.56467 112.231 3.764C111.572 3.948 110.897 4.04 110.207 4.04C109.517 4.04 108.85 3.95567 108.206 3.787C107.562 3.603 106.941 3.33467 106.343 2.982L106.803 2.2C107.784 2.81333 108.919 3.12 110.207 3.12C111.51 3.12 112.653 2.81333 113.634 2.2ZM118.433 14.873C118.433 14.505 118.571 14.183 118.847 13.907C119.123 13.631 119.453 13.493 119.836 13.493C120.189 13.493 120.503 13.631 120.779 13.907C121.055 14.183 121.193 14.505 121.193 14.873C121.193 15.241 121.063 15.563 120.802 15.839C120.542 16.115 120.22 16.253 119.836 16.253C119.453 16.253 119.123 16.1227 118.847 15.862C118.571 15.6013 118.433 15.2717 118.433 14.873ZM124.835 14.873C124.835 14.505 124.973 14.183 125.249 13.907C125.525 13.631 125.854 13.493 126.238 13.493C126.59 13.493 126.905 13.631 127.181 13.907C127.457 14.183 127.595 14.505 127.595 14.873C127.595 15.241 127.464 15.563 127.204 15.839C126.943 16.115 126.621 16.253 126.238 16.253C125.854 16.253 125.525 16.1227 125.249 15.862C124.973 15.6013 124.835 15.2717 124.835 14.873ZM131.236 14.873C131.236 14.505 131.374 14.183 131.65 13.907C131.926 13.631 132.256 13.493 132.639 13.493C132.992 13.493 133.306 13.631 133.582 13.907C133.858 14.183 133.996 14.505 133.996 14.873C133.996 15.241 133.866 15.563 133.605 15.839C133.344 16.115 133.022 16.253 132.639 16.253C132.256 16.253 131.926 16.1227 131.65 15.862C131.374 15.6013 131.236 15.2717 131.236 14.873Z" fill="white"/>
</svg>
