<svg width="426" height="23" viewBox="0 0 426 23" fill="none" xmlns="http://www.w3.org/2000/svg">
<path d="M0.494805 1.337H14.2258V17.069L13.2138 17L12.2018 17.069V2.487L7.37181 2.418L2.5188 2.487V17.069L1.5068 17L0.494805 17.069V1.337ZM19.6842 22.957L18.7642 22.888L17.8442 22.957V6.075L18.7642 6.144L19.6842 6.075V8.26C20.0675 7.58533 20.4355 7.09467 20.7882 6.788C21.4935 6.19 22.4365 5.891 23.6172 5.891C25.0432 5.891 26.1855 6.42767 27.0442 7.501C27.8415 8.49767 28.2402 9.732 28.2402 11.204C28.2402 13.0593 27.7802 14.5313 26.8602 15.62C25.9555 16.7087 24.7595 17.253 23.2722 17.253C22.4595 17.253 21.7618 17.069 21.1792 16.701C20.6118 16.333 20.1288 15.781 19.7302 15.045L19.6842 22.957ZM19.6842 11.871C19.6842 13.1743 19.9525 14.217 20.4892 14.999C21.0872 15.8577 21.9458 16.287 23.0652 16.287C24.1385 16.287 24.9512 15.7887 25.5032 14.792C25.9785 13.918 26.2162 12.7527 26.2162 11.296C26.2162 10.008 25.9938 8.98833 25.5492 8.237C25.0125 7.317 24.1768 6.857 23.0422 6.857C21.8615 6.857 20.9722 7.42433 20.3742 8.559C19.9142 9.44833 19.6842 10.5523 19.6842 11.871ZM32.7174 14.079C33.7141 13.0057 34.8028 11.7407 35.9834 10.284C37.1641 8.82733 38.2374 7.42433 39.2034 6.075H40.1234V17.069L39.2034 17L38.2834 17.069V9.065C37.2561 10.215 36.5048 11.0737 36.0294 11.641C35.3241 12.469 34.5804 13.3813 33.7984 14.378C33.0164 15.3593 32.3494 16.2563 31.7974 17.069H30.8774V6.075C30.9541 6.09033 31.1228 6.10567 31.3834 6.121C31.6441 6.13633 31.7821 6.144 31.7974 6.144C31.9354 6.144 32.0811 6.144 32.2344 6.144C32.4491 6.11333 32.6101 6.09033 32.7174 6.075V14.079ZM52.2827 6.88L51.7537 8.398H51.5697C51.4777 8.27533 51.3781 8.145 51.2707 8.007C51.1634 7.85367 51.0561 7.731 50.9487 7.639C50.6881 7.34767 50.3507 7.12533 49.9367 6.972C49.5227 6.80333 49.1011 6.719 48.6717 6.719C47.4144 6.719 46.4254 7.202 45.7047 8.168C45.0454 9.05733 44.7157 10.146 44.7157 11.434C44.7157 12.906 45.0991 14.1173 45.8657 15.068C46.6477 16.0033 47.6597 16.471 48.9017 16.471C49.5304 16.471 50.1054 16.333 50.6267 16.057C51.0254 15.8423 51.5084 15.482 52.0757 14.976L52.2137 15.045L52.0987 16.103C51.0561 16.8697 49.8831 17.253 48.5797 17.253C46.7091 17.253 45.2447 16.7087 44.1867 15.62C43.1901 14.5927 42.6917 13.2357 42.6917 11.549C42.6917 9.801 43.2437 8.42867 44.3477 7.432C45.4517 6.43533 46.8854 5.937 48.6487 5.937C49.3541 5.937 49.9981 6.01367 50.5807 6.167C51.1634 6.305 51.7307 6.54267 52.2827 6.88ZM56.525 12.124L54.685 17.092L53.949 17.023L53.213 17.092C53.4736 16.5553 53.972 15.4667 54.708 13.826C55.3826 12.3233 55.9576 11.0047 56.433 9.87C57.1076 8.26 57.5983 7.00267 57.905 6.098L58.595 6.167L59.308 6.098C59.7986 7.41667 60.4656 9.11867 61.309 11.204C62.2443 13.5193 63.08 15.482 63.816 17.092L62.781 17.023L61.769 17.092C61.0636 14.7613 59.9213 11.8097 58.342 8.237C58.1426 8.43633 57.8206 9.065 57.376 10.123L56.525 12.124ZM69.2772 16.977L64.6312 6.075L65.7352 6.144L66.8162 6.075C67.2302 7.34767 67.7209 8.70467 68.2882 10.146C68.8709 11.572 69.5225 13.0593 70.2432 14.608C70.7339 13.6113 71.3242 12.2467 72.0142 10.514C72.5815 9.10333 73.1412 7.62367 73.6932 6.075L74.4522 6.144L75.1882 6.075C74.4675 7.685 73.5935 9.617 72.5662 11.871C71.6155 13.9717 70.7875 15.827 70.0822 17.437C69.1469 19.5683 68.3725 21.4083 67.7592 22.957L66.9772 22.888L66.1952 22.957L69.2772 16.977ZM80.9152 16.011L82.9162 15.965V6.075C82.9929 6.09033 83.1232 6.10567 83.3072 6.121C83.4912 6.13633 83.6675 6.144 83.8362 6.144C83.9742 6.144 84.1199 6.144 84.2732 6.144C84.4879 6.11333 84.6489 6.09033 84.7562 6.075V15.965L86.6652 16.011L88.5282 15.965V6.075C88.6049 6.09033 88.7352 6.10567 88.9192 6.121C89.1032 6.13633 89.2795 6.144 89.4482 6.144C89.8775 6.144 90.1842 6.121 90.3682 6.075V17H77.3042V6.075C77.3809 6.09033 77.5495 6.10567 77.8102 6.121C78.0709 6.13633 78.2089 6.144 78.2242 6.144C78.3622 6.144 78.5079 6.144 78.6612 6.144C78.8759 6.11333 79.0369 6.09033 79.1442 6.075V15.965L80.9152 16.011ZM101.631 9.801V15.137C101.631 15.367 101.631 15.5893 101.631 15.804C101.677 16.126 101.884 16.287 102.252 16.287C102.451 16.287 102.674 16.2563 102.919 16.195V16.701C102.842 16.7317 102.727 16.7777 102.574 16.839C102.436 16.885 102.275 16.9233 102.091 16.954C101.922 16.9847 101.715 17 101.47 17C101.025 17 100.657 16.8927 100.366 16.678C100.09 16.4633 99.9212 16.103 99.8598 15.597L99.6528 15.804C98.6868 16.77 97.5522 17.253 96.2488 17.253C95.3902 17.253 94.6618 17 94.0638 16.494C93.4658 15.9727 93.1668 15.2903 93.1668 14.447C93.1668 13.5423 93.4352 12.837 93.9718 12.331C94.5085 11.8097 95.6662 11.411 97.4448 11.135C98.4415 10.9663 99.0702 10.813 99.3308 10.675C99.6988 10.4757 99.8828 10.1153 99.8828 9.594C99.8828 8.73533 99.6452 8.076 99.1698 7.616C98.7098 7.14067 98.0505 6.903 97.1918 6.903C96.4558 6.903 95.8118 7.10233 95.2598 7.501C94.8305 7.80767 94.5622 8.13733 94.4548 8.49H94.2018V7.202C94.7998 6.788 95.3978 6.47367 95.9958 6.259C96.6092 6.04433 97.2455 5.937 97.9048 5.937C100.389 5.937 101.631 7.225 101.631 9.801ZM99.7908 14.7V11.342L98.9858 11.526C97.6518 11.7867 96.8085 11.9937 96.4558 12.147C95.5358 12.561 95.0758 13.2203 95.0758 14.125C95.0758 14.8303 95.2675 15.367 95.6508 15.735C96.0495 16.0877 96.6092 16.264 97.3298 16.264C97.6212 16.264 97.9432 16.1797 98.2958 16.011C98.6485 15.827 98.9398 15.62 99.1698 15.39C99.3385 15.2367 99.4612 15.1217 99.5378 15.045C99.7065 14.8763 99.7908 14.7613 99.7908 14.7ZM107.243 14.079C108.24 13.0057 109.328 11.7407 110.509 10.284C111.69 8.82733 112.763 7.42433 113.729 6.075H114.649V17.069L113.729 17L112.809 17.069V9.065C111.782 10.215 111.03 11.0737 110.555 11.641C109.85 12.469 109.106 13.3813 108.324 14.378C107.542 15.3593 106.875 16.2563 106.323 17.069H105.403V6.075L106.323 6.144L107.243 6.075V14.079ZM113.43 3.2L113.89 3.959C113.323 4.29633 112.702 4.56467 112.027 4.764C111.368 4.948 110.693 5.04 110.003 5.04C109.313 5.04 108.646 4.95567 108.002 4.787C107.358 4.603 106.737 4.33467 106.139 3.982L106.599 3.2C107.58 3.81333 108.715 4.12 110.003 4.12C111.306 4.12 112.449 3.81333 113.43 3.2ZM126.808 6.88L126.279 8.398H126.095C126.003 8.27533 125.903 8.145 125.796 8.007C125.689 7.85367 125.581 7.731 125.474 7.639C125.213 7.34767 124.876 7.12533 124.462 6.972C124.048 6.80333 123.626 6.719 123.197 6.719C121.94 6.719 120.951 7.202 120.23 8.168C119.571 9.05733 119.241 10.146 119.241 11.434C119.241 12.906 119.624 14.1173 120.391 15.068C121.173 16.0033 122.185 16.471 123.427 16.471C124.056 16.471 124.631 16.333 125.152 16.057C125.551 15.8423 126.034 15.482 126.601 14.976L126.739 15.045L126.624 16.103C125.581 16.8697 124.408 17.253 123.105 17.253C121.234 17.253 119.77 16.7087 118.712 15.62C117.715 14.5927 117.217 13.2357 117.217 11.549C117.217 9.801 117.769 8.42867 118.873 7.432C119.977 6.43533 121.411 5.937 123.174 5.937C123.879 5.937 124.523 6.01367 125.106 6.167C125.689 6.305 126.256 6.54267 126.808 6.88ZM137.214 6.144V17.069L136.317 17L135.374 17.069V12.492H133.695L130.452 17.069L129.394 17L128.336 17.069L131.786 12.4C130.974 12.262 130.314 12.009 129.808 11.641C128.965 11.0277 128.543 10.146 128.543 8.996C128.543 8.168 128.842 7.48567 129.44 6.949C130.038 6.41233 130.759 6.144 131.602 6.144H137.214ZM135.374 11.572V7.064L132.683 7.041C132.055 7.041 131.518 7.248 131.073 7.662C130.644 8.06067 130.429 8.61267 130.429 9.318C130.429 10.238 130.882 10.8743 131.786 11.227C132.384 11.457 133.235 11.572 134.339 11.572H135.374ZM149.044 6.075V10.1C149.028 10.3147 149.021 10.468 149.021 10.56C149.021 10.7133 149.067 10.813 149.159 10.859C149.327 10.951 149.58 10.8743 149.918 10.629C150.163 10.4603 150.577 10.0847 151.16 9.502L152.586 8.053L154.38 6.075L155.3 6.144L156.197 6.075V6.236C155.139 7.12533 154.219 7.915 153.437 8.605C152.501 9.41767 151.735 10.1077 151.137 10.675L156.542 16.954V17.069L155.415 17L154.265 17.069C153.866 16.5477 153.375 15.942 152.793 15.252C152.348 14.7307 151.374 13.6113 149.872 11.894C149.657 11.6487 149.481 11.526 149.343 11.526C149.143 11.526 149.044 11.8097 149.044 12.377V17.069L148.124 17L147.204 17.069V6.075L148.124 6.144L149.044 6.075ZM173.684 6.88L173.155 8.398H172.971C172.879 8.27533 172.779 8.145 172.672 8.007C172.565 7.85367 172.457 7.731 172.35 7.639C172.089 7.34767 171.752 7.12533 171.338 6.972C170.924 6.80333 170.502 6.719 170.073 6.719C168.816 6.719 167.827 7.202 167.106 8.168C166.447 9.05733 166.117 10.146 166.117 11.434C166.117 12.906 166.5 14.1173 167.267 15.068C168.049 16.0033 169.061 16.471 170.303 16.471C170.932 16.471 171.507 16.333 172.028 16.057C172.427 15.8423 172.91 15.482 173.477 14.976L173.615 15.045L173.5 16.103C172.457 16.8697 171.284 17.253 169.981 17.253C168.11 17.253 166.646 16.7087 165.588 15.62C164.591 14.5927 164.093 13.2357 164.093 11.549C164.093 9.801 164.645 8.42867 165.749 7.432C166.853 6.43533 168.287 5.937 170.05 5.937C170.755 5.937 171.399 6.01367 171.982 6.167C172.565 6.305 173.132 6.54267 173.684 6.88ZM184.573 14.7L184.55 15.896C183.952 16.3253 183.324 16.6627 182.664 16.908C182.005 17.138 181.315 17.253 180.594 17.253C178.969 17.253 177.658 16.747 176.661 15.735C175.665 14.723 175.166 13.343 175.166 11.595C175.166 9.92367 175.611 8.582 176.5 7.57C177.451 6.48133 178.762 5.937 180.433 5.937C181.798 5.937 182.894 6.38933 183.722 7.294C184.642 8.29067 185.102 9.71667 185.102 11.572L180.433 11.503H177.19C177.19 12.883 177.505 14.0023 178.133 14.861C178.839 15.8117 179.851 16.287 181.169 16.287C181.875 16.287 182.557 16.103 183.216 15.735C183.661 15.4897 184.113 15.1447 184.573 14.7ZM177.19 10.652H183.308C183.308 9.47133 183.117 8.55133 182.733 7.892C182.258 7.064 181.491 6.65 180.433 6.65C179.406 6.65 178.593 7.07167 177.995 7.915C177.459 8.66633 177.19 9.57867 177.19 10.652ZM188.414 7.225C188.92 6.79567 189.526 6.47367 190.231 6.259C190.937 6.04433 191.696 5.937 192.508 5.937C194.088 5.937 195.368 6.45067 196.349 7.478C197.346 8.49 197.844 9.847 197.844 11.549C197.844 13.113 197.361 14.4317 196.395 15.505C195.337 16.6703 193.904 17.253 192.094 17.253C190.515 17.253 189.212 16.7317 188.184 15.689C187.172 14.631 186.666 13.228 186.666 11.48C186.666 7.27867 187.356 4.54167 188.736 3.269C190.116 1.981 192.93 1.337 197.177 1.337L197.108 2.05L197.177 2.717C196.748 2.65567 196.211 2.602 195.567 2.556C194.939 2.51 194.302 2.487 193.658 2.487C192.002 2.487 190.714 2.924 189.794 3.798C188.874 4.672 188.414 5.81433 188.414 7.225ZM192.485 6.65C191.136 6.65 190.139 7.202 189.495 8.306C188.959 9.21067 188.69 10.3837 188.69 11.825C188.69 13.1283 188.959 14.2017 189.495 15.045C190.124 16.0417 191.052 16.54 192.278 16.54C193.49 16.54 194.417 15.919 195.061 14.677C195.567 13.711 195.82 12.63 195.82 11.434C195.82 10.1767 195.59 9.12633 195.13 8.283C194.532 7.19433 193.651 6.65 192.485 6.65ZM208.854 14.7L208.831 15.896C208.233 16.3253 207.604 16.6627 206.945 16.908C206.285 17.138 205.595 17.253 204.875 17.253C203.249 17.253 201.938 16.747 200.942 15.735C199.945 14.723 199.447 13.343 199.447 11.595C199.447 9.92367 199.891 8.582 200.781 7.57C201.731 6.48133 203.042 5.937 204.714 5.937C206.078 5.937 207.175 6.38933 208.003 7.294C208.923 8.29067 209.383 9.71667 209.383 11.572L204.714 11.503H201.471C201.471 12.883 201.785 14.0023 202.414 14.861C203.119 15.8117 204.131 16.287 205.45 16.287C206.155 16.287 206.837 16.103 207.497 15.735C207.941 15.4897 208.394 15.1447 208.854 14.7ZM201.471 10.652H207.589C207.589 9.47133 207.397 8.55133 207.014 7.892C206.538 7.064 205.772 6.65 204.714 6.65C203.686 6.65 202.874 7.07167 202.276 7.915C201.739 8.66633 201.471 9.57867 201.471 10.652ZM224.626 8.743C224.626 9.387 224.412 9.92367 223.982 10.353C223.553 10.7823 222.993 11.0507 222.303 11.158C223.162 11.2653 223.852 11.526 224.373 11.94C225.002 12.446 225.316 13.1437 225.316 14.033C225.316 15.0603 224.826 15.873 223.844 16.471C222.986 16.9923 221.935 17.253 220.693 17.253C219.099 17.253 217.895 17.0077 217.082 16.517C217.174 16.241 217.266 15.965 217.358 15.689C217.45 15.3977 217.519 15.114 217.565 14.838H217.749C218.025 15.344 218.401 15.758 218.876 16.08C219.367 16.3867 219.973 16.54 220.693 16.54C221.445 16.54 222.058 16.3177 222.533 15.873C223.009 15.4283 223.246 14.8457 223.246 14.125C223.246 13.3737 223.009 12.7833 222.533 12.354C222.073 11.9093 221.445 11.687 220.647 11.687L219.06 11.733V10.744L220.647 10.79C221.245 10.79 221.721 10.5983 222.073 10.215C222.426 9.83167 222.602 9.341 222.602 8.743C222.602 8.145 222.411 7.64667 222.027 7.248C221.644 6.84933 221.146 6.65 220.532 6.65C219.888 6.65 219.359 6.80333 218.945 7.11C218.593 7.37067 218.332 7.72333 218.163 8.168H217.956C217.818 7.60067 217.634 7.05633 217.404 6.535C217.665 6.36633 218.018 6.236 218.462 6.144C219.076 6.006 219.835 5.937 220.739 5.937C221.828 5.937 222.725 6.15933 223.43 6.604C224.228 7.11 224.626 7.823 224.626 8.743ZM235.835 9.801V15.137C235.835 15.367 235.835 15.5893 235.835 15.804C235.881 16.126 236.088 16.287 236.456 16.287C236.655 16.287 236.878 16.2563 237.123 16.195V16.701C237.046 16.7317 236.931 16.7777 236.778 16.839C236.64 16.885 236.479 16.9233 236.295 16.954C236.126 16.9847 235.919 17 235.674 17C235.229 17 234.861 16.8927 234.57 16.678C234.294 16.4633 234.125 16.103 234.064 15.597L233.857 15.804C232.891 16.77 231.756 17.253 230.453 17.253C229.594 17.253 228.866 17 228.268 16.494C227.67 15.9727 227.371 15.2903 227.371 14.447C227.371 13.5423 227.639 12.837 228.176 12.331C228.713 11.8097 229.87 11.411 231.649 11.135C232.646 10.9663 233.274 10.813 233.535 10.675C233.903 10.4757 234.087 10.1153 234.087 9.594C234.087 8.73533 233.849 8.076 233.374 7.616C232.914 7.14067 232.255 6.903 231.396 6.903C230.66 6.903 230.016 7.10233 229.464 7.501C229.035 7.80767 228.766 8.13733 228.659 8.49H228.406V7.202C229.004 6.788 229.602 6.47367 230.2 6.259C230.813 6.04433 231.45 5.937 232.109 5.937C234.593 5.937 235.835 7.225 235.835 9.801ZM233.995 14.7V11.342L233.19 11.526C231.856 11.7867 231.013 11.9937 230.66 12.147C229.74 12.561 229.28 13.2203 229.28 14.125C229.28 14.8303 229.472 15.367 229.855 15.735C230.254 16.0877 230.813 16.264 231.534 16.264C231.825 16.264 232.147 16.1797 232.5 16.011C232.853 15.827 233.144 15.62 233.374 15.39C233.543 15.2367 233.665 15.1217 233.742 15.045C233.911 14.8763 233.995 14.7613 233.995 14.7ZM249.527 11.779C250.003 11.779 250.493 11.687 250.999 11.503C251.505 11.3037 251.981 11.0353 252.425 10.698V6.075L253.345 6.144L254.265 6.075V17.069L253.345 17L252.425 17.069V11.733C251.919 12.055 251.337 12.3233 250.677 12.538C250.018 12.7373 249.405 12.837 248.837 12.837C248.055 12.837 247.35 12.676 246.721 12.354C245.832 11.894 245.387 11.2117 245.387 10.307V6.075L246.307 6.144L247.227 6.075V10.238C247.227 10.8207 247.473 11.2347 247.963 11.48C248.347 11.6793 248.868 11.779 249.527 11.779ZM265.663 9.801V15.137C265.663 15.367 265.663 15.5893 265.663 15.804C265.709 16.126 265.916 16.287 266.284 16.287C266.483 16.287 266.706 16.2563 266.951 16.195V16.701C266.874 16.7317 266.759 16.7777 266.606 16.839C266.468 16.885 266.307 16.9233 266.123 16.954C265.954 16.9847 265.747 17 265.502 17C265.057 17 264.689 16.8927 264.398 16.678C264.122 16.4633 263.953 16.103 263.892 15.597L263.685 15.804C262.719 16.77 261.584 17.253 260.281 17.253C259.422 17.253 258.694 17 258.096 16.494C257.498 15.9727 257.199 15.2903 257.199 14.447C257.199 13.5423 257.467 12.837 258.004 12.331C258.541 11.8097 259.698 11.411 261.477 11.135C262.474 10.9663 263.102 10.813 263.363 10.675C263.731 10.4757 263.915 10.1153 263.915 9.594C263.915 8.73533 263.677 8.076 263.202 7.616C262.742 7.14067 262.083 6.903 261.224 6.903C260.488 6.903 259.844 7.10233 259.292 7.501C258.863 7.80767 258.594 8.13733 258.487 8.49H258.234V7.202C258.832 6.788 259.43 6.47367 260.028 6.259C260.641 6.04433 261.278 5.937 261.937 5.937C264.421 5.937 265.663 7.225 265.663 9.801ZM263.823 14.7V11.342L263.018 11.526C261.684 11.7867 260.841 11.9937 260.488 12.147C259.568 12.561 259.108 13.2203 259.108 14.125C259.108 14.8303 259.3 15.367 259.683 15.735C260.082 16.0877 260.641 16.264 261.362 16.264C261.653 16.264 261.975 16.1797 262.328 16.011C262.681 15.827 262.972 15.62 263.202 15.39C263.371 15.2367 263.493 15.1217 263.57 15.045C263.739 14.8763 263.823 14.7613 263.823 14.7ZM273.046 16.011L275.047 15.965V6.075C275.124 6.09033 275.254 6.10567 275.438 6.121C275.622 6.13633 275.798 6.144 275.967 6.144C276.105 6.144 276.251 6.144 276.404 6.144C276.619 6.11333 276.78 6.09033 276.887 6.075V15.965L278.796 16.011L280.659 15.965V6.075C280.736 6.09033 280.866 6.10567 281.05 6.121C281.234 6.13633 281.41 6.144 281.579 6.144C282.008 6.144 282.315 6.121 282.499 6.075V17H269.435V6.075C269.512 6.09033 269.68 6.10567 269.941 6.121C270.202 6.13633 270.34 6.144 270.355 6.144C270.493 6.144 270.639 6.144 270.792 6.144C271.007 6.11333 271.168 6.09033 271.275 6.075V15.965L273.046 16.011ZM287.92 6.075V10.1C287.904 10.3147 287.897 10.468 287.897 10.56C287.897 10.7133 287.943 10.813 288.035 10.859C288.203 10.951 288.456 10.8743 288.794 10.629C289.039 10.4603 289.453 10.0847 290.036 9.502L291.462 8.053L293.256 6.075L294.176 6.144L295.073 6.075V6.236C294.015 7.12533 293.095 7.915 292.313 8.605C291.377 9.41767 290.611 10.1077 290.013 10.675L295.418 16.954V17.069L294.291 17L293.141 17.069C292.742 16.5477 292.251 15.942 291.669 15.252C291.224 14.7307 290.25 13.6113 288.748 11.894C288.533 11.6487 288.357 11.526 288.219 11.526C288.019 11.526 287.92 11.8097 287.92 12.377V17.069L287 17L286.08 17.069V6.075L287 6.144L287.92 6.075ZM296.568 11.48C296.568 9.85467 297.12 8.52833 298.224 7.501C299.343 6.45833 300.738 5.937 302.41 5.937C303.989 5.937 305.269 6.45067 306.251 7.478C307.247 8.49 307.746 9.847 307.746 11.549C307.746 13.113 307.263 14.4317 306.297 15.505C305.239 16.6703 303.805 17.253 301.996 17.253C300.416 17.253 299.113 16.7317 298.086 15.689C297.074 14.631 296.568 13.228 296.568 11.48ZM302.387 6.65C301.037 6.65 300.041 7.202 299.397 8.306C298.86 9.21067 298.592 10.3837 298.592 11.825C298.592 13.1283 298.86 14.2017 299.397 15.045C300.025 16.0417 300.953 16.54 302.18 16.54C303.391 16.54 304.319 15.919 304.963 14.677C305.469 13.711 305.722 12.63 305.722 11.434C305.722 10.1767 305.492 9.12633 305.032 8.283C304.434 7.19433 303.552 6.65 302.387 6.65ZM312.154 14.079C313.151 13.0057 314.239 11.7407 315.42 10.284C316.601 8.82733 317.674 7.42433 318.64 6.075H319.56V17.069L318.64 17L317.72 17.069V9.065C316.693 10.215 315.941 11.0737 315.466 11.641C314.761 12.469 314.017 13.3813 313.235 14.378C312.453 15.3593 311.786 16.2563 311.234 17.069H310.314V6.075L311.234 6.144L312.154 6.075V14.079ZM318.341 3.2L318.801 3.959C318.234 4.29633 317.613 4.56467 316.938 4.764C316.279 4.948 315.604 5.04 314.914 5.04C314.224 5.04 313.557 4.95567 312.913 4.787C312.269 4.603 311.648 4.33467 311.05 3.982L311.51 3.2C312.491 3.81333 313.626 4.12 314.914 4.12C316.217 4.12 317.36 3.81333 318.341 3.2Z" fill="white"/>
<path d="M333.015 11.779C333.49 11.779 333.981 11.687 334.487 11.503C334.993 11.3037 335.468 11.0353 335.913 10.698V6.075L336.833 6.144L337.753 6.075V17.069L336.833 17L335.913 17.069V11.733C335.407 12.055 334.824 12.3233 334.165 12.538C333.505 12.7373 332.892 12.837 332.325 12.837C331.543 12.837 330.837 12.676 330.209 12.354C329.319 11.894 328.875 11.2117 328.875 10.307V6.075L329.795 6.144L330.715 6.075V10.238C330.715 10.8207 330.96 11.2347 331.451 11.48C331.834 11.6793 332.355 11.779 333.015 11.779ZM349.15 9.801V15.137C349.15 15.367 349.15 15.5893 349.15 15.804C349.196 16.126 349.403 16.287 349.771 16.287C349.971 16.287 350.193 16.2563 350.438 16.195V16.701C350.362 16.7317 350.247 16.7777 350.093 16.839C349.955 16.885 349.794 16.9233 349.61 16.954C349.442 16.9847 349.235 17 348.989 17C348.545 17 348.177 16.8927 347.885 16.678C347.609 16.4633 347.441 16.103 347.379 15.597L347.172 15.804C346.206 16.77 345.072 17.253 343.768 17.253C342.91 17.253 342.181 17 341.583 16.494C340.985 15.9727 340.686 15.2903 340.686 14.447C340.686 13.5423 340.955 12.837 341.491 12.331C342.028 11.8097 343.186 11.411 344.964 11.135C345.961 10.9663 346.59 10.813 346.85 10.675C347.218 10.4757 347.402 10.1153 347.402 9.594C347.402 8.73533 347.165 8.076 346.689 7.616C346.229 7.14067 345.57 6.903 344.711 6.903C343.975 6.903 343.331 7.10233 342.779 7.501C342.35 7.80767 342.082 8.13733 341.974 8.49H341.721V7.202C342.319 6.788 342.917 6.47367 343.515 6.259C344.129 6.04433 344.765 5.937 345.424 5.937C347.908 5.937 349.15 7.225 349.15 9.801ZM347.31 14.7V11.342L346.505 11.526C345.171 11.7867 344.328 11.9937 343.975 12.147C343.055 12.561 342.595 13.2203 342.595 14.125C342.595 14.8303 342.787 15.367 343.17 15.735C343.569 16.0877 344.129 16.264 344.849 16.264C345.141 16.264 345.463 16.1797 345.815 16.011C346.168 15.827 346.459 15.62 346.689 15.39C346.858 15.2367 346.981 15.1217 347.057 15.045C347.226 14.8763 347.31 14.7613 347.31 14.7ZM360.88 6.144V17.069L359.983 17L359.04 17.069V12.492H357.361L354.118 17.069L353.06 17L352.002 17.069L355.452 12.4C354.64 12.262 353.98 12.009 353.474 11.641C352.631 11.0277 352.209 10.146 352.209 8.996C352.209 8.168 352.508 7.48567 353.106 6.949C353.704 6.41233 354.425 6.144 355.268 6.144H360.88ZM359.04 11.572V7.064L356.349 7.041C355.721 7.041 355.184 7.248 354.739 7.662C354.31 8.06067 354.095 8.61267 354.095 9.318C354.095 10.238 354.548 10.8743 355.452 11.227C356.05 11.457 356.901 11.572 358.005 11.572H359.04ZM383.221 14.585L383.106 16.034C382.431 16.494 381.649 16.8237 380.76 17.023C379.87 17.2377 378.958 17.345 378.023 17.345C375.508 17.345 373.53 16.6013 372.089 15.114C370.647 13.6267 369.927 11.6257 369.927 9.111C369.927 6.59633 370.762 4.59533 372.434 3.108C374.028 1.69733 376.083 0.991999 378.598 0.991999C379.41 0.991999 380.238 1.084 381.082 1.268C381.94 1.452 382.761 1.71267 383.543 2.05C383.451 2.28 383.359 2.57133 383.267 2.924C383.175 3.26133 383.106 3.56033 383.06 3.821L382.899 3.844C382.73 3.62933 382.431 3.36867 382.002 3.062C380.882 2.26467 379.717 1.866 378.506 1.866C376.482 1.866 374.902 2.59433 373.768 4.051C372.71 5.40033 372.181 7.11767 372.181 9.203C372.181 11.3957 372.748 13.1513 373.883 14.47C375.017 15.7887 376.505 16.448 378.345 16.448C379.173 16.448 380.024 16.287 380.898 15.965C381.772 15.6277 382.546 15.1677 383.221 14.585ZM395.273 6.075V17.069L394.353 17L393.433 17.069V15.091C392.681 16.5323 391.462 17.253 389.776 17.253C388.488 17.253 387.529 16.908 386.901 16.218C386.287 15.5127 385.981 14.3857 385.981 12.837V6.075L386.901 6.144L387.821 6.075V12.285C387.821 13.573 388.028 14.539 388.442 15.183C388.871 15.8117 389.592 16.126 390.604 16.126C391.662 16.126 392.428 15.712 392.904 14.884C393.256 14.2707 393.433 13.4503 393.433 12.423V6.075L394.353 6.144L395.273 6.075ZM398.991 17.069V6.075L399.911 6.144L400.831 6.075V8.375L400.946 8.099C401.36 7.43967 401.789 6.93367 402.234 6.581C402.77 6.15167 403.307 5.937 403.844 5.937C404.15 5.937 404.388 5.97533 404.557 6.052L404.235 7.984C404.158 7.96867 403.997 7.90733 403.752 7.8C403.506 7.67733 403.307 7.616 403.154 7.616C402.893 7.616 402.625 7.66967 402.349 7.777C402.073 7.869 401.85 8.007 401.682 8.191C401.329 8.605 401.099 9.02667 400.992 9.456C400.884 9.88533 400.831 10.4373 400.831 11.112V17.069L399.911 17L398.991 17.069ZM406.489 3.798L408.329 3.085V6.075H410.767C410.736 6.28967 410.721 6.45067 410.721 6.558C410.721 6.66533 410.736 6.79567 410.767 6.949H408.329V12.722V13.458C408.329 14.3933 408.406 15.0603 408.559 15.459C408.82 16.1183 409.31 16.448 410.031 16.448C410.2 16.448 410.384 16.425 410.583 16.379C410.798 16.333 410.959 16.3023 411.066 16.287V16.839C410.698 16.977 410.368 17.0767 410.077 17.138C409.786 17.2147 409.471 17.253 409.134 17.253C408.214 17.253 407.555 17.0077 407.156 16.517C406.711 15.965 406.489 15.0067 406.489 13.642V6.949H405.063C405.094 6.857 405.109 6.71133 405.109 6.512C405.109 6.328 405.094 6.18233 405.063 6.075H406.489V3.798ZM415.351 6.075V17.069L414.431 17L413.511 17.069V6.075L414.431 6.144L415.351 6.075ZM415.604 2.142C415.604 2.464 415.489 2.74 415.259 2.97C415.029 3.2 414.753 3.315 414.431 3.315C414.109 3.315 413.833 3.2 413.603 2.97C413.373 2.74 413.258 2.464 413.258 2.142C413.258 1.82 413.373 1.544 413.603 1.314C413.833 1.084 414.109 0.968999 414.431 0.968999C414.738 0.968999 415.006 1.084 415.236 1.314C415.482 1.52867 415.604 1.80467 415.604 2.142ZM419.085 14.838H419.269C419.56 15.3287 419.943 15.735 420.419 16.057C420.894 16.379 421.392 16.54 421.914 16.54C422.496 16.54 423.018 16.3407 423.478 15.942C423.938 15.5433 424.168 15.045 424.168 14.447C424.168 13.4963 423.263 12.7603 421.454 12.239C419.644 11.7177 418.74 10.7517 418.74 9.341C418.74 8.26767 419.092 7.432 419.798 6.834C420.503 6.236 421.4 5.937 422.489 5.937C423.025 5.937 423.531 6.006 424.007 6.144C424.497 6.26667 424.858 6.397 425.088 6.535C424.858 7.05633 424.674 7.60067 424.536 8.168H424.329C424.175 7.76933 423.915 7.41667 423.547 7.11C423.179 6.80333 422.788 6.65 422.374 6.65C421.776 6.65 421.277 6.81867 420.879 7.156C420.48 7.49333 420.281 7.961 420.281 8.559C420.281 9.479 421.185 10.2303 422.995 10.813C424.804 11.3957 425.709 12.331 425.709 13.619C425.709 14.769 425.256 15.6813 424.352 16.356C423.554 16.954 422.596 17.253 421.477 17.253C421.001 17.253 420.495 17.184 419.959 17.046C419.437 16.9233 418.985 16.747 418.602 16.517C418.694 16.241 418.786 15.965 418.878 15.689C418.97 15.3977 419.039 15.114 419.085 14.838Z" fill="#FBC32D"/>
</svg>
