<svg width="189" height="109" viewBox="0 0 189 109" fill="none" xmlns="http://www.w3.org/2000/svg">
<path d="M9.21338 0.974999H24.1384V18.075L23.0384 18L21.9384 18.075V2.225L16.6884 2.15L11.4134 2.225V18.075L10.3134 18L9.21338 18.075V0.974999ZM27.2964 12C27.2964 10.2333 27.8964 8.79167 29.0964 7.675C30.3131 6.54167 31.8297 5.975 33.6464 5.975C35.3631 5.975 36.7547 6.53333 37.8214 7.65C38.9047 8.75 39.4464 10.225 39.4464 12.075C39.4464 13.775 38.9214 15.2083 37.8714 16.375C36.7214 17.6417 35.1631 18.275 33.1964 18.275C31.4797 18.275 30.0631 17.7083 28.9464 16.575C27.8464 15.425 27.2964 13.9 27.2964 12ZM33.6214 6.75C32.1547 6.75 31.0714 7.35 30.3714 8.55C29.7881 9.53333 29.4964 10.8083 29.4964 12.375C29.4964 13.7917 29.7881 14.9583 30.3714 15.875C31.0547 16.9583 32.0631 17.5 33.3964 17.5C34.7131 17.5 35.7214 16.825 36.4214 15.475C36.9714 14.425 37.2464 13.25 37.2464 11.95C37.2464 10.5833 36.9964 9.44167 36.4964 8.525C35.8464 7.34167 34.8881 6.75 33.6214 6.75ZM44.288 6.125V10.5C44.2713 10.7333 44.263 10.9 44.263 11C44.263 11.1667 44.313 11.275 44.413 11.325C44.5963 11.425 44.8713 11.3417 45.238 11.075C45.5047 10.8917 45.9547 10.4833 46.588 9.85L48.138 8.275L50.088 6.125L51.088 6.2L52.063 6.125V6.3C50.913 7.26667 49.913 8.125 49.063 8.875C48.0463 9.75833 47.213 10.5083 46.563 11.125L52.438 17.95V18.075L51.213 18L49.963 18.075C49.5297 17.5083 48.9963 16.85 48.363 16.1C47.8797 15.5333 46.8213 14.3167 45.188 12.45C44.9547 12.1833 44.763 12.05 44.613 12.05C44.3963 12.05 44.288 12.3583 44.288 12.975V18.075L43.288 18L42.288 18.075V6.125L43.288 6.2L44.288 6.125ZM58.513 17.975L53.463 6.125L54.663 6.2L55.838 6.125C56.288 7.50833 56.8213 8.98333 57.438 10.55C58.0713 12.1 58.7797 13.7167 59.563 15.4C60.0963 14.3167 60.738 12.8333 61.488 10.95C62.1047 9.41667 62.713 7.80833 63.313 6.125L64.138 6.2L64.938 6.125C64.1547 7.875 63.2047 9.975 62.088 12.425C61.0547 14.7083 60.1547 16.725 59.388 18.475C58.3713 20.7917 57.5297 22.7917 56.863 24.475L56.013 24.4L55.163 24.475L58.513 17.975ZM72.288 6.2L77.288 6.15V18.075L76.288 18L75.288 18.075V7.3H69.238V18.075L68.238 18L67.238 18.075V6.15L72.288 6.2ZM89.5296 10.175V15.975C89.5296 16.225 89.5296 16.4667 89.5296 16.7C89.5796 17.05 89.8046 17.225 90.2046 17.225C90.4213 17.225 90.6629 17.1917 90.9296 17.125V17.675C90.8463 17.7083 90.7213 17.7583 90.5546 17.825C90.4046 17.875 90.2296 17.9167 90.0296 17.95C89.8463 17.9833 89.6213 18 89.3546 18C88.8713 18 88.4713 17.8833 88.1546 17.65C87.8546 17.4167 87.6713 17.025 87.6046 16.475L87.3796 16.7C86.3296 17.75 85.0963 18.275 83.6796 18.275C82.7463 18.275 81.9546 18 81.3046 17.45C80.6546 16.8833 80.3296 16.1417 80.3296 15.225C80.3296 14.2417 80.6213 13.475 81.2046 12.925C81.7879 12.3583 83.0463 11.925 84.9796 11.625C86.0629 11.4417 86.7463 11.275 87.0296 11.125C87.4296 10.9083 87.6296 10.5167 87.6296 9.95C87.6296 9.01667 87.3713 8.3 86.8546 7.8C86.3546 7.28333 85.6379 7.025 84.7046 7.025C83.9046 7.025 83.2046 7.24167 82.6046 7.675C82.1379 8.00833 81.8463 8.36667 81.7296 8.75H81.4546V7.35C82.1046 6.9 82.7546 6.55833 83.4046 6.325C84.0713 6.09167 84.7629 5.975 85.4796 5.975C88.1796 5.975 89.5296 7.375 89.5296 10.175ZM87.5296 15.5V11.85L86.6546 12.05C85.2046 12.3333 84.2879 12.5583 83.9046 12.725C82.9046 13.175 82.4046 13.8917 82.4046 14.875C82.4046 15.6417 82.6129 16.225 83.0296 16.625C83.4629 17.0083 84.0713 17.2 84.8546 17.2C85.1713 17.2 85.5213 17.1083 85.9046 16.925C86.2879 16.725 86.6046 16.5 86.8546 16.25C87.0379 16.0833 87.1713 15.9583 87.2546 15.875C87.4379 15.6917 87.5296 15.5667 87.5296 15.5ZM95.6296 14.825C96.7129 13.6583 97.8963 12.2833 99.1796 10.7C100.463 9.11667 101.63 7.59167 102.68 6.125H103.68V18.075L102.68 18L101.68 18.075V9.375C100.563 10.625 99.7463 11.5583 99.2296 12.175C98.4629 13.075 97.6546 14.0667 96.8046 15.15C95.9546 16.2167 95.2296 17.1917 94.6296 18.075H93.6296V6.125L94.6296 6.2L95.6296 6.125V14.825ZM102.355 3L102.855 3.825C102.238 4.19167 101.563 4.48333 100.83 4.7C100.113 4.9 99.3796 5 98.6296 5C97.8796 5 97.1546 4.90833 96.4546 4.725C95.7546 4.525 95.0796 4.23333 94.4296 3.85L94.9296 3C95.9963 3.66667 97.2296 4 98.6296 4C100.046 4 101.288 3.66667 102.355 3ZM176.229 22.025L177.979 16.475C178.129 16.025 178.245 15.725 178.329 15.575C178.545 15.225 178.812 15.05 179.129 15.05C179.395 15.05 179.629 15.1417 179.829 15.325C180.045 15.4917 180.154 15.7083 180.154 15.975C180.154 16.1917 180.095 16.425 179.979 16.675C179.945 16.7417 179.82 16.95 179.604 17.3L176.654 22.2L176.229 22.025ZM11.5655 52.475L10.5655 52.4L9.56553 52.475V34.125L10.5655 34.2L11.5655 34.125V36.5C11.9822 35.7667 12.3822 35.2333 12.7655 34.9C13.5322 34.25 14.5572 33.925 15.8405 33.925C17.3905 33.925 18.6322 34.5083 19.5655 35.675C20.4322 36.7583 20.8655 38.1 20.8655 39.7C20.8655 41.7167 20.3655 43.3167 19.3655 44.5C18.3822 45.6833 17.0822 46.275 15.4655 46.275C14.5822 46.275 13.8239 46.075 13.1905 45.675C12.5739 45.275 12.0489 44.675 11.6155 43.875L11.5655 52.475ZM11.5655 40.425C11.5655 41.8417 11.8572 42.975 12.4405 43.825C13.0905 44.7583 14.0239 45.225 15.2405 45.225C16.4072 45.225 17.2905 44.6833 17.8905 43.6C18.4072 42.65 18.6655 41.3833 18.6655 39.8C18.6655 38.4 18.4239 37.2917 17.9405 36.475C17.3572 35.475 16.4489 34.975 15.2155 34.975C13.9322 34.975 12.9655 35.5917 12.3155 36.825C11.8155 37.7917 11.5655 38.9917 11.5655 40.425ZM32.9071 43.5L32.8821 44.8C32.2321 45.2667 31.5488 45.6333 30.8321 45.9C30.1155 46.15 29.3655 46.275 28.5821 46.275C26.8155 46.275 25.3905 45.725 24.3071 44.625C23.2238 43.525 22.6821 42.025 22.6821 40.125C22.6821 38.3083 23.1655 36.85 24.1321 35.75C25.1655 34.5667 26.5905 33.975 28.4071 33.975C29.8905 33.975 31.0821 34.4667 31.9821 35.45C32.9821 36.5333 33.4821 38.0833 33.4821 40.1L28.4071 40.025H24.8821C24.8821 41.525 25.2238 42.7417 25.9071 43.675C26.6738 44.7083 27.7738 45.225 29.2071 45.225C29.9738 45.225 30.7155 45.025 31.4321 44.625C31.9155 44.3583 32.4071 43.9833 32.9071 43.5ZM24.8821 39.1H31.5321C31.5321 37.8167 31.3238 36.8167 30.9071 36.1C30.3905 35.2 29.5571 34.75 28.4071 34.75C27.2905 34.75 26.4071 35.2083 25.7571 36.125C25.1738 36.9417 24.8821 37.9333 24.8821 39.1ZM38.2321 35.275V46.075L37.2321 46L36.2321 46.075V34.2H44.1821L44.1321 34.875L44.1821 35.55C43.6988 35.4667 42.9905 35.4 42.0571 35.35C41.1405 35.3 39.8655 35.275 38.2321 35.275ZM48.4128 42.825C49.4961 41.6583 50.6795 40.2833 51.9628 38.7C53.2461 37.1167 54.4128 35.5917 55.4628 34.125H56.4628V46.075L55.4628 46L54.4628 46.075V37.375C53.3461 38.625 52.5295 39.5583 52.0128 40.175C51.2461 41.075 50.4378 42.0667 49.5878 43.15C48.7378 44.2167 48.0128 45.1917 47.4128 46.075H46.4128V34.125C46.4961 34.1417 46.6795 34.1583 46.9628 34.175C47.2461 34.1917 47.3961 34.2 47.4128 34.2C47.5628 34.2 47.7211 34.2 47.8878 34.2C48.1211 34.1667 48.2961 34.1417 48.4128 34.125V42.825ZM69.6794 35L69.1044 36.65H68.9044C68.8044 36.5167 68.6961 36.375 68.5794 36.225C68.4627 36.0583 68.3461 35.925 68.2294 35.825C67.9461 35.5083 67.5794 35.2667 67.1294 35.1C66.6794 34.9167 66.2211 34.825 65.7544 34.825C64.3877 34.825 63.3127 35.35 62.5294 36.4C61.8127 37.3667 61.4544 38.55 61.4544 39.95C61.4544 41.55 61.8711 42.8667 62.7044 43.9C63.5544 44.9167 64.6544 45.425 66.0044 45.425C66.6877 45.425 67.3127 45.275 67.8794 44.975C68.3127 44.7417 68.8377 44.35 69.4544 43.8L69.6044 43.875L69.4794 45.025C68.3461 45.8583 67.0711 46.275 65.6544 46.275C63.6211 46.275 62.0294 45.6833 60.8794 44.5C59.7961 43.3833 59.2544 41.9083 59.2544 40.075C59.2544 38.175 59.8544 36.6833 61.0544 35.6C62.2544 34.5167 63.8127 33.975 65.7294 33.975C66.4961 33.975 67.1961 34.0583 67.8294 34.225C68.4627 34.375 69.0794 34.6333 69.6794 35ZM76.9655 35.325V46.075L75.9655 46L74.9655 46.075V35.325C73.7989 35.325 72.9405 35.3417 72.3905 35.375C71.8405 35.4083 71.2655 35.4667 70.6655 35.55L70.7405 34.875L70.6655 34.2H81.2655L81.2155 34.875L81.2655 35.55C80.7155 35.4667 80.1572 35.4083 79.5905 35.375C79.0239 35.3417 78.1489 35.325 76.9655 35.325ZM85.1739 52.475L84.1739 52.4L83.1739 52.475V34.125L84.1739 34.2L85.1739 34.125V36.5C85.5906 35.7667 85.9906 35.2333 86.3739 34.9C87.1406 34.25 88.1656 33.925 89.4489 33.925C90.9989 33.925 92.2406 34.5083 93.1739 35.675C94.0406 36.7583 94.4739 38.1 94.4739 39.7C94.4739 41.7167 93.9739 43.3167 92.9739 44.5C91.9906 45.6833 90.6906 46.275 89.0739 46.275C88.1906 46.275 87.4323 46.075 86.7989 45.675C86.1823 45.275 85.6573 44.675 85.2239 43.875L85.1739 52.475ZM85.1739 40.425C85.1739 41.8417 85.4656 42.975 86.0489 43.825C86.6989 44.7583 87.6323 45.225 88.8489 45.225C90.0156 45.225 90.8989 44.6833 91.4989 43.6C92.0156 42.65 92.2739 41.3833 92.2739 39.8C92.2739 38.4 92.0323 37.2917 91.5489 36.475C90.9656 35.475 90.0573 34.975 88.8239 34.975C87.5406 34.975 86.5739 35.5917 85.9239 36.825C85.4239 37.7917 85.1739 38.9917 85.1739 40.425ZM99.3405 42.825C100.424 41.6583 101.607 40.2833 102.891 38.7C104.174 37.1167 105.341 35.5917 106.391 34.125H107.391V46.075L106.391 46L105.391 46.075V37.375C104.274 38.625 103.457 39.5583 102.941 40.175C102.174 41.075 101.366 42.0667 100.516 43.15C99.6655 44.2167 98.9405 45.1917 98.3405 46.075H97.3405V34.125C97.4239 34.1417 97.6072 34.1583 97.8905 34.175C98.1739 34.1917 98.3239 34.2 98.3405 34.2C98.4905 34.2 98.6489 34.2 98.8155 34.2C99.0489 34.1667 99.2239 34.1417 99.3405 34.125V42.825ZM112.957 52.475L111.957 52.4L110.957 52.475V34.125L111.957 34.2L112.957 34.125V36.5C113.374 35.7667 113.774 35.2333 114.157 34.9C114.924 34.25 115.949 33.925 117.232 33.925C118.782 33.925 120.024 34.5083 120.957 35.675C121.824 36.7583 122.257 38.1 122.257 39.7C122.257 41.7167 121.757 43.3167 120.757 44.5C119.774 45.6833 118.474 46.275 116.857 46.275C115.974 46.275 115.215 46.075 114.582 45.675C113.965 45.275 113.44 44.675 113.007 43.875L112.957 52.475ZM112.957 40.425C112.957 41.8417 113.249 42.975 113.832 43.825C114.482 44.7583 115.415 45.225 116.632 45.225C117.799 45.225 118.682 44.6833 119.282 43.6C119.799 42.65 120.057 41.3833 120.057 39.8C120.057 38.4 119.815 37.2917 119.332 36.475C118.749 35.475 117.84 34.975 116.607 34.975C115.324 34.975 114.357 35.5917 113.707 36.825C113.207 37.7917 112.957 38.9917 112.957 40.425ZM128.899 45.975L123.849 34.125L125.049 34.2L126.224 34.125C126.674 35.5083 127.207 36.9833 127.824 38.55C128.457 40.1 129.165 41.7167 129.949 43.4C130.482 42.3167 131.124 40.8333 131.874 38.95C132.49 37.4167 133.099 35.8083 133.699 34.125L134.524 34.2L135.324 34.125C134.54 35.875 133.59 37.975 132.474 40.425C131.44 42.7083 130.54 44.725 129.774 46.475C128.757 48.7917 127.915 50.7917 127.249 52.475L126.399 52.4L125.549 52.475L128.899 45.975ZM139.624 42.825C140.707 41.6583 141.89 40.2833 143.174 38.7C144.457 37.1167 145.624 35.5917 146.674 34.125H147.674V46.075L146.674 46L145.674 46.075V37.375C144.557 38.625 143.74 39.5583 143.224 40.175C142.457 41.075 141.649 42.0667 140.799 43.15C139.949 44.2167 139.224 45.1917 138.624 46.075H137.624V34.125L138.624 34.2L139.624 34.125V42.825ZM146.349 31L146.849 31.825C146.232 32.1917 145.557 32.4833 144.824 32.7C144.107 32.9 143.374 33 142.624 33C141.874 33 141.149 32.9083 140.449 32.725C139.749 32.525 139.074 32.2333 138.424 31.85L138.924 31C139.99 31.6667 141.224 32 142.624 32C144.04 32 145.282 31.6667 146.349 31ZM160.89 35L160.315 36.65H160.115C160.015 36.5167 159.907 36.375 159.79 36.225C159.674 36.0583 159.557 35.925 159.44 35.825C159.157 35.5083 158.79 35.2667 158.34 35.1C157.89 34.9167 157.432 34.825 156.965 34.825C155.599 34.825 154.524 35.35 153.74 36.4C153.024 37.3667 152.665 38.55 152.665 39.95C152.665 41.55 153.082 42.8667 153.915 43.9C154.765 44.9167 155.865 45.425 157.215 45.425C157.899 45.425 158.524 45.275 159.09 44.975C159.524 44.7417 160.049 44.35 160.665 43.8L160.815 43.875L160.69 45.025C159.557 45.8583 158.282 46.275 156.865 46.275C154.832 46.275 153.24 45.6833 152.09 44.5C151.007 43.3833 150.465 41.9083 150.465 40.075C150.465 38.175 151.065 36.6833 152.265 35.6C153.465 34.5167 155.024 33.975 156.94 33.975C157.707 33.975 158.407 34.0583 159.04 34.225C159.674 34.375 160.29 34.6333 160.89 35ZM172.201 34.2V46.075L171.226 46L170.201 46.075V41.1H168.376L164.851 46.075L163.701 46L162.551 46.075L166.301 41C165.418 40.85 164.701 40.575 164.151 40.175C163.235 39.5083 162.776 38.55 162.776 37.3C162.776 36.4 163.101 35.6583 163.751 35.075C164.401 34.4917 165.185 34.2 166.101 34.2H172.201ZM170.201 40.1V35.2L167.276 35.175C166.593 35.175 166.01 35.4 165.526 35.85C165.06 36.2833 164.826 36.8833 164.826 37.65C164.826 38.65 165.318 39.3417 166.301 39.725C166.951 39.975 167.876 40.1 169.076 40.1H170.201ZM46.7991 67.275C47.4658 67.275 48.0658 67.2667 48.5991 67.25C49.1325 67.2167 49.5408 67.1833 49.8241 67.15V62.125L50.8241 62.2L51.8241 62.125V74.075L50.8241 74L49.8241 74.075V68.275L46.7991 68.2L43.7741 68.275V74.075L42.7741 74L41.7741 74.075V62.125L42.7741 62.2L43.7741 62.125V67.15C44.2241 67.1833 44.7741 67.2167 45.4241 67.25C46.0908 67.2667 46.5491 67.275 46.7991 67.275ZM64.0657 66.175V71.975C64.0657 72.225 64.0657 72.4667 64.0657 72.7C64.1157 73.05 64.3407 73.225 64.7407 73.225C64.9574 73.225 65.1991 73.1917 65.4657 73.125V73.675C65.3824 73.7083 65.2574 73.7583 65.0907 73.825C64.9407 73.875 64.7657 73.9167 64.5657 73.95C64.3824 73.9833 64.1574 74 63.8907 74C63.4074 74 63.0074 73.8833 62.6907 73.65C62.3907 73.4167 62.2074 73.025 62.1407 72.475L61.9157 72.7C60.8657 73.75 59.6324 74.275 58.2157 74.275C57.2824 74.275 56.4907 74 55.8407 73.45C55.1907 72.8833 54.8657 72.1417 54.8657 71.225C54.8657 70.2417 55.1574 69.475 55.7407 68.925C56.3241 68.3583 57.5824 67.925 59.5157 67.625C60.5991 67.4417 61.2824 67.275 61.5657 67.125C61.9657 66.9083 62.1657 66.5167 62.1657 65.95C62.1657 65.0167 61.9074 64.3 61.3907 63.8C60.8907 63.2833 60.1741 63.025 59.2407 63.025C58.4407 63.025 57.7407 63.2417 57.1407 63.675C56.6741 64.0083 56.3824 64.3667 56.2657 64.75H55.9907V63.35C56.6407 62.9 57.2907 62.5583 57.9407 62.325C58.6074 62.0917 59.2991 61.975 60.0157 61.975C62.7157 61.975 64.0657 63.375 64.0657 66.175ZM62.0657 71.5V67.85L61.1907 68.05C59.7407 68.3333 58.8241 68.5583 58.4407 68.725C57.4407 69.175 56.9407 69.8917 56.9407 70.875C56.9407 71.6417 57.1491 72.225 57.5657 72.625C57.9991 73.0083 58.6074 73.2 59.3907 73.2C59.7074 73.2 60.0574 73.1083 60.4407 72.925C60.8241 72.725 61.1407 72.5 61.3907 72.25C61.5741 72.0833 61.7074 71.9583 61.7907 71.875C61.9741 71.6917 62.0657 71.5667 62.0657 71.5ZM84.4987 63L83.9237 64.65H83.7237C83.6237 64.5167 83.5154 64.375 83.3987 64.225C83.2821 64.0583 83.1654 63.925 83.0487 63.825C82.7654 63.5083 82.3987 63.2667 81.9487 63.1C81.4987 62.9167 81.0404 62.825 80.5737 62.825C79.2071 62.825 78.1321 63.35 77.3487 64.4C76.6321 65.3667 76.2737 66.55 76.2737 67.95C76.2737 69.55 76.6904 70.8667 77.5237 71.9C78.3737 72.9167 79.4737 73.425 80.8237 73.425C81.5071 73.425 82.1321 73.275 82.6987 72.975C83.1321 72.7417 83.6571 72.35 84.2737 71.8L84.4237 71.875L84.2987 73.025C83.1654 73.8583 81.8904 74.275 80.4737 74.275C78.4404 74.275 76.8487 73.6833 75.6987 72.5C74.6154 71.3833 74.0737 69.9083 74.0737 68.075C74.0737 66.175 74.6737 64.6833 75.8737 63.6C77.0737 62.5167 78.6321 61.975 80.5487 61.975C81.3154 61.975 82.0154 62.0583 82.6487 62.225C83.2821 62.375 83.8987 62.6333 84.4987 63ZM95.5599 66.175V71.975C95.5599 72.225 95.5599 72.4667 95.5599 72.7C95.6099 73.05 95.8349 73.225 96.2349 73.225C96.4515 73.225 96.6932 73.1917 96.9599 73.125V73.675C96.8765 73.7083 96.7515 73.7583 96.5849 73.825C96.4349 73.875 96.2599 73.9167 96.0599 73.95C95.8765 73.9833 95.6515 74 95.3849 74C94.9015 74 94.5015 73.8833 94.1849 73.65C93.8849 73.4167 93.7015 73.025 93.6349 72.475L93.4099 72.7C92.3599 73.75 91.1265 74.275 89.7099 74.275C88.7765 74.275 87.9849 74 87.3349 73.45C86.6849 72.8833 86.3599 72.1417 86.3599 71.225C86.3599 70.2417 86.6515 69.475 87.2349 68.925C87.8182 68.3583 89.0765 67.925 91.0099 67.625C92.0932 67.4417 92.7765 67.275 93.0599 67.125C93.4599 66.9083 93.6599 66.5167 93.6599 65.95C93.6599 65.0167 93.4015 64.3 92.8849 63.8C92.3849 63.2833 91.6682 63.025 90.7349 63.025C89.9349 63.025 89.2349 63.2417 88.6349 63.675C88.1682 64.0083 87.8765 64.3667 87.7599 64.75H87.4849V63.35C88.1349 62.9 88.7849 62.5583 89.4349 62.325C90.1015 62.0917 90.7932 61.975 91.5099 61.975C94.2099 61.975 95.5599 63.375 95.5599 66.175ZM93.5599 71.5V67.85L92.6849 68.05C91.2349 68.3333 90.3182 68.5583 89.9349 68.725C88.9349 69.175 88.4349 69.8917 88.4349 70.875C88.4349 71.6417 88.6432 72.225 89.0599 72.625C89.4932 73.0083 90.1015 73.2 90.8849 73.2C91.2015 73.2 91.5515 73.1083 91.9349 72.925C92.3182 72.725 92.6349 72.5 92.8849 72.25C93.0682 72.0833 93.2015 71.9583 93.2849 71.875C93.4682 71.6917 93.5599 71.5667 93.5599 71.5ZM101.66 70.825C102.743 69.6583 103.927 68.2833 105.21 66.7C106.493 65.1167 107.66 63.5917 108.71 62.125H109.71V74.075L108.71 74L107.71 74.075V65.375C106.593 66.625 105.777 67.5583 105.26 68.175C104.493 69.075 103.685 70.0667 102.835 71.15C101.985 72.2167 101.26 73.1917 100.66 74.075H99.6599V62.125L100.66 62.2L101.66 62.125V70.825ZM108.385 59L108.885 59.825C108.268 60.1917 107.593 60.4833 106.86 60.7C106.143 60.9 105.41 61 104.66 61C103.91 61 103.185 60.9083 102.485 60.725C101.785 60.525 101.11 60.2333 100.46 59.85L100.96 59C102.027 59.6667 103.26 60 104.66 60C106.077 60 107.318 59.6667 108.385 59ZM118.176 63.325V74.075L117.176 74L116.176 74.075V63.325C115.01 63.325 114.151 63.3417 113.601 63.375C113.051 63.4083 112.476 63.4667 111.876 63.55L111.951 62.875L111.876 62.2H122.476L122.426 62.875L122.476 63.55C121.926 63.4667 121.368 63.4083 120.801 63.375C120.235 63.3417 119.36 63.325 118.176 63.325ZM133.835 71.5L133.81 72.8C133.16 73.2667 132.477 73.6333 131.76 73.9C131.043 74.15 130.293 74.275 129.51 74.275C127.743 74.275 126.318 73.725 125.235 72.625C124.152 71.525 123.61 70.025 123.61 68.125C123.61 66.3083 124.093 64.85 125.06 63.75C126.093 62.5667 127.518 61.975 129.335 61.975C130.818 61.975 132.01 62.4667 132.91 63.45C133.91 64.5333 134.41 66.0833 134.41 68.1L129.335 68.025H125.81C125.81 69.525 126.152 70.7417 126.835 71.675C127.602 72.7083 128.702 73.225 130.135 73.225C130.902 73.225 131.643 73.025 132.36 72.625C132.843 72.3583 133.335 71.9833 133.835 71.5ZM125.81 67.1H132.46C132.46 65.8167 132.252 64.8167 131.835 64.1C131.318 63.2 130.485 62.75 129.335 62.75C128.218 62.75 127.335 63.2083 126.685 64.125C126.102 64.9417 125.81 65.9333 125.81 67.1ZM136.385 78.025L138.135 72.475C138.285 72.025 138.402 71.725 138.485 71.575C138.702 71.225 138.968 71.05 139.285 71.05C139.552 71.05 139.785 71.1417 139.985 71.325C140.202 71.4917 140.31 71.7083 140.31 71.975C140.31 72.1917 140.252 72.425 140.135 72.675C140.102 72.7417 139.977 72.95 139.76 73.3L136.81 78.2L136.385 78.025Z" fill="white"/>
<path d="M127.954 15.375L127.829 16.95C127.096 17.45 126.246 17.8083 125.279 18.025C124.313 18.2583 123.321 18.375 122.304 18.375C119.571 18.375 117.421 17.5667 115.854 15.95C114.288 14.3333 113.504 12.1583 113.504 9.425C113.504 6.69167 114.413 4.51667 116.229 2.9C117.963 1.36667 120.196 0.599999 122.929 0.599999C123.813 0.599999 124.713 0.699999 125.629 0.9C126.563 1.1 127.454 1.38333 128.304 1.75C128.204 2 128.104 2.31667 128.004 2.7C127.904 3.06667 127.829 3.39167 127.779 3.675L127.604 3.7C127.421 3.46667 127.096 3.18333 126.629 2.85C125.413 1.98333 124.146 1.55 122.829 1.55C120.629 1.55 118.913 2.34167 117.679 3.925C116.529 5.39167 115.954 7.25833 115.954 9.525C115.954 11.9083 116.571 13.8167 117.804 15.25C119.038 16.6833 120.654 17.4 122.654 17.4C123.554 17.4 124.479 17.225 125.429 16.875C126.379 16.5083 127.221 16.0083 127.954 15.375ZM141.054 6.125V18.075L140.054 18L139.054 18.075V15.925C138.237 17.4917 136.912 18.275 135.079 18.275C133.679 18.275 132.637 17.9 131.954 17.15C131.287 16.3833 130.954 15.1583 130.954 13.475V6.125L131.954 6.2L132.954 6.125V12.875C132.954 14.275 133.179 15.325 133.629 16.025C134.096 16.7083 134.879 17.05 135.979 17.05C137.129 17.05 137.962 16.6 138.479 15.7C138.862 15.0333 139.054 14.1417 139.054 13.025V6.125L140.054 6.2L141.054 6.125ZM145.096 18.075V6.125L146.096 6.2L147.096 6.125V8.625L147.221 8.325C147.671 7.60833 148.137 7.05833 148.621 6.675C149.204 6.20833 149.787 5.975 150.371 5.975C150.704 5.975 150.962 6.01667 151.146 6.1L150.796 8.2C150.712 8.18333 150.537 8.11667 150.271 8C150.004 7.86667 149.787 7.8 149.621 7.8C149.337 7.8 149.046 7.85833 148.746 7.975C148.446 8.075 148.204 8.225 148.021 8.425C147.637 8.875 147.387 9.33333 147.271 9.8C147.154 10.2667 147.096 10.8667 147.096 11.6V18.075L146.096 18L145.096 18.075ZM153.246 3.65L155.246 2.875V6.125H157.896C157.862 6.35833 157.846 6.53333 157.846 6.65C157.846 6.76667 157.862 6.90833 157.896 7.075H155.246V13.35V14.15C155.246 15.1667 155.329 15.8917 155.496 16.325C155.779 17.0417 156.312 17.4 157.096 17.4C157.279 17.4 157.479 17.375 157.696 17.325C157.929 17.275 158.104 17.2417 158.221 17.225V17.825C157.821 17.975 157.462 18.0833 157.146 18.15C156.829 18.2333 156.487 18.275 156.121 18.275C155.121 18.275 154.404 18.0083 153.971 17.475C153.487 16.875 153.246 15.8333 153.246 14.35V7.075H151.696C151.729 6.975 151.746 6.81667 151.746 6.6C151.746 6.4 151.729 6.24167 151.696 6.125H153.246V3.65ZM162.879 6.125V18.075L161.879 18L160.879 18.075V6.125L161.879 6.2L162.879 6.125ZM163.154 1.85C163.154 2.2 163.029 2.5 162.779 2.75C162.529 3 162.229 3.125 161.879 3.125C161.529 3.125 161.229 3 160.979 2.75C160.729 2.5 160.604 2.2 160.604 1.85C160.604 1.5 160.729 1.2 160.979 0.949999C161.229 0.699999 161.529 0.574999 161.879 0.574999C162.212 0.574999 162.504 0.699999 162.754 0.949999C163.02 1.18333 163.154 1.48333 163.154 1.85ZM166.937 15.65H167.137C167.453 16.1833 167.87 16.625 168.387 16.975C168.903 17.325 169.445 17.5 170.012 17.5C170.645 17.5 171.212 17.2833 171.712 16.85C172.212 16.4167 172.462 15.875 172.462 15.225C172.462 14.1917 171.478 13.3917 169.512 12.825C167.545 12.2583 166.562 11.2083 166.562 9.675C166.562 8.50833 166.945 7.6 167.712 6.95C168.478 6.3 169.453 5.975 170.637 5.975C171.22 5.975 171.77 6.05 172.287 6.2C172.82 6.33333 173.212 6.475 173.462 6.625C173.212 7.19167 173.012 7.78333 172.862 8.4H172.637C172.47 7.96667 172.187 7.58333 171.787 7.25C171.387 6.91667 170.962 6.75 170.512 6.75C169.862 6.75 169.32 6.93333 168.887 7.3C168.453 7.66667 168.237 8.175 168.237 8.825C168.237 9.825 169.22 10.6417 171.187 11.275C173.153 11.9083 174.137 12.925 174.137 14.325C174.137 15.575 173.645 16.5667 172.662 17.3C171.795 17.95 170.753 18.275 169.537 18.275C169.02 18.275 168.47 18.2 167.887 18.05C167.32 17.9167 166.828 17.725 166.412 17.475C166.512 17.175 166.612 16.875 166.712 16.575C166.812 16.2583 166.887 15.95 166.937 15.65ZM5.62539 90.2L10.6254 90.15V102.075L9.62539 102L8.62539 102.075V91.3H2.57539V102.075L1.57539 102L0.575391 102.075V90.15L5.62539 90.2ZM13.417 96C13.417 94.2333 14.017 92.7917 15.217 91.675C16.4337 90.5417 17.9503 89.975 19.767 89.975C21.4837 89.975 22.8753 90.5333 23.942 91.65C25.0253 92.75 25.567 94.225 25.567 96.075C25.567 97.775 25.042 99.2083 23.992 100.375C22.842 101.642 21.2837 102.275 19.317 102.275C17.6003 102.275 16.1837 101.708 15.067 100.575C13.967 99.425 13.417 97.9 13.417 96ZM19.742 90.75C18.2753 90.75 17.192 91.35 16.492 92.55C15.9087 93.5333 15.617 94.8083 15.617 96.375C15.617 97.7917 15.9087 98.9583 16.492 99.875C17.1753 100.958 18.1837 101.5 19.517 101.5C20.8337 101.5 21.842 100.825 22.542 99.475C23.092 98.425 23.367 97.25 23.367 95.95C23.367 94.5833 23.117 93.4417 22.617 92.525C21.967 91.3417 21.0087 90.75 19.742 90.75ZM30.3086 96.7L28.3086 102.1L27.5086 102.025L26.7086 102.1C26.9919 101.517 27.5336 100.333 28.3336 98.55C29.0669 96.9167 29.6919 95.4833 30.2086 94.25C30.9419 92.5 31.4753 91.1333 31.8086 90.15L32.5586 90.225L33.3336 90.15C33.8669 91.5833 34.5919 93.4333 35.5086 95.7C36.5253 98.2167 37.4336 100.35 38.2336 102.1L37.1086 102.025L36.0086 102.1C35.2419 99.5667 34.0003 96.3583 32.2836 92.475C32.0669 92.6917 31.7169 93.375 31.2336 94.525L30.3086 96.7ZM44.1697 101.975L39.1197 90.125L40.3197 90.2L41.4947 90.125C41.9447 91.5083 42.4781 92.9833 43.0947 94.55C43.7281 96.1 44.4364 97.7167 45.2197 99.4C45.7531 98.3167 46.3947 96.8333 47.1447 94.95C47.7614 93.4167 48.3697 91.8083 48.9697 90.125L49.7947 90.2L50.5947 90.125C49.8114 91.875 48.8614 93.975 47.7447 96.425C46.7114 98.7083 45.8114 100.725 45.0447 102.475C44.0281 104.792 43.1864 106.792 42.5197 108.475L41.6697 108.4L40.8197 108.475L44.1697 101.975ZM56.7197 96.325C57.2364 96.325 57.7697 96.225 58.3197 96.025C58.8697 95.8083 59.3864 95.5167 59.8697 95.15V90.125L60.8697 90.2L61.8697 90.125V102.075L60.8697 102L59.8697 102.075V96.275C59.3197 96.625 58.6864 96.9167 57.9697 97.15C57.2531 97.3667 56.5864 97.475 55.9697 97.475C55.1197 97.475 54.3531 97.3 53.6697 96.95C52.7031 96.45 52.2197 95.7083 52.2197 94.725V90.125L53.2197 90.2L54.2197 90.125V94.65C54.2197 95.2833 54.4864 95.7333 55.0197 96C55.4364 96.2167 56.0031 96.325 56.7197 96.325ZM74.2586 94.175V99.975C74.2586 100.225 74.2586 100.467 74.2586 100.7C74.3086 101.05 74.5336 101.225 74.9336 101.225C75.1503 101.225 75.3919 101.192 75.6586 101.125V101.675C75.5753 101.708 75.4503 101.758 75.2836 101.825C75.1336 101.875 74.9586 101.917 74.7586 101.95C74.5753 101.983 74.3503 102 74.0836 102C73.6003 102 73.2003 101.883 72.8836 101.65C72.5836 101.417 72.4003 101.025 72.3336 100.475L72.1086 100.7C71.0586 101.75 69.8253 102.275 68.4086 102.275C67.4753 102.275 66.6836 102 66.0336 101.45C65.3836 100.883 65.0586 100.142 65.0586 99.225C65.0586 98.2417 65.3503 97.475 65.9336 96.925C66.5169 96.3583 67.7753 95.925 69.7086 95.625C70.7919 95.4417 71.4753 95.275 71.7586 95.125C72.1586 94.9083 72.3586 94.5167 72.3586 93.95C72.3586 93.0167 72.1003 92.3 71.5836 91.8C71.0836 91.2833 70.3669 91.025 69.4336 91.025C68.6336 91.025 67.9336 91.2417 67.3336 91.675C66.8669 92.0083 66.5753 92.3667 66.4586 92.75H66.1836V91.35C66.8336 90.9 67.4836 90.5583 68.1336 90.325C68.8003 90.0917 69.4919 89.975 70.2086 89.975C72.9086 89.975 74.2586 91.375 74.2586 94.175ZM72.2586 99.5V95.85L71.3836 96.05C69.9336 96.3333 69.0169 96.5583 68.6336 96.725C67.6336 97.175 67.1336 97.8917 67.1336 98.875C67.1336 99.6417 67.3419 100.225 67.7586 100.625C68.1919 101.008 68.8003 101.2 69.5836 101.2C69.9003 101.2 70.2503 101.108 70.6336 100.925C71.0169 100.725 71.3336 100.5 71.5836 100.25C71.7669 100.083 71.9003 99.9583 71.9836 99.875C72.1669 99.6917 72.2586 99.5667 72.2586 99.5ZM80.3586 98.825C81.4419 97.6583 82.6253 96.2833 83.9086 94.7C85.1919 93.1167 86.3586 91.5917 87.4086 90.125H88.4086V102.075L87.4086 102L86.4086 102.075V93.375C85.2919 94.625 84.4753 95.5583 83.9586 96.175C83.1919 97.075 82.3836 98.0667 81.5336 99.15C80.6836 100.217 79.9586 101.192 79.3586 102.075H78.3586V90.125L79.3586 90.2L80.3586 90.125V98.825ZM87.0836 87L87.5836 87.825C86.9669 88.1917 86.2919 88.4833 85.5586 88.7C84.8419 88.9 84.1086 89 83.3586 89C82.6086 89 81.8836 88.9083 81.1836 88.725C80.4836 88.525 79.8086 88.2333 79.1586 87.85L79.6586 87C80.7253 87.6667 81.9586 88 83.3586 88C84.7753 88 86.0169 87.6667 87.0836 87ZM104.258 90.2L109.258 90.15V102.075L108.258 102L107.258 102.075V91.3H101.208V102.075L100.208 102L99.2082 102.075V90.15L104.258 90.2ZM112.05 96C112.05 94.2333 112.65 92.7917 113.85 91.675C115.066 90.5417 116.583 89.975 118.4 89.975C120.116 89.975 121.508 90.5333 122.575 91.65C123.658 92.75 124.2 94.225 124.2 96.075C124.2 97.775 123.675 99.2083 122.625 100.375C121.475 101.642 119.916 102.275 117.95 102.275C116.233 102.275 114.816 101.708 113.7 100.575C112.6 99.425 112.05 97.9 112.05 96ZM118.375 90.75C116.908 90.75 115.825 91.35 115.125 92.55C114.541 93.5333 114.25 94.8083 114.25 96.375C114.25 97.7917 114.541 98.9583 115.125 99.875C115.808 100.958 116.816 101.5 118.15 101.5C119.466 101.5 120.475 100.825 121.175 99.475C121.725 98.425 122 97.25 122 95.95C122 94.5833 121.75 93.4417 121.25 92.525C120.6 91.3417 119.641 90.75 118.375 90.75ZM125.141 100.875H126.166C126.983 99.125 127.775 97.3583 128.541 95.575C129.491 93.3583 130.208 91.55 130.691 90.15L131.441 90.225L132.216 90.15C132.633 91.2667 133.266 92.8917 134.116 95.025C134.983 97.1417 135.8 99.0917 136.566 100.875H137.491L137.441 101.8C137.441 101.95 137.441 102.108 137.441 102.275C137.441 102.442 137.458 102.592 137.491 102.725H137.316C136.9 102.408 136.391 102.208 135.791 102.125C135.208 102.042 134.341 102 133.191 102H129.441C128.225 102 127.341 102.033 126.791 102.1C126.258 102.167 125.775 102.375 125.341 102.725H125.141C125.175 102.642 125.191 102.492 125.191 102.275C125.191 102.075 125.2 101.917 125.216 101.8L125.141 100.875ZM127.641 100.875H134.516C134.183 99.8417 133.7 98.5583 133.066 97.025C132.45 95.475 131.816 93.9583 131.166 92.475H130.991C130.975 92.475 130.783 92.925 130.416 93.825C129.75 95.4417 129.308 96.5167 129.091 97.05C128.575 98.3333 128.091 99.6083 127.641 100.875ZM147.891 94.175V99.975C147.891 100.225 147.891 100.467 147.891 100.7C147.941 101.05 148.166 101.225 148.566 101.225C148.783 101.225 149.025 101.192 149.291 101.125V101.675C149.208 101.708 149.083 101.758 148.916 101.825C148.766 101.875 148.591 101.917 148.391 101.95C148.208 101.983 147.983 102 147.716 102C147.233 102 146.833 101.883 146.516 101.65C146.216 101.417 146.033 101.025 145.966 100.475L145.741 100.7C144.691 101.75 143.458 102.275 142.041 102.275C141.108 102.275 140.316 102 139.666 101.45C139.016 100.883 138.691 100.142 138.691 99.225C138.691 98.2417 138.983 97.475 139.566 96.925C140.15 96.3583 141.408 95.925 143.341 95.625C144.425 95.4417 145.108 95.275 145.391 95.125C145.791 94.9083 145.991 94.5167 145.991 93.95C145.991 93.0167 145.733 92.3 145.216 91.8C144.716 91.2833 144 91.025 143.066 91.025C142.266 91.025 141.566 91.2417 140.966 91.675C140.5 92.0083 140.208 92.3667 140.091 92.75H139.816V91.35C140.466 90.9 141.116 90.5583 141.766 90.325C142.433 90.0917 143.125 89.975 143.841 89.975C146.541 89.975 147.891 91.375 147.891 94.175ZM145.891 99.5V95.85L145.016 96.05C143.566 96.3333 142.65 96.5583 142.266 96.725C141.266 97.175 140.766 97.8917 140.766 98.875C140.766 99.6417 140.975 100.225 141.391 100.625C141.825 101.008 142.433 101.2 143.216 101.2C143.533 101.2 143.883 101.108 144.266 100.925C144.65 100.725 144.966 100.5 145.216 100.25C145.4 100.083 145.533 99.9583 145.616 99.875C145.8 99.6917 145.891 99.5667 145.891 99.5ZM153.716 108.475L152.716 108.4L151.716 108.475V90.125L152.716 90.2L153.716 90.125V92.5C154.133 91.7667 154.533 91.2333 154.916 90.9C155.683 90.25 156.708 89.925 157.991 89.925C159.541 89.925 160.783 90.5083 161.716 91.675C162.583 92.7583 163.016 94.1 163.016 95.7C163.016 97.7167 162.516 99.3167 161.516 100.5C160.533 101.683 159.233 102.275 157.616 102.275C156.733 102.275 155.975 102.075 155.341 101.675C154.725 101.275 154.2 100.675 153.766 99.875L153.716 108.475ZM153.716 96.425C153.716 97.8417 154.008 98.975 154.591 99.825C155.241 100.758 156.175 101.225 157.391 101.225C158.558 101.225 159.441 100.683 160.041 99.6C160.558 98.65 160.816 97.3833 160.816 95.8C160.816 94.4 160.575 93.2917 160.091 92.475C159.508 91.475 158.6 90.975 157.366 90.975C156.083 90.975 155.116 91.5917 154.466 92.825C153.966 93.7917 153.716 94.9917 153.716 96.425ZM167.933 90.125V94.5C167.916 94.7333 167.908 94.9 167.908 95C167.908 95.1667 167.958 95.275 168.058 95.325C168.241 95.425 168.516 95.3417 168.883 95.075C169.15 94.8917 169.6 94.4833 170.233 93.85L171.783 92.275L173.733 90.125L174.733 90.2L175.708 90.125V90.3C174.558 91.2667 173.558 92.125 172.708 92.875C171.691 93.7583 170.858 94.5083 170.208 95.125L176.083 101.95V102.075L174.858 102L173.608 102.075C173.175 101.508 172.641 100.85 172.008 100.1C171.525 99.5333 170.466 98.3167 168.833 96.45C168.6 96.1833 168.408 96.05 168.258 96.05C168.041 96.05 167.933 96.3583 167.933 96.975V102.075L166.933 102L165.933 102.075V90.125L166.933 90.2L167.933 90.125ZM180.383 98.825C181.466 97.6583 182.65 96.2833 183.933 94.7C185.216 93.1167 186.383 91.5917 187.433 90.125H188.433V102.075L187.433 102L186.433 102.075V93.375C185.316 94.625 184.5 95.5583 183.983 96.175C183.216 97.075 182.408 98.0667 181.558 99.15C180.708 100.217 179.983 101.192 179.383 102.075H178.383V90.125C178.466 90.1417 178.65 90.1583 178.933 90.175C179.216 90.1917 179.366 90.2 179.383 90.2C179.533 90.2 179.691 90.2 179.858 90.2C180.091 90.1667 180.266 90.1417 180.383 90.125V98.825Z" fill="#FBC32D"/>
</svg>
