<svg width="113" height="37" viewBox="0 0 113 37" fill="none" xmlns="http://www.w3.org/2000/svg">
<g clip-path="url(#clip0_10_373)">
<path fill-rule="evenodd" clip-rule="evenodd" d="M93.1785 18.7595C93.1828 20.0871 93.3209 21.411 93.5906 22.7118C94.1117 23.3301 94.7111 23.8802 95.374 24.3488C95.2808 15.9396 97.3685 8.68444 106.283 0C105.199 0.359739 104.291 0.630149 103.445 0.9078C102.954 1.23374 102.451 1.57657 101.973 1.93873C96.5982 6.03347 93.1785 11.8979 93.1785 18.7595Z" fill="url(#paint0_linear_10_373)"/>
<mask id="mask0_10_373" style="mask-type:alpha" maskUnits="userSpaceOnUse" x="90" y="0" width="17" height="25">
<path fill-rule="evenodd" clip-rule="evenodd" d="M106.283 0C103.067 0.888483 100.886 1.40757 96.8459 4.50278C96.6227 4.67419 96.3062 5.30917 96.0904 5.48783C95.9211 5.62062 95.845 5.29951 95.6905 5.43954C95.5359 5.57958 95.4084 6.19524 95.2195 6.37148C95.0723 6.50427 94.8172 6.22421 94.6773 6.35942C94.4713 6.55981 94.2824 7.11752 94.0886 7.32516C93.8948 7.53279 93.7157 7.36379 93.5415 7.56659C93.3673 7.7694 93.2398 8.38989 93.0926 8.56855C92.8816 8.83171 92.7025 8.60476 92.5186 8.87276C92.364 9.09005 92.2732 9.8385 92.1383 10.0582C92.0034 10.2779 91.8022 10.0172 91.6796 10.2634C91.5226 10.5773 91.5348 11.5334 91.4146 11.8545C91.2944 12.1756 91.0712 11.8545 90.9731 12.1901C89.7882 16.181 91.7409 21.8282 95.374 24.3584C96.8459 16.1496 100.989 7.54003 106.283 0.00724277V0Z" fill="url(#paint1_linear_10_373)"/>
</mask>
<g mask="url(#mask0_10_373)">
<path fill-rule="evenodd" clip-rule="evenodd" d="M106.283 0C102.559 1.23856 100.886 1.40757 96.8457 4.50278C96.6225 4.67419 96.306 5.30917 96.0901 5.48783C95.9209 5.62062 95.8448 5.29951 95.6903 5.43954C95.4916 5.60855 95.4082 6.19524 95.2193 6.37148C95.0721 6.50427 94.8169 6.22421 94.6771 6.35942C94.471 6.55981 94.2822 7.11752 94.0884 7.32516C93.8946 7.53279 93.7155 7.36379 93.5413 7.56659C93.3671 7.7694 93.2396 8.38989 93.0924 8.56855C92.8814 8.83171 92.7023 8.60476 92.5183 8.87276C92.3638 9.09005 92.273 9.8385 92.1381 10.0582C92.0032 10.2779 91.8045 10.0172 91.6818 10.2634C91.5223 10.5773 91.5346 11.5334 91.4144 11.8545C91.2942 12.1756 91.071 11.8545 90.9728 12.1901C89.788 16.181 91.6401 21.7533 95.2757 24.2836C95.4204 23.482 93.6541 11.6106 106.283 0.00724277V0Z" fill="url(#paint2_radial_10_373)"/>
</g>
<mask id="mask1_10_373" style="mask-type:alpha" maskUnits="userSpaceOnUse" x="84" y="10" width="12" height="22">
<path fill-rule="evenodd" clip-rule="evenodd" d="M87.2467 10.9346C86.4298 13.856 84.8819 15.2008 84.4649 19.5683C84.4428 19.8098 84.6685 20.3771 84.6513 20.6162C84.6513 20.8021 84.3839 20.662 84.3765 20.8576C84.3692 21.0532 84.7053 21.4708 84.7053 21.693C84.7053 21.862 84.3643 21.8644 84.3692 22.0334C84.3692 22.2748 84.6145 22.7215 84.6439 22.9653C84.6734 23.2092 84.4428 23.2237 84.4673 23.4482C84.4918 23.6727 84.8255 24.1242 84.8549 24.3125C84.8991 24.5974 84.6415 24.5805 84.7053 24.8534C84.7543 25.0779 85.1959 25.5632 85.2548 25.7781C85.3137 25.9929 85.0266 25.9712 85.1125 26.1885C85.2229 26.4734 85.8632 27.0142 86.003 27.275C86.1428 27.5357 85.7969 27.4995 85.9564 27.7578C87.8698 30.8096 91.974 32.0578 95.8623 31.1862C90.3255 25.8312 88.2574 18.8947 87.2467 10.9491V10.9346Z" fill="url(#paint3_linear_10_373)"/>
</mask>
<g mask="url(#mask1_10_373)">
<path fill-rule="evenodd" clip-rule="evenodd" d="M84.4649 19.5684C84.4428 19.8098 84.6685 20.3772 84.6513 20.6162C84.6513 20.8021 84.3839 20.6621 84.3765 20.8576C84.3692 21.0532 84.7053 21.4709 84.7053 21.693C84.7053 21.862 84.3643 21.8644 84.3692 22.0334C84.3692 22.2748 84.6145 22.7215 84.6439 22.9654C84.6734 23.2092 84.4428 23.2261 84.4673 23.4482C84.4918 23.6703 84.8255 24.1242 84.8549 24.3126C84.8991 24.5975 84.6415 24.5806 84.7053 24.8534C84.7543 25.0779 85.1959 25.5632 85.2548 25.7781C85.3137 25.993 85.0266 25.9712 85.1125 26.1885C85.2229 26.4734 85.8632 27.0142 86.003 27.275C86.1428 27.5357 85.7969 27.4995 85.9564 27.7578C87.8698 30.8096 91.974 32.0578 95.8623 31.1862C90.3255 25.8312 87.5215 19.0686 86.4936 11.1229C86.4936 11.1084 84.8819 15.2008 84.4649 19.5684Z" fill="url(#paint4_linear_10_373)"/>
</g>
<path fill-rule="evenodd" clip-rule="evenodd" d="M91.6035 26.2971C89.1928 25.921 86.8975 25.0212 84.8843 23.6631C86.935 24.8462 89.2008 25.6237 91.5544 25.9519L91.6035 26.2947V26.2971Z" fill="url(#paint5_linear_10_373)"/>
<path fill-rule="evenodd" clip-rule="evenodd" d="M94.4663 29.9308C91.9101 29.9453 90.0138 29.4165 87.6367 28.2407C90.0359 29.2065 91.8905 29.6121 94.405 29.559L94.4663 29.9211V29.9308Z" fill="url(#paint6_linear_10_373)"/>
<path fill-rule="evenodd" clip-rule="evenodd" d="M89.4595 22.0503C87.8021 21.4498 86.3037 20.4892 85.0757 19.24C86.3107 20.3575 87.7638 21.2159 89.3466 21.763L89.4595 22.0503Z" fill="url(#paint7_linear_10_373)"/>
<path fill-rule="evenodd" clip-rule="evenodd" d="M96.4044 15.3287C94.9325 13.1969 94.0788 10.9394 93.6617 8.18948C94.1793 10.6522 95.2046 12.9842 96.6742 15.0414L96.4044 15.3287Z" fill="url(#paint8_linear_10_373)"/>
<path fill-rule="evenodd" clip-rule="evenodd" d="M95.2538 20.0392C93.3403 18.0715 92.5553 16.4031 91.7924 13.7039C92.7565 16.2679 93.6052 17.8083 95.5163 19.7229L95.2538 20.0392Z" fill="#FFF326"/>
<path fill-rule="evenodd" clip-rule="evenodd" d="M98.2663 10.5411C97.5457 8.81215 97.2514 6.9398 97.4077 5.07739C97.393 6.89682 97.764 8.69928 98.4969 10.3697L98.2663 10.5411Z" fill="url(#paint9_linear_10_373)"/>
<path fill-rule="evenodd" clip-rule="evenodd" d="M105.447 22.0141C105.27 22.0503 104.922 22.3231 104.748 22.3642C104.615 22.3956 104.659 22.1976 104.527 22.2338C104.394 22.27 104.164 22.5815 104.007 22.6297C103.85 22.678 103.813 22.4438 103.695 22.4825C103.523 22.5404 103.263 22.8012 103.097 22.8664C102.93 22.9315 102.871 22.7891 102.716 22.8543C102.562 22.9195 102.314 23.2382 102.189 23.2985C102 23.3903 101.944 23.2164 101.774 23.3154C101.605 23.4144 101.379 23.7983 101.242 23.8828C101.105 23.9673 101.058 23.7717 100.918 23.8828C100.778 23.9939 100.496 24.5564 100.344 24.7037C100.192 24.851 100.148 24.6216 99.9983 24.7761C98.0357 26.8162 97.7708 31.0027 99.5567 33.2022C101.478 27.0697 107.279 24.0735 113.002 22.4197C113.002 22.4125 108.616 21.3429 105.447 22.0141Z" fill="url(#paint10_linear_10_373)"/>
<path fill-rule="evenodd" clip-rule="evenodd" d="M99.8314 32.094C101.146 29.6121 102.299 27.5454 104.598 25.7901C108.597 22.7432 112.051 22.5549 113.002 22.41C111.361 22.6708 107.951 26.9345 106.87 28.5401C105.015 31.3021 102.174 32.4586 99.8339 32.0988L99.8314 32.094Z" fill="url(#paint11_linear_10_373)"/>
<path fill-rule="evenodd" clip-rule="evenodd" d="M102.216 28.1852C101.971 26.5055 102.118 24.7929 102.648 23.1778C102.278 24.6788 102.195 26.2342 102.402 27.7651C102.444 28.0476 102.513 28.0403 102.218 28.1755L102.216 28.1852ZM100.381 31.0607C99.8169 29.4303 99.6851 27.6851 99.9982 25.9906C99.8314 27.782 99.9344 29.0954 100.504 30.742L100.381 31.0583V31.0607ZM104.77 25.6308C104.871 24.4755 105.225 23.3553 105.807 22.3473C105.329 23.3331 105.04 24.397 104.954 25.486C104.932 25.7781 104.735 26.0268 104.77 25.6332V25.6308Z" fill="#FFC735"/>
<path fill-rule="evenodd" clip-rule="evenodd" d="M100.864 34.7281C93.2104 31.6546 86.3489 21.1787 86.5353 11.0191C86.5353 19.2279 93.7403 31.7391 100.864 34.7281Z" fill="#FFF56E"/>
<path fill-rule="evenodd" clip-rule="evenodd" d="M97.6849 11.7603C101.576 4.62832 102.606 3.79295 104.735 1.69246C105.174 1.25788 105.405 1.07921 105.741 0.782249C105.888 0.651873 105.959 0.625316 106.072 0.511841C108.977 6.71432 109.872 12.4798 107.743 16.5576C104.963 21.536 100.273 23.1899 95.2808 24.3174C95.2808 24.3174 94.356 17.8686 97.6849 11.7603Z" fill="#6C1500"/>
<mask id="mask2_10_373" style="mask-type:alpha" maskUnits="userSpaceOnUse" x="94" y="-2" width="16" height="28">
<path fill-rule="evenodd" clip-rule="evenodd" d="M94.7117 25.3338C94.4664 19.5394 95.4477 15.8502 97.3194 11.7048C99.3678 7.16339 102.864 3.0952 106.423 -0.507019C109.58 6.22662 110.549 12.4846 108.236 16.9126C105.221 22.3183 100.141 24.1122 94.7117 25.3338Z" fill="url(#paint12_linear_10_373)"/>
<path fill-rule="evenodd" clip-rule="evenodd" d="M94.7117 25.3338C94.4664 19.5394 95.4477 15.8502 97.3194 11.7048C99.3678 7.16339 102.864 3.0952 106.423 -0.507019C109.58 6.22662 110.549 12.4846 108.236 16.9126C105.221 22.3183 100.141 24.1122 94.7117 25.3338Z" stroke="#F24942" stroke-width="0.76" stroke-miterlimit="10"/>
</mask>
<g mask="url(#mask2_10_373)">
<path fill-rule="evenodd" clip-rule="evenodd" d="M97.6849 11.7603C101.576 4.62832 102.606 3.79295 104.735 1.69246C105.174 1.25788 105.405 1.07921 105.741 0.782247C105.888 0.651872 105.959 0.625316 106.072 0.511841C108.977 6.71432 109.872 12.4798 107.743 16.5576C104.963 21.536 100.273 23.1899 95.2808 24.3174C95.2808 24.3174 94.356 17.8686 97.6849 11.7603Z" fill="url(#paint13_linear_10_373)"/>
</g>
<path fill-rule="evenodd" clip-rule="evenodd" d="M97.1869 13.4311C100.525 13.0357 103.738 11.9354 106.605 10.2055C103.665 11.7041 100.47 12.6545 97.1795 13.0085V13.4311H97.1869ZM95.7886 18.6943C99.3873 18.3901 101.519 17.5765 104.433 15.9396C101.409 17.3423 99.2819 18.0159 95.7419 18.2694L95.7886 18.6943ZM99.1028 9.27353C101.384 8.90655 103.418 8.01082 104.949 6.57428C103.193 7.84615 101.137 8.65635 98.9752 8.92828L99.1028 9.27353Z" fill="#FFF326"/>
<path fill-rule="evenodd" clip-rule="evenodd" d="M99.3383 37C98.3939 30.2277 104.112 23.3348 112.956 22.4149C105.373 23.2551 98.2589 30.4788 99.3383 37Z" fill="#FFC735"/>
<path fill-rule="evenodd" clip-rule="evenodd" d="M106.062 0.497345C96.5884 7.99875 91.8538 22.6032 96.5859 29.9525C92.759 22.0382 97.7266 7.43137 106.072 0.51666L106.062 0.497345Z" fill="#FFF326"/>
<path fill-rule="evenodd" clip-rule="evenodd" d="M78.3663 16.1979H78.3418C77.8474 16.1924 77.3747 15.9978 77.0235 15.6553C76.6724 15.3129 76.4703 14.8494 76.4602 14.363C76.4602 14.12 76.5089 13.8795 76.6035 13.6551C76.6981 13.4307 76.8368 13.2269 77.0116 13.0553C77.1864 12.8837 77.3938 12.7478 77.6221 12.6552C77.8503 12.5627 78.0949 12.5154 78.3418 12.516H78.3663C78.6117 12.5163 78.8547 12.5645 79.0811 12.6576C79.3076 12.7508 79.513 12.8872 79.6857 13.0589C79.8583 13.2306 79.9947 13.4342 80.087 13.658C80.1792 13.8819 80.2256 14.1215 80.2233 14.363C80.2202 14.8483 80.0241 15.3132 79.6769 15.6579C79.3298 16.0027 78.8594 16.2 78.3663 16.2076V16.1979ZM78.3663 12.1201H78.3418C77.7426 12.1258 77.1698 12.3632 76.7471 12.7811C76.3243 13.1989 76.0856 13.7637 76.0824 14.3533C76.0946 14.9347 76.3382 15.488 76.7607 15.8944C77.1832 16.3008 77.751 16.5277 78.3418 16.5263H78.3663C78.6583 16.5295 78.948 16.4756 79.2187 16.3678C79.4894 16.2601 79.7357 16.1005 79.9433 15.8984C80.151 15.6963 80.3158 15.4557 80.4283 15.1905C80.5408 14.9253 80.5987 14.6407 80.5987 14.3533C80.6019 14.0622 80.5466 13.7733 80.436 13.5033C80.3255 13.2333 80.1617 12.9874 79.9543 12.7799C79.7468 12.5724 79.4997 12.4072 79.2272 12.294C78.9547 12.1807 78.6621 12.1216 78.3663 12.1201ZM77.9198 14.0516V13.46H78.6926C78.7663 13.4645 78.8364 13.4934 78.8913 13.5421C78.9322 13.5795 78.9617 13.6274 78.9767 13.6804C78.9916 13.7333 78.9913 13.7894 78.9758 13.8422C78.9603 13.895 78.9301 13.9425 78.8888 13.9795C78.8475 14.0165 78.7965 14.0414 78.7416 14.0516H77.9198ZM78.9133 14.4523L78.7882 14.3702C78.9111 14.3765 79.0336 14.3515 79.1439 14.2978C79.249 14.2402 79.3353 14.1546 79.3931 14.0508C79.4508 13.947 79.4775 13.8292 79.4702 13.7111C79.472 13.5735 79.4309 13.4387 79.3524 13.3248C79.2953 13.2478 79.2219 13.1839 79.1371 13.1376C79.0524 13.0913 78.9585 13.0638 78.8618 13.0568H77.4095V15.4712H77.9272V14.4692H78.2755C78.484 14.5706 78.5625 14.7421 78.695 14.9231L79.0483 15.4712H79.6616C79.5242 15.266 79.3745 15.0535 79.2421 14.8362C79.1696 14.6835 79.057 14.5526 78.9158 14.4572L78.9133 14.4523ZM75.6653 19.7374C75.3631 19.0554 74.8812 18.4653 74.2695 18.028C72.9252 17.0743 70.8964 16.7049 69.3436 16.1883C69.2969 16.1714 69.1326 16.1062 68.8799 16.0265C67.8496 15.6981 66.7947 14.4089 67.4914 13.2017C68.4187 11.5527 73.0601 11.5696 72.9865 13.8801L74.2131 14.2181L75.1085 10.9588C71.7477 9.22284 66.4071 9.03935 64.6335 12.1997C63.7405 13.7956 63.7209 16.2921 64.8911 17.6683C66.8192 19.945 69.584 19.8243 71.7354 21.1763C71.9556 21.3096 72.1451 21.4868 72.2917 21.6964C72.4383 21.906 72.5387 22.1435 72.5866 22.3936C72.6344 22.6437 72.6285 22.9008 72.5694 23.1486C72.5103 23.3963 72.3991 23.6291 72.2432 23.8321C70.8694 25.5222 67.4939 24.8485 66.3556 23.4917C65.8584 22.9673 65.5807 22.2775 65.5779 21.5602L64.3514 21.3019L63.4977 25.0151C66.3311 27.8762 73.3986 28.2335 75.5182 24.5178C76.313 23.1247 76.3154 21.1884 75.6555 19.7325L75.6653 19.7374ZM44.2183 14.4113H45.5356C45.6386 12.5064 46.5929 12.7647 48.0109 12.7647V24.5516C48.0393 24.8133 47.9872 25.0775 47.8612 25.3097C47.7582 25.4401 47.2945 25.5511 46.9805 25.6501V26.8911H52.7136V25.6501C52.4143 25.6018 51.8623 25.4884 51.7323 25.3266C51.6063 25.088 51.5502 24.8197 51.5704 24.5516V12.7647C53.0423 12.7647 53.972 12.4267 54.1217 14.4113H55.4366V10.3262H44.2183V14.4113ZM61.1328 24.5516V12.673C61.1105 12.3981 61.1729 12.1229 61.3119 11.8835C61.484 11.7116 61.711 11.6034 61.9546 11.5768V10.3165H56.8349V11.5768C57.0786 11.6174 57.3061 11.7235 57.4923 11.8835C57.6349 12.1215 57.6967 12.398 57.669 12.673V24.5516C57.6978 24.8166 57.6356 25.0835 57.4923 25.3097C57.3868 25.4401 57.014 25.5511 56.6828 25.6501V26.8911H62.1018V25.6501C61.8111 25.5807 61.5336 25.4658 61.28 25.3097C61.1563 25.0767 61.1051 24.813 61.1328 24.5516ZM23.7246 11.5865C23.9654 11.6224 24.1895 11.7293 24.3673 11.8931C24.4728 12.0235 24.5145 12.2818 24.5145 12.6826V24.3898C23.1579 24.3898 21.7375 24.4864 20.5453 23.6655C17.7977 21.3719 18.9924 15.1235 20.8126 12.7526C21.154 12.3169 21.5506 11.9258 21.9926 11.5889V10.3286H16.8876V11.5889C17.3782 11.6855 17.6235 11.8786 17.6235 12.1539V12.2191C17.5525 12.4275 17.4706 12.6322 17.3782 12.8323C16.213 15.2298 15.0968 17.7045 15.3151 20.2709C15.4942 22.3666 16.684 24.6168 18.3619 25.7491C19.9467 26.7824 21.6762 26.8935 23.4841 26.8935H28.7707V25.6525C28.5334 25.5984 28.316 25.4805 28.1427 25.3121C28.0397 25.201 27.9955 24.9403 27.9955 24.554V12.673C27.9726 12.4 28.0287 12.1263 28.1574 11.8835C28.3135 11.7066 28.5335 11.5967 28.7707 11.5768V10.3165H23.7246V11.5768V11.5865ZM11.2134 14.7952L12.4964 15.3963L14.2357 12.0549C13.4201 11.2478 12.4421 10.6173 11.3644 10.2041C10.2867 9.79078 9.13314 9.60376 7.9777 9.65501C6.79456 9.69263 5.63512 9.99131 4.58498 10.529C1.72705 11.9969 -0.0882951 15.2949 0.00983139 18.6581C0.267413 26.9563 8.27208 29.46 14.2038 25.5366L13.6249 21.4033L12.3443 21.6616C12.1456 23.3516 10.9411 24.6168 9.40054 24.8003C5.12958 25.2976 3.05666 19.5997 4.18266 15.7899C4.85483 13.5759 6.7315 12.0766 8.84367 12.2215C9.88871 12.3011 10.8283 12.8009 11.1595 13.7618C11.2877 14.0936 11.3082 14.4563 11.2183 14.8L11.2134 14.7952ZM42.3686 22.9509C42.065 22.2776 41.7116 21.6272 41.3113 21.0049C41.0034 20.5449 40.6036 20.1514 40.1362 19.8484C39.9563 19.7263 39.7696 19.6143 39.5769 19.5128C41.1395 18.8972 42.192 17.8107 42.6605 16.5118C43.2345 14.9135 42.8837 12.8202 41.7283 11.6179C41.2641 11.1118 40.6622 10.7473 39.9939 10.5676C39.2375 10.3829 38.4598 10.2969 37.6806 10.3117H30.9638V11.5696C31.2067 11.6101 31.4311 11.723 31.6066 11.8931C31.7322 12.1255 31.7843 12.3895 31.7562 12.6512V24.5371C31.7906 24.6613 31.7966 24.7914 31.7738 24.9181C31.7509 25.0449 31.6997 25.165 31.6238 25.2699C31.548 25.3748 31.4495 25.4618 31.3354 25.5246C31.2212 25.5874 31.0943 25.6245 30.9638 25.6332V26.8766H36.01V25.6332C35.841 25.6033 35.679 25.5436 35.5316 25.457C35.407 25.3898 35.3118 25.2798 35.2642 25.1479C35.2002 24.9508 35.1744 24.7436 35.1882 24.5371V20.3844L36.1425 20.4351C36.5907 20.6988 36.9939 21.0304 37.3371 21.4178C38.6226 22.8398 39.6358 25.1672 39.621 26.9104L44.3998 26.8911L44.4145 25.667C43.026 25.6163 42.7415 23.7355 42.3539 22.9509H42.3686ZM37.8302 17.8179C36.9482 18.0642 36.0272 18.1461 35.1146 18.0594L35.2029 12.6029C36.3289 12.6029 37.504 12.3615 38.5466 12.9747C40.3815 14.0564 39.5474 17.2047 37.8302 17.8179Z" fill="white"/>
</g>
<defs>
<linearGradient id="paint0_linear_10_373" x1="99.7284" y1="24.3488" x2="99.7284" y2="-0.00241375" gradientUnits="userSpaceOnUse">
<stop offset="0.8" stop-color="#400000"/>
<stop offset="1"/>
</linearGradient>
<linearGradient id="paint1_linear_10_373" x1="91.2233" y1="10.5073" x2="103.989" y2="12.7957" gradientUnits="userSpaceOnUse">
<stop offset="0.22" stop-color="white"/>
<stop offset="0.28" stop-color="#F7F7F6"/>
<stop offset="0.37" stop-color="#E2E0DE"/>
<stop offset="0.49" stop-color="#C0BBB6"/>
<stop offset="0.63" stop-color="#90887F"/>
<stop offset="0.78" stop-color="#544839"/>
<stop offset="0.9" stop-color="#231300"/>
</linearGradient>
<radialGradient id="paint2_radial_10_373" cx="0" cy="0" r="1" gradientUnits="userSpaceOnUse" gradientTransform="translate(97.0763 11.1338) scale(10.919 11.0687)">
<stop offset="0.06" stop-color="#FFF326"/>
<stop offset="0.51" stop-color="#FFFCD2"/>
<stop offset="0.7" stop-color="#FFF326"/>
<stop offset="1" stop-color="#F98E3D"/>
</radialGradient>
<linearGradient id="paint3_linear_10_373" x1="84.8623" y1="26.5772" x2="93.9667" y2="18.8145" gradientUnits="userSpaceOnUse">
<stop offset="0.15" stop-color="white"/>
<stop offset="0.19" stop-color="#F7F7F6"/>
<stop offset="0.25" stop-color="#E2E0DE"/>
<stop offset="0.33" stop-color="#C0BBB6"/>
<stop offset="0.42" stop-color="#90887F"/>
<stop offset="0.52" stop-color="#544839"/>
<stop offset="0.6" stop-color="#231300"/>
</linearGradient>
<linearGradient id="paint4_linear_10_373" x1="84.3667" y1="21.087" x2="96.2052" y2="21.5057" gradientUnits="userSpaceOnUse">
<stop stop-color="#FFF326"/>
<stop offset="0.05" stop-color="#FFF32E"/>
<stop offset="0.13" stop-color="#FFF545"/>
<stop offset="0.23" stop-color="#FFF76B"/>
<stop offset="0.34" stop-color="#FFFA9F"/>
<stop offset="0.47" stop-color="#FFFDE1"/>
<stop offset="0.52" stop-color="white"/>
<stop offset="1" stop-color="#FFF326"/>
</linearGradient>
<linearGradient id="paint5_linear_10_373" x1="84.8401" y1="24.863" x2="91.6449" y2="25.1048" gradientUnits="userSpaceOnUse">
<stop stop-color="#FFF326"/>
<stop offset="0.05" stop-color="#FFF32E"/>
<stop offset="0.13" stop-color="#FFF545"/>
<stop offset="0.23" stop-color="#FFF76B"/>
<stop offset="0.34" stop-color="#FFFA9F"/>
<stop offset="0.47" stop-color="#FFFDE1"/>
<stop offset="0.52" stop-color="white"/>
<stop offset="1" stop-color="#FFF326"/>
</linearGradient>
<linearGradient id="paint6_linear_10_373" x1="87.6122" y1="28.9795" x2="94.493" y2="29.2238" gradientUnits="userSpaceOnUse">
<stop stop-color="#FFF326"/>
<stop offset="0.05" stop-color="#FFF32E"/>
<stop offset="0.13" stop-color="#FFF545"/>
<stop offset="0.23" stop-color="#FFF76B"/>
<stop offset="0.34" stop-color="#FFFA9F"/>
<stop offset="0.47" stop-color="#FFFDE1"/>
<stop offset="0.52" stop-color="white"/>
<stop offset="1" stop-color="#FFF326"/>
</linearGradient>
<linearGradient id="paint7_linear_10_373" x1="85.0266" y1="20.5655" x2="89.5059" y2="20.725" gradientUnits="userSpaceOnUse">
<stop stop-color="#FFF326"/>
<stop offset="0.05" stop-color="#FFF32E"/>
<stop offset="0.13" stop-color="#FFF545"/>
<stop offset="0.23" stop-color="#FFF76B"/>
<stop offset="0.34" stop-color="#FFFA9F"/>
<stop offset="0.47" stop-color="#FFFDE1"/>
<stop offset="0.52" stop-color="white"/>
<stop offset="1" stop-color="#FFF326"/>
</linearGradient>
<linearGradient id="paint8_linear_10_373" x1="96.0168" y1="15.4181" x2="94.3389" y2="8.0353" gradientUnits="userSpaceOnUse">
<stop stop-color="#FFF326"/>
<stop offset="1" stop-color="white"/>
</linearGradient>
<linearGradient id="paint9_linear_10_373" x1="99.0808" y1="10.1137" x2="96.6522" y2="5.47263" gradientUnits="userSpaceOnUse">
<stop stop-color="#FFF326"/>
<stop offset="0.28" stop-color="#FFE92C"/>
<stop offset="1" stop-color="#F87F53"/>
</linearGradient>
<linearGradient id="paint10_linear_10_373" x1="109.249" y1="29.3561" x2="100.01" y2="24.3667" gradientUnits="userSpaceOnUse">
<stop offset="0.1"/>
<stop offset="0.58" stop-color="#652C19"/>
<stop offset="0.65" stop-color="#8F5C1F"/>
<stop offset="0.73" stop-color="#BF9326"/>
<stop offset="0.81" stop-color="#E2BB2B"/>
<stop offset="0.86" stop-color="#F7D32E"/>
<stop offset="0.9" stop-color="#FFDC2F"/>
</linearGradient>
<linearGradient id="paint11_linear_10_373" x1="102.184" y1="25.7322" x2="110.615" y2="28.8511" gradientUnits="userSpaceOnUse">
<stop offset="0.15"/>
<stop offset="0.2" stop-color="#090200"/>
<stop offset="0.29" stop-color="#210800"/>
<stop offset="0.39" stop-color="#491100"/>
<stop offset="0.45" stop-color="#611700"/>
<stop offset="0.78" stop-color="#FFC735"/>
</linearGradient>
<linearGradient id="paint12_linear_10_373" x1="90.8553" y1="18.7813" x2="110.849" y2="7.05389" gradientUnits="userSpaceOnUse">
<stop stop-color="#5B5753"/>
<stop offset="0.1" stop-color="#85827F"/>
<stop offset="0.23" stop-color="#B9B8B6"/>
<stop offset="0.35" stop-color="#DFDEDE"/>
<stop offset="0.44" stop-color="#F6F6F6"/>
<stop offset="0.5" stop-color="white"/>
</linearGradient>
<linearGradient id="paint13_linear_10_373" x1="99.3433" y1="1.67797" x2="103.037" y2="22.9686" gradientUnits="userSpaceOnUse">
<stop stop-color="#F77E3E"/>
<stop offset="0.42" stop-color="#FFDC2F"/>
<stop offset="0.71" stop-color="#FFF681"/>
<stop offset="0.87" stop-color="#FFDC2F"/>
<stop offset="1" stop-color="#F98E3D"/>
</linearGradient>
<clipPath id="clip0_10_373">
<rect width="113" height="37" fill="white"/>
</clipPath>
</defs>
</svg>
