<svg width="209" height="66" viewBox="0 0 209 66" fill="none" xmlns="http://www.w3.org/2000/svg">
<g filter="url(#filter0_d_3_122)">
<g filter="url(#filter1_b_3_122)">
<rect x="8" y="4" width="193" height="50" rx="10" fill="white" fill-opacity="0.4"/>
<rect x="8" y="4" width="193" height="50" rx="10" stroke="white"/>
</g>
<path d="M16.964 31.424H17.48C17.696 30.96 18.068 30.124 18.596 28.916C19.156 27.644 19.592 26.64 19.904 25.904C20.344 24.864 20.628 24.172 20.756 23.828H21.332C21.548 24.364 21.768 24.9 21.992 25.436C22.008 25.476 22.468 26.576 23.372 28.736C23.876 29.936 24.256 30.832 24.512 31.424H25.028L24.992 31.904C24.992 32 24.992 32.096 24.992 32.192C25 32.296 25.012 32.4 25.028 32.504H24.92C24.768 32.272 24.532 32.128 24.212 32.072C23.9 32.024 23.336 32 22.52 32H19.592C18.864 32 18.444 32.004 18.332 32.012C17.732 32.052 17.304 32.216 17.048 32.504H16.964C16.98 32.432 16.992 32.32 17 32.168C17 32.024 17 31.936 17 31.904L16.964 31.424ZM18.248 31.424H23.384L20.852 25.136H20.804C20.46 25.896 20.172 26.544 19.94 27.08C19.636 27.784 19.352 28.472 19.088 29.144C18.8 29.888 18.52 30.648 18.248 31.424ZM25.4239 29.12C25.4239 28.272 25.7119 27.58 26.2879 27.044C26.8719 26.5 27.5999 26.228 28.4719 26.228C29.2959 26.228 29.9639 26.496 30.4759 27.032C30.9959 27.56 31.2559 28.268 31.2559 29.156C31.2559 29.972 31.0039 30.66 30.4999 31.22C29.9479 31.828 29.1999 32.132 28.2559 32.132C27.4319 32.132 26.7519 31.86 26.2159 31.316C25.6879 30.764 25.4239 30.032 25.4239 29.12ZM28.4599 26.6C27.7559 26.6 27.2359 26.888 26.8999 27.464C26.6199 27.936 26.4799 28.548 26.4799 29.3C26.4799 29.98 26.6199 30.54 26.8999 30.98C27.2279 31.5 27.7119 31.76 28.3519 31.76C28.9839 31.76 29.4679 31.436 29.8039 30.788C30.0679 30.284 30.1999 29.72 30.1999 29.096C30.1999 28.44 30.0799 27.892 29.8399 27.452C29.5279 26.884 29.0679 26.6 28.4599 26.6ZM33.0039 26.9C33.2679 26.676 33.5839 26.508 33.9519 26.396C34.3199 26.284 34.7159 26.228 35.1399 26.228C35.9639 26.228 36.6319 26.496 37.1439 27.032C37.6639 27.56 37.9239 28.268 37.9239 29.156C37.9239 29.972 37.6719 30.66 37.1679 31.22C36.6159 31.828 35.8679 32.132 34.9239 32.132C34.0999 32.132 33.4199 31.86 32.8839 31.316C32.3559 30.764 32.0919 30.032 32.0919 29.12C32.0919 26.928 32.4519 25.5 33.1719 24.836C33.8919 24.164 35.3599 23.828 37.5759 23.828L37.5399 24.2L37.5759 24.548C37.3519 24.516 37.0719 24.488 36.7359 24.464C36.4079 24.44 36.0759 24.428 35.7399 24.428C34.8759 24.428 34.2039 24.656 33.7239 25.112C33.2439 25.568 33.0039 26.164 33.0039 26.9ZM35.1279 26.6C34.4239 26.6 33.9039 26.888 33.5679 27.464C33.2879 27.936 33.1479 28.548 33.1479 29.3C33.1479 29.98 33.2879 30.54 33.5679 30.98C33.8959 31.5 34.3799 31.76 35.0199 31.76C35.6519 31.76 36.1359 31.436 36.4719 30.788C36.7359 30.284 36.8679 29.72 36.8679 29.096C36.8679 28.44 36.7479 27.892 36.5079 27.452C36.1959 26.884 35.7359 26.6 35.1279 26.6ZM40.0918 35.108L39.6118 35.072L39.1318 35.108V26.3L39.6118 26.336L40.0918 26.3V27.44C40.2918 27.088 40.4838 26.832 40.6678 26.672C41.0358 26.36 41.5278 26.204 42.1438 26.204C42.8878 26.204 43.4838 26.484 43.9318 27.044C44.3478 27.564 44.5558 28.208 44.5558 28.976C44.5558 29.944 44.3158 30.712 43.8358 31.28C43.3638 31.848 42.7398 32.132 41.9638 32.132C41.5398 32.132 41.1758 32.036 40.8718 31.844C40.5758 31.652 40.3238 31.364 40.1158 30.98L40.0918 35.108ZM40.0918 29.324C40.0918 30.004 40.2318 30.548 40.5118 30.956C40.8238 31.404 41.2718 31.628 41.8558 31.628C42.4158 31.628 42.8398 31.368 43.1278 30.848C43.3758 30.392 43.4998 29.784 43.4998 29.024C43.4998 28.352 43.3838 27.82 43.1518 27.428C42.8718 26.948 42.4358 26.708 41.8438 26.708C41.2278 26.708 40.7638 27.004 40.4518 27.596C40.2118 28.06 40.0918 28.636 40.0918 29.324ZM45.4278 29.12C45.4278 28.272 45.7158 27.58 46.2918 27.044C46.8758 26.5 47.6038 26.228 48.4758 26.228C49.2998 26.228 49.9678 26.496 50.4798 27.032C50.9998 27.56 51.2598 28.268 51.2598 29.156C51.2598 29.972 51.0078 30.66 50.5038 31.22C49.9518 31.828 49.2038 32.132 48.2598 32.132C47.4358 32.132 46.7558 31.86 46.2198 31.316C45.6918 30.764 45.4278 30.032 45.4278 29.12ZM48.4638 26.6C47.7598 26.6 47.2398 26.888 46.9038 27.464C46.6238 27.936 46.4838 28.548 46.4838 29.3C46.4838 29.98 46.6238 30.54 46.9038 30.98C47.2318 31.5 47.7158 31.76 48.3558 31.76C48.9878 31.76 49.4718 31.436 49.8078 30.788C50.0718 30.284 50.2038 29.72 50.2038 29.096C50.2038 28.44 50.0838 27.892 49.8438 27.452C49.5318 26.884 49.0718 26.6 48.4638 26.6ZM53.5598 26.852V32.036L53.0798 32L52.5998 32.036V26.336H56.4158L56.3918 26.66L56.4158 26.984C56.1838 26.944 55.8438 26.912 55.3958 26.888C54.9558 26.864 54.3438 26.852 53.5598 26.852ZM56.9825 29.12C56.9825 28.272 57.2705 27.58 57.8465 27.044C58.4305 26.5 59.1585 26.228 60.0305 26.228C60.8545 26.228 61.5225 26.496 62.0345 27.032C62.5545 27.56 62.8145 28.268 62.8145 29.156C62.8145 29.972 62.5625 30.66 62.0585 31.22C61.5065 31.828 60.7585 32.132 59.8145 32.132C58.9905 32.132 58.3105 31.86 57.7745 31.316C57.2465 30.764 56.9825 30.032 56.9825 29.12ZM60.0185 26.6C59.3145 26.6 58.7945 26.888 58.4585 27.464C58.1785 27.936 58.0385 28.548 58.0385 29.3C58.0385 29.98 58.1785 30.54 58.4585 30.98C58.7865 31.5 59.2705 31.76 59.9105 31.76C60.5425 31.76 61.0265 31.436 61.3625 30.788C61.6265 30.284 61.7585 29.72 61.7585 29.096C61.7585 28.44 61.6385 27.892 61.3985 27.452C61.0865 26.884 60.6265 26.6 60.0185 26.6ZM68.4543 29.216V31.532H69.7023C70.0943 31.532 70.4143 31.436 70.6623 31.244C70.9183 31.044 71.0463 30.772 71.0463 30.428C71.0463 29.996 70.9343 29.688 70.7103 29.504C70.4863 29.312 70.1503 29.216 69.7023 29.216H68.4543ZM68.4543 26.804V28.772H69.5823C69.9503 28.772 70.2343 28.688 70.4343 28.52C70.6343 28.352 70.7343 28.096 70.7343 27.752C70.7343 27.424 70.6343 27.184 70.4343 27.032C70.2343 26.88 69.9663 26.804 69.6303 26.804H68.4543ZM67.4943 32V26.336H69.7983C70.4143 26.336 70.8863 26.436 71.2143 26.636C71.5983 26.868 71.7903 27.232 71.7903 27.728C71.7903 28.056 71.6743 28.328 71.4423 28.544C71.2103 28.76 70.9023 28.892 70.5183 28.94C71.0383 29.028 71.4143 29.156 71.6463 29.324C71.9743 29.564 72.1383 29.932 72.1383 30.428C72.1383 30.932 71.9263 31.328 71.5023 31.616C71.1183 31.88 70.6383 32.012 70.0623 32.012L67.4943 32ZM74.3223 35.108L73.8423 35.072L73.3623 35.108V26.3L73.8423 26.336L74.3223 26.3V27.44C74.5223 27.088 74.7143 26.832 74.8983 26.672C75.2663 26.36 75.7583 26.204 76.3743 26.204C77.1183 26.204 77.7143 26.484 78.1623 27.044C78.5783 27.564 78.7863 28.208 78.7863 28.976C78.7863 29.944 78.5463 30.712 78.0663 31.28C77.5943 31.848 76.9703 32.132 76.1943 32.132C75.7703 32.132 75.4063 32.036 75.1023 31.844C74.8063 31.652 74.5543 31.364 74.3463 30.98L74.3223 35.108ZM74.3223 29.324C74.3223 30.004 74.4623 30.548 74.7423 30.956C75.0543 31.404 75.5023 31.628 76.0863 31.628C76.6463 31.628 77.0703 31.368 77.3583 30.848C77.6063 30.392 77.7303 29.784 77.7303 29.024C77.7303 28.352 77.6143 27.82 77.3823 27.428C77.1023 26.948 76.6663 26.708 76.0743 26.708C75.4583 26.708 74.9943 27.004 74.6823 27.596C74.4423 28.06 74.3223 28.636 74.3223 29.324ZM84.5663 30.8L84.5543 31.424C84.2423 31.648 83.9143 31.824 83.5703 31.952C83.2263 32.072 82.8663 32.132 82.4903 32.132C81.6423 32.132 80.9583 31.868 80.4383 31.34C79.9183 30.812 79.6583 30.092 79.6583 29.18C79.6583 28.308 79.8903 27.608 80.3543 27.08C80.8503 26.512 81.5343 26.228 82.4063 26.228C83.1183 26.228 83.6903 26.464 84.1223 26.936C84.6023 27.456 84.8423 28.2 84.8423 29.168L82.4063 29.132H80.7143C80.7143 29.852 80.8783 30.436 81.2063 30.884C81.5743 31.38 82.1023 31.628 82.7903 31.628C83.1583 31.628 83.5143 31.532 83.8583 31.34C84.0903 31.212 84.3263 31.032 84.5663 30.8ZM80.7143 28.688H83.9063C83.9063 28.072 83.8063 27.592 83.6063 27.248C83.3583 26.816 82.9583 26.6 82.4063 26.6C81.8703 26.6 81.4463 26.82 81.1343 27.26C80.8543 27.652 80.7143 28.128 80.7143 28.688ZM85.6463 32.036C85.7663 31.524 85.9063 30.676 86.0663 29.492C86.1143 29.108 86.2463 28.048 86.4623 26.312H86.7863C87.2023 27.136 87.6383 27.956 88.0943 28.772C88.5503 29.588 88.9503 30.256 89.2943 30.776C89.9983 29.56 90.7943 28.072 91.6823 26.312H92.0063C92.1023 27.152 92.1863 27.872 92.2583 28.472C92.3303 29.064 92.4063 29.708 92.4863 30.404C92.5743 31.092 92.6423 31.636 92.6903 32.036L92.1623 32L91.6343 32.036C91.6343 31.268 91.5863 30.448 91.4903 29.576C91.4663 29.344 91.4063 28.86 91.3103 28.124C90.5743 29.316 89.8543 30.62 89.1503 32.036H88.8743C88.4983 31.308 88.1463 30.644 87.8183 30.044C87.4343 29.364 87.0583 28.724 86.6903 28.124C86.5943 28.812 86.5023 29.512 86.4143 30.224C86.3263 30.928 86.2823 31.532 86.2823 32.036C86.1783 32.02 86.0783 32.008 85.9823 32L85.6463 32.036ZM98.5702 30.8L98.5582 31.424C98.2462 31.648 97.9182 31.824 97.5742 31.952C97.2302 32.072 96.8702 32.132 96.4942 32.132C95.6462 32.132 94.9622 31.868 94.4422 31.34C93.9222 30.812 93.6622 30.092 93.6622 29.18C93.6622 28.308 93.8942 27.608 94.3582 27.08C94.8542 26.512 95.5382 26.228 96.4102 26.228C97.1222 26.228 97.6942 26.464 98.1262 26.936C98.6062 27.456 98.8462 28.2 98.8462 29.168L96.4102 29.132H94.7182C94.7182 29.852 94.8822 30.436 95.2102 30.884C95.5782 31.38 96.1062 31.628 96.7942 31.628C97.1622 31.628 97.5182 31.532 97.8622 31.34C98.0942 31.212 98.3302 31.032 98.5702 30.8ZM94.7182 28.688H97.9102C97.9102 28.072 97.8102 27.592 97.6102 27.248C97.3622 26.816 96.9622 26.6 96.4102 26.6C95.8742 26.6 95.4502 26.82 95.1382 27.26C94.8582 27.652 94.7182 28.128 94.7182 28.688ZM102.578 28.772C102.898 28.772 103.186 28.768 103.442 28.76C103.698 28.744 103.894 28.728 104.03 28.712V26.3L104.51 26.336L104.99 26.3V32.036L104.51 32L104.03 32.036V29.252L102.578 29.216L101.126 29.252V32.036L100.646 32L100.166 32.036V26.3L100.646 26.336L101.126 26.3V28.712C101.342 28.728 101.606 28.744 101.918 28.76C102.238 28.768 102.458 28.772 102.578 28.772ZM107.794 30.476C108.314 29.916 108.882 29.256 109.498 28.496C110.114 27.736 110.674 27.004 111.178 26.3H111.658V32.036L111.178 32L110.698 32.036V27.86C110.162 28.46 109.77 28.908 109.522 29.204C109.154 29.636 108.766 30.112 108.358 30.632C107.95 31.144 107.602 31.612 107.314 32.036H106.834V26.3C106.874 26.308 106.962 26.316 107.098 26.324C107.234 26.332 107.306 26.336 107.314 26.336C107.386 26.336 107.462 26.336 107.542 26.336C107.654 26.32 107.738 26.308 107.794 26.3V30.476ZM121.342 26.72L121.066 27.512H120.97C120.922 27.448 120.87 27.38 120.814 27.308C120.758 27.228 120.702 27.164 120.646 27.116C120.51 26.964 120.334 26.848 120.118 26.768C119.902 26.68 119.682 26.636 119.458 26.636C118.802 26.636 118.286 26.888 117.91 27.392C117.566 27.856 117.394 28.424 117.394 29.096C117.394 29.864 117.594 30.496 117.994 30.992C118.402 31.48 118.93 31.724 119.578 31.724C119.906 31.724 120.206 31.652 120.478 31.508C120.686 31.396 120.938 31.208 121.234 30.944L121.306 30.98L121.246 31.532C120.702 31.932 120.09 32.132 119.41 32.132C118.434 32.132 117.67 31.848 117.118 31.28C116.598 30.744 116.338 30.036 116.338 29.156C116.338 28.244 116.626 27.528 117.202 27.008C117.778 26.488 118.526 26.228 119.446 26.228C119.814 26.228 120.15 26.268 120.454 26.348C120.758 26.42 121.054 26.544 121.342 26.72ZM124.431 31.988L122.007 26.3L122.583 26.336L123.147 26.3C123.363 26.964 123.619 27.672 123.915 28.424C124.219 29.168 124.559 29.944 124.935 30.752C125.191 30.232 125.499 29.52 125.859 28.616C126.155 27.88 126.447 27.108 126.735 26.3L127.131 26.336L127.515 26.3C127.139 27.14 126.683 28.148 126.147 29.324C125.651 30.42 125.219 31.388 124.851 32.228C124.363 33.34 123.959 34.3 123.639 35.108L123.231 35.072L122.823 35.108L124.431 31.988ZM130.839 26.876V32.036L130.359 32L129.879 32.036V26.876C129.319 26.876 128.907 26.884 128.643 26.9C128.379 26.916 128.103 26.944 127.815 26.984L127.851 26.66L127.815 26.336H132.903L132.879 26.66L132.903 26.984C132.639 26.944 132.371 26.916 132.099 26.9C131.827 26.884 131.407 26.876 130.839 26.876ZM133.447 29.12C133.447 28.272 133.735 27.58 134.311 27.044C134.895 26.5 135.623 26.228 136.495 26.228C137.319 26.228 137.987 26.496 138.499 27.032C139.019 27.56 139.279 28.268 139.279 29.156C139.279 29.972 139.027 30.66 138.523 31.22C137.971 31.828 137.223 32.132 136.279 32.132C135.455 32.132 134.775 31.86 134.239 31.316C133.711 30.764 133.447 30.032 133.447 29.12ZM136.483 26.6C135.779 26.6 135.259 26.888 134.923 27.464C134.643 27.936 134.503 28.548 134.503 29.3C134.503 29.98 134.643 30.54 134.923 30.98C135.251 31.5 135.735 31.76 136.375 31.76C137.007 31.76 137.491 31.436 137.827 30.788C138.091 30.284 138.223 29.72 138.223 29.096C138.223 28.44 138.103 27.892 137.863 27.452C137.551 26.884 137.091 26.6 136.483 26.6ZM141.603 26.3V28.4C141.595 28.512 141.591 28.592 141.591 28.64C141.591 28.72 141.615 28.772 141.663 28.796C141.751 28.844 141.883 28.804 142.059 28.676C142.187 28.588 142.403 28.392 142.707 28.088L143.451 27.332L144.387 26.3L144.867 26.336L145.335 26.3V26.384C144.783 26.848 144.303 27.26 143.895 27.62C143.407 28.044 143.007 28.404 142.695 28.7L145.515 31.976V32.036L144.927 32L144.327 32.036C144.119 31.764 143.863 31.448 143.559 31.088C143.327 30.816 142.819 30.232 142.035 29.336C141.923 29.208 141.831 29.144 141.759 29.144C141.655 29.144 141.603 29.292 141.603 29.588V32.036L141.123 32L140.643 32.036V26.3L141.123 26.336L141.603 26.3ZM146.247 33.932L147.087 31.268C147.159 31.052 147.215 30.908 147.255 30.836C147.359 30.668 147.487 30.584 147.639 30.584C147.767 30.584 147.879 30.628 147.975 30.716C148.079 30.796 148.131 30.9 148.131 31.028C148.131 31.132 148.103 31.244 148.047 31.364C148.031 31.396 147.971 31.496 147.867 31.664L146.451 34.016L146.247 33.932ZM154.907 29.204L152.723 26.3L153.335 26.336L153.947 26.3C154.115 26.596 154.359 26.976 154.679 27.44C155.007 27.904 155.279 28.268 155.495 28.532L156.167 27.668L157.175 26.3L157.583 26.336L158.003 26.3C157.219 27.14 156.475 28 155.771 28.88L158.015 31.916V32.036L157.451 32L156.887 32.036C156.711 31.74 156.459 31.352 156.131 30.872C155.779 30.352 155.467 29.916 155.195 29.564C154.931 29.916 154.651 30.3 154.355 30.716C153.955 31.276 153.659 31.716 153.467 32.036L153.107 32L152.747 32.036V31.916L154.907 29.204ZM158.795 29.12C158.795 28.272 159.083 27.58 159.659 27.044C160.243 26.5 160.971 26.228 161.843 26.228C162.667 26.228 163.335 26.496 163.847 27.032C164.367 27.56 164.627 28.268 164.627 29.156C164.627 29.972 164.375 30.66 163.871 31.22C163.319 31.828 162.571 32.132 161.627 32.132C160.803 32.132 160.123 31.86 159.587 31.316C159.059 30.764 158.795 30.032 158.795 29.12ZM161.831 26.6C161.127 26.6 160.607 26.888 160.271 27.464C159.991 27.936 159.851 28.548 159.851 29.3C159.851 29.98 159.991 30.54 160.271 30.98C160.599 31.5 161.083 31.76 161.723 31.76C162.355 31.76 162.839 31.436 163.175 30.788C163.439 30.284 163.571 29.72 163.571 29.096C163.571 28.44 163.451 27.892 163.211 27.452C162.899 26.884 162.439 26.6 161.831 26.6ZM168.187 26.876V32.036L167.707 32L167.227 32.036V26.876C166.667 26.876 166.255 26.884 165.991 26.9C165.727 26.916 165.451 26.944 165.163 26.984L165.199 26.66L165.163 26.336H170.251L170.227 26.66L170.251 26.984C169.987 26.944 169.719 26.916 169.447 26.9C169.175 26.884 168.755 26.876 168.187 26.876ZM172.259 30.476C172.779 29.916 173.347 29.256 173.963 28.496C174.579 27.736 175.139 27.004 175.643 26.3H176.123V32.036L175.643 32L175.163 32.036V27.86C174.627 28.46 174.235 28.908 173.987 29.204C173.619 29.636 173.231 30.112 172.823 30.632C172.415 31.144 172.067 31.612 171.779 32.036H171.299V26.3C171.339 26.308 171.427 26.316 171.563 26.324C171.699 26.332 171.771 26.336 171.779 26.336C171.851 26.336 171.927 26.336 172.007 26.336C172.119 26.32 172.203 26.308 172.259 26.3V30.476ZM177.451 32.036C177.571 31.524 177.711 30.676 177.871 29.492C177.919 29.108 178.051 28.048 178.267 26.312H178.591C179.007 27.136 179.443 27.956 179.899 28.772C180.355 29.588 180.755 30.256 181.099 30.776C181.803 29.56 182.599 28.072 183.487 26.312H183.811C183.907 27.152 183.991 27.872 184.063 28.472C184.135 29.064 184.211 29.708 184.291 30.404C184.379 31.092 184.447 31.636 184.495 32.036L183.967 32L183.439 32.036C183.439 31.268 183.391 30.448 183.295 29.576C183.271 29.344 183.211 28.86 183.115 28.124C182.379 29.316 181.659 30.62 180.955 32.036H180.679C180.303 31.308 179.951 30.644 179.623 30.044C179.239 29.364 178.863 28.724 178.495 28.124C178.399 28.812 178.307 29.512 178.219 30.224C178.131 30.928 178.087 31.532 178.087 32.036C177.983 32.02 177.883 32.008 177.787 32L177.451 32.036ZM20.348 39.336L22.748 39.312V45.036L22.268 45L21.788 45.036V39.864H18.884V45.036L18.404 45L17.924 45.036V39.312L20.348 39.336ZM25.42 48.108L24.94 48.072L24.46 48.108V39.3L24.94 39.336L25.42 39.3V40.44C25.62 40.088 25.812 39.832 25.996 39.672C26.364 39.36 26.856 39.204 27.472 39.204C28.216 39.204 28.812 39.484 29.26 40.044C29.676 40.564 29.884 41.208 29.884 41.976C29.884 42.944 29.644 43.712 29.164 44.28C28.692 44.848 28.068 45.132 27.292 45.132C26.868 45.132 26.504 45.036 26.2 44.844C25.904 44.652 25.652 44.364 25.444 43.98L25.42 48.108ZM25.42 42.324C25.42 43.004 25.56 43.548 25.84 43.956C26.152 44.404 26.6 44.628 27.184 44.628C27.744 44.628 28.168 44.368 28.456 43.848C28.704 43.392 28.828 42.784 28.828 42.024C28.828 41.352 28.712 40.82 28.48 40.428C28.2 39.948 27.764 39.708 27.172 39.708C26.556 39.708 26.092 40.004 25.78 40.596C25.54 41.06 25.42 41.636 25.42 42.324ZM35.6639 43.8L35.6519 44.424C35.3399 44.648 35.0119 44.824 34.6679 44.952C34.3239 45.072 33.9639 45.132 33.5879 45.132C32.7399 45.132 32.0559 44.868 31.5359 44.34C31.0159 43.812 30.7559 43.092 30.7559 42.18C30.7559 41.308 30.9879 40.608 31.4519 40.08C31.9479 39.512 32.6319 39.228 33.5039 39.228C34.2159 39.228 34.7879 39.464 35.2199 39.936C35.6999 40.456 35.9399 41.2 35.9399 42.168L33.5039 42.132H31.8119C31.8119 42.852 31.9759 43.436 32.3039 43.884C32.6719 44.38 33.1999 44.628 33.8879 44.628C34.2559 44.628 34.6119 44.532 34.9559 44.34C35.1879 44.212 35.4239 44.032 35.6639 43.8ZM31.8119 41.688H35.0039C35.0039 41.072 34.9039 40.592 34.7039 40.248C34.4559 39.816 34.0559 39.6 33.5039 39.6C32.9679 39.6 32.5439 39.82 32.2319 40.26C31.9519 40.652 31.8119 41.128 31.8119 41.688ZM36.3719 44.46H36.8639C37.2559 43.62 37.6359 42.772 38.0039 41.916C38.4599 40.852 38.8039 39.984 39.0359 39.312L39.3959 39.348L39.7679 39.312C39.9679 39.848 40.2719 40.628 40.6799 41.652C41.0959 42.668 41.4879 43.604 41.8559 44.46H42.2999L42.2759 44.904C42.2759 44.976 42.2759 45.052 42.2759 45.132C42.2759 45.212 42.2839 45.284 42.2999 45.348H42.2159C42.0159 45.196 41.7719 45.1 41.4839 45.06C41.2039 45.02 40.7879 45 40.2359 45H38.4359C37.8519 45 37.4279 45.016 37.1639 45.048C36.9079 45.08 36.6759 45.18 36.4679 45.348H36.3719C36.3879 45.308 36.3959 45.236 36.3959 45.132C36.3959 45.036 36.3999 44.96 36.4079 44.904L36.3719 44.46ZM37.5719 44.46H40.8719C40.7119 43.964 40.4799 43.348 40.1759 42.612C39.8799 41.868 39.5759 41.14 39.2639 40.428H39.1799C39.1719 40.428 39.0799 40.644 38.9039 41.076C38.5839 41.852 38.3719 42.368 38.2679 42.624C38.0199 43.24 37.7879 43.852 37.5719 44.46ZM44.1959 42.456L43.2359 45.048L42.8519 45.012L42.4679 45.048C42.6039 44.768 42.8639 44.2 43.2479 43.344C43.5999 42.56 43.8999 41.872 44.1479 41.28C44.4999 40.44 44.7559 39.784 44.9159 39.312L45.2759 39.348L45.6479 39.312C45.9039 40 46.2519 40.888 46.6919 41.976C47.1799 43.184 47.6159 44.208 47.9999 45.048L47.4599 45.012L46.9319 45.048C46.5639 43.832 45.9679 42.292 45.1439 40.428C45.0399 40.532 44.8719 40.86 44.6399 41.412L44.1959 42.456ZM48.5333 42.12C48.5333 41.272 48.8213 40.58 49.3973 40.044C49.9813 39.5 50.7093 39.228 51.5813 39.228C52.4053 39.228 53.0733 39.496 53.5853 40.032C54.1053 40.56 54.3653 41.268 54.3653 42.156C54.3653 42.972 54.1133 43.66 53.6093 44.22C53.0573 44.828 52.3093 45.132 51.3653 45.132C50.5413 45.132 49.8613 44.86 49.3253 44.316C48.7973 43.764 48.5333 43.032 48.5333 42.12ZM51.5693 39.6C50.8653 39.6 50.3453 39.888 50.0093 40.464C49.7293 40.936 49.5893 41.548 49.5893 42.3C49.5893 42.98 49.7293 43.54 50.0093 43.98C50.3373 44.5 50.8213 44.76 51.4613 44.76C52.0933 44.76 52.5773 44.436 52.9133 43.788C53.1773 43.284 53.3093 42.72 53.3093 42.096C53.3093 41.44 53.1893 40.892 52.9493 40.452C52.6373 39.884 52.1773 39.6 51.5693 39.6ZM58.6333 39.3L59.1133 39.336L59.5933 39.3V41.4C59.5933 41.48 59.5933 41.56 59.5933 41.64C59.6013 41.72 59.6213 41.772 59.6533 41.796C59.6933 41.82 59.8573 41.688 60.1453 41.4C60.3213 41.224 60.4253 41.12 60.4573 41.088L61.2013 40.332L62.1373 39.3L62.6173 39.336L63.0853 39.3V39.384C62.5333 39.848 62.0533 40.26 61.6453 40.62C61.1573 41.044 60.7573 41.404 60.4453 41.7L63.2653 44.976V45.036L62.6773 45L62.0773 45.036C61.8693 44.764 61.6133 44.448 61.3093 44.088C61.0773 43.816 60.5693 43.232 59.7853 42.336C59.6733 42.208 59.6133 42.144 59.6053 42.144C59.5973 42.144 59.5933 42.292 59.5933 42.588V45.036L59.1133 45L58.6333 45.036V42.588C58.6413 42.372 58.6453 42.244 58.6453 42.204C58.6453 42.172 58.6373 42.156 58.6213 42.156C58.6053 42.156 58.5453 42.216 58.4413 42.336C57.6653 43.224 57.1613 43.804 56.9293 44.076C56.5933 44.476 56.3333 44.796 56.1493 45.036L55.5493 45L54.9613 45.036V44.976L57.7812 41.7C57.2933 41.236 56.7773 40.772 56.2333 40.308C55.8653 40.004 55.5013 39.696 55.1413 39.384V39.3L55.6093 39.336L56.0893 39.3L57.0253 40.332L57.7693 41.088C57.9133 41.232 58.0573 41.376 58.2013 41.52C58.4173 41.728 58.5413 41.82 58.5733 41.796C58.6053 41.772 58.6213 41.712 58.6213 41.616C58.6293 41.52 58.6333 41.448 58.6333 41.4V39.3ZM65.3254 43.476C65.8454 42.916 66.4134 42.256 67.0294 41.496C67.6454 40.736 68.2054 40.004 68.7094 39.3H69.1894V45.036L68.7094 45L68.2294 45.036V40.86C67.6934 41.46 67.3014 41.908 67.0534 42.204C66.6854 42.636 66.2974 43.112 65.8894 43.632C65.4814 44.144 65.1334 44.612 64.8454 45.036H64.3654V39.3C64.4054 39.308 64.4934 39.316 64.6294 39.324C64.7654 39.332 64.8374 39.336 64.8454 39.336C64.9174 39.336 64.9934 39.336 65.0734 39.336C65.1854 39.32 65.2694 39.308 65.3254 39.3V43.476ZM73.2534 39.876V45.036L72.7734 45L72.2934 45.036V39.876C71.7334 39.876 71.3214 39.884 71.0574 39.9C70.7934 39.916 70.5174 39.944 70.2294 39.984L70.2654 39.66L70.2294 39.336H75.3174L75.2934 39.66L75.3174 39.984C75.0534 39.944 74.7854 39.916 74.5134 39.9C74.2414 39.884 73.8214 39.876 73.2534 39.876ZM77.3254 42.168V44.496C77.5174 44.496 77.6854 44.5 77.8294 44.508C77.9734 44.508 78.0974 44.512 78.2014 44.52C78.5934 44.52 78.9294 44.42 79.2094 44.22C79.5214 43.996 79.6774 43.704 79.6774 43.344C79.6774 42.936 79.5494 42.64 79.2934 42.456C79.0454 42.264 78.7334 42.168 78.3574 42.168H77.3254ZM76.3654 45V39.3C76.4854 39.324 76.6494 39.336 76.8574 39.336C77.0574 39.336 77.2134 39.324 77.3254 39.3V41.688H78.7414C79.3254 41.688 79.7894 41.82 80.1334 42.084C80.5174 42.38 80.7094 42.8 80.7094 43.344C80.7094 43.808 80.4894 44.2 80.0494 44.52C79.6174 44.84 79.1454 45 78.6334 45H76.3654ZM86.2199 42.216V44.532H87.4679C87.8599 44.532 88.1799 44.436 88.4279 44.244C88.6839 44.044 88.8119 43.772 88.8119 43.428C88.8119 42.996 88.6999 42.688 88.4759 42.504C88.2519 42.312 87.9159 42.216 87.4679 42.216H86.2199ZM86.2199 39.804V41.772H87.3479C87.7159 41.772 87.9999 41.688 88.1999 41.52C88.3999 41.352 88.4999 41.096 88.4999 40.752C88.4999 40.424 88.3999 40.184 88.1999 40.032C87.9999 39.88 87.7319 39.804 87.3959 39.804H86.2199ZM85.2599 45V39.336H87.5639C88.1799 39.336 88.6519 39.436 88.9799 39.636C89.3639 39.868 89.5559 40.232 89.5559 40.728C89.5559 41.056 89.4399 41.328 89.2079 41.544C88.9759 41.76 88.6679 41.892 88.2839 41.94C88.8039 42.028 89.1799 42.156 89.4119 42.324C89.7399 42.564 89.9039 42.932 89.9039 43.428C89.9039 43.932 89.6919 44.328 89.2679 44.616C88.8839 44.88 88.4039 45.012 87.8279 45.012L85.2599 45ZM95.2919 41.244V44.028C95.2919 44.148 95.2919 44.264 95.2919 44.376C95.3159 44.544 95.4239 44.628 95.6159 44.628C95.7199 44.628 95.8359 44.612 95.9639 44.58V44.844C95.9239 44.86 95.8639 44.884 95.7839 44.916C95.7119 44.94 95.6279 44.96 95.5319 44.976C95.4439 44.992 95.3359 45 95.2079 45C94.9759 45 94.7839 44.944 94.6319 44.832C94.4879 44.72 94.3999 44.532 94.3679 44.268L94.2599 44.376C93.7559 44.88 93.1639 45.132 92.4839 45.132C92.0359 45.132 91.6559 45 91.3439 44.736C91.0319 44.464 90.8759 44.108 90.8759 43.668C90.8759 43.196 91.0159 42.828 91.2959 42.564C91.5759 42.292 92.1799 42.084 93.1079 41.94C93.6279 41.852 93.9559 41.772 94.0919 41.7C94.2839 41.596 94.3799 41.408 94.3799 41.136C94.3799 40.688 94.2559 40.344 94.0079 40.104C93.7679 39.856 93.4239 39.732 92.9759 39.732C92.5919 39.732 92.2559 39.836 91.9679 40.044C91.7439 40.204 91.6039 40.376 91.5479 40.56H91.4159V39.888C91.7279 39.672 92.0399 39.508 92.3519 39.396C92.6719 39.284 93.0039 39.228 93.3479 39.228C94.6439 39.228 95.2919 39.9 95.2919 41.244ZM94.3319 43.8V42.048L93.9119 42.144C93.2159 42.28 92.7759 42.388 92.5919 42.468C92.1119 42.684 91.8719 43.028 91.8719 43.5C91.8719 43.868 91.9719 44.148 92.1719 44.34C92.3799 44.524 92.6719 44.616 93.0479 44.616C93.1999 44.616 93.3679 44.572 93.5519 44.484C93.7359 44.388 93.8879 44.28 94.0079 44.16C94.0959 44.08 94.1599 44.02 94.1999 43.98C94.2879 43.892 94.3319 43.832 94.3319 43.8ZM96.7439 45.036C96.8639 44.524 97.0039 43.676 97.1639 42.492C97.2119 42.108 97.3439 41.048 97.5599 39.312H97.8839C98.2999 40.136 98.7359 40.956 99.1919 41.772C99.6479 42.588 100.048 43.256 100.392 43.776C101.096 42.56 101.892 41.072 102.78 39.312H103.104C103.2 40.152 103.284 40.872 103.356 41.472C103.428 42.064 103.504 42.708 103.584 43.404C103.672 44.092 103.74 44.636 103.788 45.036L103.26 45L102.732 45.036C102.732 44.268 102.684 43.448 102.588 42.576C102.564 42.344 102.504 41.86 102.408 41.124C101.672 42.316 100.952 43.62 100.248 45.036H99.9719C99.5959 44.308 99.2439 43.644 98.9159 43.044C98.5319 42.364 98.1559 41.724 97.7879 41.124C97.6919 41.812 97.5999 42.512 97.5119 43.224C97.4239 43.928 97.3799 44.532 97.3799 45.036C97.2759 45.02 97.1759 45.008 97.0799 45L96.7439 45.036ZM110.416 44.988L107.992 39.3L108.568 39.336L109.132 39.3C109.348 39.964 109.604 40.672 109.9 41.424C110.204 42.168 110.544 42.944 110.92 43.752C111.176 43.232 111.484 42.52 111.844 41.616C112.14 40.88 112.432 40.108 112.72 39.3L113.116 39.336L113.5 39.3C113.124 40.14 112.668 41.148 112.132 42.324C111.636 43.42 111.204 44.388 110.836 45.228C110.348 46.34 109.944 47.3 109.624 48.108L109.216 48.072L108.808 48.108L110.416 44.988ZM119.104 39.72L118.828 40.512H118.732C118.684 40.448 118.632 40.38 118.576 40.308C118.52 40.228 118.464 40.164 118.408 40.116C118.272 39.964 118.096 39.848 117.88 39.768C117.664 39.68 117.444 39.636 117.22 39.636C116.564 39.636 116.048 39.888 115.672 40.392C115.328 40.856 115.156 41.424 115.156 42.096C115.156 42.864 115.356 43.496 115.756 43.992C116.164 44.48 116.692 44.724 117.34 44.724C117.668 44.724 117.968 44.652 118.24 44.508C118.448 44.396 118.7 44.208 118.996 43.944L119.068 43.98L119.008 44.532C118.464 44.932 117.852 45.132 117.172 45.132C116.196 45.132 115.432 44.848 114.88 44.28C114.36 43.744 114.1 43.036 114.1 42.156C114.1 41.244 114.388 40.528 114.964 40.008C115.54 39.488 116.288 39.228 117.208 39.228C117.576 39.228 117.912 39.268 118.216 39.348C118.52 39.42 118.816 39.544 119.104 39.72ZM121.317 42.456L120.357 45.048L119.973 45.012L119.589 45.048C119.725 44.768 119.985 44.2 120.369 43.344C120.721 42.56 121.021 41.872 121.269 41.28C121.621 40.44 121.877 39.784 122.037 39.312L122.397 39.348L122.769 39.312C123.025 40 123.373 40.888 123.813 41.976C124.301 43.184 124.737 44.208 125.121 45.048L124.581 45.012L124.053 45.048C123.685 43.832 123.089 42.292 122.265 40.428C122.161 40.532 121.993 40.86 121.761 41.412L121.317 42.456ZM125.654 42.12C125.654 41.272 125.942 40.58 126.518 40.044C127.102 39.5 127.83 39.228 128.702 39.228C129.526 39.228 130.194 39.496 130.706 40.032C131.226 40.56 131.486 41.268 131.486 42.156C131.486 42.972 131.234 43.66 130.73 44.22C130.178 44.828 129.43 45.132 128.486 45.132C127.662 45.132 126.982 44.86 126.446 44.316C125.918 43.764 125.654 43.032 125.654 42.12ZM128.69 39.6C127.986 39.6 127.466 39.888 127.13 40.464C126.85 40.936 126.71 41.548 126.71 42.3C126.71 42.98 126.85 43.54 127.13 43.98C127.458 44.5 127.942 44.76 128.582 44.76C129.214 44.76 129.698 44.436 130.034 43.788C130.298 43.284 130.43 42.72 130.43 42.096C130.43 41.44 130.31 40.892 130.07 40.452C129.758 39.884 129.298 39.6 128.69 39.6ZM133.786 42.216V44.532H135.034C135.426 44.532 135.746 44.436 135.994 44.244C136.25 44.044 136.378 43.772 136.378 43.428C136.378 42.996 136.266 42.688 136.042 42.504C135.818 42.312 135.482 42.216 135.034 42.216H133.786ZM133.786 39.804V41.772H134.914C135.282 41.772 135.566 41.688 135.766 41.52C135.966 41.352 136.066 41.096 136.066 40.752C136.066 40.424 135.966 40.184 135.766 40.032C135.566 39.88 135.298 39.804 134.962 39.804H133.786ZM132.826 45V39.336H135.13C135.746 39.336 136.218 39.436 136.546 39.636C136.93 39.868 137.122 40.232 137.122 40.728C137.122 41.056 137.006 41.328 136.774 41.544C136.542 41.76 136.234 41.892 135.85 41.94C136.37 42.028 136.746 42.156 136.978 42.324C137.306 42.564 137.47 42.932 137.47 43.428C137.47 43.932 137.258 44.328 136.834 44.616C136.45 44.88 135.97 45.012 135.394 45.012L132.826 45ZM139.786 43.476C140.306 42.916 140.874 42.256 141.49 41.496C142.106 40.736 142.666 40.004 143.17 39.3H143.65V45.036L143.17 45L142.69 45.036V40.86C142.154 41.46 141.762 41.908 141.514 42.204C141.146 42.636 140.758 43.112 140.35 43.632C139.942 44.144 139.594 44.612 139.306 45.036H138.826V39.3C138.866 39.308 138.954 39.316 139.09 39.324C139.226 39.332 139.298 39.336 139.306 39.336C139.378 39.336 139.454 39.336 139.534 39.336C139.646 39.32 139.73 39.308 139.786 39.3V43.476ZM149.646 39.336V45.036L149.178 45L148.686 45.036V42.648H147.81L146.118 45.036L145.566 45L145.014 45.036L146.814 42.6C146.39 42.528 146.046 42.396 145.782 42.204C145.342 41.884 145.122 41.424 145.122 40.824C145.122 40.392 145.278 40.036 145.59 39.756C145.902 39.476 146.278 39.336 146.718 39.336H149.646ZM148.686 42.168V39.816L147.282 39.804C146.954 39.804 146.674 39.912 146.442 40.128C146.218 40.336 146.106 40.624 146.106 40.992C146.106 41.472 146.342 41.804 146.814 41.988C147.126 42.108 147.57 42.168 148.146 42.168H148.686ZM151.518 44.412C151.518 44.22 151.59 44.052 151.734 43.908C151.878 43.764 152.05 43.692 152.25 43.692C152.434 43.692 152.598 43.764 152.742 43.908C152.886 44.052 152.958 44.22 152.958 44.412C152.958 44.604 152.89 44.772 152.754 44.916C152.618 45.06 152.45 45.132 152.25 45.132C152.05 45.132 151.878 45.064 151.734 44.928C151.59 44.792 151.518 44.62 151.518 44.412ZM154.858 44.412C154.858 44.22 154.93 44.052 155.074 43.908C155.218 43.764 155.39 43.692 155.59 43.692C155.774 43.692 155.938 43.764 156.082 43.908C156.226 44.052 156.298 44.22 156.298 44.412C156.298 44.604 156.23 44.772 156.094 44.916C155.958 45.06 155.79 45.132 155.59 45.132C155.39 45.132 155.218 45.064 155.074 44.928C154.93 44.792 154.858 44.62 154.858 44.412ZM158.198 44.412C158.198 44.22 158.27 44.052 158.414 43.908C158.558 43.764 158.73 43.692 158.93 43.692C159.114 43.692 159.278 43.764 159.422 43.908C159.566 44.052 159.638 44.22 159.638 44.412C159.638 44.604 159.57 44.772 159.434 44.916C159.298 45.06 159.13 45.132 158.93 45.132C158.73 45.132 158.558 45.064 158.414 44.928C158.27 44.792 158.198 44.62 158.198 44.412Z" fill="black"/>
<path d="M18.239 11.562V13.319H19.324C19.4127 13.319 19.5293 13.3143 19.674 13.305C19.8233 13.291 19.9143 13.284 19.947 13.284L19.926 13.466L19.947 13.662C19.863 13.662 19.7463 13.6573 19.597 13.648C19.4477 13.634 19.3567 13.627 19.324 13.627H18.239V15.671C18.3883 15.671 18.631 15.6663 18.967 15.657C19.3077 15.6477 19.4873 15.643 19.506 15.643C19.6367 15.643 19.7323 15.6407 19.793 15.636C19.8537 15.6267 19.9727 15.608 20.15 15.58L20.129 15.79L20.15 16H17.623V11.233H20.108L20.087 11.443L20.108 11.653C19.968 11.625 19.8537 11.6063 19.765 11.597C19.6763 11.583 19.5807 11.576 19.478 11.576L18.778 11.562H18.239ZM20.997 16.021V12.675L21.277 12.696L21.557 12.675V13.277C21.6737 13.0717 21.816 12.913 21.984 12.801C22.1567 12.689 22.3597 12.633 22.593 12.633C22.8263 12.633 23.0363 12.6937 23.223 12.815C23.4143 12.9363 23.545 13.1067 23.615 13.326C23.8903 12.864 24.2567 12.633 24.714 12.633C25.1247 12.633 25.4187 12.752 25.596 12.99C25.7593 13.2047 25.841 13.5407 25.841 13.998V16.021L25.561 16L25.281 16.021V14.159C25.281 13.781 25.239 13.5103 25.155 13.347C25.0383 13.1137 24.8213 12.997 24.504 12.997C24.1913 12.997 23.9697 13.123 23.839 13.375C23.7457 13.557 23.699 13.809 23.699 14.131V16.021L23.419 16L23.139 16.021V13.97C23.139 13.3213 22.8917 12.997 22.397 12.997C22.0703 12.997 21.8417 13.0973 21.711 13.298C21.6083 13.4567 21.557 13.6853 21.557 13.984V16.021L21.277 16L20.997 16.021ZM29.2221 13.809V15.433C29.2221 15.503 29.2221 15.5707 29.2221 15.636C29.2361 15.734 29.2991 15.783 29.4111 15.783C29.4717 15.783 29.5394 15.7737 29.6141 15.755V15.909C29.5907 15.9183 29.5557 15.9323 29.5091 15.951C29.4671 15.965 29.4181 15.9767 29.3621 15.986C29.3107 15.9953 29.2477 16 29.1731 16C29.0377 16 28.9257 15.9673 28.8371 15.902C28.7531 15.8367 28.7017 15.727 28.6831 15.573L28.6201 15.636C28.3261 15.93 27.9807 16.077 27.5841 16.077C27.3274 16.077 27.1081 15.9977 26.9261 15.839C26.7441 15.6803 26.6531 15.475 26.6531 15.223C26.6531 14.8683 26.7861 14.614 27.0521 14.46C27.2154 14.3667 27.5141 14.285 27.9481 14.215C28.2514 14.1637 28.4427 14.117 28.5221 14.075C28.6341 14.0143 28.6901 13.9047 28.6901 13.746C28.6901 13.4847 28.6177 13.284 28.4731 13.144C28.3331 12.9993 28.1324 12.927 27.8711 12.927C27.6471 12.927 27.4511 12.9877 27.2831 13.109C27.1524 13.2023 27.0707 13.3027 27.0381 13.41H26.9611V13.018C27.1431 12.892 27.3251 12.7963 27.5071 12.731C27.6937 12.6657 27.8874 12.633 28.0881 12.633C28.8441 12.633 29.2221 13.025 29.2221 13.809ZM28.6621 15.3V14.278L28.4171 14.327C28.0111 14.4063 27.7544 14.4693 27.6471 14.516C27.3671 14.642 27.2271 14.845 27.2271 15.125C27.2271 15.3397 27.2877 15.503 27.4091 15.615C27.5304 15.727 27.6984 15.783 27.9131 15.783C28.0017 15.783 28.0997 15.7573 28.2071 15.706C28.3144 15.65 28.4031 15.587 28.4731 15.517C28.5104 15.4843 28.5501 15.447 28.5921 15.405C28.6387 15.3583 28.6621 15.3233 28.6621 15.3ZM31.0841 12.675V16.021L30.8041 16L30.5241 16.021V12.675L30.8041 12.696L31.0841 12.675ZM31.1611 11.478C31.1611 11.576 31.1261 11.66 31.0561 11.73C30.9861 11.8 30.9021 11.835 30.8041 11.835C30.7061 11.835 30.6221 11.8 30.5521 11.73C30.4821 11.66 30.4471 11.576 30.4471 11.478C30.4471 11.38 30.4821 11.296 30.5521 11.226C30.6221 11.156 30.7061 11.121 30.8041 11.121C30.8974 11.121 30.9791 11.156 31.0491 11.226C31.1237 11.2913 31.1611 11.3753 31.1611 11.478ZM32.4723 16.021V10.764L32.7523 10.785L33.0323 10.764V16.021L32.7523 16L32.4723 16.021Z" fill="#616161"/>
<path d="M148.261 12.92L148.1 13.382H148.044C148.016 13.3447 147.985 13.305 147.953 13.263C147.92 13.2163 147.887 13.179 147.855 13.151C147.775 13.0623 147.673 12.9947 147.547 12.948C147.421 12.8967 147.292 12.871 147.162 12.871C146.779 12.871 146.478 13.018 146.259 13.312C146.058 13.5827 145.958 13.914 145.958 14.306C145.958 14.754 146.074 15.1227 146.308 15.412C146.546 15.6967 146.854 15.839 147.232 15.839C147.423 15.839 147.598 15.797 147.757 15.713C147.878 15.6477 148.025 15.538 148.198 15.384L148.24 15.405L148.205 15.727C147.887 15.9603 147.53 16.077 147.134 16.077C146.564 16.077 146.119 15.9113 145.797 15.58C145.493 15.2673 145.342 14.8543 145.342 14.341C145.342 13.809 145.51 13.3913 145.846 13.088C146.182 12.7847 146.618 12.633 147.155 12.633C147.369 12.633 147.565 12.6563 147.743 12.703C147.92 12.745 148.093 12.8173 148.261 12.92ZM151.575 15.3L151.568 15.664C151.386 15.7947 151.194 15.8973 150.994 15.972C150.793 16.042 150.583 16.077 150.364 16.077C149.869 16.077 149.47 15.923 149.167 15.615C148.863 15.307 148.712 14.887 148.712 14.355C148.712 13.8463 148.847 13.438 149.118 13.13C149.407 12.7987 149.806 12.633 150.315 12.633C150.73 12.633 151.064 12.7707 151.316 13.046C151.596 13.3493 151.736 13.7833 151.736 14.348L150.315 14.327H149.328C149.328 14.747 149.423 15.0877 149.615 15.349C149.829 15.6383 150.137 15.783 150.539 15.783C150.753 15.783 150.961 15.727 151.162 15.615C151.297 15.5403 151.435 15.4353 151.575 15.3ZM149.328 14.068H151.19C151.19 13.7087 151.131 13.4287 151.015 13.228C150.87 12.976 150.637 12.85 150.315 12.85C150.002 12.85 149.755 12.9783 149.573 13.235C149.409 13.4637 149.328 13.7413 149.328 14.068ZM153.066 12.997V16.021L152.786 16L152.506 16.021V12.696H154.732L154.718 12.885L154.732 13.074C154.596 13.0507 154.398 13.032 154.137 13.018C153.88 13.004 153.523 12.997 153.066 12.997ZM155.062 14.32C155.062 13.8253 155.23 13.4217 155.566 13.109C155.907 12.7917 156.332 12.633 156.84 12.633C157.321 12.633 157.711 12.7893 158.009 13.102C158.313 13.41 158.464 13.823 158.464 14.341C158.464 14.817 158.317 15.2183 158.023 15.545C157.701 15.8997 157.265 16.077 156.714 16.077C156.234 16.077 155.837 15.9183 155.524 15.601C155.216 15.279 155.062 14.852 155.062 14.32ZM156.833 12.85C156.423 12.85 156.119 13.018 155.923 13.354C155.76 13.6293 155.678 13.9863 155.678 14.425C155.678 14.8217 155.76 15.1483 155.923 15.405C156.115 15.7083 156.397 15.86 156.77 15.86C157.139 15.86 157.421 15.671 157.617 15.293C157.771 14.999 157.848 14.67 157.848 14.306C157.848 13.9233 157.778 13.6037 157.638 13.347C157.456 13.0157 157.188 12.85 156.833 12.85ZM158.728 15.685H159.015C159.244 15.195 159.465 14.7003 159.68 14.201C159.946 13.5803 160.147 13.074 160.282 12.682L160.492 12.703L160.709 12.682C160.826 12.9947 161.003 13.4497 161.241 14.047C161.484 14.6397 161.712 15.1857 161.927 15.685H162.186L162.172 15.944C162.172 15.986 162.172 16.0303 162.172 16.077C162.172 16.1237 162.177 16.1657 162.186 16.203H162.137C162.02 16.1143 161.878 16.0583 161.71 16.035C161.547 16.0117 161.304 16 160.982 16H159.932C159.591 16 159.344 16.0093 159.19 16.028C159.041 16.0467 158.905 16.105 158.784 16.203H158.728C158.737 16.1797 158.742 16.1377 158.742 16.077C158.742 16.021 158.744 15.9767 158.749 15.944L158.728 15.685ZM159.428 15.685H161.353C161.26 15.3957 161.124 15.0363 160.947 14.607C160.774 14.173 160.597 13.7483 160.415 13.333H160.366C160.361 13.333 160.308 13.459 160.205 13.711C160.018 14.1637 159.895 14.4647 159.834 14.614C159.689 14.9733 159.554 15.3303 159.428 15.685ZM164.153 14.117C164.34 14.117 164.508 14.1147 164.657 14.11C164.806 14.1007 164.921 14.0913 165 14.082V12.675L165.28 12.696L165.56 12.675V16.021L165.28 16L165 16.021V14.397L164.153 14.376L163.306 14.397V16.021L163.026 16L162.746 16.021V12.675L163.026 12.696L163.306 12.675V14.082C163.432 14.0913 163.586 14.1007 163.768 14.11C163.955 14.1147 164.083 14.117 164.153 14.117ZM169.058 12.696V16.021L168.785 16L168.498 16.021V14.628H167.987L167 16.021L166.678 16L166.356 16.021L167.406 14.6C167.158 14.558 166.958 14.481 166.804 14.369C166.547 14.1823 166.419 13.914 166.419 13.564C166.419 13.312 166.51 13.1043 166.692 12.941C166.874 12.7777 167.093 12.696 167.35 12.696H169.058ZM168.498 14.348V12.976L167.679 12.969C167.487 12.969 167.324 13.032 167.189 13.158C167.058 13.2793 166.993 13.4473 166.993 13.662C166.993 13.942 167.13 14.1357 167.406 14.243C167.588 14.313 167.847 14.348 168.183 14.348H168.498ZM169.919 17.127L170.409 15.573C170.451 15.447 170.483 15.363 170.507 15.321C170.567 15.223 170.642 15.174 170.731 15.174C170.805 15.174 170.871 15.1997 170.927 15.251C170.987 15.2977 171.018 15.3583 171.018 15.433C171.018 15.4937 171.001 15.559 170.969 15.629C170.959 15.6477 170.924 15.706 170.864 15.804L170.038 17.176L169.919 17.127ZM175.187 16.021V11.793L175.138 11.772L174.361 12.192C174.314 12.08 174.244 11.9937 174.151 11.933C174.431 11.821 174.681 11.7113 174.9 11.604C175.171 11.4733 175.413 11.3427 175.628 11.212L175.747 11.247V16.021L175.467 16L175.187 16.021ZM178.244 12.325L177.999 11.982C178.279 11.5387 178.682 11.317 179.21 11.317C179.634 11.317 179.968 11.4127 180.211 11.604C180.477 11.814 180.61 12.1267 180.61 12.542C180.61 12.8127 180.54 13.0787 180.4 13.34C180.288 13.5453 180.117 13.7693 179.889 14.012L179.056 14.901L178.629 15.349L178.51 15.482L178.545 15.559C178.703 15.559 178.96 15.5497 179.315 15.531C180.113 15.489 180.572 15.468 180.694 15.468L180.673 15.734L180.694 16H177.691V15.895L178.265 15.321L178.685 14.887C178.988 14.5743 179.198 14.348 179.315 14.208C179.529 13.9513 179.686 13.7087 179.784 13.48C179.905 13.1953 179.966 12.8873 179.966 12.556C179.966 12.248 179.905 12.01 179.784 11.842C179.648 11.6553 179.436 11.562 179.147 11.562C178.927 11.562 178.741 11.632 178.587 11.772C178.433 11.9073 178.335 12.0847 178.293 12.304L178.244 12.325ZM181.825 15.657C181.825 15.545 181.867 15.447 181.951 15.363C182.035 15.279 182.136 15.237 182.252 15.237C182.36 15.237 182.455 15.279 182.539 15.363C182.623 15.447 182.665 15.545 182.665 15.657C182.665 15.769 182.626 15.867 182.546 15.951C182.467 16.035 182.369 16.077 182.252 16.077C182.136 16.077 182.035 16.0373 181.951 15.958C181.867 15.8787 181.825 15.7783 181.825 15.657ZM181.825 13.13C181.825 13.018 181.867 12.92 181.951 12.836C182.035 12.752 182.136 12.71 182.252 12.71C182.36 12.71 182.455 12.752 182.539 12.836C182.623 12.92 182.665 13.018 182.665 13.13C182.665 13.242 182.626 13.34 182.546 13.424C182.467 13.508 182.369 13.55 182.252 13.55C182.136 13.55 182.035 13.5103 181.951 13.431C181.867 13.3517 181.825 13.2513 181.825 13.13ZM184.089 13.641V11.338L184.131 11.317H186.378L186.406 11.373C186.392 11.4383 186.38 11.5037 186.371 11.569C186.361 11.6297 186.357 11.6927 186.357 11.758C186.357 11.814 186.359 11.856 186.364 11.884C186.21 11.8513 186.056 11.8257 185.902 11.807C185.748 11.7837 185.587 11.772 185.419 11.772H184.383V13.333C184.495 13.277 184.616 13.235 184.747 13.207C184.877 13.179 185.006 13.165 185.132 13.165C185.519 13.165 185.843 13.2887 186.105 13.536C186.366 13.7833 186.497 14.103 186.497 14.495C186.497 14.9197 186.343 15.2837 186.035 15.587C185.703 15.9137 185.276 16.077 184.754 16.077C184.469 16.077 184.222 16.0443 184.012 15.979C183.881 15.937 183.755 15.8787 183.634 15.804L183.739 15.342L183.788 15.335C183.89 15.503 184.033 15.6313 184.215 15.72C184.397 15.804 184.593 15.846 184.803 15.846C185.129 15.846 185.388 15.7153 185.58 15.454C185.757 15.2113 185.846 14.9103 185.846 14.551C185.846 14.2103 185.771 13.949 185.622 13.767C185.454 13.5617 185.195 13.459 184.845 13.459C184.686 13.459 184.539 13.487 184.404 13.543C184.31 13.5803 184.226 13.6293 184.152 13.69L184.089 13.641ZM189.896 11.338L189.973 11.583C189.875 11.5503 189.766 11.534 189.644 11.534C189.136 11.534 188.744 11.807 188.468 12.353C188.254 12.7823 188.146 13.2793 188.146 13.844C188.412 13.4287 188.79 13.221 189.28 13.221C189.71 13.221 190.041 13.34 190.274 13.578C190.512 13.8113 190.631 14.1263 190.631 14.523C190.631 14.9757 190.489 15.349 190.204 15.643C189.924 15.9323 189.558 16.077 189.105 16.077C188.555 16.077 188.142 15.8763 187.866 15.475C187.633 15.1343 187.516 14.6723 187.516 14.089C187.516 13.249 187.708 12.577 188.09 12.073C188.473 11.569 188.97 11.317 189.581 11.317C189.633 11.317 189.682 11.317 189.728 11.317C189.78 11.317 189.836 11.324 189.896 11.338ZM189.133 13.487C188.821 13.487 188.578 13.592 188.405 13.802C188.233 14.012 188.146 14.3177 188.146 14.719C188.146 15.0223 188.233 15.2883 188.405 15.517C188.583 15.7457 188.818 15.86 189.112 15.86C189.406 15.86 189.633 15.727 189.791 15.461C189.936 15.223 190.008 14.9267 190.008 14.572C190.008 14.2407 189.929 13.977 189.77 13.781C189.612 13.585 189.399 13.487 189.133 13.487Z" fill="#616161"/>
</g>
<defs>
<filter id="filter0_d_3_122" x="0.5" y="0.5" width="208" height="65" filterUnits="userSpaceOnUse" color-interpolation-filters="sRGB">
<feFlood flood-opacity="0" result="BackgroundImageFix"/>
<feColorMatrix in="SourceAlpha" type="matrix" values="0 0 0 0 0 0 0 0 0 0 0 0 0 0 0 0 0 0 127 0" result="hardAlpha"/>
<feOffset dy="4"/>
<feGaussianBlur stdDeviation="3.5"/>
<feComposite in2="hardAlpha" operator="out"/>
<feColorMatrix type="matrix" values="0 0 0 0 0 0 0 0 0 0 0 0 0 0 0 0 0 0 0.1 0"/>
<feBlend mode="normal" in2="BackgroundImageFix" result="effect1_dropShadow_3_122"/>
<feBlend mode="normal" in="SourceGraphic" in2="effect1_dropShadow_3_122" result="shape"/>
</filter>
<filter id="filter1_b_3_122" x="-6.5" y="-10.5" width="222" height="79" filterUnits="userSpaceOnUse" color-interpolation-filters="sRGB">
<feFlood flood-opacity="0" result="BackgroundImageFix"/>
<feGaussianBlur in="BackgroundImageFix" stdDeviation="7"/>
<feComposite in2="SourceAlpha" operator="in" result="effect1_backgroundBlur_3_122"/>
<feBlend mode="normal" in="SourceGraphic" in2="effect1_backgroundBlur_3_122" result="shape"/>
</filter>
</defs>
</svg>
