<svg width="209" height="66" viewBox="0 0 209 66" fill="none" xmlns="http://www.w3.org/2000/svg">
<g filter="url(#filter0_d_3_112)">
<g filter="url(#filter1_b_3_112)">
<rect x="8" y="4" width="193" height="50" rx="10" fill="white" fill-opacity="0.4"/>
<rect x="8" y="4" width="193" height="50" rx="10" stroke="white"/>
</g>
<path d="M23.972 23.828L21.248 26.444L20.228 27.476C21.196 28.58 22.168 29.68 23.144 30.776L24.116 31.976V32.036L23.456 32L22.784 32.036C22.656 31.852 22.52 31.668 22.376 31.484C22.24 31.292 22.1 31.112 21.956 30.944L19.34 27.884C19.3 27.852 19.248 27.832 19.184 27.824C19.152 27.832 19.136 27.84 19.136 27.848V32.036L18.608 32L18.08 32.036V23.828L18.608 23.864L19.136 23.828V27.536C19.144 27.568 19.18 27.576 19.244 27.56C19.316 27.544 19.384 27.512 19.448 27.464C19.512 27.408 19.644 27.284 19.844 27.092C19.916 27.02 19.992 26.948 20.072 26.876L23.024 23.828L23.504 23.864L23.972 23.828ZM24.7559 29.12C24.7559 28.272 25.0439 27.58 25.6199 27.044C26.2039 26.5 26.9319 26.228 27.8039 26.228C28.6279 26.228 29.2959 26.496 29.8079 27.032C30.3279 27.56 30.5879 28.268 30.5879 29.156C30.5879 29.972 30.3359 30.66 29.8319 31.22C29.2799 31.828 28.5319 32.132 27.5879 32.132C26.7639 32.132 26.0839 31.86 25.5479 31.316C25.0199 30.764 24.7559 30.032 24.7559 29.12ZM27.7919 26.6C27.0879 26.6 26.5679 26.888 26.2319 27.464C25.9519 27.936 25.8119 28.548 25.8119 29.3C25.8119 29.98 25.9519 30.54 26.2319 30.98C26.5599 31.5 27.0439 31.76 27.6839 31.76C28.3159 31.76 28.7999 31.436 29.1359 30.788C29.3999 30.284 29.5319 29.72 29.5319 29.096C29.5319 28.44 29.4119 27.892 29.1719 27.452C28.8599 26.884 28.3999 26.6 27.7919 26.6ZM32.8639 29.456L31.9039 32.048L31.5199 32.012L31.1359 32.048C31.2719 31.768 31.5319 31.2 31.9159 30.344C32.2679 29.56 32.5679 28.872 32.8159 28.28C33.1679 27.44 33.4239 26.784 33.5839 26.312L33.9439 26.348L34.3159 26.312C34.5719 27 34.9199 27.888 35.3599 28.976C35.8479 30.184 36.2839 31.208 36.6679 32.048L36.1279 32.012L35.5999 32.048C35.2319 30.832 34.6359 29.292 33.8119 27.428C33.7079 27.532 33.5399 27.86 33.3079 28.412L32.8639 29.456ZM38.6413 29.456L37.6813 32.048L37.2973 32.012L36.9133 32.048C37.0493 31.768 37.3093 31.2 37.6933 30.344C38.0453 29.56 38.3453 28.872 38.5933 28.28C38.9453 27.44 39.2013 26.784 39.3613 26.312L39.7213 26.348L40.0933 26.312C40.3493 27 40.6973 27.888 41.1373 28.976C41.6253 30.184 42.0613 31.208 42.4453 32.048L41.9053 32.012L41.3773 32.048C41.0093 30.832 40.4133 29.292 39.5893 27.428C39.4853 27.532 39.3173 27.86 39.0853 28.412L38.6413 29.456ZM47.8866 30.8L47.8746 31.424C47.5626 31.648 47.2346 31.824 46.8906 31.952C46.5466 32.072 46.1866 32.132 45.8106 32.132C44.9626 32.132 44.2786 31.868 43.7586 31.34C43.2386 30.812 42.9786 30.092 42.9786 29.18C42.9786 28.308 43.2106 27.608 43.6746 27.08C44.1706 26.512 44.8546 26.228 45.7266 26.228C46.4386 26.228 47.0106 26.464 47.4426 26.936C47.9226 27.456 48.1626 28.2 48.1626 29.168L45.7266 29.132H44.0346C44.0346 29.852 44.1986 30.436 44.5266 30.884C44.8946 31.38 45.4226 31.628 46.1106 31.628C46.4786 31.628 46.8346 31.532 47.1786 31.34C47.4106 31.212 47.6466 31.032 47.8866 30.8ZM44.0346 28.688H47.2266C47.2266 28.072 47.1266 27.592 46.9266 27.248C46.6786 26.816 46.2786 26.6 45.7266 26.6C45.1906 26.6 44.7666 26.82 44.4546 27.26C44.1746 27.652 44.0346 28.128 44.0346 28.688ZM50.4426 26.852V32.036L49.9626 32L49.4826 32.036V26.336H53.2986L53.2746 26.66L53.2986 26.984C53.0666 26.944 52.7266 26.912 52.2786 26.888C51.8386 26.864 51.2266 26.852 50.4426 26.852ZM55.3293 30.476C55.8493 29.916 56.4173 29.256 57.0333 28.496C57.6493 27.736 58.2093 27.004 58.7133 26.3H59.1933V32.036L58.7133 32L58.2333 32.036V27.86C57.6973 28.46 57.3053 28.908 57.0573 29.204C56.6893 29.636 56.3013 30.112 55.8933 30.632C55.4853 31.144 55.1373 31.612 54.8493 32.036H54.3693V26.3C54.4093 26.308 54.4973 26.316 54.6333 26.324C54.7693 26.332 54.8413 26.336 54.8493 26.336C54.9213 26.336 54.9973 26.336 55.0773 26.336C55.1893 26.32 55.2733 26.308 55.3293 26.3V30.476ZM60.6653 33.932L61.5053 31.268C61.5773 31.052 61.6333 30.908 61.6733 30.836C61.7773 30.668 61.9053 30.584 62.0573 30.584C62.1853 30.584 62.2973 30.628 62.3933 30.716C62.4973 30.796 62.5493 30.9 62.5493 31.028C62.5493 31.132 62.5213 31.244 62.4653 31.364C62.4493 31.396 62.3893 31.496 62.2853 31.664L60.8693 34.016L60.6653 33.932ZM72.217 26.72L71.941 27.512H71.845C71.797 27.448 71.745 27.38 71.689 27.308C71.633 27.228 71.577 27.164 71.521 27.116C71.385 26.964 71.209 26.848 70.993 26.768C70.777 26.68 70.557 26.636 70.333 26.636C69.677 26.636 69.161 26.888 68.785 27.392C68.441 27.856 68.269 28.424 68.269 29.096C68.269 29.864 68.469 30.496 68.869 30.992C69.277 31.48 69.805 31.724 70.453 31.724C70.781 31.724 71.081 31.652 71.353 31.508C71.561 31.396 71.813 31.208 72.109 30.944L72.181 30.98L72.121 31.532C71.577 31.932 70.965 32.132 70.285 32.132C69.309 32.132 68.545 31.848 67.993 31.28C67.473 30.744 67.213 30.036 67.213 29.156C67.213 28.244 67.501 27.528 68.077 27.008C68.653 26.488 69.401 26.228 70.321 26.228C70.689 26.228 71.025 26.268 71.329 26.348C71.633 26.42 71.929 26.544 72.217 26.72ZM74.3223 35.108L73.8423 35.072L73.3623 35.108V26.3L73.8423 26.336L74.3223 26.3V27.44C74.5223 27.088 74.7143 26.832 74.8983 26.672C75.2663 26.36 75.7583 26.204 76.3743 26.204C77.1183 26.204 77.7143 26.484 78.1623 27.044C78.5783 27.564 78.7863 28.208 78.7863 28.976C78.7863 29.944 78.5463 30.712 78.0663 31.28C77.5943 31.848 76.9703 32.132 76.1943 32.132C75.7703 32.132 75.4063 32.036 75.1023 31.844C74.8063 31.652 74.5543 31.364 74.3463 30.98L74.3223 35.108ZM74.3223 29.324C74.3223 30.004 74.4623 30.548 74.7423 30.956C75.0543 31.404 75.5023 31.628 76.0863 31.628C76.6463 31.628 77.0703 31.368 77.3583 30.848C77.6063 30.392 77.7303 29.784 77.7303 29.024C77.7303 28.352 77.6143 27.82 77.3823 27.428C77.1023 26.948 76.6663 26.708 76.0743 26.708C75.4583 26.708 74.9943 27.004 74.6823 27.596C74.4423 28.06 74.3223 28.636 74.3223 29.324ZM79.6583 29.12C79.6583 28.272 79.9463 27.58 80.5223 27.044C81.1063 26.5 81.8343 26.228 82.7063 26.228C83.5303 26.228 84.1983 26.496 84.7103 27.032C85.2303 27.56 85.4903 28.268 85.4903 29.156C85.4903 29.972 85.2383 30.66 84.7343 31.22C84.1823 31.828 83.4343 32.132 82.4903 32.132C81.6663 32.132 80.9863 31.86 80.4503 31.316C79.9223 30.764 79.6583 30.032 79.6583 29.12ZM82.6943 26.6C81.9903 26.6 81.4703 26.888 81.1343 27.464C80.8543 27.936 80.7143 28.548 80.7143 29.3C80.7143 29.98 80.8543 30.54 81.1343 30.98C81.4623 31.5 81.9463 31.76 82.5863 31.76C83.2183 31.76 83.7023 31.436 84.0383 30.788C84.3023 30.284 84.4343 29.72 84.4343 29.096C84.4343 28.44 84.3143 27.892 84.0743 27.452C83.7623 26.884 83.3023 26.6 82.6943 26.6ZM88.6663 29.276C88.9143 29.276 89.1703 29.228 89.4342 29.132C89.6983 29.028 89.9463 28.888 90.1783 28.712V26.3L90.6583 26.336L91.1383 26.3V32.036L90.6583 32L90.1783 32.036V29.252C89.9143 29.42 89.6103 29.56 89.2663 29.672C88.9223 29.776 88.6023 29.828 88.3063 29.828C87.8983 29.828 87.5303 29.744 87.2023 29.576C86.7383 29.336 86.5063 28.98 86.5063 28.508V26.3L86.9863 26.336L87.4663 26.3V28.472C87.4663 28.776 87.5943 28.992 87.8503 29.12C88.0503 29.224 88.3223 29.276 88.6663 29.276ZM95.4649 28.772C95.7849 28.772 96.0729 28.768 96.3289 28.76C96.5849 28.744 96.7809 28.728 96.9169 28.712V26.3L97.3969 26.336L97.8769 26.3V32.036L97.3969 32L96.9169 32.036V29.252L95.4649 29.216L94.0129 29.252V32.036L93.5329 32L93.0529 32.036V26.3L93.5329 26.336L94.0129 26.3V28.712C94.2289 28.728 94.4929 28.744 94.8049 28.76C95.1249 28.768 95.3449 28.772 95.4649 28.772ZM99.2169 29.12C99.2169 28.272 99.5049 27.58 100.081 27.044C100.665 26.5 101.393 26.228 102.265 26.228C103.089 26.228 103.757 26.496 104.269 27.032C104.789 27.56 105.049 28.268 105.049 29.156C105.049 29.972 104.797 30.66 104.293 31.22C103.741 31.828 102.993 32.132 102.049 32.132C101.225 32.132 100.545 31.86 100.009 31.316C99.4809 30.764 99.2169 30.032 99.2169 29.12ZM102.253 26.6C101.549 26.6 101.029 26.888 100.693 27.464C100.413 27.936 100.273 28.548 100.273 29.3C100.273 29.98 100.413 30.54 100.693 30.98C101.021 31.5 101.505 31.76 102.145 31.76C102.777 31.76 103.261 31.436 103.597 30.788C103.861 30.284 103.993 29.72 103.993 29.096C103.993 28.44 103.873 27.892 103.633 27.452C103.321 26.884 102.861 26.6 102.253 26.6ZM106.017 33.932L106.857 31.268C106.929 31.052 106.985 30.908 107.025 30.836C107.129 30.668 107.257 30.584 107.409 30.584C107.537 30.584 107.649 30.628 107.745 30.716C107.849 30.796 107.901 30.9 107.901 31.028C107.901 31.132 107.873 31.244 107.817 31.364C107.801 31.396 107.741 31.496 107.637 31.664L106.221 34.016L106.017 33.932ZM112.181 31.46H112.673C113.065 30.62 113.445 29.772 113.813 28.916C114.269 27.852 114.613 26.984 114.845 26.312L115.205 26.348L115.577 26.312C115.777 26.848 116.081 27.628 116.489 28.652C116.905 29.668 117.297 30.604 117.665 31.46H118.109L118.085 31.904C118.085 31.976 118.085 32.052 118.085 32.132C118.085 32.212 118.093 32.284 118.109 32.348H118.025C117.825 32.196 117.581 32.1 117.293 32.06C117.013 32.02 116.597 32 116.045 32H114.245C113.661 32 113.237 32.016 112.973 32.048C112.717 32.08 112.485 32.18 112.277 32.348H112.181C112.197 32.308 112.205 32.236 112.205 32.132C112.205 32.036 112.209 31.96 112.217 31.904L112.181 31.46ZM113.381 31.46H116.681C116.521 30.964 116.289 30.348 115.985 29.612C115.689 28.868 115.385 28.14 115.073 27.428H114.989C114.981 27.428 114.889 27.644 114.713 28.076C114.393 28.852 114.181 29.368 114.077 29.624C113.829 30.24 113.597 30.852 113.381 31.46ZM123.101 28.244V31.028C123.101 31.148 123.101 31.264 123.101 31.376C123.125 31.544 123.233 31.628 123.425 31.628C123.529 31.628 123.645 31.612 123.773 31.58V31.844C123.733 31.86 123.673 31.884 123.593 31.916C123.521 31.94 123.437 31.96 123.341 31.976C123.253 31.992 123.145 32 123.017 32C122.785 32 122.593 31.944 122.441 31.832C122.297 31.72 122.209 31.532 122.177 31.268L122.069 31.376C121.565 31.88 120.973 32.132 120.293 32.132C119.845 32.132 119.465 32 119.153 31.736C118.841 31.464 118.685 31.108 118.685 30.668C118.685 30.196 118.825 29.828 119.105 29.564C119.385 29.292 119.989 29.084 120.917 28.94C121.437 28.852 121.765 28.772 121.901 28.7C122.093 28.596 122.189 28.408 122.189 28.136C122.189 27.688 122.065 27.344 121.817 27.104C121.577 26.856 121.233 26.732 120.785 26.732C120.401 26.732 120.065 26.836 119.777 27.044C119.553 27.204 119.413 27.376 119.357 27.56H119.225V26.888C119.537 26.672 119.849 26.508 120.161 26.396C120.481 26.284 120.813 26.228 121.157 26.228C122.453 26.228 123.101 26.9 123.101 28.244ZM122.141 30.8V29.048L121.721 29.144C121.025 29.28 120.585 29.388 120.401 29.468C119.921 29.684 119.681 30.028 119.681 30.5C119.681 30.868 119.781 31.148 119.981 31.34C120.189 31.524 120.481 31.616 120.857 31.616C121.009 31.616 121.177 31.572 121.361 31.484C121.545 31.388 121.697 31.28 121.817 31.16C121.905 31.08 121.969 31.02 122.009 30.98C122.097 30.892 122.141 30.832 122.141 30.8ZM126.029 29.216V31.532H127.277C127.669 31.532 127.989 31.436 128.237 31.244C128.493 31.044 128.621 30.772 128.621 30.428C128.621 29.996 128.509 29.688 128.285 29.504C128.061 29.312 127.725 29.216 127.277 29.216H126.029ZM126.029 26.804V28.772H127.157C127.525 28.772 127.809 28.688 128.009 28.52C128.209 28.352 128.309 28.096 128.309 27.752C128.309 27.424 128.209 27.184 128.009 27.032C127.809 26.88 127.541 26.804 127.205 26.804H126.029ZM125.069 32V26.336H127.373C127.989 26.336 128.461 26.436 128.789 26.636C129.173 26.868 129.365 27.232 129.365 27.728C129.365 28.056 129.249 28.328 129.017 28.544C128.785 28.76 128.477 28.892 128.093 28.94C128.613 29.028 128.989 29.156 129.221 29.324C129.549 29.564 129.713 29.932 129.713 30.428C129.713 30.932 129.501 31.328 129.077 31.616C128.693 31.88 128.213 32.012 127.637 32.012L125.069 32ZM135.101 28.244V31.028C135.101 31.148 135.101 31.264 135.101 31.376C135.125 31.544 135.233 31.628 135.425 31.628C135.529 31.628 135.645 31.612 135.773 31.58V31.844C135.733 31.86 135.673 31.884 135.593 31.916C135.521 31.94 135.437 31.96 135.341 31.976C135.253 31.992 135.145 32 135.017 32C134.785 32 134.593 31.944 134.441 31.832C134.297 31.72 134.209 31.532 134.177 31.268L134.069 31.376C133.565 31.88 132.973 32.132 132.293 32.132C131.845 32.132 131.465 32 131.153 31.736C130.841 31.464 130.685 31.108 130.685 30.668C130.685 30.196 130.825 29.828 131.105 29.564C131.385 29.292 131.989 29.084 132.917 28.94C133.437 28.852 133.765 28.772 133.901 28.7C134.093 28.596 134.189 28.408 134.189 28.136C134.189 27.688 134.065 27.344 133.817 27.104C133.577 26.856 133.233 26.732 132.785 26.732C132.401 26.732 132.065 26.836 131.777 27.044C131.553 27.204 131.413 27.376 131.357 27.56H131.225V26.888C131.537 26.672 131.849 26.508 132.161 26.396C132.481 26.284 132.813 26.228 133.157 26.228C134.453 26.228 135.101 26.9 135.101 28.244ZM134.141 30.8V29.048L133.721 29.144C133.025 29.28 132.585 29.388 132.401 29.468C131.921 29.684 131.681 30.028 131.681 30.5C131.681 30.868 131.781 31.148 131.981 31.34C132.189 31.524 132.481 31.616 132.857 31.616C133.009 31.616 133.177 31.572 133.361 31.484C133.545 31.388 133.697 31.28 133.817 31.16C133.905 31.08 133.969 31.02 134.009 30.98C134.097 30.892 134.141 30.832 134.141 30.8ZM138.029 30.476C138.549 29.916 139.117 29.256 139.733 28.496C140.349 27.736 140.909 27.004 141.413 26.3H141.893V32.036L141.413 32L140.933 32.036V27.86C140.397 28.46 140.005 28.908 139.757 29.204C139.389 29.636 139.001 30.112 138.593 30.632C138.185 31.144 137.837 31.612 137.549 32.036H137.069V26.3L137.549 26.336L138.029 26.3V30.476ZM141.257 24.8L141.497 25.196C141.201 25.372 140.877 25.512 140.525 25.616C140.181 25.712 139.829 25.76 139.469 25.76C139.109 25.76 138.761 25.716 138.425 25.628C138.089 25.532 137.765 25.392 137.453 25.208L137.693 24.8C138.205 25.12 138.797 25.28 139.469 25.28C140.149 25.28 140.745 25.12 141.257 24.8ZM145.957 26.876V32.036L145.477 32L144.997 32.036V26.876C144.437 26.876 144.025 26.884 143.761 26.9C143.497 26.916 143.221 26.944 142.933 26.984L142.969 26.66L142.933 26.336H148.021L147.997 26.66L148.021 26.984C147.757 26.944 147.489 26.916 147.217 26.9C146.945 26.884 146.525 26.876 145.957 26.876ZM153.473 30.8L153.461 31.424C153.149 31.648 152.821 31.824 152.477 31.952C152.133 32.072 151.773 32.132 151.397 32.132C150.549 32.132 149.865 31.868 149.345 31.34C148.825 30.812 148.565 30.092 148.565 29.18C148.565 28.308 148.797 27.608 149.261 27.08C149.757 26.512 150.441 26.228 151.313 26.228C152.025 26.228 152.597 26.464 153.029 26.936C153.509 27.456 153.749 28.2 153.749 29.168L151.313 29.132H149.621C149.621 29.852 149.785 30.436 150.113 30.884C150.481 31.38 151.009 31.628 151.697 31.628C152.065 31.628 152.421 31.532 152.765 31.34C152.997 31.212 153.233 31.032 153.473 30.8ZM149.621 28.688H152.813C152.813 28.072 152.713 27.592 152.513 27.248C152.265 26.816 151.865 26.6 151.313 26.6C150.777 26.6 150.353 26.82 150.041 27.26C149.761 27.652 149.621 28.128 149.621 28.688ZM22.424 39.72L22.148 40.512H22.052C22.004 40.448 21.952 40.38 21.896 40.308C21.84 40.228 21.784 40.164 21.728 40.116C21.592 39.964 21.416 39.848 21.2 39.768C20.984 39.68 20.764 39.636 20.54 39.636C19.884 39.636 19.368 39.888 18.992 40.392C18.648 40.856 18.476 41.424 18.476 42.096C18.476 42.864 18.676 43.496 19.076 43.992C19.484 44.48 20.012 44.724 20.66 44.724C20.988 44.724 21.288 44.652 21.56 44.508C21.768 44.396 22.02 44.208 22.316 43.944L22.388 43.98L22.328 44.532C21.784 44.932 21.172 45.132 20.492 45.132C19.516 45.132 18.752 44.848 18.2 44.28C17.68 43.744 17.42 43.036 17.42 42.156C17.42 41.244 17.708 40.528 18.284 40.008C18.86 39.488 19.608 39.228 20.528 39.228C20.896 39.228 21.232 39.268 21.536 39.348C21.84 39.42 22.136 39.544 22.424 39.72ZM23.1973 42.12C23.1973 41.272 23.4853 40.58 24.0613 40.044C24.6453 39.5 25.3733 39.228 26.2453 39.228C27.0693 39.228 27.7373 39.496 28.2493 40.032C28.7693 40.56 29.0293 41.268 29.0293 42.156C29.0293 42.972 28.7773 43.66 28.2733 44.22C27.7213 44.828 26.9733 45.132 26.0293 45.132C25.2053 45.132 24.5253 44.86 23.9893 44.316C23.4613 43.764 23.1973 43.032 23.1973 42.12ZM26.2333 39.6C25.5293 39.6 25.0093 39.888 24.6733 40.464C24.3933 40.936 24.2533 41.548 24.2533 42.3C24.2533 42.98 24.3933 43.54 24.6733 43.98C25.0013 44.5 25.4853 44.76 26.1253 44.76C26.7573 44.76 27.2413 44.436 27.5773 43.788C27.8413 43.284 27.9733 42.72 27.9733 42.096C27.9733 41.44 27.8533 40.892 27.6133 40.452C27.3013 39.884 26.8413 39.6 26.2333 39.6ZM33.8853 40.692C33.8853 41.028 33.7733 41.308 33.5493 41.532C33.3253 41.756 33.0333 41.896 32.6733 41.952C33.1213 42.008 33.4813 42.144 33.7533 42.36C34.0813 42.624 34.2453 42.988 34.2453 43.452C34.2453 43.988 33.9893 44.412 33.4773 44.724C33.0293 44.996 32.4813 45.132 31.8333 45.132C31.0013 45.132 30.3733 45.004 29.9493 44.748C29.9973 44.604 30.0453 44.46 30.0933 44.316C30.1413 44.164 30.1773 44.016 30.2013 43.872H30.2973C30.4413 44.136 30.6373 44.352 30.8853 44.52C31.1413 44.68 31.4573 44.76 31.8333 44.76C32.2253 44.76 32.5453 44.644 32.7933 44.412C33.0413 44.18 33.1653 43.876 33.1653 43.5C33.1653 43.108 33.0413 42.8 32.7933 42.576C32.5533 42.344 32.2253 42.228 31.8093 42.228L30.9813 42.252V41.736L31.8093 41.76C32.1213 41.76 32.3693 41.66 32.5533 41.46C32.7373 41.26 32.8293 41.004 32.8293 40.692C32.8293 40.38 32.7293 40.12 32.5293 39.912C32.3293 39.704 32.0693 39.6 31.7493 39.6C31.4133 39.6 31.1373 39.68 30.9213 39.84C30.7373 39.976 30.6013 40.16 30.5133 40.392H30.4053C30.3333 40.096 30.2373 39.812 30.1173 39.54C30.2533 39.452 30.4373 39.384 30.6693 39.336C30.9893 39.264 31.3853 39.228 31.8573 39.228C32.4253 39.228 32.8933 39.344 33.2613 39.576C33.6773 39.84 33.8853 40.212 33.8853 40.692ZM36.6613 42.216V44.532H37.9093C38.3013 44.532 38.6213 44.436 38.8693 44.244C39.1253 44.044 39.2533 43.772 39.2533 43.428C39.2533 42.996 39.1413 42.688 38.9173 42.504C38.6933 42.312 38.3573 42.216 37.9093 42.216H36.6613ZM36.6613 39.804V41.772H37.7893C38.1573 41.772 38.4413 41.688 38.6413 41.52C38.8413 41.352 38.9413 41.096 38.9413 40.752C38.9413 40.424 38.8413 40.184 38.6413 40.032C38.4413 39.88 38.1733 39.804 37.8373 39.804H36.6613ZM35.7013 45V39.336H38.0053C38.6213 39.336 39.0933 39.436 39.4213 39.636C39.8053 39.868 39.9973 40.232 39.9973 40.728C39.9973 41.056 39.8813 41.328 39.6493 41.544C39.4173 41.76 39.1093 41.892 38.7253 41.94C39.2453 42.028 39.6213 42.156 39.8533 42.324C40.1813 42.564 40.3453 42.932 40.3453 43.428C40.3453 43.932 40.1333 44.328 39.7093 44.616C39.3253 44.88 38.8453 45.012 38.2693 45.012L35.7013 45ZM41.1973 42.12C41.1973 41.272 41.4853 40.58 42.0613 40.044C42.6453 39.5 43.3733 39.228 44.2453 39.228C45.0693 39.228 45.7373 39.496 46.2493 40.032C46.7693 40.56 47.0293 41.268 47.0293 42.156C47.0293 42.972 46.7773 43.66 46.2733 44.22C45.7213 44.828 44.9733 45.132 44.0293 45.132C43.2053 45.132 42.5253 44.86 41.9893 44.316C41.4613 43.764 41.1973 43.032 41.1973 42.12ZM44.2333 39.6C43.5293 39.6 43.0093 39.888 42.6733 40.464C42.3933 40.936 42.2533 41.548 42.2533 42.3C42.2533 42.98 42.3933 43.54 42.6733 43.98C43.0013 44.5 43.4853 44.76 44.1253 44.76C44.7573 44.76 45.2413 44.436 45.5773 43.788C45.8413 43.284 45.9733 42.72 45.9733 42.096C45.9733 41.44 45.8533 40.892 45.6133 40.452C45.3013 39.884 44.8413 39.6 44.2333 39.6ZM50.7813 41.772C51.1013 41.772 51.3893 41.768 51.6453 41.76C51.9013 41.744 52.0973 41.728 52.2333 41.712V39.3L52.7133 39.336L53.1933 39.3V45.036L52.7133 45L52.2333 45.036V42.252L50.7813 42.216L49.3293 42.252V45.036L48.8493 45L48.3693 45.036V39.3L48.8493 39.336L49.3293 39.3V41.712C49.5453 41.728 49.8093 41.744 50.1213 41.76C50.4413 41.768 50.6613 41.772 50.7813 41.772ZM55.9973 43.476C56.5173 42.916 57.0853 42.256 57.7013 41.496C58.3173 40.736 58.8773 40.004 59.3813 39.3H59.8613V45.036L59.3813 45L58.9013 45.036V40.86C58.3653 41.46 57.9733 41.908 57.7253 42.204C57.3573 42.636 56.9693 43.112 56.5613 43.632C56.1533 44.144 55.8053 44.612 55.5173 45.036H55.0373V39.3C55.0773 39.308 55.1653 39.316 55.3013 39.324C55.4373 39.332 55.5093 39.336 55.5173 39.336C55.5893 39.336 55.6653 39.336 55.7453 39.336C55.8573 39.32 55.9413 39.308 55.9973 39.3V43.476ZM61.1893 45.036C61.3093 44.524 61.4493 43.676 61.6093 42.492C61.6573 42.108 61.7893 41.048 62.0053 39.312H62.3293C62.7453 40.136 63.1813 40.956 63.6373 41.772C64.0933 42.588 64.4933 43.256 64.8373 43.776C65.5413 42.56 66.3373 41.072 67.2253 39.312H67.5493C67.6453 40.152 67.7293 40.872 67.8013 41.472C67.8733 42.064 67.9493 42.708 68.0293 43.404C68.1173 44.092 68.1853 44.636 68.2333 45.036L67.7053 45L67.1773 45.036C67.1773 44.268 67.1293 43.448 67.0333 42.576C67.0093 42.344 66.9493 41.86 66.8533 41.124C66.1173 42.316 65.3973 43.62 64.6933 45.036H64.4173C64.0413 44.308 63.6893 43.644 63.3613 43.044C62.9773 42.364 62.6013 41.724 62.2333 41.124C62.1373 41.812 62.0453 42.512 61.9573 43.224C61.8693 43.928 61.8253 44.532 61.8253 45.036C61.7213 45.02 61.6213 45.008 61.5253 45L61.1893 45.036ZM74.2092 39.72L73.9332 40.512H73.8372C73.7892 40.448 73.7372 40.38 73.6812 40.308C73.6252 40.228 73.5692 40.164 73.5132 40.116C73.3772 39.964 73.2012 39.848 72.9852 39.768C72.7692 39.68 72.5492 39.636 72.3252 39.636C71.6692 39.636 71.1532 39.888 70.7772 40.392C70.4332 40.856 70.2612 41.424 70.2612 42.096C70.2612 42.864 70.4612 43.496 70.8612 43.992C71.2692 44.48 71.7972 44.724 72.4452 44.724C72.7732 44.724 73.0732 44.652 73.3452 44.508C73.5532 44.396 73.8052 44.208 74.1012 43.944L74.1732 43.98L74.1132 44.532C73.5692 44.932 72.9572 45.132 72.2772 45.132C71.3012 45.132 70.5372 44.848 69.9852 44.28C69.4652 43.744 69.2052 43.036 69.2052 42.156C69.2052 41.244 69.4932 40.528 70.0692 40.008C70.6452 39.488 71.3932 39.228 72.3132 39.228C72.6812 39.228 73.0172 39.268 73.3212 39.348C73.6252 39.42 73.9212 39.544 74.2092 39.72ZM79.6385 39.336V45.036L79.1705 45L78.6785 45.036V42.648H77.8025L76.1105 45.036L75.5585 45L75.0065 45.036L76.8065 42.6C76.3825 42.528 76.0385 42.396 75.7745 42.204C75.3345 41.884 75.1145 41.424 75.1145 40.824C75.1145 40.392 75.2705 40.036 75.5825 39.756C75.8945 39.476 76.2705 39.336 76.7105 39.336H79.6385ZM78.6785 42.168V39.816L77.2745 39.804C76.9465 39.804 76.6665 39.912 76.4345 40.128C76.2105 40.336 76.0985 40.624 76.0985 40.992C76.0985 41.472 76.3345 41.804 76.8065 41.988C77.1185 42.108 77.5625 42.168 78.1385 42.168H78.6785ZM87.2383 41.772C87.5583 41.772 87.8463 41.768 88.1023 41.76C88.3583 41.744 88.5543 41.728 88.6903 41.712V39.3L89.1703 39.336L89.6503 39.3V45.036L89.1703 45L88.6903 45.036V42.252L87.2383 42.216L85.7863 42.252V45.036L85.3063 45L84.8263 45.036V39.3L85.3063 39.336L85.7863 39.3V41.712C86.0023 41.728 86.2663 41.744 86.5783 41.76C86.8983 41.768 87.1183 41.772 87.2383 41.772ZM95.5263 41.244V44.028C95.5263 44.148 95.5263 44.264 95.5263 44.376C95.5503 44.544 95.6583 44.628 95.8503 44.628C95.9543 44.628 96.0703 44.612 96.1983 44.58V44.844C96.1583 44.86 96.0983 44.884 96.0183 44.916C95.9463 44.94 95.8623 44.96 95.7663 44.976C95.6783 44.992 95.5703 45 95.4423 45C95.2103 45 95.0183 44.944 94.8663 44.832C94.7223 44.72 94.6343 44.532 94.6023 44.268L94.4943 44.376C93.9903 44.88 93.3983 45.132 92.7183 45.132C92.2703 45.132 91.8903 45 91.5783 44.736C91.2663 44.464 91.1103 44.108 91.1103 43.668C91.1103 43.196 91.2503 42.828 91.5303 42.564C91.8103 42.292 92.4143 42.084 93.3423 41.94C93.8623 41.852 94.1903 41.772 94.3263 41.7C94.5183 41.596 94.6143 41.408 94.6143 41.136C94.6143 40.688 94.4903 40.344 94.2423 40.104C94.0023 39.856 93.6583 39.732 93.2103 39.732C92.8263 39.732 92.4903 39.836 92.2023 40.044C91.9783 40.204 91.8383 40.376 91.7823 40.56H91.6503V39.888C91.9623 39.672 92.2743 39.508 92.5863 39.396C92.9063 39.284 93.2383 39.228 93.5823 39.228C94.8783 39.228 95.5263 39.9 95.5263 41.244ZM94.5663 43.8V42.048L94.1463 42.144C93.4503 42.28 93.0103 42.388 92.8263 42.468C92.3463 42.684 92.1063 43.028 92.1063 43.5C92.1063 43.868 92.2063 44.148 92.4063 44.34C92.6143 44.524 92.9063 44.616 93.2823 44.616C93.4343 44.616 93.6023 44.572 93.7863 44.484C93.9703 44.388 94.1223 44.28 94.2423 44.16C94.3303 44.08 94.3943 44.02 94.4343 43.98C94.5223 43.892 94.5663 43.832 94.5663 43.8ZM101.398 40.956V37.008L101.47 36.972H105.322L105.37 37.068C105.346 37.18 105.326 37.292 105.31 37.404C105.294 37.508 105.286 37.616 105.286 37.728C105.286 37.824 105.29 37.896 105.298 37.944C105.034 37.888 104.77 37.844 104.506 37.812C104.242 37.772 103.966 37.752 103.678 37.752H101.902V40.428C102.094 40.332 102.302 40.26 102.526 40.212C102.75 40.164 102.97 40.14 103.186 40.14C103.85 40.14 104.406 40.352 104.854 40.776C105.302 41.2 105.526 41.748 105.526 42.42C105.526 43.148 105.262 43.772 104.734 44.292C104.166 44.852 103.434 45.132 102.538 45.132C102.05 45.132 101.626 45.076 101.266 44.964C101.042 44.892 100.826 44.792 100.618 44.664L100.798 43.872L100.882 43.86C101.058 44.148 101.302 44.368 101.614 44.52C101.926 44.664 102.262 44.736 102.622 44.736C103.182 44.736 103.626 44.512 103.954 44.064C104.258 43.648 104.41 43.132 104.41 42.516C104.41 41.932 104.282 41.484 104.026 41.172C103.738 40.82 103.294 40.644 102.694 40.644C102.422 40.644 102.17 40.692 101.938 40.788C101.778 40.852 101.634 40.936 101.506 41.04L101.398 40.956ZM110.326 45.036C110.446 44.524 110.586 43.676 110.746 42.492C110.794 42.108 110.926 41.048 111.142 39.312H111.466C111.882 40.136 112.318 40.956 112.774 41.772C113.23 42.588 113.63 43.256 113.974 43.776C114.678 42.56 115.474 41.072 116.362 39.312H116.686C116.782 40.152 116.866 40.872 116.938 41.472C117.01 42.064 117.086 42.708 117.166 43.404C117.254 44.092 117.322 44.636 117.37 45.036L116.842 45L116.314 45.036C116.314 44.268 116.266 43.448 116.17 42.576C116.146 42.344 116.086 41.86 115.99 41.124C115.254 42.316 114.534 43.62 113.83 45.036H113.554C113.178 44.308 112.826 43.644 112.498 43.044C112.114 42.364 111.738 41.724 111.37 41.124C111.274 41.812 111.182 42.512 111.094 43.224C111.006 43.928 110.962 44.532 110.962 45.036C110.858 45.02 110.758 45.008 110.662 45L110.326 45.036ZM119.806 43.476C120.326 42.916 120.894 42.256 121.51 41.496C122.126 40.736 122.686 40.004 123.19 39.3H123.67V45.036L123.19 45L122.71 45.036V40.86C122.174 41.46 121.782 41.908 121.534 42.204C121.166 42.636 120.778 43.112 120.37 43.632C119.962 44.144 119.614 44.612 119.326 45.036H118.846V39.3C118.886 39.308 118.974 39.316 119.11 39.324C119.246 39.332 119.318 39.336 119.326 39.336C119.398 39.336 119.474 39.336 119.554 39.336C119.666 39.32 119.75 39.308 119.806 39.3V43.476ZM127.926 41.772C128.246 41.772 128.534 41.768 128.79 41.76C129.046 41.744 129.242 41.728 129.378 41.712V39.3L129.858 39.336L130.338 39.3V45.036L129.858 45L129.378 45.036V42.252L127.926 42.216L126.474 42.252V45.036L125.994 45L125.514 45.036V39.3L125.994 39.336L126.474 39.3V41.712C126.69 41.728 126.954 41.744 127.266 41.76C127.586 41.768 127.806 41.772 127.926 41.772ZM132.206 44.412C132.206 44.22 132.278 44.052 132.422 43.908C132.566 43.764 132.738 43.692 132.938 43.692C133.122 43.692 133.286 43.764 133.43 43.908C133.574 44.052 133.646 44.22 133.646 44.412C133.646 44.604 133.578 44.772 133.442 44.916C133.306 45.06 133.138 45.132 132.938 45.132C132.738 45.132 132.566 45.064 132.422 44.928C132.278 44.792 132.206 44.62 132.206 44.412ZM135.546 44.412C135.546 44.22 135.618 44.052 135.762 43.908C135.906 43.764 136.078 43.692 136.278 43.692C136.462 43.692 136.626 43.764 136.77 43.908C136.914 44.052 136.986 44.22 136.986 44.412C136.986 44.604 136.918 44.772 136.782 44.916C136.646 45.06 136.478 45.132 136.278 45.132C136.078 45.132 135.906 45.064 135.762 44.928C135.618 44.792 135.546 44.62 135.546 44.412ZM138.886 44.412C138.886 44.22 138.958 44.052 139.102 43.908C139.246 43.764 139.418 43.692 139.618 43.692C139.802 43.692 139.966 43.764 140.11 43.908C140.254 44.052 140.326 44.22 140.326 44.412C140.326 44.604 140.258 44.772 140.122 44.916C139.986 45.06 139.818 45.132 139.618 45.132C139.418 45.132 139.246 45.064 139.102 44.928C138.958 44.792 138.886 44.62 138.886 44.412Z" fill="black"/>
<path d="M19.289 11.569V16.021L18.981 16L18.673 16.021V11.569C18.309 11.569 18.05 11.5737 17.896 11.583C17.742 11.5923 17.49 11.6157 17.14 11.653L17.161 11.443L17.14 11.233H20.752L20.731 11.443L20.752 11.653C20.5793 11.6343 20.36 11.6157 20.094 11.597C19.8327 11.5783 19.5643 11.569 19.289 11.569ZM23.7806 13.809V15.433C23.7806 15.503 23.7806 15.5707 23.7806 15.636C23.7946 15.734 23.8576 15.783 23.9696 15.783C24.0303 15.783 24.098 15.7737 24.1726 15.755V15.909C24.1493 15.9183 24.1143 15.9323 24.0676 15.951C24.0256 15.965 23.9766 15.9767 23.9206 15.986C23.8693 15.9953 23.8063 16 23.7316 16C23.5963 16 23.4843 15.9673 23.3956 15.902C23.3116 15.8367 23.2603 15.727 23.2416 15.573L23.1786 15.636C22.8846 15.93 22.5393 16.077 22.1426 16.077C21.8813 16.077 21.6596 16 21.4776 15.846C21.2956 15.6873 21.2046 15.4797 21.2046 15.223C21.2046 14.9477 21.2863 14.733 21.4496 14.579C21.613 14.4203 21.9653 14.299 22.5066 14.215C22.81 14.1637 23.0013 14.117 23.0806 14.075C23.1926 14.0143 23.2486 13.9047 23.2486 13.746C23.2486 13.4847 23.1763 13.284 23.0316 13.144C22.8916 12.9993 22.691 12.927 22.4296 12.927C22.2056 12.927 22.0096 12.9877 21.8416 13.109C21.711 13.2023 21.6293 13.3027 21.5966 13.41H21.5196V13.018C21.7016 12.892 21.8836 12.7963 22.0656 12.731C22.2523 12.6657 22.446 12.633 22.6466 12.633C23.4026 12.633 23.7806 13.025 23.7806 13.809ZM23.2206 15.3V14.278L22.9756 14.334C22.5696 14.4133 22.313 14.4763 22.2056 14.523C21.9256 14.649 21.7856 14.8497 21.7856 15.125C21.7856 15.3397 21.844 15.503 21.9606 15.615C22.082 15.7223 22.2523 15.776 22.4716 15.776C22.5603 15.776 22.6583 15.7503 22.7656 15.699C22.873 15.643 22.9616 15.58 23.0316 15.51C23.083 15.4633 23.1203 15.4283 23.1436 15.405C23.195 15.3537 23.2206 15.3187 23.2206 15.3ZM27.5536 12.92L27.3926 13.382H27.3366C27.3086 13.3447 27.2783 13.305 27.2456 13.263C27.213 13.2163 27.1803 13.179 27.1476 13.151C27.0683 13.0623 26.9656 12.9947 26.8396 12.948C26.7136 12.8967 26.5853 12.871 26.4546 12.871C26.072 12.871 25.771 13.018 25.5516 13.312C25.351 13.5827 25.2506 13.914 25.2506 14.306C25.2506 14.754 25.3673 15.1227 25.6006 15.412C25.8386 15.6967 26.1466 15.839 26.5246 15.839C26.716 15.839 26.891 15.797 27.0496 15.713C27.171 15.6477 27.318 15.538 27.4906 15.384L27.5326 15.405L27.4976 15.727C27.1803 15.9603 26.8233 16.077 26.4266 16.077C25.8573 16.077 25.4116 15.9113 25.0896 15.58C24.7863 15.2673 24.6346 14.8543 24.6346 14.341C24.6346 13.809 24.8026 13.3913 25.1386 13.088C25.4746 12.7847 25.911 12.633 26.4476 12.633C26.6623 12.633 26.8583 12.6563 27.0356 12.703C27.213 12.745 27.3856 12.8173 27.5536 12.92ZM28.8728 12.675V13.9C28.8681 13.9653 28.8658 14.012 28.8658 14.04C28.8658 14.0867 28.8798 14.117 28.9078 14.131C28.9591 14.159 29.0361 14.1357 29.1388 14.061C29.2134 14.0097 29.3394 13.8953 29.5168 13.718L29.9508 13.277L30.4968 12.675L30.7768 12.696L31.0498 12.675V12.724C30.7278 12.9947 30.4478 13.235 30.2098 13.445C29.9251 13.6923 29.6918 13.9023 29.5098 14.075L31.1548 15.986V16.021L30.8118 16L30.4618 16.021C30.3404 15.8623 30.1911 15.678 30.0138 15.468C29.8784 15.3093 29.5821 14.9687 29.1248 14.446C29.0594 14.3713 29.0058 14.334 28.9638 14.334C28.9031 14.334 28.8728 14.4203 28.8728 14.593V16.021L28.5928 16L28.3128 16.021V12.675L28.5928 12.696L28.8728 12.675ZM33.446 16.021C33.516 15.7223 33.5977 15.2277 33.691 14.537C33.719 14.313 33.796 13.6947 33.922 12.682H34.111C34.3537 13.1627 34.608 13.641 34.874 14.117C35.14 14.593 35.3733 14.9827 35.574 15.286C35.9847 14.5767 36.449 13.7087 36.967 12.682H37.156C37.212 13.172 37.261 13.592 37.303 13.942C37.345 14.2873 37.3893 14.663 37.436 15.069C37.4873 15.4703 37.527 15.7877 37.555 16.021L37.247 16L36.939 16.021C36.939 15.573 36.911 15.0947 36.855 14.586C36.841 14.4507 36.806 14.1683 36.75 13.739C36.3207 14.4343 35.9007 15.195 35.49 16.021H35.329C35.1097 15.5963 34.9043 15.209 34.713 14.859C34.489 14.4623 34.2697 14.089 34.055 13.739C33.999 14.1403 33.9453 14.5487 33.894 14.964C33.8427 15.3747 33.817 15.727 33.817 16.021C33.7563 16.0117 33.698 16.0047 33.642 16L33.446 16.021ZM40.985 15.3L40.978 15.664C40.796 15.7947 40.6046 15.8973 40.404 15.972C40.2033 16.042 39.9933 16.077 39.774 16.077C39.2793 16.077 38.8803 15.923 38.577 15.615C38.2736 15.307 38.122 14.887 38.122 14.355C38.122 13.8463 38.2573 13.438 38.528 13.13C38.8173 12.7987 39.2163 12.633 39.725 12.633C40.1403 12.633 40.474 12.7707 40.726 13.046C41.006 13.3493 41.146 13.7833 41.146 14.348L39.725 14.327H38.738C38.738 14.747 38.8336 15.0877 39.025 15.349C39.2396 15.6383 39.5476 15.783 39.949 15.783C40.1636 15.783 40.3713 15.727 40.572 15.615C40.7073 15.5403 40.845 15.4353 40.985 15.3ZM38.738 14.068H40.6C40.6 13.7087 40.5416 13.4287 40.425 13.228C40.2803 12.976 40.047 12.85 39.725 12.85C39.4123 12.85 39.165 12.9783 38.983 13.235C38.8196 13.4637 38.738 13.7413 38.738 14.068ZM43.323 14.117C43.5096 14.117 43.6776 14.1147 43.827 14.11C43.9763 14.1007 44.0906 14.0913 44.17 14.082V12.675L44.45 12.696L44.73 12.675V16.021L44.45 16L44.17 16.021V14.397L43.323 14.376L42.476 14.397V16.021L42.196 16L41.916 16.021V12.675L42.196 12.696L42.476 12.675V14.082C42.602 14.0913 42.756 14.1007 42.938 14.11C43.1246 14.1147 43.253 14.117 43.323 14.117ZM48.3746 15.3L48.3676 15.664C48.1856 15.7947 47.9943 15.8973 47.7936 15.972C47.5929 16.042 47.3829 16.077 47.1636 16.077C46.6689 16.077 46.2699 15.923 45.9666 15.615C45.6633 15.307 45.5116 14.887 45.5116 14.355C45.5116 13.8463 45.6469 13.438 45.9176 13.13C46.2069 12.7987 46.6059 12.633 47.1146 12.633C47.5299 12.633 47.8636 12.7707 48.1156 13.046C48.3956 13.3493 48.5356 13.7833 48.5356 14.348L47.1146 14.327H46.1276C46.1276 14.747 46.2233 15.0877 46.4146 15.349C46.6293 15.6383 46.9373 15.783 47.3386 15.783C47.5533 15.783 47.7609 15.727 47.9616 15.615C48.0969 15.5403 48.2346 15.4353 48.3746 15.3ZM46.1276 14.068H47.9896C47.9896 13.7087 47.9313 13.4287 47.8146 13.228C47.6699 12.976 47.4366 12.85 47.1146 12.85C46.8019 12.85 46.5546 12.9783 46.3726 13.235C46.2093 13.4637 46.1276 13.7413 46.1276 14.068ZM48.7876 15.685H49.0746C49.3033 15.195 49.5249 14.7003 49.7396 14.201C50.0056 13.5803 50.2063 13.074 50.3416 12.682L50.5516 12.703L50.7686 12.682C50.8853 12.9947 51.0626 13.4497 51.3006 14.047C51.5433 14.6397 51.7719 15.1857 51.9866 15.685H52.2456L52.2316 15.944C52.2316 15.986 52.2316 16.0303 52.2316 16.077C52.2316 16.1237 52.2363 16.1657 52.2456 16.203H52.1966C52.0799 16.1143 51.9376 16.0583 51.7696 16.035C51.6063 16.0117 51.3636 16 51.0416 16H49.9916C49.6509 16 49.4036 16.0093 49.2496 16.028C49.1003 16.0467 48.9649 16.105 48.8436 16.203H48.7876C48.7969 16.1797 48.8016 16.1377 48.8016 16.077C48.8016 16.021 48.8039 15.9767 48.8086 15.944L48.7876 15.685ZM49.4876 15.685H51.4126C51.3193 15.3957 51.1839 15.0363 51.0066 14.607C50.8339 14.173 50.6566 13.7483 50.4746 13.333H50.4256C50.4209 13.333 50.3673 13.459 50.2646 13.711C50.0779 14.1637 49.9543 14.4647 49.8936 14.614C49.7489 14.9733 49.6136 15.3303 49.4876 15.685ZM54.5136 12.675L54.7936 12.696L55.0736 12.675V13.9C55.0736 13.9467 55.0736 13.9933 55.0736 14.04C55.0783 14.0867 55.0899 14.117 55.1086 14.131C55.1319 14.145 55.2276 14.068 55.3956 13.9C55.4983 13.7973 55.5589 13.7367 55.5776 13.718L56.0116 13.277L56.5576 12.675L56.8376 12.696L57.1106 12.675V12.724C56.7886 12.9947 56.5086 13.235 56.2706 13.445C55.9859 13.6923 55.7526 13.9023 55.5706 14.075L57.2156 15.986V16.021L56.8726 16L56.5226 16.021C56.4013 15.8623 56.2519 15.678 56.0746 15.468C55.9393 15.3093 55.6429 14.9687 55.1856 14.446C55.1203 14.3713 55.0853 14.334 55.0806 14.334C55.0759 14.334 55.0736 14.4203 55.0736 14.593V16.021L54.7936 16L54.5136 16.021V14.593C54.5183 14.467 54.5206 14.3923 54.5206 14.369C54.5206 14.3503 54.5159 14.341 54.5066 14.341C54.4973 14.341 54.4623 14.376 54.4016 14.446C53.9489 14.964 53.6549 15.3023 53.5196 15.461C53.3236 15.6943 53.1719 15.881 53.0646 16.021L52.7146 16L52.3716 16.021V15.986L54.0166 14.075C53.7319 13.8043 53.4309 13.5337 53.1136 13.263C52.8989 13.0857 52.6866 12.906 52.4766 12.724V12.675L52.7496 12.696L53.0296 12.675L53.5756 13.277L54.0096 13.718C54.0936 13.802 54.1776 13.886 54.2616 13.97C54.3876 14.0913 54.4599 14.145 54.4786 14.131C54.4973 14.117 54.5066 14.082 54.5066 14.026C54.5113 13.97 54.5136 13.928 54.5136 13.9V12.675ZM60.4264 15.3L60.4194 15.664C60.2374 15.7947 60.046 15.8973 59.8454 15.972C59.6447 16.042 59.4347 16.077 59.2154 16.077C58.7207 16.077 58.3217 15.923 58.0184 15.615C57.715 15.307 57.5634 14.887 57.5634 14.355C57.5634 13.8463 57.6987 13.438 57.9694 13.13C58.2587 12.7987 58.6577 12.633 59.1664 12.633C59.5817 12.633 59.9154 12.7707 60.1674 13.046C60.4474 13.3493 60.5874 13.7833 60.5874 14.348L59.1664 14.327H58.1794C58.1794 14.747 58.275 15.0877 58.4664 15.349C58.681 15.6383 58.989 15.783 59.3904 15.783C59.605 15.783 59.8127 15.727 60.0134 15.615C60.1487 15.5403 60.2864 15.4353 60.4264 15.3ZM58.1794 14.068H60.0414C60.0414 13.7087 59.983 13.4287 59.8664 13.228C59.7217 12.976 59.4884 12.85 59.1664 12.85C58.8537 12.85 58.6064 12.9783 58.4244 13.235C58.261 13.4637 58.1794 13.7413 58.1794 14.068ZM61.8404 17.813L61.5604 17.792L61.2804 17.813V12.675L61.5604 12.696L61.8404 12.675V13.34C61.957 13.1347 62.069 12.9853 62.1764 12.892C62.391 12.71 62.678 12.619 63.0374 12.619C63.4714 12.619 63.819 12.7823 64.0804 13.109C64.323 13.4123 64.4444 13.788 64.4444 14.236C64.4444 14.8007 64.3044 15.2487 64.0244 15.58C63.749 15.9113 63.385 16.077 62.9324 16.077C62.685 16.077 62.4727 16.021 62.2954 15.909C62.1227 15.797 61.9757 15.629 61.8544 15.405L61.8404 17.813ZM61.8404 14.439C61.8404 14.8357 61.922 15.153 62.0854 15.391C62.2674 15.6523 62.5287 15.783 62.8694 15.783C63.196 15.783 63.4434 15.6313 63.6114 15.328C63.756 15.062 63.8284 14.7073 63.8284 14.264C63.8284 13.872 63.7607 13.5617 63.6254 13.333C63.462 13.053 63.2077 12.913 62.8624 12.913C62.503 12.913 62.2324 13.0857 62.0504 13.431C61.9104 13.7017 61.8404 14.0377 61.8404 14.439Z" fill="#616161"/>
<path d="M148.261 12.92L148.1 13.382H148.044C148.016 13.3447 147.985 13.305 147.953 13.263C147.92 13.2163 147.887 13.179 147.855 13.151C147.775 13.0623 147.673 12.9947 147.547 12.948C147.421 12.8967 147.292 12.871 147.162 12.871C146.779 12.871 146.478 13.018 146.259 13.312C146.058 13.5827 145.958 13.914 145.958 14.306C145.958 14.754 146.074 15.1227 146.308 15.412C146.546 15.6967 146.854 15.839 147.232 15.839C147.423 15.839 147.598 15.797 147.757 15.713C147.878 15.6477 148.025 15.538 148.198 15.384L148.24 15.405L148.205 15.727C147.887 15.9603 147.53 16.077 147.134 16.077C146.564 16.077 146.119 15.9113 145.797 15.58C145.493 15.2673 145.342 14.8543 145.342 14.341C145.342 13.809 145.51 13.3913 145.846 13.088C146.182 12.7847 146.618 12.633 147.155 12.633C147.369 12.633 147.565 12.6563 147.743 12.703C147.92 12.745 148.093 12.8173 148.261 12.92ZM151.575 15.3L151.568 15.664C151.386 15.7947 151.194 15.8973 150.994 15.972C150.793 16.042 150.583 16.077 150.364 16.077C149.869 16.077 149.47 15.923 149.167 15.615C148.863 15.307 148.712 14.887 148.712 14.355C148.712 13.8463 148.847 13.438 149.118 13.13C149.407 12.7987 149.806 12.633 150.315 12.633C150.73 12.633 151.064 12.7707 151.316 13.046C151.596 13.3493 151.736 13.7833 151.736 14.348L150.315 14.327H149.328C149.328 14.747 149.423 15.0877 149.615 15.349C149.829 15.6383 150.137 15.783 150.539 15.783C150.753 15.783 150.961 15.727 151.162 15.615C151.297 15.5403 151.435 15.4353 151.575 15.3ZM149.328 14.068H151.19C151.19 13.7087 151.131 13.4287 151.015 13.228C150.87 12.976 150.637 12.85 150.315 12.85C150.002 12.85 149.755 12.9783 149.573 13.235C149.409 13.4637 149.328 13.7413 149.328 14.068ZM153.066 12.997V16.021L152.786 16L152.506 16.021V12.696H154.732L154.718 12.885L154.732 13.074C154.596 13.0507 154.398 13.032 154.137 13.018C153.88 13.004 153.523 12.997 153.066 12.997ZM155.062 14.32C155.062 13.8253 155.23 13.4217 155.566 13.109C155.907 12.7917 156.332 12.633 156.84 12.633C157.321 12.633 157.711 12.7893 158.009 13.102C158.313 13.41 158.464 13.823 158.464 14.341C158.464 14.817 158.317 15.2183 158.023 15.545C157.701 15.8997 157.265 16.077 156.714 16.077C156.234 16.077 155.837 15.9183 155.524 15.601C155.216 15.279 155.062 14.852 155.062 14.32ZM156.833 12.85C156.423 12.85 156.119 13.018 155.923 13.354C155.76 13.6293 155.678 13.9863 155.678 14.425C155.678 14.8217 155.76 15.1483 155.923 15.405C156.115 15.7083 156.397 15.86 156.77 15.86C157.139 15.86 157.421 15.671 157.617 15.293C157.771 14.999 157.848 14.67 157.848 14.306C157.848 13.9233 157.778 13.6037 157.638 13.347C157.456 13.0157 157.188 12.85 156.833 12.85ZM158.728 15.685H159.015C159.244 15.195 159.465 14.7003 159.68 14.201C159.946 13.5803 160.147 13.074 160.282 12.682L160.492 12.703L160.709 12.682C160.826 12.9947 161.003 13.4497 161.241 14.047C161.484 14.6397 161.712 15.1857 161.927 15.685H162.186L162.172 15.944C162.172 15.986 162.172 16.0303 162.172 16.077C162.172 16.1237 162.177 16.1657 162.186 16.203H162.137C162.02 16.1143 161.878 16.0583 161.71 16.035C161.547 16.0117 161.304 16 160.982 16H159.932C159.591 16 159.344 16.0093 159.19 16.028C159.041 16.0467 158.905 16.105 158.784 16.203H158.728C158.737 16.1797 158.742 16.1377 158.742 16.077C158.742 16.021 158.744 15.9767 158.749 15.944L158.728 15.685ZM159.428 15.685H161.353C161.26 15.3957 161.124 15.0363 160.947 14.607C160.774 14.173 160.597 13.7483 160.415 13.333H160.366C160.361 13.333 160.308 13.459 160.205 13.711C160.018 14.1637 159.895 14.4647 159.834 14.614C159.689 14.9733 159.554 15.3303 159.428 15.685ZM164.153 14.117C164.34 14.117 164.508 14.1147 164.657 14.11C164.806 14.1007 164.921 14.0913 165 14.082V12.675L165.28 12.696L165.56 12.675V16.021L165.28 16L165 16.021V14.397L164.153 14.376L163.306 14.397V16.021L163.026 16L162.746 16.021V12.675L163.026 12.696L163.306 12.675V14.082C163.432 14.0913 163.586 14.1007 163.768 14.11C163.955 14.1147 164.083 14.117 164.153 14.117ZM169.058 12.696V16.021L168.785 16L168.498 16.021V14.628H167.987L167 16.021L166.678 16L166.356 16.021L167.406 14.6C167.158 14.558 166.958 14.481 166.804 14.369C166.547 14.1823 166.419 13.914 166.419 13.564C166.419 13.312 166.51 13.1043 166.692 12.941C166.874 12.7777 167.093 12.696 167.35 12.696H169.058ZM168.498 14.348V12.976L167.679 12.969C167.487 12.969 167.324 13.032 167.189 13.158C167.058 13.2793 166.993 13.4473 166.993 13.662C166.993 13.942 167.13 14.1357 167.406 14.243C167.588 14.313 167.847 14.348 168.183 14.348H168.498ZM169.919 17.127L170.409 15.573C170.451 15.447 170.483 15.363 170.507 15.321C170.567 15.223 170.642 15.174 170.731 15.174C170.805 15.174 170.871 15.1997 170.927 15.251C170.987 15.2977 171.018 15.3583 171.018 15.433C171.018 15.4937 171.001 15.559 170.969 15.629C170.959 15.6477 170.924 15.706 170.864 15.804L170.038 17.176L169.919 17.127ZM175.187 16.021V11.793L175.138 11.772L174.361 12.192C174.314 12.08 174.244 11.9937 174.151 11.933C174.431 11.821 174.681 11.7113 174.9 11.604C175.171 11.4733 175.413 11.3427 175.628 11.212L175.747 11.247V16.021L175.467 16L175.187 16.021ZM178.244 12.325L177.999 11.982C178.279 11.5387 178.682 11.317 179.21 11.317C179.634 11.317 179.968 11.4127 180.211 11.604C180.477 11.814 180.61 12.1267 180.61 12.542C180.61 12.8127 180.54 13.0787 180.4 13.34C180.288 13.5453 180.117 13.7693 179.889 14.012L179.056 14.901L178.629 15.349L178.51 15.482L178.545 15.559C178.703 15.559 178.96 15.5497 179.315 15.531C180.113 15.489 180.572 15.468 180.694 15.468L180.673 15.734L180.694 16H177.691V15.895L178.265 15.321L178.685 14.887C178.988 14.5743 179.198 14.348 179.315 14.208C179.529 13.9513 179.686 13.7087 179.784 13.48C179.905 13.1953 179.966 12.8873 179.966 12.556C179.966 12.248 179.905 12.01 179.784 11.842C179.648 11.6553 179.436 11.562 179.147 11.562C178.927 11.562 178.741 11.632 178.587 11.772C178.433 11.9073 178.335 12.0847 178.293 12.304L178.244 12.325ZM181.825 15.657C181.825 15.545 181.867 15.447 181.951 15.363C182.035 15.279 182.136 15.237 182.252 15.237C182.36 15.237 182.455 15.279 182.539 15.363C182.623 15.447 182.665 15.545 182.665 15.657C182.665 15.769 182.626 15.867 182.546 15.951C182.467 16.035 182.369 16.077 182.252 16.077C182.136 16.077 182.035 16.0373 181.951 15.958C181.867 15.8787 181.825 15.7783 181.825 15.657ZM181.825 13.13C181.825 13.018 181.867 12.92 181.951 12.836C182.035 12.752 182.136 12.71 182.252 12.71C182.36 12.71 182.455 12.752 182.539 12.836C182.623 12.92 182.665 13.018 182.665 13.13C182.665 13.242 182.626 13.34 182.546 13.424C182.467 13.508 182.369 13.55 182.252 13.55C182.136 13.55 182.035 13.5103 181.951 13.431C181.867 13.3517 181.825 13.2513 181.825 13.13ZM185.538 14.698H183.368V14.607C183.531 14.3643 183.783 14.0003 184.124 13.515C184.385 13.137 184.639 12.773 184.887 12.423C185.139 12.073 185.395 11.716 185.657 11.352L185.881 11.373L186.098 11.352V14.299L186.742 14.271C186.737 14.3083 186.732 14.3503 186.728 14.397C186.728 14.439 186.728 14.4717 186.728 14.495C186.728 14.5323 186.728 14.5697 186.728 14.607C186.737 14.663 186.742 14.7027 186.742 14.726L186.098 14.698V16.021L185.818 16L185.538 16.021V14.698ZM185.552 14.299V12.052L185.517 12.024C185.251 12.374 184.922 12.836 184.53 13.41C184.334 13.6947 184.14 13.9793 183.949 14.264L183.977 14.299H185.552ZM187.978 13.641V11.338L188.02 11.317H190.267L190.295 11.373C190.281 11.4383 190.27 11.5037 190.26 11.569C190.251 11.6297 190.246 11.6927 190.246 11.758C190.246 11.814 190.249 11.856 190.253 11.884C190.099 11.8513 189.945 11.8257 189.791 11.807C189.637 11.7837 189.476 11.772 189.308 11.772H188.272V13.333C188.384 13.277 188.506 13.235 188.636 13.207C188.767 13.179 188.895 13.165 189.021 13.165C189.409 13.165 189.733 13.2887 189.994 13.536C190.256 13.7833 190.386 14.103 190.386 14.495C190.386 14.9197 190.232 15.2837 189.924 15.587C189.593 15.9137 189.166 16.077 188.643 16.077C188.359 16.077 188.111 16.0443 187.901 15.979C187.771 15.937 187.645 15.8787 187.523 15.804L187.628 15.342L187.677 15.335C187.78 15.503 187.922 15.6313 188.104 15.72C188.286 15.804 188.482 15.846 188.692 15.846C189.019 15.846 189.278 15.7153 189.469 15.454C189.647 15.2113 189.735 14.9103 189.735 14.551C189.735 14.2103 189.661 13.949 189.511 13.767C189.343 13.5617 189.084 13.459 188.734 13.459C188.576 13.459 188.429 13.487 188.293 13.543C188.2 13.5803 188.116 13.6293 188.041 13.69L187.978 13.641Z" fill="#616161"/>
</g>
<defs>
<filter id="filter0_d_3_112" x="0.5" y="0.5" width="208" height="65" filterUnits="userSpaceOnUse" color-interpolation-filters="sRGB">
<feFlood flood-opacity="0" result="BackgroundImageFix"/>
<feColorMatrix in="SourceAlpha" type="matrix" values="0 0 0 0 0 0 0 0 0 0 0 0 0 0 0 0 0 0 127 0" result="hardAlpha"/>
<feOffset dy="4"/>
<feGaussianBlur stdDeviation="3.5"/>
<feComposite in2="hardAlpha" operator="out"/>
<feColorMatrix type="matrix" values="0 0 0 0 0 0 0 0 0 0 0 0 0 0 0 0 0 0 0.1 0"/>
<feBlend mode="normal" in2="BackgroundImageFix" result="effect1_dropShadow_3_112"/>
<feBlend mode="normal" in="SourceGraphic" in2="effect1_dropShadow_3_112" result="shape"/>
</filter>
<filter id="filter1_b_3_112" x="-6.5" y="-10.5" width="222" height="79" filterUnits="userSpaceOnUse" color-interpolation-filters="sRGB">
<feFlood flood-opacity="0" result="BackgroundImageFix"/>
<feGaussianBlur in="BackgroundImageFix" stdDeviation="7"/>
<feComposite in2="SourceAlpha" operator="in" result="effect1_backgroundBlur_3_112"/>
<feBlend mode="normal" in="SourceGraphic" in2="effect1_backgroundBlur_3_112" result="shape"/>
</filter>
</defs>
</svg>
