<svg width="209" height="66" viewBox="0 0 209 66" fill="none" xmlns="http://www.w3.org/2000/svg">
<g filter="url(#filter0_d_3_117)">
<g filter="url(#filter1_b_3_117)">
<rect x="8" y="4" width="193" height="50" rx="10" fill="white" fill-opacity="0.4"/>
<rect x="8" y="4" width="193" height="50" rx="10" stroke="white"/>
</g>
<path d="M21.092 23.648L24.692 32.036L24.068 32L23.432 32.036C23.144 31.212 22.9 30.548 22.7 30.044C22.572 29.724 22.396 29.308 22.172 28.796H19.124C18.66 29.956 18.4 30.616 18.344 30.776C18.224 31.096 18.088 31.516 17.936 32.036L17.492 32L17.072 32.036L20.816 23.648H21.092ZM21.992 28.292L20.66 25.22L19.352 28.292H21.992ZM26.5333 35.108L26.0533 35.072L25.5732 35.108V26.3L26.0533 26.336L26.5333 26.3V27.44C26.7333 27.088 26.9253 26.832 27.1093 26.672C27.4773 26.36 27.9693 26.204 28.5853 26.204C29.3293 26.204 29.9253 26.484 30.3733 27.044C30.7893 27.564 30.9973 28.208 30.9973 28.976C30.9973 29.944 30.7573 30.712 30.2773 31.28C29.8053 31.848 29.1813 32.132 28.4053 32.132C27.9813 32.132 27.6173 32.036 27.3133 31.844C27.0173 31.652 26.7653 31.364 26.5573 30.98L26.5333 35.108ZM26.5333 29.324C26.5333 30.004 26.6733 30.548 26.9533 30.956C27.2653 31.404 27.7133 31.628 28.2973 31.628C28.8573 31.628 29.2813 31.368 29.5693 30.848C29.8173 30.392 29.9413 29.784 29.9413 29.024C29.9413 28.352 29.8253 27.82 29.5933 27.428C29.3133 26.948 28.8773 26.708 28.2853 26.708C27.6693 26.708 27.2053 27.004 26.8933 27.596C26.6533 28.06 26.5333 28.636 26.5333 29.324ZM34.5932 26.876V32.036L34.1132 32L33.6332 32.036V26.876C33.0732 26.876 32.6612 26.884 32.3972 26.9C32.1332 26.916 31.8572 26.944 31.5692 26.984L31.6052 26.66L31.5692 26.336H36.6572L36.6332 26.66L36.6572 26.984C36.3932 26.944 36.1252 26.916 35.8532 26.9C35.5812 26.884 35.1612 26.876 34.5932 26.876ZM42.1093 30.8L42.0973 31.424C41.7853 31.648 41.4573 31.824 41.1133 31.952C40.7693 32.072 40.4093 32.132 40.0333 32.132C39.1853 32.132 38.5013 31.868 37.9813 31.34C37.4613 30.812 37.2013 30.092 37.2013 29.18C37.2013 28.308 37.4333 27.608 37.8973 27.08C38.3933 26.512 39.0773 26.228 39.9492 26.228C40.6613 26.228 41.2333 26.464 41.6653 26.936C42.1453 27.456 42.3853 28.2 42.3853 29.168L39.9492 29.132H38.2573C38.2573 29.852 38.4213 30.436 38.7493 30.884C39.1173 31.38 39.6453 31.628 40.3333 31.628C40.7013 31.628 41.0573 31.532 41.4013 31.34C41.6333 31.212 41.8693 31.032 42.1093 30.8ZM38.2573 28.688H41.4493C41.4493 28.072 41.3493 27.592 41.1493 27.248C40.9013 26.816 40.5013 26.6 39.9492 26.6C39.4133 26.6 38.9893 26.82 38.6773 27.26C38.3973 27.652 38.2573 28.128 38.2573 28.688ZM43.1893 32.036C43.3093 31.524 43.4493 30.676 43.6093 29.492C43.6573 29.108 43.7893 28.048 44.0053 26.312H44.3293C44.7453 27.136 45.1813 27.956 45.6373 28.772C46.0933 29.588 46.4933 30.256 46.8373 30.776C47.5413 29.56 48.3373 28.072 49.2253 26.312H49.5493C49.6453 27.152 49.7293 27.872 49.8013 28.472C49.8733 29.064 49.9493 29.708 50.0293 30.404C50.1173 31.092 50.1853 31.636 50.2333 32.036L49.7053 32L49.1773 32.036C49.1773 31.268 49.1293 30.448 49.0333 29.576C49.0093 29.344 48.9493 28.86 48.8533 28.124C48.1173 29.316 47.3973 30.62 46.6933 32.036H46.4173C46.0413 31.308 45.6893 30.644 45.3613 30.044C44.9773 29.364 44.6013 28.724 44.2333 28.124C44.1373 28.812 44.0453 29.512 43.9573 30.224C43.8693 30.928 43.8253 31.532 43.8253 32.036C43.7213 32.02 43.6213 32.008 43.5253 32L43.1893 32.036ZM51.3372 33.932L52.1772 31.268C52.2492 31.052 52.3052 30.908 52.3452 30.836C52.4492 30.668 52.5772 30.584 52.7292 30.584C52.8572 30.584 52.9692 30.628 53.0652 30.716C53.1692 30.796 53.2212 30.9 53.2212 31.028C53.2212 31.132 53.1932 31.244 53.1372 31.364C53.1212 31.396 53.0612 31.496 52.9572 31.664L51.5412 34.016L51.3372 33.932ZM60.6088 26.876V32.036L60.1288 32L59.6488 32.036V26.876C59.0888 26.876 58.6768 26.884 58.4128 26.9C58.1488 26.916 57.8728 26.944 57.5848 26.984L57.6208 26.66L57.5848 26.336H62.6728L62.6488 26.66L62.6728 26.984C62.4088 26.944 62.1408 26.916 61.8688 26.9C61.5968 26.884 61.1768 26.876 60.6088 26.876ZM64.6809 29.168V31.496C64.7769 31.512 64.9089 31.52 65.0769 31.52C65.2449 31.52 65.4049 31.52 65.5569 31.52C65.9489 31.52 66.2849 31.42 66.5649 31.22C66.8769 30.996 67.0329 30.704 67.0329 30.344C67.0329 29.936 66.9049 29.64 66.6489 29.456C66.4009 29.264 66.0889 29.168 65.7129 29.168H64.6809ZM69.6489 26.3V32.036L69.1689 32L68.6889 32.036V26.3L69.1689 26.336L69.6489 26.3ZM63.7209 32V26.3L64.2129 26.336L64.6809 26.3V28.688H66.0969C66.6649 28.688 67.1249 28.82 67.4769 29.084C67.8689 29.38 68.0649 29.8 68.0649 30.344C68.0649 30.808 67.8449 31.2 67.4049 31.52C66.9729 31.84 66.5009 32 65.9889 32H63.7209ZM74.326 32.036C74.446 31.524 74.586 30.676 74.746 29.492C74.794 29.108 74.926 28.048 75.142 26.312H75.466C75.882 27.136 76.318 27.956 76.774 28.772C77.23 29.588 77.63 30.256 77.974 30.776C78.678 29.56 79.474 28.072 80.362 26.312H80.686C80.782 27.152 80.866 27.872 80.938 28.472C81.01 29.064 81.086 29.708 81.166 30.404C81.254 31.092 81.322 31.636 81.37 32.036L80.842 32L80.314 32.036C80.314 31.268 80.266 30.448 80.17 29.576C80.146 29.344 80.086 28.86 79.99 28.124C79.254 29.316 78.534 30.62 77.83 32.036H77.554C77.178 31.308 76.826 30.644 76.498 30.044C76.114 29.364 75.738 28.724 75.37 28.124C75.274 28.812 75.182 29.512 75.094 30.224C75.006 30.928 74.962 31.532 74.962 32.036C74.858 32.02 74.758 32.008 74.662 32L74.326 32.036ZM82.3419 29.12C82.3419 28.272 82.6299 27.58 83.2059 27.044C83.7899 26.5 84.5179 26.228 85.3899 26.228C86.2139 26.228 86.8819 26.496 87.3939 27.032C87.9139 27.56 88.1739 28.268 88.1739 29.156C88.1739 29.972 87.9219 30.66 87.4179 31.22C86.8659 31.828 86.1179 32.132 85.1739 32.132C84.3499 32.132 83.6699 31.86 83.1339 31.316C82.6059 30.764 82.3419 30.032 82.3419 29.12ZM85.3779 26.6C84.6739 26.6 84.1539 26.888 83.8179 27.464C83.5379 27.936 83.3979 28.548 83.3979 29.3C83.3979 29.98 83.5379 30.54 83.8179 30.98C84.1459 31.5 84.6299 31.76 85.2699 31.76C85.9019 31.76 86.3859 31.436 86.7219 30.788C86.9859 30.284 87.1179 29.72 87.1179 29.096C87.1179 28.44 86.9979 27.892 86.7579 27.452C86.4459 26.884 85.9859 26.6 85.3779 26.6ZM92.4418 26.3L92.9218 26.336L93.4018 26.3V28.4C93.4018 28.48 93.4018 28.56 93.4018 28.64C93.4098 28.72 93.4298 28.772 93.4618 28.796C93.5018 28.82 93.6658 28.688 93.9538 28.4C94.1298 28.224 94.2338 28.12 94.2658 28.088L95.0098 27.332L95.9458 26.3L96.4258 26.336L96.8938 26.3V26.384C96.3418 26.848 95.8618 27.26 95.4538 27.62C94.9658 28.044 94.5658 28.404 94.2538 28.7L97.0738 31.976V32.036L96.4858 32L95.8858 32.036C95.6778 31.764 95.4218 31.448 95.1178 31.088C94.8858 30.816 94.3778 30.232 93.5938 29.336C93.4818 29.208 93.4218 29.144 93.4138 29.144C93.4058 29.144 93.4018 29.292 93.4018 29.588V32.036L92.9218 32L92.4418 32.036V29.588C92.4498 29.372 92.4538 29.244 92.4538 29.204C92.4538 29.172 92.4458 29.156 92.4298 29.156C92.4138 29.156 92.3538 29.216 92.2498 29.336C91.4738 30.224 90.9698 30.804 90.7378 31.076C90.4018 31.476 90.1418 31.796 89.9578 32.036L89.3578 32L88.7698 32.036V31.976L91.5898 28.7C91.1018 28.236 90.5858 27.772 90.0418 27.308C89.6738 27.004 89.3098 26.696 88.9498 26.384V26.3L89.4178 26.336L89.8978 26.3L90.8338 27.332L91.5778 28.088C91.7218 28.232 91.8658 28.376 92.0098 28.52C92.2258 28.728 92.3498 28.82 92.3818 28.796C92.4138 28.772 92.4298 28.712 92.4298 28.616C92.4378 28.52 92.4418 28.448 92.4418 28.4V26.3ZM102.578 30.8L102.566 31.424C102.254 31.648 101.926 31.824 101.582 31.952C101.238 32.072 100.878 32.132 100.502 32.132C99.654 32.132 98.97 31.868 98.45 31.34C97.93 30.812 97.67 30.092 97.67 29.18C97.67 28.308 97.902 27.608 98.366 27.08C98.862 26.512 99.546 26.228 100.418 26.228C101.13 26.228 101.702 26.464 102.134 26.936C102.614 27.456 102.854 28.2 102.854 29.168L100.418 29.132H98.726C98.726 29.852 98.89 30.436 99.218 30.884C99.586 31.38 100.114 31.628 100.802 31.628C101.17 31.628 101.526 31.532 101.87 31.34C102.102 31.212 102.338 31.032 102.578 30.8ZM98.726 28.688H101.918C101.918 28.072 101.818 27.592 101.618 27.248C101.37 26.816 100.97 26.6 100.418 26.6C99.882 26.6 99.458 26.82 99.146 27.26C98.866 27.652 98.726 28.128 98.726 28.688ZM106.058 31.484L107.102 31.46V26.3C107.142 26.308 107.21 26.316 107.306 26.324C107.402 26.332 107.494 26.336 107.582 26.336C107.654 26.336 107.73 26.336 107.81 26.336C107.922 26.32 108.006 26.308 108.062 26.3V31.46L109.058 31.484L110.03 31.46V26.3C110.07 26.308 110.138 26.316 110.234 26.324C110.33 26.332 110.422 26.336 110.51 26.336C110.734 26.336 110.894 26.324 110.99 26.3V32H104.174V26.3C104.214 26.308 104.302 26.316 104.438 26.324C104.574 26.332 104.646 26.336 104.654 26.336C104.726 26.336 104.802 26.336 104.882 26.336C104.994 26.32 105.078 26.308 105.134 26.3V31.46L106.058 31.484ZM113.794 29.168V31.496C113.986 31.496 114.154 31.5 114.298 31.508C114.442 31.508 114.566 31.512 114.67 31.52C115.062 31.52 115.398 31.42 115.678 31.22C115.99 30.996 116.146 30.704 116.146 30.344C116.146 29.936 116.018 29.64 115.762 29.456C115.514 29.264 115.202 29.168 114.826 29.168H113.794ZM112.834 32V26.3C112.954 26.324 113.118 26.336 113.326 26.336C113.526 26.336 113.682 26.324 113.794 26.3V28.688H115.21C115.794 28.688 116.258 28.82 116.602 29.084C116.986 29.38 117.178 29.8 117.178 30.344C117.178 30.808 116.958 31.2 116.518 31.52C116.086 31.84 115.614 32 115.102 32H112.834ZM122.137 26.9C122.401 26.676 122.717 26.508 123.085 26.396C123.453 26.284 123.849 26.228 124.273 26.228C125.097 26.228 125.765 26.496 126.277 27.032C126.797 27.56 127.057 28.268 127.057 29.156C127.057 29.972 126.805 30.66 126.301 31.22C125.749 31.828 125.001 32.132 124.057 32.132C123.233 32.132 122.553 31.86 122.017 31.316C121.489 30.764 121.225 30.032 121.225 29.12C121.225 26.928 121.585 25.5 122.305 24.836C123.025 24.164 124.493 23.828 126.709 23.828L126.673 24.2L126.709 24.548C126.485 24.516 126.205 24.488 125.869 24.464C125.541 24.44 125.209 24.428 124.873 24.428C124.009 24.428 123.337 24.656 122.857 25.112C122.377 25.568 122.137 26.164 122.137 26.9ZM124.261 26.6C123.557 26.6 123.037 26.888 122.701 27.464C122.421 27.936 122.281 28.548 122.281 29.3C122.281 29.98 122.421 30.54 122.701 30.98C123.029 31.5 123.513 31.76 124.153 31.76C124.785 31.76 125.269 31.436 125.605 30.788C125.869 30.284 126.001 29.72 126.001 29.096C126.001 28.44 125.881 27.892 125.641 27.452C125.329 26.884 124.869 26.6 124.261 26.6ZM129.357 29.168V31.496C129.453 31.512 129.585 31.52 129.753 31.52C129.921 31.52 130.081 31.52 130.233 31.52C130.625 31.52 130.961 31.42 131.241 31.22C131.553 30.996 131.709 30.704 131.709 30.344C131.709 29.936 131.581 29.64 131.325 29.456C131.077 29.264 130.765 29.168 130.389 29.168H129.357ZM134.325 26.3V32.036L133.845 32L133.365 32.036V26.3L133.845 26.336L134.325 26.3ZM128.397 32V26.3L128.889 26.336L129.357 26.3V28.688H130.773C131.341 28.688 131.801 28.82 132.153 29.084C132.545 29.38 132.741 29.8 132.741 30.344C132.741 30.808 132.521 31.2 132.081 31.52C131.649 31.84 131.177 32 130.665 32H128.397ZM140.678 26.72L140.402 27.512H140.306C140.258 27.448 140.206 27.38 140.15 27.308C140.094 27.228 140.038 27.164 139.982 27.116C139.846 26.964 139.67 26.848 139.454 26.768C139.238 26.68 139.018 26.636 138.794 26.636C138.138 26.636 137.622 26.888 137.246 27.392C136.902 27.856 136.73 28.424 136.73 29.096C136.73 29.864 136.93 30.496 137.33 30.992C137.738 31.48 138.266 31.724 138.914 31.724C139.242 31.724 139.542 31.652 139.814 31.508C140.022 31.396 140.274 31.208 140.57 30.944L140.642 30.98L140.582 31.532C140.038 31.932 139.426 32.132 138.746 32.132C137.77 32.132 137.006 31.848 136.454 31.28C135.934 30.744 135.674 30.036 135.674 29.156C135.674 28.244 135.962 27.528 136.538 27.008C137.114 26.488 137.862 26.228 138.782 26.228C139.15 26.228 139.486 26.268 139.79 26.348C140.094 26.42 140.39 26.544 140.678 26.72ZM144.175 26.876V32.036L143.695 32L143.215 32.036V26.876C142.655 26.876 142.243 26.884 141.979 26.9C141.715 26.916 141.439 26.944 141.151 26.984L141.187 26.66L141.151 26.336H146.239L146.215 26.66L146.239 26.984C145.975 26.944 145.707 26.916 145.435 26.9C145.163 26.884 144.743 26.876 144.175 26.876ZM148.115 35.108L147.635 35.072L147.155 35.108V26.3L147.635 26.336L148.115 26.3V27.44C148.315 27.088 148.507 26.832 148.691 26.672C149.059 26.36 149.551 26.204 150.167 26.204C150.911 26.204 151.507 26.484 151.955 27.044C152.371 27.564 152.579 28.208 152.579 28.976C152.579 29.944 152.339 30.712 151.859 31.28C151.387 31.848 150.763 32.132 149.987 32.132C149.563 32.132 149.199 32.036 148.895 31.844C148.599 31.652 148.347 31.364 148.139 30.98L148.115 35.108ZM148.115 29.324C148.115 30.004 148.255 30.548 148.535 30.956C148.847 31.404 149.295 31.628 149.879 31.628C150.439 31.628 150.863 31.368 151.151 30.848C151.399 30.392 151.523 29.784 151.523 29.024C151.523 28.352 151.407 27.82 151.175 27.428C150.895 26.948 150.459 26.708 149.867 26.708C149.251 26.708 148.787 27.004 148.475 27.596C148.235 28.06 148.115 28.636 148.115 29.324ZM153.451 29.12C153.451 28.272 153.739 27.58 154.315 27.044C154.899 26.5 155.627 26.228 156.499 26.228C157.323 26.228 157.991 26.496 158.503 27.032C159.023 27.56 159.283 28.268 159.283 29.156C159.283 29.972 159.031 30.66 158.527 31.22C157.975 31.828 157.227 32.132 156.283 32.132C155.459 32.132 154.779 31.86 154.243 31.316C153.715 30.764 153.451 30.032 153.451 29.12ZM156.487 26.6C155.783 26.6 155.263 26.888 154.927 27.464C154.647 27.936 154.507 28.548 154.507 29.3C154.507 29.98 154.647 30.54 154.927 30.98C155.255 31.5 155.739 31.76 156.379 31.76C157.011 31.76 157.495 31.436 157.831 30.788C158.095 30.284 158.227 29.72 158.227 29.096C158.227 28.44 158.107 27.892 157.867 27.452C157.555 26.884 157.095 26.6 156.487 26.6ZM20.348 39.336L22.748 39.312V45.036L22.268 45L21.788 45.036V39.864H18.884V45.036L18.404 45L17.924 45.036V39.312L20.348 39.336ZM24.088 42.12C24.088 41.272 24.376 40.58 24.952 40.044C25.536 39.5 26.264 39.228 27.136 39.228C27.96 39.228 28.628 39.496 29.14 40.032C29.66 40.56 29.92 41.268 29.92 42.156C29.92 42.972 29.668 43.66 29.164 44.22C28.612 44.828 27.864 45.132 26.92 45.132C26.096 45.132 25.416 44.86 24.88 44.316C24.352 43.764 24.088 43.032 24.088 42.12ZM27.124 39.6C26.42 39.6 25.9 39.888 25.564 40.464C25.284 40.936 25.144 41.548 25.144 42.3C25.144 42.98 25.284 43.54 25.564 43.98C25.892 44.5 26.376 44.76 27.016 44.76C27.648 44.76 28.132 44.436 28.468 43.788C28.732 43.284 28.864 42.72 28.864 42.096C28.864 41.44 28.744 40.892 28.504 40.452C28.192 39.884 27.732 39.6 27.124 39.6ZM30.3719 44.46H30.8639C31.2559 43.62 31.6359 42.772 32.0039 41.916C32.4599 40.852 32.8039 39.984 33.0359 39.312L33.3959 39.348L33.7679 39.312C33.9679 39.848 34.2719 40.628 34.6799 41.652C35.0959 42.668 35.4879 43.604 35.8559 44.46H36.2999L36.2759 44.904C36.2759 44.976 36.2759 45.052 36.2759 45.132C36.2759 45.212 36.2839 45.284 36.2999 45.348H36.2159C36.0159 45.196 35.7719 45.1 35.4839 45.06C35.2039 45.02 34.7879 45 34.2359 45H32.4359C31.8519 45 31.4279 45.016 31.1639 45.048C30.9079 45.08 30.6759 45.18 30.4679 45.348H30.3719C30.3879 45.308 30.3959 45.236 30.3959 45.132C30.3959 45.036 30.3999 44.96 30.4079 44.904L30.3719 44.46ZM31.5719 44.46H34.8719C34.7119 43.964 34.4799 43.348 34.1759 42.612C33.8799 41.868 33.5759 41.14 33.2639 40.428H33.1799C33.1719 40.428 33.0799 40.644 32.9039 41.076C32.5839 41.852 32.3719 42.368 32.2679 42.624C32.0199 43.24 31.7879 43.852 31.5719 44.46ZM38.2439 39.3V41.4C38.2359 41.512 38.2319 41.592 38.2319 41.64C38.2319 41.72 38.2559 41.772 38.3039 41.796C38.3919 41.844 38.5239 41.804 38.6999 41.676C38.8279 41.588 39.0439 41.392 39.3479 41.088L40.0919 40.332L41.0279 39.3L41.5079 39.336L41.9759 39.3V39.384C41.4239 39.848 40.9439 40.26 40.5359 40.62C40.0479 41.044 39.6479 41.404 39.3359 41.7L42.1559 44.976V45.036L41.5679 45L40.9679 45.036C40.7599 44.764 40.5039 44.448 40.1999 44.088C39.9679 43.816 39.4599 43.232 38.6759 42.336C38.5639 42.208 38.4719 42.144 38.3999 42.144C38.2959 42.144 38.2439 42.292 38.2439 42.588V45.036L37.7639 45L37.2839 45.036V39.3L37.7639 39.336L38.2439 39.3ZM44.1959 42.456L43.2359 45.048L42.8519 45.012L42.4679 45.048C42.6039 44.768 42.8639 44.2 43.2479 43.344C43.5999 42.56 43.8999 41.872 44.1479 41.28C44.4999 40.44 44.7559 39.784 44.9159 39.312L45.2759 39.348L45.6479 39.312C45.9039 40 46.2519 40.888 46.6919 41.976C47.1799 43.184 47.6159 44.208 47.9999 45.048L47.4599 45.012L46.9319 45.048C46.5639 43.832 45.9679 42.292 45.1439 40.428C45.0399 40.532 44.8719 40.86 44.6399 41.412L44.1959 42.456ZM53.7893 39.6C53.0853 39.6 52.5653 39.888 52.2293 40.464C51.9493 40.936 51.8093 41.548 51.8093 42.3C51.8093 42.98 51.9493 43.54 52.2293 43.98C52.5573 44.5 53.0413 44.76 53.6813 44.76C54.3133 44.76 54.7973 44.436 55.1333 43.788C55.3973 43.284 55.5293 42.72 55.5293 42.096C55.5293 41.44 55.4093 40.892 55.1693 40.452C54.8573 39.884 54.3973 39.6 53.7893 39.6ZM53.5853 45.132C52.7773 45.132 52.1093 44.872 51.5813 44.352C51.0293 43.808 50.7533 43.112 50.7533 42.264L49.9973 42.252V45.036L49.5173 45L49.0373 45.036V39.3L49.5173 39.336L49.9973 39.3V41.712H50.7773C50.8733 40.968 51.2013 40.368 51.7613 39.912C52.3213 39.456 53.0013 39.228 53.8013 39.228C54.6253 39.228 55.2933 39.496 55.8053 40.032C56.3253 40.56 56.5853 41.268 56.5853 42.156C56.5853 42.972 56.3333 43.66 55.8293 44.22C55.2773 44.828 54.5293 45.132 53.5853 45.132ZM59.7678 42.276C60.0158 42.276 60.2718 42.228 60.5358 42.132C60.7998 42.028 61.0478 41.888 61.2798 41.712V39.3L61.7598 39.336L62.2398 39.3V45.036L61.7598 45L61.2798 45.036V42.252C61.0158 42.42 60.7118 42.56 60.3678 42.672C60.0238 42.776 59.7038 42.828 59.4078 42.828C58.9998 42.828 58.6318 42.744 58.3038 42.576C57.8398 42.336 57.6078 41.98 57.6078 41.508V39.3L58.0878 39.336L58.5678 39.3V41.472C58.5678 41.776 58.6958 41.992 58.9518 42.12C59.1518 42.224 59.4238 42.276 59.7678 42.276ZM65.1145 43.476C65.6345 42.916 66.2025 42.256 66.8185 41.496C67.4345 40.736 67.9945 40.004 68.4985 39.3H68.9785V45.036L68.4985 45L68.0185 45.036V40.86C67.4825 41.46 67.0905 41.908 66.8425 42.204C66.4745 42.636 66.0865 43.112 65.6785 43.632C65.2705 44.144 64.9225 44.612 64.6345 45.036H64.1545V39.3C64.1945 39.308 64.2825 39.316 64.4185 39.324C64.5545 39.332 64.6265 39.336 64.6345 39.336C64.7065 39.336 64.7825 39.336 64.8625 39.336C64.9745 39.32 65.0585 39.308 65.1145 39.3V43.476ZM73.0424 39.876V45.036L72.5624 45L72.0824 45.036V39.876C71.5224 39.876 71.1104 39.884 70.8464 39.9C70.5824 39.916 70.3064 39.944 70.0184 39.984L70.0544 39.66L70.0184 39.336H75.1064L75.0824 39.66L75.1064 39.984C74.8424 39.944 74.5744 39.916 74.3024 39.9C74.0304 39.884 73.6104 39.876 73.0424 39.876ZM77.1145 42.168V44.496C77.3065 44.496 77.4745 44.5 77.6185 44.508C77.7625 44.508 77.8865 44.512 77.9905 44.52C78.3825 44.52 78.7185 44.42 78.9985 44.22C79.3105 43.996 79.4665 43.704 79.4665 43.344C79.4665 42.936 79.3385 42.64 79.0825 42.456C78.8345 42.264 78.5225 42.168 78.1465 42.168H77.1145ZM76.1545 45V39.3C76.2745 39.324 76.4385 39.336 76.6465 39.336C76.8465 39.336 77.0025 39.324 77.1145 39.3V41.688H78.5305C79.1145 41.688 79.5785 41.82 79.9225 42.084C80.3065 42.38 80.4985 42.8 80.4985 43.344C80.4985 43.808 80.2785 44.2 79.8385 44.52C79.4065 44.84 78.9345 45 78.4225 45H76.1545ZM86.2092 39.72L85.9332 40.512H85.8372C85.7892 40.448 85.7372 40.38 85.6812 40.308C85.6252 40.228 85.5692 40.164 85.5132 40.116C85.3772 39.964 85.2012 39.848 84.9852 39.768C84.7692 39.68 84.5492 39.636 84.3252 39.636C83.6692 39.636 83.1532 39.888 82.7772 40.392C82.4332 40.856 82.2612 41.424 82.2612 42.096C82.2612 42.864 82.4612 43.496 82.8612 43.992C83.2692 44.48 83.7972 44.724 84.4452 44.724C84.7732 44.724 85.0732 44.652 85.3452 44.508C85.5532 44.396 85.8052 44.208 86.1012 43.944L86.1732 43.98L86.1132 44.532C85.5692 44.932 84.9572 45.132 84.2772 45.132C83.3012 45.132 82.5372 44.848 81.9852 44.28C81.4652 43.744 81.2052 43.036 81.2052 42.156C81.2052 41.244 81.4932 40.528 82.0692 40.008C82.6452 39.488 83.3932 39.228 84.3132 39.228C84.6812 39.228 85.0172 39.268 85.3212 39.348C85.6252 39.42 85.9212 39.544 86.2092 39.72ZM91.6385 39.336V45.036L91.1705 45L90.6785 45.036V42.648H89.8025L88.1105 45.036L87.5585 45L87.0065 45.036L88.8065 42.6C88.3825 42.528 88.0385 42.396 87.7745 42.204C87.3345 41.884 87.1145 41.424 87.1145 40.824C87.1145 40.392 87.2705 40.036 87.5825 39.756C87.8945 39.476 88.2705 39.336 88.7105 39.336H91.6385ZM90.6785 42.168V39.816L89.2745 39.804C88.9465 39.804 88.6665 39.912 88.4345 40.128C88.2105 40.336 88.0985 40.624 88.0985 40.992C88.0985 41.472 88.3345 41.804 88.8065 41.988C89.1185 42.108 89.5625 42.168 90.1385 42.168H90.6785ZM97.7863 42.216V44.532H99.0343C99.4263 44.532 99.7463 44.436 99.9943 44.244C100.25 44.044 100.378 43.772 100.378 43.428C100.378 42.996 100.266 42.688 100.042 42.504C99.8183 42.312 99.4823 42.216 99.0343 42.216H97.7863ZM97.7863 39.804V41.772H98.9143C99.2823 41.772 99.5663 41.688 99.7663 41.52C99.9663 41.352 100.066 41.096 100.066 40.752C100.066 40.424 99.9663 40.184 99.7663 40.032C99.5663 39.88 99.2983 39.804 98.9623 39.804H97.7863ZM96.8263 45V39.336H99.1303C99.7463 39.336 100.218 39.436 100.546 39.636C100.93 39.868 101.122 40.232 101.122 40.728C101.122 41.056 101.006 41.328 100.774 41.544C100.542 41.76 100.234 41.892 99.8503 41.94C100.37 42.028 100.746 42.156 100.978 42.324C101.306 42.564 101.47 42.932 101.47 43.428C101.47 43.932 101.258 44.328 100.834 44.616C100.45 44.88 99.9703 45.012 99.3943 45.012L96.8263 45ZM102.322 42.12C102.322 41.272 102.61 40.58 103.186 40.044C103.77 39.5 104.498 39.228 105.37 39.228C106.194 39.228 106.862 39.496 107.374 40.032C107.894 40.56 108.154 41.268 108.154 42.156C108.154 42.972 107.902 43.66 107.398 44.22C106.846 44.828 106.098 45.132 105.154 45.132C104.33 45.132 103.65 44.86 103.114 44.316C102.586 43.764 102.322 43.032 102.322 42.12ZM105.358 39.6C104.654 39.6 104.134 39.888 103.798 40.464C103.518 40.936 103.378 41.548 103.378 42.3C103.378 42.98 103.518 43.54 103.798 43.98C104.126 44.5 104.61 44.76 105.25 44.76C105.882 44.76 106.366 44.436 106.702 43.788C106.966 43.284 107.098 42.72 107.098 42.096C107.098 41.44 106.978 40.892 106.738 40.452C106.426 39.884 105.966 39.6 105.358 39.6ZM111.714 39.876V45.036L111.234 45L110.754 45.036V39.876C110.194 39.876 109.782 39.884 109.518 39.9C109.254 39.916 108.978 39.944 108.69 39.984L108.726 39.66L108.69 39.336H113.778L113.754 39.66L113.778 39.984C113.514 39.944 113.246 39.916 112.974 39.9C112.702 39.884 112.282 39.876 111.714 39.876ZM120.386 39.876V45.036L119.906 45L119.426 45.036V39.876C118.866 39.876 118.454 39.884 118.19 39.9C117.926 39.916 117.65 39.944 117.362 39.984L117.398 39.66L117.362 39.336H122.45L122.426 39.66L122.45 39.984C122.186 39.944 121.918 39.916 121.646 39.9C121.374 39.884 120.954 39.876 120.386 39.876ZM125.31 44.988L122.886 39.3L123.462 39.336L124.026 39.3C124.242 39.964 124.498 40.672 124.794 41.424C125.098 42.168 125.438 42.944 125.814 43.752C126.07 43.232 126.378 42.52 126.738 41.616C127.034 40.88 127.326 40.108 127.614 39.3L128.01 39.336L128.394 39.3C128.018 40.14 127.562 41.148 127.026 42.324C126.53 43.42 126.098 44.388 125.73 45.228C125.242 46.34 124.838 47.3 124.518 48.108L124.11 48.072L123.702 48.108L125.31 44.988ZM131.718 39.876V45.036L131.238 45L130.758 45.036V39.876C130.198 39.876 129.786 39.884 129.522 39.9C129.258 39.916 128.982 39.944 128.694 39.984L128.73 39.66L128.694 39.336H133.782L133.758 39.66L133.782 39.984C133.518 39.944 133.25 39.916 132.978 39.9C132.706 39.884 132.286 39.876 131.718 39.876ZM134.854 44.412C134.854 44.22 134.926 44.052 135.07 43.908C135.214 43.764 135.386 43.692 135.586 43.692C135.77 43.692 135.934 43.764 136.078 43.908C136.222 44.052 136.294 44.22 136.294 44.412C136.294 44.604 136.226 44.772 136.09 44.916C135.954 45.06 135.786 45.132 135.586 45.132C135.386 45.132 135.214 45.064 135.07 44.928C134.926 44.792 134.854 44.62 134.854 44.412ZM138.194 44.412C138.194 44.22 138.266 44.052 138.41 43.908C138.554 43.764 138.726 43.692 138.926 43.692C139.11 43.692 139.274 43.764 139.418 43.908C139.562 44.052 139.634 44.22 139.634 44.412C139.634 44.604 139.566 44.772 139.43 44.916C139.294 45.06 139.126 45.132 138.926 45.132C138.726 45.132 138.554 45.064 138.41 44.928C138.266 44.792 138.194 44.62 138.194 44.412ZM141.534 44.412C141.534 44.22 141.606 44.052 141.75 43.908C141.894 43.764 142.066 43.692 142.266 43.692C142.45 43.692 142.614 43.764 142.758 43.908C142.902 44.052 142.974 44.22 142.974 44.412C142.974 44.604 142.906 44.772 142.77 44.916C142.634 45.06 142.466 45.132 142.266 45.132C142.066 45.132 141.894 45.064 141.75 44.928C141.606 44.792 141.534 44.62 141.534 44.412Z" fill="black"/>
<path d="M21.312 15.265L21.277 15.706C21.0717 15.846 20.8337 15.9463 20.563 16.007C20.2923 16.0723 20.0147 16.105 19.73 16.105C18.9647 16.105 18.3627 15.8787 17.924 15.426C17.4853 14.9733 17.266 14.3643 17.266 13.599C17.266 12.8337 17.5203 12.2247 18.029 11.772C18.5143 11.3427 19.1397 11.128 19.905 11.128C20.1523 11.128 20.4043 11.156 20.661 11.212C20.9223 11.268 21.172 11.3473 21.41 11.45C21.382 11.52 21.354 11.6087 21.326 11.716C21.298 11.8187 21.277 11.9097 21.263 11.989L21.214 11.996C21.1627 11.9307 21.0717 11.8513 20.941 11.758C20.6003 11.5153 20.2457 11.394 19.877 11.394C19.261 11.394 18.7803 11.6157 18.435 12.059C18.113 12.4697 17.952 12.9923 17.952 13.627C17.952 14.2943 18.1247 14.8287 18.47 15.23C18.8153 15.6313 19.268 15.832 19.828 15.832C20.08 15.832 20.339 15.783 20.605 15.685C20.871 15.5823 21.1067 15.4423 21.312 15.265ZM21.9139 14.32C21.9139 13.8253 22.0819 13.4217 22.4179 13.109C22.7586 12.7917 23.1833 12.633 23.6919 12.633C24.1726 12.633 24.5623 12.7893 24.8609 13.102C25.1643 13.41 25.3159 13.823 25.3159 14.341C25.3159 14.817 25.1689 15.2183 24.8749 15.545C24.5529 15.8997 24.1166 16.077 23.5659 16.077C23.0853 16.077 22.6886 15.9183 22.3759 15.601C22.0679 15.279 21.9139 14.852 21.9139 14.32ZM23.6849 12.85C23.2743 12.85 22.9709 13.018 22.7749 13.354C22.6116 13.6293 22.5299 13.9863 22.5299 14.425C22.5299 14.8217 22.6116 15.1483 22.7749 15.405C22.9663 15.7083 23.2486 15.86 23.6219 15.86C23.9906 15.86 24.2729 15.671 24.4689 15.293C24.6229 14.999 24.6999 14.67 24.6999 14.306C24.6999 13.9233 24.6299 13.6037 24.4899 13.347C24.3079 13.0157 24.0396 12.85 23.6849 12.85ZM25.8036 14.32C25.8036 13.8253 25.9716 13.4217 26.3076 13.109C26.6483 12.7917 27.0729 12.633 27.5816 12.633C28.0623 12.633 28.4519 12.7893 28.7506 13.102C29.0539 13.41 29.2056 13.823 29.2056 14.341C29.2056 14.817 29.0586 15.2183 28.7646 15.545C28.4426 15.8997 28.0063 16.077 27.4556 16.077C26.9749 16.077 26.5783 15.9183 26.2656 15.601C25.9576 15.279 25.8036 14.852 25.8036 14.32ZM27.5746 12.85C27.1639 12.85 26.8606 13.018 26.6646 13.354C26.5013 13.6293 26.4196 13.9863 26.4196 14.425C26.4196 14.8217 26.5013 15.1483 26.6646 15.405C26.8559 15.7083 27.1383 15.86 27.5116 15.86C27.8803 15.86 28.1626 15.671 28.3586 15.293C28.5126 14.999 28.5896 14.67 28.5896 14.306C28.5896 13.9233 28.5196 13.6037 28.3796 13.347C28.1976 13.0157 27.9293 12.85 27.5746 12.85ZM30.2252 13.025C30.3792 12.8943 30.5636 12.7963 30.7782 12.731C30.9929 12.6657 31.2239 12.633 31.4712 12.633C31.9519 12.633 32.3416 12.7893 32.6402 13.102C32.9436 13.41 33.0952 13.823 33.0952 14.341C33.0952 14.817 32.9482 15.2183 32.6542 15.545C32.3322 15.8997 31.8959 16.077 31.3452 16.077C30.8646 16.077 30.4679 15.9183 30.1552 15.601C29.8472 15.279 29.6932 14.852 29.6932 14.32C29.6932 13.0413 29.9032 12.2083 30.3232 11.821C30.7432 11.429 31.5996 11.233 32.8922 11.233L32.8712 11.45L32.8922 11.653C32.7616 11.6343 32.5982 11.618 32.4022 11.604C32.2109 11.59 32.0172 11.583 31.8212 11.583C31.3172 11.583 30.9252 11.716 30.6452 11.982C30.3652 12.248 30.2252 12.5957 30.2252 13.025ZM31.4642 12.85C31.0536 12.85 30.7502 13.018 30.5542 13.354C30.3909 13.6293 30.3092 13.9863 30.3092 14.425C30.3092 14.8217 30.3909 15.1483 30.5542 15.405C30.7456 15.7083 31.0279 15.86 31.4012 15.86C31.7699 15.86 32.0522 15.671 32.2482 15.293C32.4022 14.999 32.4792 14.67 32.4792 14.306C32.4792 13.9233 32.4092 13.6037 32.2692 13.347C32.0872 13.0157 31.8189 12.85 31.4642 12.85ZM37.0059 16H33.8769V12.675L34.1569 12.696L34.4369 12.675V15.685L35.0039 15.692L35.5849 15.685V12.675C35.6502 12.689 35.7436 12.696 35.8649 12.696L36.1449 12.675V15.685L36.7259 15.692L37.2929 15.685V12.675L37.5729 12.696L37.8529 12.675V15.685H38.2099L38.1959 15.944L38.2099 16.203H38.1609C38.0442 16.1143 37.9019 16.0583 37.7339 16.035C37.5706 16.0117 37.3279 16 37.0059 16ZM41.4976 15.3L41.4906 15.664C41.3086 15.7947 41.1173 15.8973 40.9166 15.972C40.716 16.042 40.506 16.077 40.2866 16.077C39.792 16.077 39.393 15.923 39.0896 15.615C38.7863 15.307 38.6346 14.887 38.6346 14.355C38.6346 13.8463 38.77 13.438 39.0406 13.13C39.33 12.7987 39.729 12.633 40.2376 12.633C40.653 12.633 40.9866 12.7707 41.2386 13.046C41.5186 13.3493 41.6586 13.7833 41.6586 14.348L40.2376 14.327H39.2506C39.2506 14.747 39.3463 15.0877 39.5376 15.349C39.7523 15.6383 40.0603 15.783 40.4616 15.783C40.6763 15.783 40.884 15.727 41.0846 15.615C41.22 15.5403 41.3576 15.4353 41.4976 15.3ZM39.2506 14.068H41.1126C41.1126 13.7087 41.0543 13.4287 40.9376 13.228C40.793 12.976 40.5596 12.85 40.2376 12.85C39.925 12.85 39.6776 12.9783 39.4956 13.235C39.3323 13.4637 39.2506 13.7413 39.2506 14.068ZM43.8356 14.117C44.0223 14.117 44.1903 14.1147 44.3396 14.11C44.489 14.1007 44.6033 14.0913 44.6826 14.082V12.675L44.9626 12.696L45.2426 12.675V16.021L44.9626 16L44.6826 16.021V14.397L43.8356 14.376L42.9886 14.397V16.021L42.7086 16L42.4286 16.021V12.675L42.7086 12.696L42.9886 12.675V14.082C43.1146 14.0913 43.2686 14.1007 43.4506 14.11C43.6373 14.1147 43.7656 14.117 43.8356 14.117ZM46.8783 15.111C47.1816 14.7843 47.513 14.3993 47.8723 13.956C48.2316 13.5127 48.5583 13.0857 48.8523 12.675H49.1323V16.021L48.8523 16L48.5723 16.021V13.585C48.2596 13.935 48.031 14.1963 47.8863 14.369C47.6716 14.621 47.4453 14.8987 47.2073 15.202C46.9693 15.5007 46.7663 15.7737 46.5983 16.021H46.3183V12.675C46.3416 12.6797 46.393 12.6843 46.4723 12.689C46.5516 12.6937 46.5936 12.696 46.5983 12.696C46.6403 12.696 46.6846 12.696 46.7313 12.696C46.7966 12.6867 46.8456 12.6797 46.8783 12.675V15.111ZM52.6299 12.696V16.021L52.3569 16L52.0699 16.021V14.628H51.5589L50.5719 16.021L50.2499 16L49.9279 16.021L50.9779 14.6C50.7306 14.558 50.5299 14.481 50.3759 14.369C50.1193 14.1823 49.9909 13.914 49.9909 13.564C49.9909 13.312 50.0819 13.1043 50.2639 12.941C50.4459 12.7777 50.6653 12.696 50.9219 12.696H52.6299ZM52.0699 14.348V12.976L51.2509 12.969C51.0596 12.969 50.8963 13.032 50.7609 13.158C50.6303 13.2793 50.5649 13.4473 50.5649 13.662C50.5649 13.942 50.7026 14.1357 50.9779 14.243C51.1599 14.313 51.4189 14.348 51.7549 14.348H52.0699Z" fill="#616161"/>
<path d="M148.261 12.92L148.1 13.382H148.044C148.016 13.3447 147.985 13.305 147.953 13.263C147.92 13.2163 147.887 13.179 147.855 13.151C147.775 13.0623 147.673 12.9947 147.547 12.948C147.421 12.8967 147.292 12.871 147.162 12.871C146.779 12.871 146.478 13.018 146.259 13.312C146.058 13.5827 145.958 13.914 145.958 14.306C145.958 14.754 146.074 15.1227 146.308 15.412C146.546 15.6967 146.854 15.839 147.232 15.839C147.423 15.839 147.598 15.797 147.757 15.713C147.878 15.6477 148.025 15.538 148.198 15.384L148.24 15.405L148.205 15.727C147.887 15.9603 147.53 16.077 147.134 16.077C146.564 16.077 146.119 15.9113 145.797 15.58C145.493 15.2673 145.342 14.8543 145.342 14.341C145.342 13.809 145.51 13.3913 145.846 13.088C146.182 12.7847 146.618 12.633 147.155 12.633C147.369 12.633 147.565 12.6563 147.743 12.703C147.92 12.745 148.093 12.8173 148.261 12.92ZM151.575 15.3L151.568 15.664C151.386 15.7947 151.194 15.8973 150.994 15.972C150.793 16.042 150.583 16.077 150.364 16.077C149.869 16.077 149.47 15.923 149.167 15.615C148.863 15.307 148.712 14.887 148.712 14.355C148.712 13.8463 148.847 13.438 149.118 13.13C149.407 12.7987 149.806 12.633 150.315 12.633C150.73 12.633 151.064 12.7707 151.316 13.046C151.596 13.3493 151.736 13.7833 151.736 14.348L150.315 14.327H149.328C149.328 14.747 149.423 15.0877 149.615 15.349C149.829 15.6383 150.137 15.783 150.539 15.783C150.753 15.783 150.961 15.727 151.162 15.615C151.297 15.5403 151.435 15.4353 151.575 15.3ZM149.328 14.068H151.19C151.19 13.7087 151.131 13.4287 151.015 13.228C150.87 12.976 150.637 12.85 150.315 12.85C150.002 12.85 149.755 12.9783 149.573 13.235C149.409 13.4637 149.328 13.7413 149.328 14.068ZM153.066 12.997V16.021L152.786 16L152.506 16.021V12.696H154.732L154.718 12.885L154.732 13.074C154.596 13.0507 154.398 13.032 154.137 13.018C153.88 13.004 153.523 12.997 153.066 12.997ZM155.062 14.32C155.062 13.8253 155.23 13.4217 155.566 13.109C155.907 12.7917 156.332 12.633 156.84 12.633C157.321 12.633 157.711 12.7893 158.009 13.102C158.313 13.41 158.464 13.823 158.464 14.341C158.464 14.817 158.317 15.2183 158.023 15.545C157.701 15.8997 157.265 16.077 156.714 16.077C156.234 16.077 155.837 15.9183 155.524 15.601C155.216 15.279 155.062 14.852 155.062 14.32ZM156.833 12.85C156.423 12.85 156.119 13.018 155.923 13.354C155.76 13.6293 155.678 13.9863 155.678 14.425C155.678 14.8217 155.76 15.1483 155.923 15.405C156.115 15.7083 156.397 15.86 156.77 15.86C157.139 15.86 157.421 15.671 157.617 15.293C157.771 14.999 157.848 14.67 157.848 14.306C157.848 13.9233 157.778 13.6037 157.638 13.347C157.456 13.0157 157.188 12.85 156.833 12.85ZM158.728 15.685H159.015C159.244 15.195 159.465 14.7003 159.68 14.201C159.946 13.5803 160.147 13.074 160.282 12.682L160.492 12.703L160.709 12.682C160.826 12.9947 161.003 13.4497 161.241 14.047C161.484 14.6397 161.712 15.1857 161.927 15.685H162.186L162.172 15.944C162.172 15.986 162.172 16.0303 162.172 16.077C162.172 16.1237 162.177 16.1657 162.186 16.203H162.137C162.02 16.1143 161.878 16.0583 161.71 16.035C161.547 16.0117 161.304 16 160.982 16H159.932C159.591 16 159.344 16.0093 159.19 16.028C159.041 16.0467 158.905 16.105 158.784 16.203H158.728C158.737 16.1797 158.742 16.1377 158.742 16.077C158.742 16.021 158.744 15.9767 158.749 15.944L158.728 15.685ZM159.428 15.685H161.353C161.26 15.3957 161.124 15.0363 160.947 14.607C160.774 14.173 160.597 13.7483 160.415 13.333H160.366C160.361 13.333 160.308 13.459 160.205 13.711C160.018 14.1637 159.895 14.4647 159.834 14.614C159.689 14.9733 159.554 15.3303 159.428 15.685ZM164.153 14.117C164.34 14.117 164.508 14.1147 164.657 14.11C164.806 14.1007 164.921 14.0913 165 14.082V12.675L165.28 12.696L165.56 12.675V16.021L165.28 16L165 16.021V14.397L164.153 14.376L163.306 14.397V16.021L163.026 16L162.746 16.021V12.675L163.026 12.696L163.306 12.675V14.082C163.432 14.0913 163.586 14.1007 163.768 14.11C163.955 14.1147 164.083 14.117 164.153 14.117ZM169.058 12.696V16.021L168.785 16L168.498 16.021V14.628H167.987L167 16.021L166.678 16L166.356 16.021L167.406 14.6C167.158 14.558 166.958 14.481 166.804 14.369C166.547 14.1823 166.419 13.914 166.419 13.564C166.419 13.312 166.51 13.1043 166.692 12.941C166.874 12.7777 167.093 12.696 167.35 12.696H169.058ZM168.498 14.348V12.976L167.679 12.969C167.487 12.969 167.324 13.032 167.189 13.158C167.058 13.2793 166.993 13.4473 166.993 13.662C166.993 13.942 167.13 14.1357 167.406 14.243C167.588 14.313 167.847 14.348 168.183 14.348H168.498ZM169.919 17.127L170.409 15.573C170.451 15.447 170.483 15.363 170.507 15.321C170.567 15.223 170.642 15.174 170.731 15.174C170.805 15.174 170.871 15.1997 170.927 15.251C170.987 15.2977 171.018 15.3583 171.018 15.433C171.018 15.4937 171.001 15.559 170.969 15.629C170.959 15.6477 170.924 15.706 170.864 15.804L170.038 17.176L169.919 17.127ZM175.187 16.021V11.793L175.138 11.772L174.361 12.192C174.314 12.08 174.244 11.9937 174.151 11.933C174.431 11.821 174.681 11.7113 174.9 11.604C175.171 11.4733 175.413 11.3427 175.628 11.212L175.747 11.247V16.021L175.467 16L175.187 16.021ZM178.244 12.325L177.999 11.982C178.279 11.5387 178.682 11.317 179.21 11.317C179.634 11.317 179.968 11.4127 180.211 11.604C180.477 11.814 180.61 12.1267 180.61 12.542C180.61 12.8127 180.54 13.0787 180.4 13.34C180.288 13.5453 180.117 13.7693 179.889 14.012L179.056 14.901L178.629 15.349L178.51 15.482L178.545 15.559C178.703 15.559 178.96 15.5497 179.315 15.531C180.113 15.489 180.572 15.468 180.694 15.468L180.673 15.734L180.694 16H177.691V15.895L178.265 15.321L178.685 14.887C178.988 14.5743 179.198 14.348 179.315 14.208C179.529 13.9513 179.686 13.7087 179.784 13.48C179.905 13.1953 179.966 12.8873 179.966 12.556C179.966 12.248 179.905 12.01 179.784 11.842C179.648 11.6553 179.436 11.562 179.147 11.562C178.927 11.562 178.741 11.632 178.587 11.772C178.433 11.9073 178.335 12.0847 178.293 12.304L178.244 12.325ZM181.825 15.657C181.825 15.545 181.867 15.447 181.951 15.363C182.035 15.279 182.136 15.237 182.252 15.237C182.36 15.237 182.455 15.279 182.539 15.363C182.623 15.447 182.665 15.545 182.665 15.657C182.665 15.769 182.626 15.867 182.546 15.951C182.467 16.035 182.369 16.077 182.252 16.077C182.136 16.077 182.035 16.0373 181.951 15.958C181.867 15.8787 181.825 15.7783 181.825 15.657ZM181.825 13.13C181.825 13.018 181.867 12.92 181.951 12.836C182.035 12.752 182.136 12.71 182.252 12.71C182.36 12.71 182.455 12.752 182.539 12.836C182.623 12.92 182.665 13.018 182.665 13.13C182.665 13.242 182.626 13.34 182.546 13.424C182.467 13.508 182.369 13.55 182.252 13.55C182.136 13.55 182.035 13.5103 181.951 13.431C181.867 13.3517 181.825 13.2513 181.825 13.13ZM184.089 13.641V11.338L184.131 11.317H186.378L186.406 11.373C186.392 11.4383 186.38 11.5037 186.371 11.569C186.361 11.6297 186.357 11.6927 186.357 11.758C186.357 11.814 186.359 11.856 186.364 11.884C186.21 11.8513 186.056 11.8257 185.902 11.807C185.748 11.7837 185.587 11.772 185.419 11.772H184.383V13.333C184.495 13.277 184.616 13.235 184.747 13.207C184.877 13.179 185.006 13.165 185.132 13.165C185.519 13.165 185.843 13.2887 186.105 13.536C186.366 13.7833 186.497 14.103 186.497 14.495C186.497 14.9197 186.343 15.2837 186.035 15.587C185.703 15.9137 185.276 16.077 184.754 16.077C184.469 16.077 184.222 16.0443 184.012 15.979C183.881 15.937 183.755 15.8787 183.634 15.804L183.739 15.342L183.788 15.335C183.89 15.503 184.033 15.6313 184.215 15.72C184.397 15.804 184.593 15.846 184.803 15.846C185.129 15.846 185.388 15.7153 185.58 15.454C185.757 15.2113 185.846 14.9103 185.846 14.551C185.846 14.2103 185.771 13.949 185.622 13.767C185.454 13.5617 185.195 13.459 184.845 13.459C184.686 13.459 184.539 13.487 184.404 13.543C184.31 13.5803 184.226 13.6293 184.152 13.69L184.089 13.641ZM188.804 16.021V11.793L188.755 11.772L187.978 12.192C187.932 12.08 187.862 11.9937 187.768 11.933C188.048 11.821 188.298 11.7113 188.517 11.604C188.788 11.4733 189.031 11.3427 189.245 11.212L189.364 11.247V16.021L189.084 16L188.804 16.021Z" fill="#616161"/>
</g>
<defs>
<filter id="filter0_d_3_117" x="0.5" y="0.5" width="208" height="65" filterUnits="userSpaceOnUse" color-interpolation-filters="sRGB">
<feFlood flood-opacity="0" result="BackgroundImageFix"/>
<feColorMatrix in="SourceAlpha" type="matrix" values="0 0 0 0 0 0 0 0 0 0 0 0 0 0 0 0 0 0 127 0" result="hardAlpha"/>
<feOffset dy="4"/>
<feGaussianBlur stdDeviation="3.5"/>
<feComposite in2="hardAlpha" operator="out"/>
<feColorMatrix type="matrix" values="0 0 0 0 0 0 0 0 0 0 0 0 0 0 0 0 0 0 0.1 0"/>
<feBlend mode="normal" in2="BackgroundImageFix" result="effect1_dropShadow_3_117"/>
<feBlend mode="normal" in="SourceGraphic" in2="effect1_dropShadow_3_117" result="shape"/>
</filter>
<filter id="filter1_b_3_117" x="-6.5" y="-10.5" width="222" height="79" filterUnits="userSpaceOnUse" color-interpolation-filters="sRGB">
<feFlood flood-opacity="0" result="BackgroundImageFix"/>
<feGaussianBlur in="BackgroundImageFix" stdDeviation="7"/>
<feComposite in2="SourceAlpha" operator="in" result="effect1_backgroundBlur_3_117"/>
<feBlend mode="normal" in="SourceGraphic" in2="effect1_backgroundBlur_3_117" result="shape"/>
</filter>
</defs>
</svg>
